<?xml version="1.0" encoding="UTF-8" standalone="no"?><!DOCTYPE svg PUBLIC "-//W3C//DTD SVG 1.1//EN" "http://www.w3.org/Graphics/SVG/1.1/DTD/svg11.dtd"><svg width="100%" height="100%" viewBox="0 0 380 360" version="1.1" xmlns="http://www.w3.org/2000/svg" xmlns:xlink="http://www.w3.org/1999/xlink" xml:space="preserve" xmlns:serif="http://www.serif.com/" style="fill-rule:evenodd;clip-rule:evenodd;stroke-linejoin:round;stroke-miterlimit:1.41421;"><rect x="11" y="0" width="308.657" height="304.245" style="fill:#fff;fill-rule:nonzero;"/><rect x="11" y="0" width="308.657" height="23.159" style="fill:#d3d3d3;fill-rule:nonzero;"/><path d="M27.288,15.524c2.015,0 3.648,-1.633 3.648,-3.648c0,-2.014 -1.633,-3.647 -3.648,-3.647c-2.014,0 -3.647,1.633 -3.647,3.647c0,2.015 1.633,3.648 3.647,3.648Z" style="fill:#fd8369;fill-rule:nonzero;"/><path d="M39.036,15.524c2.015,0 3.648,-1.633 3.648,-3.648c0,-2.014 -1.633,-3.647 -3.648,-3.647c-2.014,0 -3.647,1.633 -3.647,3.647c0,2.015 1.633,3.648 3.647,3.648Z" style="fill:#fd8369;fill-rule:nonzero;"/><path d="M50.786,15.524c2.015,0 3.648,-1.633 3.648,-3.648c0,-2.014 -1.633,-3.647 -3.648,-3.647c-2.014,0 -3.647,1.633 -3.647,3.647c0,2.015 1.633,3.648 3.647,3.648Z" style="fill:#fd8369;fill-rule:nonzero;"/><path d="M34.4,45.407c-0.114,0.977 -0.476,1.733 -1.085,2.266c-0.605,0.529 -1.411,0.793 -2.418,0.793c-1.092,0 -1.968,-0.391 -2.628,-1.174c-0.656,-0.783 -0.984,-1.83 -0.984,-3.142l0,-0.889c0,-0.859 0.152,-1.614 0.457,-2.266c0.309,-0.651 0.745,-1.151 1.307,-1.498c0.563,-0.351 1.215,-0.527 1.955,-0.527c0.982,0 1.769,0.275 2.362,0.825c0.592,0.546 0.937,1.304 1.034,2.273l-1.225,0c-0.105,-0.736 -0.336,-1.27 -0.692,-1.6c-0.351,-0.33 -0.844,-0.495 -1.479,-0.495c-0.778,0 -1.39,0.288 -1.834,0.863c-0.44,0.576 -0.66,1.395 -0.66,2.457l0,0.895c0,1.003 0.209,1.801 0.628,2.393c0.419,0.593 1.005,0.889 1.759,0.889c0.677,0 1.195,-0.153 1.555,-0.457c0.364,-0.309 0.605,-0.844 0.723,-1.606l1.225,0Zm4.806,-2.882c-0.178,-0.03 -0.371,-0.044 -0.578,-0.044c-0.77,0 -1.293,0.328 -1.568,0.983l0,4.875l-1.174,0l0,-6.868l1.142,0l0.019,0.794c0.386,-0.614 0.931,-0.921 1.638,-0.921c0.229,0 0.402,0.03 0.521,0.089l0,1.092Zm3.808,5.941c-0.931,0 -1.688,-0.304 -2.272,-0.914c-0.584,-0.613 -0.876,-1.432 -0.876,-2.456l0,-0.216c0,-0.681 0.129,-1.289 0.387,-1.822c0.262,-0.537 0.626,-0.956 1.092,-1.257c0.47,-0.304 0.977,-0.457 1.523,-0.457c0.893,0 1.587,0.294 2.082,0.883c0.495,0.588 0.743,1.43 0.743,2.526l0,0.489l-4.653,0c0.017,0.677 0.214,1.225 0.59,1.644c0.381,0.415 0.864,0.622 1.448,0.622c0.414,0 0.766,-0.085 1.053,-0.254c0.288,-0.169 0.54,-0.394 0.756,-0.673l0.717,0.559c-0.576,0.884 -1.439,1.326 -2.59,1.326Zm-0.146,-6.157c-0.474,0 -0.872,0.174 -1.193,0.521c-0.322,0.343 -0.521,0.825 -0.597,1.447l3.441,0l0,-0.089c-0.034,-0.597 -0.195,-1.058 -0.483,-1.384c-0.288,-0.33 -0.677,-0.495 -1.168,-0.495Zm8.43,6.03c-0.068,-0.135 -0.123,-0.376 -0.165,-0.723c-0.546,0.567 -1.198,0.85 -1.955,0.85c-0.677,0 -1.234,-0.19 -1.67,-0.571c-0.431,-0.385 -0.647,-0.872 -0.647,-1.46c0,-0.715 0.271,-1.269 0.812,-1.663c0.546,-0.398 1.312,-0.597 2.298,-0.597l1.143,0l0,-0.539c0,-0.411 -0.123,-0.737 -0.368,-0.978c-0.246,-0.245 -0.608,-0.368 -1.086,-0.368c-0.419,0 -0.77,0.106 -1.054,0.317c-0.283,0.212 -0.425,0.468 -0.425,0.769l-1.181,0c0,-0.343 0.121,-0.673 0.362,-0.991c0.246,-0.321 0.576,-0.575 0.99,-0.761c0.419,-0.187 0.879,-0.28 1.378,-0.28c0.791,0 1.411,0.199 1.86,0.597c0.448,0.394 0.681,0.937 0.698,1.631l0,3.161c0,0.631 0.08,1.132 0.241,1.505l0,0.101l-1.231,0Zm-1.949,-0.895c0.368,0 0.717,-0.095 1.047,-0.285c0.331,-0.191 0.57,-0.438 0.718,-0.743l0,-1.409l-0.921,0c-1.438,0 -2.158,0.421 -2.158,1.263c0,0.368 0.123,0.656 0.368,0.863c0.246,0.208 0.561,0.311 0.946,0.311Zm6.373,-7.636l0,1.663l1.282,0l0,0.908l-1.282,0l0,4.259c0,0.275 0.057,0.483 0.172,0.622c0.114,0.136 0.308,0.204 0.583,0.204c0.136,0 0.322,-0.026 0.559,-0.077l0,0.953c-0.309,0.084 -0.609,0.126 -0.901,0.126c-0.525,0 -0.921,-0.158 -1.187,-0.476c-0.267,-0.317 -0.4,-0.768 -0.4,-1.352l0,-4.259l-1.251,0l0,-0.908l1.251,0l0,-1.663l1.174,0Zm5.51,8.658c-0.931,0 -1.689,-0.304 -2.273,-0.914c-0.584,-0.613 -0.876,-1.432 -0.876,-2.456l0,-0.216c0,-0.681 0.13,-1.289 0.388,-1.822c0.262,-0.537 0.626,-0.956 1.091,-1.257c0.47,-0.304 0.978,-0.457 1.524,-0.457c0.893,0 1.587,0.294 2.082,0.883c0.495,0.588 0.743,1.43 0.743,2.526l0,0.489l-4.653,0c0.017,0.677 0.213,1.225 0.59,1.644c0.381,0.415 0.863,0.622 1.447,0.622c0.415,0 0.766,-0.085 1.054,-0.254c0.288,-0.169 0.54,-0.394 0.755,-0.673l0.718,0.559c-0.576,0.884 -1.439,1.326 -2.59,1.326Zm-0.146,-6.157c-0.474,0 -0.872,0.174 -1.193,0.521c-0.322,0.343 -0.521,0.825 -0.597,1.447l3.44,0l0,-0.089c-0.034,-0.597 -0.194,-1.058 -0.482,-1.384c-0.288,-0.33 -0.677,-0.495 -1.168,-0.495Zm9.661,4.31l1.6,-5.148l1.256,0l-2.761,7.928c-0.427,1.143 -1.106,1.714 -2.037,1.714l-0.223,-0.019l-0.438,-0.082l0,-0.952l0.318,0.025c0.398,0 0.707,-0.08 0.927,-0.241c0.224,-0.161 0.408,-0.455 0.552,-0.883l0.26,-0.698l-2.45,-6.792l1.282,0l1.714,5.148Zm3.498,-1.777c0,-0.673 0.131,-1.278 0.393,-1.816c0.267,-0.537 0.635,-0.952 1.105,-1.244c0.474,-0.292 1.013,-0.438 1.618,-0.438c0.935,0 1.691,0.324 2.266,0.972c0.58,0.647 0.87,1.508 0.87,2.583l0,0.083c0,0.668 -0.129,1.269 -0.387,1.802c-0.254,0.529 -0.62,0.942 -1.098,1.238c-0.474,0.296 -1.02,0.444 -1.638,0.444c-0.931,0 -1.686,-0.323 -2.266,-0.971c-0.576,-0.647 -0.863,-1.504 -0.863,-2.571l0,-0.082Zm1.18,0.14c0,0.761 0.176,1.373 0.527,1.834c0.356,0.461 0.83,0.692 1.422,0.692c0.597,0 1.071,-0.233 1.422,-0.698c0.351,-0.47 0.527,-1.126 0.527,-1.968c0,-0.753 -0.18,-1.363 -0.54,-1.828c-0.355,-0.47 -0.829,-0.705 -1.422,-0.705c-0.579,0 -1.047,0.231 -1.403,0.692c-0.355,0.461 -0.533,1.122 -0.533,1.981Zm10.785,2.678c-0.457,0.538 -1.128,0.806 -2.012,0.806c-0.732,0 -1.291,-0.211 -1.676,-0.634c-0.381,-0.428 -0.573,-1.058 -0.578,-1.892l0,-4.469l1.175,0l0,4.437c0,1.041 0.423,1.562 1.269,1.562c0.897,0 1.494,-0.334 1.79,-1.003l0,-4.996l1.174,0l0,6.869l-1.117,0l-0.025,-0.68Zm6.252,-5.135c-0.177,-0.03 -0.37,-0.044 -0.577,-0.044c-0.77,0 -1.293,0.328 -1.568,0.984l0,4.875l-1.174,0l0,-6.869l1.142,0l0.019,0.794c0.385,-0.614 0.931,-0.921 1.638,-0.921c0.228,0 0.402,0.03 0.52,0.089l0,1.092Zm5.415,-1.054l0.032,0.762c0.503,-0.592 1.182,-0.889 2.037,-0.889c0.961,0 1.615,0.369 1.962,1.105c0.228,-0.33 0.524,-0.597 0.888,-0.8c0.369,-0.203 0.802,-0.305 1.302,-0.305c1.506,0 2.272,0.798 2.298,2.393l0,4.603l-1.175,0l0,-4.533c0,-0.491 -0.112,-0.857 -0.336,-1.098c-0.225,-0.245 -0.601,-0.368 -1.13,-0.368c-0.436,0 -0.798,0.131 -1.086,0.394c-0.287,0.258 -0.454,0.607 -0.501,1.047l0,4.558l-1.181,0l0,-4.501c0,-0.999 -0.488,-1.498 -1.466,-1.498c-0.77,0 -1.297,0.328 -1.581,0.984l0,5.015l-1.174,0l0,-6.869l1.111,0Zm13.146,6.995c-0.931,0 -1.689,-0.304 -2.273,-0.914c-0.583,-0.613 -0.875,-1.432 -0.875,-2.456l0,-0.216c0,-0.681 0.129,-1.289 0.387,-1.822c0.262,-0.537 0.626,-0.956 1.092,-1.257c0.469,-0.304 0.977,-0.457 1.523,-0.457c0.893,0 1.587,0.295 2.082,0.883c0.495,0.588 0.743,1.43 0.743,2.526l0,0.489l-4.653,0c0.017,0.677 0.214,1.225 0.59,1.644c0.381,0.415 0.863,0.622 1.447,0.622c0.415,0 0.766,-0.085 1.054,-0.254c0.288,-0.169 0.54,-0.393 0.756,-0.673l0.717,0.559c-0.576,0.884 -1.439,1.326 -2.59,1.326Zm-0.146,-6.157c-0.474,0 -0.872,0.174 -1.193,0.521c-0.322,0.343 -0.521,0.825 -0.597,1.447l3.44,0l0,-0.089c-0.034,-0.597 -0.194,-1.058 -0.482,-1.384c-0.288,-0.33 -0.677,-0.495 -1.168,-0.495Zm7.04,6.157c-0.931,0 -1.689,-0.304 -2.273,-0.914c-0.584,-0.613 -0.876,-1.432 -0.876,-2.456l0,-0.216c0,-0.681 0.129,-1.289 0.387,-1.822c0.263,-0.537 0.627,-0.956 1.092,-1.257c0.47,-0.304 0.978,-0.457 1.524,-0.457c0.892,0 1.586,0.295 2.082,0.883c0.495,0.588 0.742,1.43 0.742,2.526l0,0.489l-4.653,0c0.017,0.677 0.214,1.225 0.591,1.644c0.381,0.415 0.863,0.622 1.447,0.622c0.415,0 0.766,-0.085 1.054,-0.254c0.287,-0.169 0.539,-0.393 0.755,-0.673l0.717,0.559c-0.575,0.884 -1.438,1.326 -2.589,1.326Zm-0.146,-6.157c-0.474,0 -0.872,0.174 -1.194,0.521c-0.321,0.343 -0.52,0.825 -0.597,1.447l3.441,0l0,-0.089c-0.034,-0.597 -0.195,-1.058 -0.483,-1.384c-0.287,-0.33 -0.677,-0.495 -1.167,-0.495Zm5.782,-2.501l0,1.663l1.282,0l0,0.908l-1.282,0l0,4.259c0,0.275 0.057,0.483 0.172,0.622c0.114,0.136 0.309,0.204 0.584,0.204c0.135,0 0.321,-0.026 0.558,-0.077l0,0.953c-0.309,0.084 -0.609,0.126 -0.901,0.126c-0.525,0 -0.921,-0.158 -1.187,-0.476c-0.267,-0.317 -0.4,-0.768 -0.4,-1.352l0,-4.259l-1.251,0l0,-0.908l1.251,0l0,-1.663l1.174,0Zm3.936,8.532l-1.175,0l0,-6.869l1.175,0l0,6.869Zm-1.27,-8.69c0,-0.191 0.057,-0.352 0.172,-0.483c0.118,-0.131 0.292,-0.197 0.52,-0.197c0.229,0 0.402,0.066 0.521,0.197c0.118,0.131 0.177,0.292 0.177,0.483c0,0.19 -0.059,0.349 -0.177,0.476c-0.119,0.127 -0.292,0.19 -0.521,0.19c-0.228,0 -0.402,-0.063 -0.52,-0.19c-0.115,-0.127 -0.172,-0.286 -0.172,-0.476Zm4.266,1.821l0.038,0.864c0.525,-0.661 1.21,-0.991 2.057,-0.991c1.451,0 2.183,0.819 2.196,2.457l0,4.539l-1.174,0l0,-4.545c-0.005,-0.496 -0.119,-0.862 -0.343,-1.099c-0.22,-0.237 -0.565,-0.355 -1.035,-0.355c-0.381,0 -0.715,0.102 -1.003,0.305c-0.288,0.203 -0.512,0.469 -0.673,0.799l0,4.895l-1.174,0l0,-6.869l1.111,0Zm5.783,3.377c0,-1.07 0.247,-1.921 0.742,-2.551c0.495,-0.635 1.151,-0.953 1.968,-0.953c0.838,0 1.492,0.297 1.961,0.889l0.058,-0.762l1.072,0l0,6.703c0,0.889 -0.264,1.59 -0.793,2.102c-0.525,0.512 -1.232,0.768 -2.12,0.768c-0.495,0 -0.98,-0.106 -1.454,-0.318c-0.474,-0.211 -0.836,-0.501 -1.085,-0.869l0.609,-0.705c0.504,0.622 1.119,0.933 1.847,0.933c0.572,0 1.016,-0.161 1.333,-0.482c0.322,-0.322 0.483,-0.775 0.483,-1.359l0,-0.59c-0.47,0.542 -1.111,0.812 -1.924,0.812c-0.804,0 -1.455,-0.323 -1.955,-0.971c-0.495,-0.647 -0.742,-1.529 -0.742,-2.647Zm1.18,0.134c0,0.774 0.159,1.383 0.476,1.828c0.318,0.44 0.762,0.66 1.333,0.66c0.741,0 1.285,-0.337 1.632,-1.009l0,-3.136c-0.36,-0.656 -0.9,-0.984 -1.619,-0.984c-0.571,0 -1.018,0.222 -1.339,0.666c-0.322,0.445 -0.483,1.103 -0.483,1.975Z" style="fill:#6b6b6b;fill-rule:nonzero;"/><rect x="27.666" y="60.187" width="109.018" height="7.949" style="fill:#74d5de;fill-rule:nonzero;"/><rect x="27.666" y="76.086" width="109.018" height="7.949" style="fill:#74d5de;fill-rule:nonzero;"/><rect x="27.666" y="122.646" width="109.018" height="7.949" style="fill:#74d5de;fill-rule:nonzero;"/><rect x="27.666" y="138.544" width="109.018" height="7.949" style="fill:#74d5de;fill-rule:nonzero;"/><rect x="27.666" y="185.104" width="224.85" height="43.153" style="fill:#cdeaed;fill-rule:nonzero;"/><rect x="39.404" y="195.325" width="193.593" height="6.747" style="fill:#74d5de;fill-rule:nonzero;"/><rect x="39.404" y="211.414" width="54.497" height="6.747" style="fill:#74d5de;fill-rule:nonzero;"/><rect x="27.666" y="245.291" width="224.734" height="43.153" style="fill:#cdeaed;fill-rule:nonzero;"/><rect x="39.603" y="255.059" width="193.594" height="6.747" style="fill:#74d5de;fill-rule:nonzero;"/><rect x="39.603" y="271.149" width="54.497" height="6.747" style="fill:#74d5de;fill-rule:nonzero;"/><path d="M29.176,102.691l3.022,7.541l3.021,-7.541l1.581,0l0,9.242l-1.219,0l0,-3.599l0.114,-3.884l-3.034,7.483l-0.933,0l-3.028,-7.464l0.121,3.865l0,3.599l-1.219,0l0,-9.242l1.574,0Zm12.442,9.369c-0.931,0 -1.689,-0.304 -2.273,-0.914c-0.584,-0.613 -0.876,-1.432 -0.876,-2.456l0,-0.216c0,-0.681 0.129,-1.289 0.387,-1.822c0.263,-0.537 0.627,-0.956 1.092,-1.257c0.47,-0.304 0.978,-0.457 1.524,-0.457c0.893,0 1.587,0.294 2.082,0.883c0.495,0.588 0.742,1.43 0.742,2.526l0,0.489l-4.652,0c0.017,0.677 0.213,1.225 0.59,1.644c0.381,0.415 0.863,0.622 1.447,0.622c0.415,0 0.766,-0.085 1.054,-0.254c0.288,-0.169 0.539,-0.394 0.755,-0.673l0.717,0.559c-0.575,0.884 -1.438,1.326 -2.589,1.326Zm-0.146,-6.157c-0.474,0 -0.872,0.174 -1.194,0.521c-0.321,0.342 -0.52,0.825 -0.596,1.447l3.44,0l0,-0.089c-0.034,-0.597 -0.195,-1.058 -0.482,-1.384c-0.288,-0.33 -0.677,-0.495 -1.168,-0.495Zm5.294,-0.838l0.031,0.762c0.504,-0.592 1.183,-0.889 2.038,-0.889c0.961,0 1.614,0.369 1.961,1.105c0.229,-0.33 0.525,-0.597 0.889,-0.8c0.368,-0.203 0.802,-0.305 1.301,-0.305c1.507,0 2.273,0.798 2.298,2.393l0,4.602l-1.174,0l0,-4.532c0,-0.491 -0.112,-0.857 -0.337,-1.098c-0.224,-0.245 -0.601,-0.368 -1.129,-0.368c-0.436,0 -0.798,0.131 -1.086,0.393c-0.288,0.259 -0.455,0.608 -0.501,1.048l0,4.557l-1.181,0l0,-4.5c0,-0.999 -0.489,-1.498 -1.466,-1.498c-0.771,0 -1.297,0.328 -1.581,0.984l0,5.014l-1.174,0l0,-6.868l1.111,0Zm16.11,3.511c0,1.049 -0.241,1.893 -0.724,2.532c-0.482,0.635 -1.13,0.952 -1.942,0.952c-0.868,0 -1.538,-0.306 -2.012,-0.92l-0.057,0.793l-1.08,0l0,-9.75l1.175,0l0,3.638c0.474,-0.589 1.128,-0.883 1.961,-0.883c0.834,0 1.488,0.316 1.962,0.946c0.478,0.631 0.717,1.494 0.717,2.59l0,0.102Zm-1.174,-0.134c0,-0.8 -0.155,-1.417 -0.464,-1.853c-0.309,-0.436 -0.753,-0.654 -1.333,-0.654c-0.774,0 -1.331,0.36 -1.669,1.079l0,2.971c0.359,0.719 0.92,1.079 1.682,1.079c0.563,0 1.001,-0.218 1.314,-0.654c0.313,-0.436 0.47,-1.092 0.47,-1.968Zm5.509,3.618c-0.931,0 -1.688,-0.304 -2.272,-0.914c-0.584,-0.613 -0.876,-1.432 -0.876,-2.456l0,-0.216c0,-0.681 0.129,-1.289 0.387,-1.822c0.263,-0.537 0.626,-0.956 1.092,-1.257c0.47,-0.304 0.977,-0.457 1.523,-0.457c0.893,0 1.587,0.294 2.082,0.883c0.496,0.588 0.743,1.43 0.743,2.526l0,0.489l-4.653,0c0.017,0.677 0.214,1.225 0.591,1.644c0.381,0.415 0.863,0.622 1.447,0.622c0.415,0 0.766,-0.085 1.054,-0.254c0.287,-0.169 0.539,-0.394 0.755,-0.673l0.717,0.559c-0.575,0.884 -1.438,1.326 -2.59,1.326Zm-0.146,-6.157c-0.473,0 -0.871,0.174 -1.193,0.521c-0.321,0.342 -0.52,0.825 -0.597,1.447l3.441,0l0,-0.089c-0.034,-0.597 -0.195,-1.058 -0.483,-1.384c-0.287,-0.33 -0.677,-0.495 -1.168,-0.495Zm7.51,0.216c-0.178,-0.03 -0.371,-0.044 -0.578,-0.044c-0.77,0 -1.293,0.328 -1.568,0.983l0,4.875l-1.174,0l0,-6.868l1.143,0l0.019,0.794c0.385,-0.614 0.931,-0.921 1.637,-0.921c0.229,0 0.402,0.03 0.521,0.089l0,1.092Zm5.084,3.993c0,-0.318 -0.12,-0.563 -0.362,-0.737c-0.237,-0.177 -0.653,-0.33 -1.25,-0.457c-0.593,-0.127 -1.064,-0.279 -1.416,-0.457c-0.347,-0.177 -0.605,-0.389 -0.774,-0.634c-0.165,-0.246 -0.248,-0.538 -0.248,-0.876c0,-0.563 0.237,-1.039 0.711,-1.429c0.479,-0.389 1.088,-0.584 1.828,-0.584c0.779,0 1.41,0.201 1.892,0.603c0.487,0.402 0.73,0.917 0.73,1.543l-1.181,0c0,-0.322 -0.137,-0.599 -0.412,-0.832c-0.271,-0.232 -0.614,-0.349 -1.029,-0.349c-0.427,0 -0.761,0.093 -1.002,0.279c-0.242,0.187 -0.362,0.43 -0.362,0.73c0,0.284 0.112,0.498 0.336,0.642c0.224,0.143 0.629,0.281 1.213,0.412c0.588,0.131 1.064,0.288 1.428,0.47c0.364,0.182 0.632,0.402 0.806,0.66c0.178,0.254 0.267,0.565 0.267,0.933c0,0.614 -0.246,1.107 -0.737,1.479c-0.491,0.368 -1.128,0.552 -1.91,0.552c-0.551,0 -1.037,-0.097 -1.46,-0.292c-0.424,-0.194 -0.756,-0.465 -0.997,-0.812c-0.237,-0.351 -0.355,-0.73 -0.355,-1.136l1.174,0c0.021,0.393 0.178,0.706 0.47,0.939c0.296,0.229 0.685,0.343 1.168,0.343c0.444,0 0.799,-0.089 1.066,-0.267c0.271,-0.182 0.406,-0.423 0.406,-0.723Z" style="fill:#6b6b6b;fill-rule:nonzero;"/><path d="M33.842,170.844l-3.872,0l-0.869,2.412l-1.257,0l3.529,-9.242l1.067,0l3.535,9.242l-1.25,0l-0.883,-2.412Zm-3.504,-1.003l3.143,0l-1.575,-4.322l-1.568,4.322Zm6.418,-0.076c0,-1.071 0.247,-1.921 0.743,-2.552c0.495,-0.634 1.151,-0.952 1.967,-0.952c0.838,0 1.492,0.296 1.962,0.889l0.057,-0.762l1.073,0l0,6.703c0,0.889 -0.265,1.589 -0.794,2.101c-0.525,0.512 -1.231,0.768 -2.12,0.768c-0.495,0 -0.98,-0.105 -1.454,-0.317c-0.473,-0.212 -0.835,-0.501 -1.085,-0.87l0.609,-0.704c0.504,0.622 1.12,0.933 1.848,0.933c0.571,0 1.015,-0.161 1.333,-0.482c0.321,-0.322 0.482,-0.775 0.482,-1.359l0,-0.59c-0.47,0.541 -1.111,0.812 -1.923,0.812c-0.804,0 -1.456,-0.323 -1.955,-0.971c-0.496,-0.647 -0.743,-1.53 -0.743,-2.647Zm1.181,0.133c0,0.775 0.158,1.384 0.476,1.829c0.317,0.44 0.761,0.66 1.333,0.66c0.74,0 1.284,-0.337 1.631,-1.01l0,-3.135c-0.36,-0.656 -0.899,-0.984 -1.619,-0.984c-0.571,0 -1.017,0.222 -1.339,0.666c-0.322,0.445 -0.482,1.103 -0.482,1.974Zm9.248,3.485c-0.931,0 -1.688,-0.304 -2.272,-0.914c-0.584,-0.613 -0.876,-1.432 -0.876,-2.456l0,-0.216c0,-0.681 0.129,-1.289 0.387,-1.822c0.262,-0.537 0.626,-0.956 1.092,-1.257c0.469,-0.304 0.977,-0.457 1.523,-0.457c0.893,0 1.587,0.294 2.082,0.883c0.495,0.588 0.743,1.43 0.743,2.526l0,0.489l-4.653,0c0.017,0.677 0.214,1.225 0.59,1.644c0.381,0.414 0.864,0.622 1.447,0.622c0.415,0 0.766,-0.085 1.054,-0.254c0.288,-0.169 0.54,-0.394 0.756,-0.673l0.717,0.559c-0.576,0.884 -1.439,1.326 -2.59,1.326Zm-0.146,-6.157c-0.474,0 -0.872,0.174 -1.193,0.521c-0.322,0.342 -0.521,0.825 -0.597,1.447l3.441,0l-0.001,-0.089c-0.033,-0.597 -0.194,-1.058 -0.482,-1.384c-0.288,-0.33 -0.677,-0.495 -1.168,-0.495Zm5.3,-0.838l0.038,0.863c0.525,-0.66 1.211,-0.99 2.057,-0.99c1.452,0 2.184,0.819 2.196,2.457l0,4.538l-1.174,0l0,-4.545c-0.004,-0.495 -0.118,-0.861 -0.343,-1.098c-0.22,-0.237 -0.565,-0.355 -1.034,-0.355c-0.381,0 -0.716,0.101 -1.003,0.304c-0.288,0.204 -0.512,0.47 -0.673,0.8l0,4.894l-1.175,0l0,-6.868l1.111,0Zm5.777,3.377c0,-1.054 0.249,-1.9 0.749,-2.539c0.499,-0.643 1.153,-0.965 1.961,-0.965c0.804,0 1.441,0.275 1.911,0.825l0,-3.58l1.174,0l0,9.75l-1.079,0l-0.057,-0.736c-0.47,0.576 -1.124,0.863 -1.962,0.863c-0.795,0 -1.445,-0.326 -1.948,-0.977c-0.5,-0.652 -0.749,-1.503 -0.749,-2.552l0,-0.089Zm1.174,0.133c0,0.779 0.161,1.388 0.483,1.829c0.321,0.44 0.765,0.66 1.333,0.66c0.744,0 1.288,-0.335 1.631,-1.003l0,-3.155c-0.351,-0.647 -0.891,-0.971 -1.619,-0.971c-0.575,0 -1.024,0.222 -1.345,0.666c-0.322,0.445 -0.483,1.103 -0.483,1.974Zm10.69,3.358c-0.068,-0.135 -0.123,-0.376 -0.165,-0.723c-0.546,0.567 -1.198,0.85 -1.956,0.85c-0.677,0 -1.233,-0.19 -1.669,-0.571c-0.432,-0.385 -0.647,-0.872 -0.647,-1.46c0,-0.715 0.27,-1.269 0.812,-1.663c0.546,-0.398 1.312,-0.597 2.298,-0.597l1.142,0l0,-0.539c0,-0.411 -0.122,-0.737 -0.368,-0.978c-0.245,-0.245 -0.607,-0.368 -1.085,-0.368c-0.419,0 -0.77,0.106 -1.054,0.317c-0.283,0.212 -0.425,0.468 -0.425,0.768l-1.181,0c0,-0.342 0.121,-0.672 0.362,-0.99c0.245,-0.321 0.576,-0.575 0.99,-0.761c0.419,-0.187 0.878,-0.28 1.378,-0.28c0.791,0 1.411,0.199 1.86,0.597c0.448,0.393 0.681,0.937 0.698,1.631l0,3.161c0,0.631 0.08,1.132 0.241,1.505l0,0.101l-1.231,0Zm-1.949,-0.895c0.368,0 0.717,-0.095 1.047,-0.285c0.33,-0.191 0.569,-0.438 0.717,-0.743l0,-1.409l-0.92,0c-1.439,0 -2.158,0.421 -2.158,1.263c0,0.368 0.123,0.656 0.368,0.863c0.245,0.208 0.561,0.311 0.946,0.311Z" style="fill:#6b6b6b;fill-rule:nonzero;"/><path d="M86.891,174.227c0.118,-0.119 0.311,-0.12 0.43,-0.001c0.119,0.118 0.12,0.311 0.001,0.43l-1.527,1.529c-0.118,0.119 -0.312,0.12 -0.431,0.001c-0.059,-0.06 -0.089,-0.138 -0.089,-0.216l-0.002,0l0,-4.889c0,-0.115 0.064,-0.215 0.158,-0.268l10.976,-7.317c0.139,-0.094 0.329,-0.057 0.422,0.083c0.094,0.14 0.056,0.329 -0.083,0.423l-10.861,7.242l0,3.99l1.005,-1.007Z" style="fill:#6b6b6b;fill-rule:nonzero;"/><path d="M86.586,172.517c-0.118,-0.119 -0.118,-0.313 0.001,-0.431c0.119,-0.118 0.313,-0.118 0.431,0.001l3.408,3.409l9.511,-13.674l0,-0.111l-18.053,5.242l3.912,3.912c0.118,0.119 0.118,0.313 -0.001,0.432c-0.118,0.119 -0.313,0.119 -0.432,0l-4.275,-4.276l0.001,-0.001c-0.035,-0.036 -0.062,-0.079 -0.077,-0.13c-0.046,-0.162 0.046,-0.331 0.207,-0.378l18.913,-5.492c0.035,-0.012 0.071,-0.02 0.111,-0.02c0.169,0 0.305,0.137 0.305,0.305l0,0.611c0,0.061 -0.018,0.122 -0.055,0.175l-9.775,14.052l0,0c-0.01,0.014 -0.022,0.029 -0.036,0.042c-0.119,0.118 -0.312,0.118 -0.431,-0.001l-3.665,-3.667Z" style="fill:#6b6b6b;fill-rule:nonzero;"/><rect x="286.957" y="304.383" width="5.715" height="8.665" style="fill:#de8e68;fill-rule:nonzero;"/><rect x="354.299" y="340.986" width="5.714" height="8.665" style="fill:#de8e68;fill-rule:nonzero;"/><path d="M328.901,224.192c-6.91,0 -37.761,30.664 -40.45,35.819c-2.689,5.154 -1.905,45.53 -1.905,45.53l6.648,1.27l10.795,-37.612c4.706,-0.56 24.501,-4.818 34.735,-13.073c10.234,-8.292 -0.971,-26.78 -0.971,-26.78l-8.852,-5.154Z" style="fill:#6fc9ce;fill-rule:nonzero;"/><path d="M317.36,182.546c-3.399,3.025 -10.197,10.607 -10.757,11.578c-1.718,-0.821 -19.609,-10.234 -20.953,-10.831c-1.345,-0.598 -4.184,-5.341 -5.155,-5.341c-0.56,0 -1.083,1.083 -1.083,1.83c0,1.27 0.598,2.241 0.971,2.652c-1.27,-0.187 -12.475,-1.046 -12.475,-0.299c0,1.942 12.55,4.519 13.521,5.042c0.971,0.523 21.402,19.422 28.498,19.422c2.764,0 14.978,-8.291 14.978,-9.188c1.158,-0.784 2.951,-1.942 2.951,-1.942l0,-6.574l-4.258,-3.1c0,-0.037 -5.566,-3.847 -6.238,-3.249Z" style="fill:#de8e68;fill-rule:nonzero;"/><path d="M316.912,180.38c0.747,-6.051 14.679,-19.796 21.066,-13.671c5.565,5.342 -4.519,24.428 -7.096,25.175c-2.914,0.298 -14.156,-7.396 -13.97,-11.504Z" style="fill:#febf92;fill-rule:nonzero;"/><path d="M359.417,167.792c7.096,-2.988 17.032,13.446 15.911,19.423c0,2.614 -14.567,8.217 -16.808,6.723c-2.241,-1.494 -6.2,-23.158 0.897,-26.146Z" style="fill:#fed892;fill-rule:nonzero;"/><path d="M330.807,226.843l23.456,114.106l6.013,0l2.129,-101.78c0,-1.755 -0.149,-12.811 -0.149,-14.23c-6.798,1.979 -21.29,3.548 -31.449,1.904Z" style="fill:#74d5de;fill-rule:nonzero;"/><path d="M354.299,349.651l5.715,0l0,6.201l-15.762,0l10.047,-6.201Z" style="fill-rule:nonzero;"/><path d="M286.957,313.048l5.715,0l0,6.2l-15.762,0l10.047,-6.2Z" style="fill-rule:nonzero;"/><rect x="252.631" y="319.248" width="68.015" height="39.816" style="fill:#fd8369;fill-rule:nonzero;"/><path d="M343.879,159.015c17.555,0 23.68,14.604 23.68,19.348c0,4.743 -5.49,33.69 -5.266,46.576c0.037,2.129 -31.486,4.033 -35.782,0.933c-2.017,-1.456 -6.349,-66.857 17.368,-66.857Z" style="fill:#fecc92;fill-rule:nonzero;"/><path d="M375.328,187.215c4.968,7.619 4.669,25.174 4.669,27.826c0,2.651 -18.526,26.481 -20.132,26.481c-0.971,-0.971 -3.66,-3.922 -3.66,-4.818c0.859,-1.569 11.878,-25.66 13.857,-27.378c-0.896,-1.083 -8.777,-13.446 -9.113,-15.5c6.909,-1.158 13.595,-4.072 14.379,-6.611Z" style="fill:#de8e68;fill-rule:nonzero;"/><path d="M375.328,187.215c1.12,-5.976 -7.956,-23.307 -15.912,-19.423c-6.909,3.399 -3.137,24.652 -0.896,26.146c2.689,1.158 15.762,-2.764 16.808,-6.723Z" style="fill:#fed892;fill-rule:nonzero;"/><path d="M339.397,155.43c-0.373,1.157 -0.56,4.743 -0.149,6.349c0.037,0.075 7.47,0.635 8.292,-0.672c0.037,-1.083 1.83,-10.72 4.258,-13.708c0.224,-0.336 -0.262,-1.27 -0.262,-1.27l-8.628,3.586l-3.511,5.715Z" style="fill:#d38466;fill-rule:nonzero;"/><path d="M350.564,146.951c0.56,0.747 1.27,1.083 1.905,1.083c1.419,0 4.706,-1.307 4.706,-5.976c0,-3.361 -3.287,-5.08 -3.287,-6.686c0,-1.531 0.411,-1.568 0.411,-2.838c0,-0.635 -0.635,-2.727 -2.615,-2.727c-1.12,0 -1.531,0.934 -2.652,0.934c-1.232,0 -2.353,-2.391 -4.22,-2.391c-1.27,0 -2.465,1.196 -3.81,1.196c-1.531,0 -2.577,-2.279 -4.706,-2.279c-2.204,0 -2.988,1.98 -3.847,1.98c-1.083,0 -1.27,-0.299 -2.353,-0.299c-0.673,0 -2.727,1.195 -2.727,3.362c0,1.531 0.635,4.033 3.81,4.033c1.867,0 2.913,2.951 4.557,2.951c0.635,0 1.195,-0.523 1.344,-0.261c0.635,1.12 1.942,4.183 1.942,4.183l5.939,3.324l5.603,0.411Z" style="fill:#fd8369;fill-rule:nonzero;"/><path d="M349.258,145.42c0,0.522 -0.187,0.634 -0.971,0.634c-0.374,0 -0.897,-0.485 -0.897,-1.008c0,-1.233 0.897,-1.494 0.897,-3.1c0,-2.727 -7.134,-4.146 -9.637,-5.565c-0.896,0.896 -1.531,2.054 -1.793,3.361l-1.606,8.255c-0.709,3.585 1.644,7.059 5.192,7.769c3.548,0.709 7.059,-1.644 7.769,-5.192l0.261,-1.419c0.15,0.037 0.299,0.074 0.411,0.074c0.934,0 1.644,-0.859 1.644,-1.905c0.074,-0.971 -1.27,-2.689 -1.27,-1.904Z" style="fill:#de8e68;fill-rule:nonzero;"/><path d="M40.828,356.489l-26.257,-0.299l-9.188,-33.727l44.036,0l-8.591,34.026Z" style="fill:#fd8369;fill-rule:nonzero;"/><path d="M31.155,309.241c-7.582,-50.759 -26.145,-77.39 -28.499,-76.382c-3.324,1.457 -4.295,29.955 1.644,59.387c0.149,0 0.261,-0.037 0.411,-0.037c1.718,0 3.1,1.382 3.1,3.1c0,0.523 -0.112,1.009 -0.336,1.42c1.008,0.522 1.718,1.568 1.718,2.763c0,1.494 -1.083,2.764 -2.503,3.063c1.756,6.798 3.96,13.521 6.574,19.759c1.345,0 16.434,0 16.434,0c0,0 2.577,-5.678 1.457,-13.073Z" style="fill:#6fc9ce;fill-rule:nonzero;"/><path d="M75.042,255.419c-4.595,0 -9.525,13.222 -14.978,13.222c-1.195,0 -1.98,-1.307 -1.98,-2.54c0,-1.195 3.773,-14.342 3.773,-20.729c0,-0.561 -0.038,-1.158 -0.112,-1.756c-0.598,0.374 -1.345,0.598 -2.092,0.598c-2.241,0 -4.071,-1.83 -4.071,-4.071c0,-1.98 1.382,-3.586 3.249,-3.997c-1.904,-2.428 -4.706,-4.146 -8.515,-4.146c-4.819,0 -11.616,4.296 -11.616,10.944c0,1.867 0.56,6.611 0.56,10.906c0,24.353 -19.086,28.013 -19.086,54.98c0,5.677 3.137,11.915 4.071,13.446c0,0 15.986,0.187 17.517,0.187c1.532,0 13.969,-20.767 15.389,-22.971c5.415,-8.366 23.418,-17.554 23.418,-37.537c0,-2.801 -1.008,-6.536 -5.528,-6.536Z" style="fill:#74d5de;fill-rule:nonzero;"/></svg>