<?xml version="1.0" encoding="UTF-8" standalone="no"?>
<!DOCTYPE svg PUBLIC "-//W3C//DTD SVG 1.1//EN" "http://www.w3.org/Graphics/SVG/1.1/DTD/svg11.dtd">
<svg width="100%" height="100%" viewBox="0 0 1000 600" version="1.1" xmlns="http://www.w3.org/2000/svg" xmlns:xlink="http://www.w3.org/1999/xlink" xml:space="preserve" xmlns:serif="http://www.serif.com/" style="fill-rule:evenodd;clip-rule:evenodd;stroke-linejoin:round;stroke-miterlimit:1.41421;">
    <g transform="matrix(1,0,0,1,0,-569.509)">
        <rect x="206.409" y="927.023" width="13.798" height="98.187" style="fill:rgb(230,231,232);fill-rule:nonzero;"/>
    </g>
    <g transform="matrix(1,0,0,1,0,-569.509)">
        <path d="M164.213,1045.61L158.013,1045.61L206.408,1025.41L215.007,1035.41L164.213,1045.61Z" style="fill:rgb(230,231,232);fill-rule:nonzero;"/>
    </g>
    <g transform="matrix(1,0,0,1,0,-569.509)">
        <path d="M260.003,1045.61L268.602,1045.61L220.207,1025.41L211.808,1035.41L260.003,1045.61Z" style="fill:rgb(230,231,232);fill-rule:nonzero;"/>
    </g>
    <g transform="matrix(1,0,0,1,0,-569.509)">
        <rect x="206.409" y="1025.41" width="13.798" height="8.8" style="fill:rgb(230,231,232);fill-rule:nonzero;"/>
    </g>
    <g transform="matrix(1,0,0,1,0,-569.509)">
        <path d="M216.408,1051.81L210.209,1051.81L207.609,1022.41L219.008,1022.41L216.408,1051.81Z" style="fill:rgb(230,231,232);fill-rule:nonzero;"/>
    </g>
    <g transform="matrix(1,0,0,1,0,-569.509)">
        <rect x="158.013" y="1045.61" width="6.2" height="6.2" style="fill:rgb(230,231,232);fill-rule:nonzero;"/>
    </g>
    <g transform="matrix(1,0,0,1,0,-569.509)">
        <rect x="262.402" y="1045.61" width="6.199" height="6.2" style="fill:rgb(230,231,232);fill-rule:nonzero;"/>
    </g>
    <g transform="matrix(1,0,0,1,0,-569.509)">
        <path d="M161.814,934.022L264.802,934.022L264.802,917.824L161.814,917.824" style="fill:rgb(39,50,68);fill-rule:nonzero;"/>
    </g>
    <g transform="matrix(1,0,0,1,0,-569.509)">
        <path d="M161.814,934.022L264.802,934.022L264.802,927.022L161.814,927.022" style="fill:rgb(4,23,40);fill-rule:nonzero;"/>
    </g>
    <g transform="matrix(1,0,0,1,0,-569.509)">
        <path d="M161.814,917.826L264.802,917.826L264.802,769.643L161.814,769.643" style="fill:rgb(4,23,40);fill-rule:nonzero;"/>
    </g>
    <g transform="matrix(1,0,0,1,0,-569.509)">
        <path d="M164.414,1052.01C164.414,1049.81 162.614,1048.21 160.614,1048.21C158.414,1048.21 156.814,1050.01 156.814,1052.01C156.814,1054.21 158.614,1055.81 160.614,1055.81C162.614,1055.81 164.414,1054.21 164.414,1052.01Z" style="fill:rgb(35,31,32);fill-rule:nonzero;"/>
    </g>
    <g transform="matrix(1,0,0,1,0,-569.509)">
        <path d="M216.809,1052.01C216.809,1049.81 215.009,1048.21 213.009,1048.21C210.809,1048.21 209.209,1050.01 209.209,1052.01C209.209,1054.21 211.009,1055.81 213.009,1055.81C215.009,1055.81 216.809,1054.21 216.809,1052.01Z" style="fill:rgb(35,31,32);fill-rule:nonzero;"/>
    </g>
    <g transform="matrix(1,0,0,1,0,-569.509)">
        <path d="M269.202,1052.01C269.202,1049.81 267.402,1048.21 265.402,1048.21C263.403,1048.21 261.603,1050.01 261.603,1052.01C261.603,1054.21 263.403,1055.81 265.402,1055.81C267.402,1055.81 269.202,1054.21 269.202,1052.01Z" style="fill:rgb(35,31,32);fill-rule:nonzero;"/>
    </g>
    <g transform="matrix(1,0,0,1,0,-569.509)">
        <path d="M178.813,859.831C178.813,859.831 153.215,885.628 178.813,917.824C212.209,917.824 251.204,917.824 251.204,917.824C251.204,917.824 261.403,906.626 261.203,888.828C261.003,873.829 249.205,859.831 249.205,859.831L178.813,859.831Z" style="fill:rgb(46,117,125);fill-rule:nonzero;"/>
    </g>
    <g transform="matrix(1,0,0,1,0,-569.509)">
        <path d="M179.061,1041L179.061,1051L171,1071.5L183.929,1071.5L197.999,1057.5L197.999,1041L179.061,1041Z" style="fill-rule:nonzero;"/>
    </g>
    <g transform="matrix(1,0,0,1,0,-569.509)">
        <path d="M245.938,1042L245.938,1051.79L254,1071.84L241.069,1071.84L227,1058.15L227,1042L245.938,1042Z" style="fill-rule:nonzero;"/>
    </g>
    <g transform="matrix(1,0,0,1,0,-569.509)">
        <path d="M197.999,1046.81C197.999,1046.81 215.007,895.424 215.007,894.224C215.007,893.024 213.008,870.227 194.01,870.227C175.212,870.227 169.813,883.025 169.813,897.223C169.813,911.422 178.999,1046.81 178.999,1046.81L197.999,1046.81Z" style="fill:rgb(63,147,157);fill-rule:nonzero;"/>
    </g>
    <g transform="matrix(1,0,0,1,0,-569.509)">
        <path d="M245.999,1046.81C245.999,1046.81 262.803,895.424 262.803,894.224C262.803,893.024 260.804,870.227 241.806,870.227C223.008,870.227 217.609,883.025 217.609,897.223C217.609,911.422 226.841,1046.81 226.841,1046.81L245.999,1046.81Z" style="fill:rgb(63,147,157);fill-rule:nonzero;"/>
    </g>
    <g transform="matrix(1,0,0,1,0,-569.509)">
        <path d="M262.162,751.5C264.62,752.554 277.764,763.44 283.282,770.614C287.396,767.554 334.352,728.574 335.305,726.417C337.161,725.364 341.125,731.333 335.305,736.2C339.268,736.049 362.696,735.447 362.696,736.2C362.696,736.952 367.763,739.109 333.349,744.628C328.784,750.146 287.446,798.757 280.724,798.757C274.002,798.757 246.611,772.169 245.457,767.403C244.303,762.637 262.162,751.5 262.162,751.5Z" style="fill:rgb(222,142,104);fill-rule:nonzero;"/>
    </g>
    <g transform="matrix(1,0,0,1,0,-569.509)">
        <path d="M215.654,720.001C156.125,720.001 174.957,855.385 178.759,863.104C182.561,870.822 243.555,870.6 249.558,864.553C255.561,858.506 276.534,720.001 215.654,720.001Z" style="fill:rgb(254,211,133);fill-rule:nonzero;"/>
    </g>
    <g transform="matrix(1,0,0,1,0,-569.509)">
        <path d="M166.939,894C173.015,894 177.939,886.837 177.939,878C177.939,869.163 173.015,862 166.939,862C160.864,862 155.939,869.163 155.939,878C155.939,886.837 160.864,894 166.939,894Z" style="fill:rgb(222,142,104);fill-rule:nonzero;"/>
    </g>
    <g transform="matrix(1,0,0,1,0,-569.509)">
        <path d="M224.413,699.83L206.353,699.83L206.353,726.067C206.353,729.428 224.413,729.428 224.413,726.067L224.413,699.83Z" style="fill:rgb(211,124,89);fill-rule:nonzero;"/>
    </g>
    <g transform="matrix(1,0,0,1,0,-569.509)">
        <path d="M188.424,730.078C175.63,723.526 154.519,751.699 155.164,757.299C155.975,764.35 173.612,774.809 183.311,774.896C187.888,774.895 198.917,735.485 188.424,730.078Z" style="fill:rgb(254,216,146);fill-rule:nonzero;"/>
    </g>
    <g transform="matrix(1,0,0,1,0,-569.509)">
        <path d="M159.959,763.826C158.704,766.636 150.427,797.99 152.183,824.779C153.939,851.568 158.504,866.668 158.504,868.775C158.504,870.882 173.855,870.029 173.855,868.775C173.855,867.521 169.892,829.394 170.744,822.622C171.597,815.849 183.085,776.669 182.784,771.853C182.483,767.037 159.959,763.826 159.959,763.826Z" style="fill:rgb(222,142,104);fill-rule:nonzero;"/>
    </g>
    <g transform="matrix(1,0,0,1,0,-569.509)">
        <path d="M238.609,730.219C226.234,738.079 240.085,771.259 245.323,773.556C251.967,776.522 270.291,766.295 275.386,757.801C277.71,753.792 248.78,723.788 238.609,730.219Z" style="fill:rgb(254,216,146);fill-rule:nonzero;"/>
    </g>
    <g transform="matrix(1,0,0,1,0,-569.509)">
        <path d="M193.661,682.289C190.745,664.959 198.352,649.404 210.65,647.545C222.948,645.686 235.281,658.228 238.197,675.558C241.112,692.888 233.506,708.443 221.207,710.302C208.909,712.161 196.576,699.619 193.661,682.289Z" style="fill:rgb(222,142,104);fill-rule:nonzero;"/>
    </g>
    <g transform="matrix(1,0,0,1,0,-569.509)">
        <path d="M195.596,688.929C192.218,688.929 189.48,686.305 189.48,683.067C189.48,679.83 192.218,677.206 195.596,677.206C198.974,677.206 201.713,679.83 201.713,683.067C201.713,686.305 198.974,688.929 195.596,688.929Z" style="fill:rgb(222,142,104);fill-rule:nonzero;"/>
    </g>
    <g transform="matrix(1,0,0,1,0,-569.509)">
        <path d="M147.109,671.902C140.771,680.925 138.973,693.138 130.945,704.567C124.606,713.589 115.285,719.618 107.679,730.445C94.157,749.694 101.851,764.083 109.23,769.266C127.962,782.425 146.75,771.368 155.201,759.337C168.723,740.089 157.926,728.91 173.983,706.053C189.617,683.797 170.476,674.842 173.856,670.03C175.547,667.624 180.915,666.653 182.401,666.349C183.886,666.044 183.933,659.34 182.798,658.542C181.663,657.745 159.786,653.857 147.109,671.902Z" style="fill-rule:nonzero;"/>
    </g>
    <g transform="matrix(1,0,0,1,0,-569.509)">
        <path d="M211.852,640.001C238.03,640.001 243.507,658.7 243.507,664.099C243.507,669.499 239.873,673.501 238.015,673.633C236.861,667.178 231.354,658.269 231.095,658.068C229.615,659.458 224.131,663.919 218.513,664.322C213.834,664.547 209.29,665.876 205.302,668.185C204.972,669.981 204.251,671.693 203.185,673.216C201.671,675.507 199.383,677.256 196.687,678.185C196.029,679.736 195.652,681.38 195.569,683.049C195.569,690.47 196.309,693.472 197.05,695.556C184.986,695.556 179.287,683.889 179.287,669.151C179.287,644.886 202.156,640.001 211.852,640.001Z" style="fill-rule:nonzero;"/>
    </g>
    <g transform="matrix(1,0,0,1,0,-569.509)">
        <path d="M451.062,1042L451.062,1052L443,1072.5L455.93,1072.5L470,1058.5L470,1042L451.062,1042Z" style="fill-rule:nonzero;"/>
    </g>
    <g transform="matrix(1,0,0,1,0,-569.509)">
        <path d="M517.938,1042L517.938,1051.78L526,1071.84L513.07,1071.84L499,1058.14L499,1042L517.938,1042Z" style="fill-rule:nonzero;"/>
    </g>
    <g transform="matrix(1,0,0,1,0,-569.509)">
        <rect x="478.409" y="927.224" width="13.798" height="98.186" style="fill:rgb(230,231,232);fill-rule:nonzero;"/>
    </g>
    <g transform="matrix(1,0,0,1,0,-569.509)">
        <path d="M436.213,1045.81L430.014,1045.81L478.408,1025.61L487.007,1035.61L436.213,1045.81Z" style="fill:rgb(230,231,232);fill-rule:nonzero;"/>
    </g>
    <g transform="matrix(1,0,0,1,0,-569.509)">
        <path d="M532.003,1045.81L540.602,1045.81L492.208,1025.61L483.809,1035.61L532.003,1045.81Z" style="fill:rgb(230,231,232);fill-rule:nonzero;"/>
    </g>
    <g transform="matrix(1,0,0,1,0,-569.509)">
        <rect x="478.409" y="1025.61" width="13.798" height="8.8" style="fill:rgb(230,231,232);fill-rule:nonzero;"/>
    </g>
    <g transform="matrix(1,0,0,1,0,-569.509)">
        <path d="M488.409,1052.01L482.209,1052.01L479.61,1022.61L491.008,1022.61L488.409,1052.01Z" style="fill:rgb(230,231,232);fill-rule:nonzero;"/>
    </g>
    <g transform="matrix(1,0,0,1,0,-569.509)">
        <rect x="430.014" y="1045.81" width="6.199" height="6.2" style="fill:rgb(230,231,232);fill-rule:nonzero;"/>
    </g>
    <g transform="matrix(1,0,0,1,0,-569.509)">
        <rect x="534.403" y="1045.81" width="6.199" height="6.2" style="fill:rgb(230,231,232);fill-rule:nonzero;"/>
    </g>
    <g transform="matrix(1,0,0,1,0,-569.509)">
        <path d="M433.814,934.223L536.803,934.223L536.803,918.024L433.814,918.024" style="fill:rgb(39,50,68);fill-rule:nonzero;"/>
    </g>
    <g transform="matrix(1,0,0,1,0,-569.509)">
        <path d="M433.814,934.222L536.803,934.222L536.803,927.223L433.814,927.223" style="fill:rgb(4,23,40);fill-rule:nonzero;"/>
    </g>
    <g transform="matrix(1,0,0,1,0,-569.509)">
        <path d="M433.814,918.026L536.803,918.026L536.803,769.843L433.814,769.843" style="fill:rgb(4,23,40);fill-rule:nonzero;"/>
    </g>
    <g transform="matrix(1,0,0,1,0,-569.509)">
        <path d="M436.414,1052.21C436.414,1050.01 434.614,1048.41 432.614,1048.41C430.415,1048.41 428.815,1050.21 428.815,1052.21C428.815,1054.41 430.614,1056.01 432.614,1056.01C434.614,1056.01 436.414,1054.41 436.414,1052.21Z" style="fill:rgb(35,31,32);fill-rule:nonzero;"/>
    </g>
    <g transform="matrix(1,0,0,1,0,-569.509)">
        <path d="M488.809,1052.21C488.809,1050.01 487.009,1048.41 485.009,1048.41C482.81,1048.41 481.21,1050.21 481.21,1052.21C481.21,1054.41 483.01,1056.01 485.009,1056.01C487.009,1056.01 488.809,1054.41 488.809,1052.21Z" style="fill:rgb(35,31,32);fill-rule:nonzero;"/>
    </g>
    <g transform="matrix(1,0,0,1,0,-569.509)">
        <path d="M541.202,1052.21C541.202,1050.01 539.402,1048.41 537.403,1048.41C535.403,1048.41 533.603,1050.21 533.603,1052.21C533.603,1054.41 535.403,1056.01 537.403,1056.01C539.402,1056.01 541.202,1054.41 541.202,1052.21Z" style="fill:rgb(35,31,32);fill-rule:nonzero;"/>
    </g>
    <g transform="matrix(1,0,0,1,0,-569.509)">
        <path d="M450.813,860.031C450.813,860.031 425.216,885.828 450.813,918.025C484.209,918.025 523.205,918.025 523.205,918.025C523.205,918.025 533.403,906.826 533.203,889.028C533.004,874.03 521.205,860.031 521.205,860.031L450.813,860.031Z" style="fill:rgb(46,117,125);fill-rule:nonzero;"/>
    </g>
    <g transform="matrix(1,0,0,1,0,-569.509)">
        <path d="M469.999,1047C469.999,1047 487.008,895.624 487.008,894.424C487.008,893.224 485.008,870.427 466.01,870.427C447.212,870.427 441.813,883.225 441.813,897.424C441.813,911.622 450.999,1047 450.999,1047L469.999,1047Z" style="fill:rgb(63,147,157);fill-rule:nonzero;"/>
    </g>
    <g transform="matrix(1,0,0,1,0,-569.509)">
        <path d="M517.999,1047.01C517.999,1047.01 534.804,895.624 534.804,894.424C534.804,893.224 532.804,870.427 513.806,870.427C495.008,870.427 489.609,883.225 489.609,897.424C489.609,911.622 498.999,1047.01 498.999,1047.01L517.999,1047.01Z" style="fill:rgb(63,147,157);fill-rule:nonzero;"/>
    </g>
    <g transform="matrix(1,0,0,1,0,-569.509)">
        <path d="M448.213,679.158C448.213,691.835 453.035,703.785 449.165,716.037C449.165,728.714 438.599,732.653 444.998,747.151C449.731,756.745 472.785,760 483.039,760C509.069,760 533.94,756.023 533.94,739.12C533.94,712.075 521.617,721.982 521.617,689.865C521.617,658.594 518.388,661.995 510.365,645.964C508.489,642.216 501.792,633.115 487.861,632.042C479.484,631.396 467.33,638.468 467.33,638.468C467.33,638.468 448.213,653.803 448.213,679.158Z" style="fill-rule:nonzero;"/>
    </g>
    <g transform="matrix(1,0,0,1,0,-569.509)">
        <path d="M487.44,717.201C427.742,717.201 446.628,855.346 450.441,863.222C454.253,871.098 515.42,870.872 521.44,864.701C527.46,858.531 548.493,717.201 487.44,717.201Z" style="fill:rgb(254,211,133);fill-rule:nonzero;"/>
    </g>
    <g transform="matrix(1,0,0,1,0,-569.509)">
        <path d="M438.94,894.2C445.015,894.2 449.94,887.037 449.94,878.2C449.94,869.364 445.015,862.2 438.94,862.2C432.865,862.2 427.94,869.364 427.94,878.2C427.94,887.037 432.865,894.2 438.94,894.2Z" style="fill:rgb(163,87,50);fill-rule:nonzero;"/>
    </g>
    <g transform="matrix(1,0,0,1,0,-569.509)">
        <path d="M496.414,700.03L478.354,700.03L478.354,726.267C478.354,729.629 496.414,729.629 496.414,726.267L496.414,700.03Z" style="fill:rgb(163,87,50);fill-rule:nonzero;"/>
    </g>
    <g transform="matrix(1,0,0,1,0,-569.509)">
        <path d="M486.94,706C499.09,706 508.94,689.435 508.94,669C508.94,648.565 499.09,632 486.94,632C474.789,632 464.94,648.565 464.94,669C464.94,689.435 474.789,706 486.94,706Z" style="fill:rgb(137,74,43);fill-rule:nonzero;"/>
    </g>
    <g transform="matrix(1,0,0,1,0,-569.509)">
        <path d="M502.725,636.985C495.046,630.621 478.043,629.032 466.834,640.167C459.534,647.42 459.944,657.134 459.944,662.437C459.944,666.679 459.944,674.103 465.183,678C465.183,676.351 464.853,662.571 466.834,660.336C469.586,657.144 504.641,661.879 504.641,650.653C510.953,659.255 509.308,672.241 509.308,674.103C510.283,665.43 514.793,650.653 502.725,636.985Z" style="fill-rule:nonzero;"/>
    </g>
    <g transform="matrix(1,0,0,1,0,-569.509)">
        <path d="M431.959,764.026C430.705,766.836 422.427,798.19 424.183,824.979C425.939,851.768 430.504,866.868 430.504,868.975C430.504,871.082 445.855,870.229 445.855,868.975C445.855,867.721 441.892,829.594 442.745,822.822C443.598,816.049 455.086,776.869 454.785,772.053C454.484,767.237 431.959,764.026 431.959,764.026Z" style="fill:rgb(163,87,50);fill-rule:nonzero;"/>
    </g>
    <g transform="matrix(1,0,0,1,0,-569.509)">
        <path d="M462.44,807C462.44,800.649 469.603,795.5 478.44,795.5C487.276,795.5 494.44,800.649 494.44,807C494.44,813.351 487.276,818.5 478.44,818.5C469.603,818.5 462.44,813.351 462.44,807Z" style="fill:rgb(163,87,50);fill-rule:nonzero;"/>
    </g>
    <g transform="matrix(1,0,0,1,0,-569.509)">
        <path d="M539.939,756C541.321,758.803 547.633,780.5 548.44,807C550.94,815.5 486.857,812 483.357,811C481.357,808.5 477.44,798.251 477.44,797C477.44,795.749 528.423,801.605 527.483,794.847C526.543,788.09 517.921,768.815 518.252,764.009C518.584,759.204 539.939,756 539.939,756Z" style="fill:rgb(163,87,50);fill-rule:nonzero;"/>
    </g>
    <g transform="matrix(1,0,0,1,0,-569.509)">
        <path d="M460.425,730.278C447.63,723.726 426.519,751.898 427.165,757.498C427.975,764.549 445.612,775.008 455.311,775.096C459.888,775.094 470.917,735.684 460.425,730.278Z" style="fill:rgb(254,211,133);fill-rule:nonzero;"/>
    </g>
    <g transform="matrix(1,0,0,1,0,-569.509)">
        <path d="M510.609,730.42C498.234,738.279 512.085,771.459 517.323,773.756C523.967,776.722 542.291,766.495 547.386,758.001C549.71,753.993 520.781,723.988 510.609,730.42Z" style="fill:rgb(254,211,133);fill-rule:nonzero;"/>
    </g>
    <g transform="matrix(1,0,0,1,0,-569.509)">
        <rect x="749.146" y="927.021" width="13.799" height="98.189" style="fill:rgb(230,231,232);fill-rule:nonzero;"/>
    </g>
    <g transform="matrix(1,0,0,1,0,-569.509)">
        <path d="M707.152,1045.61L700.953,1045.61L749.147,1025.41L757.746,1035.41L707.152,1045.61Z" style="fill:rgb(230,231,232);fill-rule:nonzero;"/>
    </g>
    <g transform="matrix(1,0,0,1,0,-569.509)">
        <path d="M802.94,1045.61L811.539,1045.61L763.145,1025.41L754.546,1035.41L802.94,1045.61Z" style="fill:rgb(230,231,232);fill-rule:nonzero;"/>
    </g>
    <g transform="matrix(1,0,0,1,0,-569.509)">
        <rect x="749.146" y="1025.41" width="13.799" height="8.8" style="fill:rgb(230,231,232);fill-rule:nonzero;"/>
    </g>
    <g transform="matrix(1,0,0,1,0,-569.509)">
        <path d="M759.345,1051.81L753.146,1051.81L750.546,1022.41L761.745,1022.41L759.345,1051.81Z" style="fill:rgb(230,231,232);fill-rule:nonzero;"/>
    </g>
    <g transform="matrix(1,0,0,1,0,-569.509)">
        <rect x="700.953" y="1045.61" width="6.199" height="6.2" style="fill:rgb(230,231,232);fill-rule:nonzero;"/>
    </g>
    <g transform="matrix(1,0,0,1,0,-569.509)">
        <rect x="805.341" y="1045.61" width="6.199" height="6.2" style="fill:rgb(230,231,232);fill-rule:nonzero;"/>
    </g>
    <g transform="matrix(1,0,0,1,0,-569.509)">
        <path d="M704.751,934.022L807.739,934.022L807.739,917.824L704.751,917.824" style="fill:rgb(39,50,68);fill-rule:nonzero;"/>
    </g>
    <g transform="matrix(1,0,0,1,0,-569.509)">
        <path d="M704.751,934.022L807.739,934.022L807.739,927.022L704.751,927.022" style="fill:rgb(4,23,40);fill-rule:nonzero;"/>
    </g>
    <g transform="matrix(1,0,0,1,0,-569.509)">
        <path d="M704.751,917.824L807.739,917.824L807.739,769.641L704.751,769.641" style="fill:rgb(4,23,40);fill-rule:nonzero;"/>
    </g>
    <g transform="matrix(1,0,0,1,0,-569.509)">
        <path d="M707.151,1052.01C707.151,1049.81 705.351,1048.21 703.351,1048.21C701.152,1048.21 699.552,1050.01 699.552,1052.01C699.552,1054.21 701.352,1055.81 703.351,1055.81C705.551,1055.81 707.151,1054.21 707.151,1052.01Z" style="fill:rgb(35,31,32);fill-rule:nonzero;"/>
    </g>
    <g transform="matrix(1,0,0,1,0,-569.509)">
        <path d="M759.546,1052.01C759.546,1049.81 757.746,1048.21 755.747,1048.21C753.547,1048.21 751.947,1050.01 751.947,1052.01C751.947,1054.21 753.747,1055.81 755.747,1055.81C757.946,1055.81 759.546,1054.21 759.546,1052.01Z" style="fill:rgb(35,31,32);fill-rule:nonzero;"/>
    </g>
    <g transform="matrix(1,0,0,1,0,-569.509)">
        <path d="M808.339,1055.81C810.437,1055.81 812.138,1054.11 812.138,1052.01C812.138,1049.91 810.437,1048.21 808.339,1048.21C806.24,1048.21 804.539,1049.91 804.539,1052.01C804.539,1054.11 806.24,1055.81 808.339,1055.81Z" style="fill:rgb(35,31,32);fill-rule:nonzero;"/>
    </g>
    <g transform="matrix(1,0,0,1,0,-569.509)">
        <path d="M722.061,1042L722.061,1052L714,1072.5L726.93,1072.5L740.999,1058.5L740.999,1042L722.061,1042Z" style="fill-rule:nonzero;"/>
    </g>
    <g transform="matrix(1,0,0,1,0,-569.509)">
        <path d="M788.938,1042L788.938,1051.78L797,1071.84L784.069,1071.84L770,1058.14L770,1042L788.938,1042Z" style="fill-rule:nonzero;"/>
    </g>
    <g transform="matrix(1,0,0,1,0,-569.509)">
        <path d="M721.749,859.831C721.749,859.831 696.152,885.628 721.749,917.824C755.145,917.824 794.141,917.824 794.141,917.824C794.141,917.824 804.34,906.626 804.14,888.828C803.94,873.829 792.141,859.831 792.141,859.831L721.749,859.831Z" style="fill:rgb(46,117,125);fill-rule:nonzero;"/>
    </g>
    <g transform="matrix(1,0,0,1,0,-569.509)">
        <path d="M740.999,1046.81C740.999,1046.81 757.745,895.424 757.745,894.224C757.745,893.024 755.745,870.227 736.747,870.227C717.95,870.227 712.55,883.025 712.55,897.223C712.55,911.422 721.999,1046.81 721.999,1046.81L740.999,1046.81Z" style="fill:rgb(63,147,157);fill-rule:nonzero;"/>
    </g>
    <g transform="matrix(1,0,0,1,0,-569.509)">
        <path d="M788.999,1046.81C788.999,1046.81 805.74,895.424 805.74,894.224C805.74,893.024 803.74,870.227 784.743,870.227C765.945,870.227 760.545,883.025 760.545,897.223C760.545,911.422 769.999,1046.81 769.999,1046.81L788.999,1046.81Z" style="fill:rgb(63,147,157);fill-rule:nonzero;"/>
    </g>
    <g transform="matrix(1,0,0,1,0,-569.509)">
        <path d="M751.946,748.244L751.946,702.449L770.744,672.452L770.744,756.643" style="fill:rgb(211,132,102);fill-rule:nonzero;"/>
    </g>
    <g transform="matrix(1,0,0,1,0,-569.509)">
        <path d="M755.041,716.999C792.028,716.999 804.934,748.559 804.934,758.81C804.934,769.061 793.366,831.615 793.838,859.462C793.917,864.063 727.497,868.18 718.447,861.48C714.198,858.332 705.069,716.999 755.041,716.999Z" style="fill:rgb(254,211,133);fill-rule:nonzero;"/>
    </g>
    <g transform="matrix(1,0,0,1,0,-569.509)">
        <path d="M718.44,741.499C718.44,741.499 670.356,800.037 693.353,810.036C727.75,810.036 751.747,810.036 751.747,810.036L751.347,798.837C751.347,798.837 712.351,798.237 708.552,792.238C704.752,786.039 720.55,771.64 720.55,771.64" style="fill:rgb(222,142,104);fill-rule:nonzero;"/>
    </g>
    <g transform="matrix(1,0,0,1,0,-569.509)">
        <path d="M739.94,803.499C739.94,797.148 747.103,791.999 755.94,791.999C764.776,791.999 771.94,797.148 771.94,803.499C771.94,809.85 764.776,814.999 755.94,814.999C747.103,814.999 739.94,809.85 739.94,803.499Z" style="fill:rgb(222,142,104);fill-rule:nonzero;"/>
    </g>
    <g transform="matrix(1,0,0,1,0,-569.509)">
        <path d="M795.94,740.999C795.94,740.999 837.536,800.839 814.538,810.838C780.142,810.838 756.145,810.838 756.145,810.838L759.945,799.84C759.945,799.84 797.54,799.839 801.34,793.84C805.139,787.641 795.14,775.442 795.14,775.442" style="fill:rgb(222,142,104);fill-rule:nonzero;"/>
    </g>
    <g transform="matrix(1,0,0,1,0,-569.509)">
        <path d="M694.945,757.441C696.556,744.534 726.605,715.213 740.381,728.28C752.384,739.673 730.633,780.387 725.074,781.981C718.791,782.618 694.542,766.205 694.945,757.441Z" style="fill:rgb(254,216,146);fill-rule:nonzero;"/>
    </g>
    <g transform="matrix(1,0,0,1,0,-569.509)">
        <path d="M824.737,772.066C827.15,759.187 807.602,721.838 790.467,730.209C775.585,737.534 783.71,783.335 788.537,786.555C794.329,789.05 822.484,780.598 824.737,772.066Z" style="fill:rgb(254,216,146);fill-rule:nonzero;"/>
    </g>
    <g transform="matrix(1,0,0,1,0,-569.509)">
        <path d="M751.891,708.257C750.96,711.402 750.495,721.14 751.519,725.502C751.612,725.705 770.134,727.227 772.181,723.676C772.275,720.734 776.742,694.563 782.792,686.448C783.351,685.535 782.141,682.999 782.141,682.999L760.64,692.737L751.891,708.257Z" style="fill:rgb(211,132,102);fill-rule:nonzero;"/>
    </g>
    <g transform="matrix(1,0,0,1,0,-569.509)">
        <path d="M782.986,686.045C784.533,688.058 786.492,688.964 788.245,688.964C792.164,688.964 801.24,685.441 801.24,672.859C801.24,663.8 792.164,659.17 792.164,654.841C792.164,650.714 793.299,650.614 793.299,647.191C793.299,645.48 791.546,639.844 786.08,639.844C782.986,639.844 781.851,642.36 778.757,642.36C775.354,642.36 772.26,635.918 767.103,635.918C763.596,635.918 760.296,639.139 756.583,639.139C752.355,639.139 749.467,632.999 743.588,632.999C737.503,632.999 735.338,638.334 732.966,638.334C729.975,638.334 729.459,637.529 726.468,637.529C724.612,637.529 718.939,640.75 718.939,646.588C718.939,650.714 720.693,657.458 729.459,657.458C734.616,657.458 737.503,665.41 742.041,665.41C743.795,665.41 745.342,664.001 745.754,664.706C747.507,667.725 751.117,675.979 751.117,675.979L767.515,684.937L782.986,686.045Z" style="fill:rgb(253,131,105);fill-rule:nonzero;"/>
    </g>
    <g transform="matrix(1,0,0,1,0,-569.509)">
        <path d="M779.598,681.708C779.598,683.098 779.079,683.396 776.9,683.396C775.863,683.396 774.41,682.105 774.41,680.716C774.41,677.44 776.9,676.746 776.9,672.478C776.9,665.232 757.082,661.46 750.131,657.688C747.64,660.071 745.877,663.148 745.15,666.621L740.689,688.557C738.717,698.086 745.254,707.316 755.111,709.202C764.968,711.088 774.721,704.835 776.693,695.406L777.419,691.634C777.834,691.733 778.249,691.832 778.56,691.832C781.154,691.832 783.126,689.55 783.126,686.77C783.333,684.19 779.598,679.624 779.598,681.708Z" style="fill:rgb(222,142,104);fill-rule:nonzero;"/>
    </g>
    <g transform="matrix(1,0,0,1,0,-569.509)">
        <rect x="59.624" y="810.041" width="21.398" height="263.769" style="fill:rgb(249,253,255);fill-rule:nonzero;"/>
    </g>
    <g transform="matrix(1,0,0,1,0,-569.509)">
        <rect x="880.532" y="829.771" width="21.397" height="263.769" style="fill:rgb(249,253,255);fill-rule:nonzero;"/>
    </g>
    <g transform="matrix(1,0,0,1,0,-569.509)">
        <rect x="59.94" y="810" width="841" height="22" style="fill:rgb(196,153,108);fill-rule:nonzero;"/>
    </g>
    <g transform="matrix(1,0,0,1,0,-569.509)">
        <path d="M331.59,763.246L331.59,708.452L353.987,672.456L353.987,773.445" style="fill:rgb(249,180,155);fill-rule:nonzero;"/>
    </g>
    <g transform="matrix(1,0,0,1,0,-569.509)">
        <path d="M376.186,695.653C376.186,713.851 361.388,728.649 343.19,728.649C324.992,728.649 310.194,713.851 310.194,695.653L310.194,674.455C310.194,656.257 324.992,641.459 343.19,641.459C361.388,641.459 376.186,656.257 376.186,674.455L376.186,695.653Z" style="fill:rgb(249,180,155);fill-rule:nonzero;"/>
    </g>
    <g transform="matrix(1,0,0,1,0,-569.509)">
        <path d="M295.395,837.436L296.595,736.447C296.595,736.447 304.394,733.247 331.391,732.647L343.589,749.646L353.788,732.647C366.987,733.247 384.185,738.847 384.185,738.847L379.385,837.436L295.395,837.436Z" style="fill:rgb(254,211,133);fill-rule:nonzero;"/>
    </g>
    <g transform="matrix(1,0,0,1,0,-569.509)">
        <path d="M384.386,679.256C384.386,655.059 365.788,635.461 342.791,635.461C319.793,635.461 301.195,655.059 301.195,679.256C301.195,703.453 319.793,723.051 342.791,723.051C365.788,723.051 384.386,703.453 384.386,679.256Z" style="fill:rgb(136,84,35);fill-rule:nonzero;"/>
    </g>
    <g transform="matrix(1,0,0,1,0,-569.509)">
        <path d="M353.99,732.451L353.99,730.052L331.592,730.052L331.592,732.451L343.191,752.449L353.99,732.451Z" style="fill:rgb(254,211,133);fill-rule:nonzero;"/>
    </g>
    <g transform="matrix(1,0,0,1,0,-569.509)">
        <path d="M296.596,736.448C296.596,736.448 247.602,800.441 270.599,809.44C304.995,809.44 328.992,809.44 328.992,809.44L325.193,800.041C325.193,800.041 289.597,799.441 285.797,793.842C281.998,788.242 315.994,754.246 315.994,754.246" style="fill:rgb(254,211,133);fill-rule:nonzero;"/>
    </g>
    <g transform="matrix(1,0,0,1,0,-569.509)">
        <path d="M384.387,738.648C384.387,738.648 432.381,800.241 409.384,809.44C374.988,809.44 350.991,809.44 350.991,809.44L354.79,800.041C354.79,800.041 390.386,799.442 394.186,793.842C397.985,788.243 363.989,754.247 363.989,754.247" style="fill:rgb(254,211,133);fill-rule:nonzero;"/>
    </g>
    <g transform="matrix(1,0,0,1,0,-569.509)">
        <path d="M326.5,1066.41C326.5,1066.41 339.99,912.824 339.99,911.425C339.99,910.025 337.79,887.027 318.192,887.027C298.594,887.027 292.995,900.026 292.995,914.424C292.995,928.823 308,1066.41 308,1066.41L326.5,1066.41Z" style="fill:rgb(63,147,157);fill-rule:nonzero;"/>
    </g>
    <g transform="matrix(1,0,0,1,0,-569.509)">
        <path d="M376,1066.41C376,1066.41 396.584,912.824 396.584,911.425C396.584,910.025 394.384,887.027 374.987,887.027C355.389,887.027 349.989,900.026 349.989,914.424C349.989,928.823 357.189,1066.41 357.189,1066.41L376,1066.41Z" style="fill:rgb(63,147,157);fill-rule:nonzero;"/>
    </g>
    <g transform="matrix(1,0,0,1,0,-569.509)">
        <path d="M307.784,1065L327,1065L327,1085.91L274,1085.91L307.784,1065Z" style="fill-rule:nonzero;"/>
    </g>
    <g transform="matrix(1,0,0,1,0,-569.509)">
        <path d="M376.216,1065L357,1065L357,1085.26L410,1085.26L376.216,1065Z" style="fill-rule:nonzero;"/>
    </g>
    <g transform="matrix(1,0,0,1,0,-569.509)">
        <rect x="333.19" y="956.021" width="16.598" height="118.989" style="fill:rgb(230,231,232);fill-rule:nonzero;"/>
    </g>
    <g transform="matrix(1,0,0,1,0,-569.509)">
        <path d="M282.996,1099.41L275.597,1099.41L333.191,1074.81L343.189,1087.21L282.996,1099.41Z" style="fill:rgb(230,231,232);fill-rule:nonzero;"/>
    </g>
    <g transform="matrix(1,0,0,1,0,-569.509)">
        <path d="M396.983,1099.41L407.182,1099.41L349.588,1074.81L339.589,1087.21L396.983,1099.41Z" style="fill:rgb(230,231,232);fill-rule:nonzero;"/>
    </g>
    <g transform="matrix(1,0,0,1,0,-569.509)">
        <rect x="333.19" y="1074.81" width="16.598" height="10.6" style="fill:rgb(230,231,232);fill-rule:nonzero;"/>
    </g>
    <g transform="matrix(1,0,0,1,0,-569.509)">
        <path d="M344.989,1107L337.789,1107L334.59,1071.41L347.988,1071.41L344.989,1107Z" style="fill:rgb(230,231,232);fill-rule:nonzero;"/>
    </g>
    <g transform="matrix(1,0,0,1,0,-569.509)">
        <rect x="275.597" y="1099.4" width="7.199" height="7.6" style="fill:rgb(230,231,232);fill-rule:nonzero;"/>
    </g>
    <g transform="matrix(1,0,0,1,0,-569.509)">
        <rect x="399.784" y="1099.4" width="7.399" height="7.6" style="fill:rgb(230,231,232);fill-rule:nonzero;"/>
    </g>
    <g transform="matrix(1,0,0,1,0,-569.509)">
        <path d="M280.196,964.421L402.582,964.421L402.582,956.021L280.196,956.021" style="fill:rgb(4,23,40);fill-rule:nonzero;"/>
    </g>
    <g transform="matrix(1,0,0,1,0,-569.509)">
        <path d="M280.196,956.021L402.582,956.021L402.582,774.042L280.196,774.042" style="fill:rgb(4,23,40);fill-rule:nonzero;"/>
    </g>
    <g transform="matrix(1,0,0,1,0,-569.509)">
        <path d="M283.196,1107.2C283.196,1104.6 281.196,1102.4 278.596,1102.4C275.997,1102.4 273.997,1104.6 273.997,1107.2C273.997,1109.8 275.997,1112 278.596,1112C280.996,1111.8 283.196,1109.8 283.196,1107.2Z" style="fill:rgb(35,31,32);fill-rule:nonzero;"/>
    </g>
    <g transform="matrix(1,0,0,1,0,-569.509)">
        <path d="M345.589,1107.2C345.589,1104.6 343.589,1102.4 340.989,1102.4C338.39,1102.4 336.39,1104.6 336.39,1107.2C336.39,1109.8 338.39,1112 340.989,1112C343.389,1111.8 345.589,1109.8 345.589,1107.2Z" style="fill:rgb(35,31,32);fill-rule:nonzero;"/>
    </g>
    <g transform="matrix(1,0,0,1,0,-569.509)">
        <path d="M407.781,1107.2C407.781,1104.6 405.781,1102.4 403.181,1102.4C400.582,1102.4 398.582,1104.6 398.582,1107.2C398.582,1109.8 400.582,1112 403.181,1112C405.781,1112 407.781,1109.8 407.781,1107.2Z" style="fill:rgb(35,31,32);fill-rule:nonzero;"/>
    </g>
    <g transform="matrix(1,0,0,1,0,-569.509)">
        <path d="M316.959,702.252C316.959,702.252 305.426,696.853 302.481,684.338C298.31,666.916 302.972,649.984 312.051,651.457C316.468,659.309 318.922,661.027 318.922,661.027C318.922,661.027 314.996,694.154 316.959,702.252Z" style="fill:rgb(136,84,35);fill-rule:nonzero;"/>
    </g>
    <g transform="matrix(1,0,0,1,0,-569.509)">
        <path d="M319.657,661.762C319.657,661.762 331.436,670.842 354.502,670.842C377.323,670.842 393.518,649.738 388.61,632.071C381.249,638.696 365.299,639.923 352.048,635.261C338.797,630.598 325.056,630.598 316.467,637.469C307.879,644.585 311.069,656.364 319.657,661.762Z" style="fill:rgb(136,84,35);fill-rule:nonzero;"/>
    </g>
    <g transform="matrix(1,0,0,1,0,-569.509)">
        <path d="M321.62,662.741C321.62,662.741 313.277,677.955 315.976,688.752C309.351,680.409 307.388,667.894 307.388,667.894L312.541,652.189L321.62,662.741Z" style="fill:rgb(136,84,35);fill-rule:nonzero;"/>
    </g>
    <g transform="matrix(1,0,0,1,0,-569.509)">
        <path d="M368.734,662.252C368.734,662.252 378.549,665.933 377.568,681.637C387.138,670.595 382.476,657.344 382.476,657.344L377.813,651.7L368.734,662.252Z" style="fill:rgb(136,84,35);fill-rule:nonzero;"/>
    </g>
    <g transform="matrix(1,0,0,1,0,-569.509)">
        <path d="M612.962,763.244L612.962,708.45L635.159,672.454L635.159,773.443" style="fill:rgb(249,180,155);fill-rule:nonzero;"/>
    </g>
    <g transform="matrix(1,0,0,1,0,-569.509)">
        <path d="M657.559,695.652C657.559,713.85 642.76,728.648 624.562,728.648C606.364,728.648 591.566,713.85 591.566,695.652L591.566,674.454C591.566,656.256 606.364,641.458 624.562,641.458C642.76,641.458 657.559,656.256 657.559,674.454L657.559,695.652Z" style="fill:rgb(249,180,155);fill-rule:nonzero;"/>
    </g>
    <g transform="matrix(1,0,0,1,0,-569.509)">
        <path d="M593.565,677.854C593.565,677.854 650.558,677.854 649.959,649.857C649.359,621.86 617.762,623.26 601.964,634.659C585.966,646.257 575.367,675.854 593.565,677.854Z" style="fill:rgb(55,37,20);fill-rule:nonzero;"/>
    </g>
    <g transform="matrix(1,0,0,1,0,-569.509)">
        <path d="M640.561,665.255C640.561,665.255 652.959,672.054 656.559,691.052C662.758,681.253 669.358,667.255 662.958,651.456C658.559,640.458 649.56,632.458 644.76,637.658C644.76,651.856 640.561,665.255 640.561,665.255Z" style="fill:rgb(55,37,20);fill-rule:nonzero;"/>
    </g>
    <g transform="matrix(1,0,0,1,0,-569.509)">
        <path d="M576.767,837.436L577.967,736.447C577.967,736.447 585.766,733.247 612.763,732.647L624.961,749.646L635.16,732.647C648.359,733.247 665.557,738.847 665.557,738.847L660.757,837.436L576.767,837.436Z" style="fill:rgb(254,211,133);fill-rule:nonzero;"/>
    </g>
    <g transform="matrix(1,0,0,1,0,-569.509)">
        <path d="M624.16,723.047C647.132,723.047 665.755,703.439 665.755,679.252C665.755,655.065 647.132,635.457 624.16,635.457C601.188,635.457 582.565,655.065 582.565,679.252C582.565,703.439 601.188,723.047 624.16,723.047Z" style="fill:rgb(55,37,20);fill-rule:nonzero;"/>
    </g>
    <g transform="matrix(1,0,0,1,0,-569.509)">
        <path d="M635.159,732.448L635.159,730.048L612.962,730.048L612.962,732.448L624.56,752.445L635.159,732.448Z" style="fill:rgb(254,211,133);fill-rule:nonzero;"/>
    </g>
    <g transform="matrix(1,0,0,1,0,-569.509)">
        <path d="M577.766,736.446C577.766,736.446 528.772,800.439 551.769,809.438C586.165,809.438 610.162,809.438 610.162,809.438L606.363,800.039C606.363,800.039 570.767,799.439 566.967,793.84C563.168,788.24 597.164,754.244 597.164,754.244" style="fill:rgb(254,211,133);fill-rule:nonzero;"/>
    </g>
    <g transform="matrix(1,0,0,1,0,-569.509)">
        <path d="M665.756,738.645C665.756,738.645 713.751,800.238 690.753,809.436C656.357,809.436 632.36,809.436 632.36,809.436L636.159,800.038C636.159,800.038 671.755,799.438 675.555,793.838C679.355,788.239 645.359,754.243 645.359,754.243" style="fill:rgb(254,211,133);fill-rule:nonzero;"/>
    </g>
    <g transform="matrix(1,0,0,1,0,-569.509)">
        <path d="M588.785,1065L608.001,1065L608.001,1085.91L555.001,1085.91L588.785,1065Z" style="fill-rule:nonzero;"/>
    </g>
    <g transform="matrix(1,0,0,1,0,-569.509)">
        <path d="M657.216,1066L638.001,1066L638.001,1086.26L691.001,1086.26L657.216,1066Z" style="fill-rule:nonzero;"/>
    </g>
    <g transform="matrix(1,0,0,1,0,-569.509)">
        <path d="M608.001,1066.41C608.001,1066.41 621.362,912.824 621.362,911.425C621.362,910.025 619.162,887.027 599.564,887.027C579.966,887.027 574.367,900.026 574.367,914.424C574.367,928.823 586.001,1066.41 586.001,1066.41L608.001,1066.41Z" style="fill:rgb(63,147,157);fill-rule:nonzero;"/>
    </g>
    <g transform="matrix(1,0,0,1,0,-569.509)">
        <path d="M658.001,1066.5C658.001,1066.5 677.954,912.824 677.954,911.425C677.954,910.025 675.754,887.027 656.357,887.027C636.759,887.027 631.359,900.026 631.359,914.424C631.359,928.823 638.001,1066.5 638.001,1066.5L658.001,1066.5Z" style="fill:rgb(63,147,157);fill-rule:nonzero;"/>
    </g>
    <g transform="matrix(1,0,0,1,0,-569.509)">
        <rect x="614.36" y="956.021" width="16.598" height="118.989" style="fill:rgb(230,231,232);fill-rule:nonzero;"/>
    </g>
    <g transform="matrix(1,0,0,1,0,-569.509)">
        <path d="M564.366,1099.41L556.967,1099.41L614.361,1074.81L624.559,1087.21L564.366,1099.41Z" style="fill:rgb(230,231,232);fill-rule:nonzero;"/>
    </g>
    <g transform="matrix(1,0,0,1,0,-569.509)">
        <path d="M678.352,1099.41L688.351,1099.41L630.958,1074.81L620.759,1087.21L678.352,1099.41Z" style="fill:rgb(230,231,232);fill-rule:nonzero;"/>
    </g>
    <g transform="matrix(1,0,0,1,0,-569.509)">
        <rect x="614.36" y="1074.81" width="16.598" height="10.6" style="fill:rgb(230,231,232);fill-rule:nonzero;"/>
    </g>
    <g transform="matrix(1,0,0,1,0,-569.509)">
        <path d="M626.36,1107L619.16,1107L615.961,1071.41L629.359,1071.41L626.36,1107Z" style="fill:rgb(230,231,232);fill-rule:nonzero;"/>
    </g>
    <g transform="matrix(1,0,0,1,0,-569.509)">
        <rect x="556.967" y="1099.4" width="7.399" height="7.6" style="fill:rgb(230,231,232);fill-rule:nonzero;"/>
    </g>
    <g transform="matrix(1,0,0,1,0,-569.509)">
        <rect x="681.153" y="1099.4" width="7.399" height="7.6" style="fill:rgb(230,231,232);fill-rule:nonzero;"/>
    </g>
    <g transform="matrix(1,0,0,1,0,-569.509)">
        <path d="M561.566,964.419L683.952,964.419L683.952,956.02L561.566,956.02" style="fill:rgb(4,23,40);fill-rule:nonzero;"/>
    </g>
    <g transform="matrix(1,0,0,1,0,-569.509)">
        <path d="M561.568,956.021L683.954,956.021L683.954,774.042L561.568,774.042" style="fill:rgb(4,23,40);fill-rule:nonzero;"/>
    </g>
    <g transform="matrix(1,0,0,1,0,-569.509)">
        <path d="M564.366,1107.2C564.366,1104.6 562.366,1102.4 559.766,1102.4C557.167,1102.4 555.167,1104.6 555.167,1107.2C555.167,1109.8 557.167,1112 559.766,1112C562.366,1111.8 564.366,1109.8 564.366,1107.2Z" style="fill:rgb(35,31,32);fill-rule:nonzero;"/>
    </g>
    <g transform="matrix(1,0,0,1,0,-569.509)">
        <path d="M626.759,1107.2C626.759,1104.6 624.759,1102.4 622.159,1102.4C619.56,1102.4 617.56,1104.6 617.56,1107.2C617.56,1109.8 619.56,1112 622.159,1112C624.759,1111.8 626.759,1109.8 626.759,1107.2Z" style="fill:rgb(35,31,32);fill-rule:nonzero;"/>
    </g>
    <g transform="matrix(1,0,0,1,0,-569.509)">
        <path d="M689.153,1107.2C689.153,1104.6 687.153,1102.4 684.553,1102.4C681.954,1102.4 679.954,1104.6 679.954,1107.2C679.954,1109.8 681.954,1112 684.553,1112C687.153,1111.8 689.153,1109.8 689.153,1107.2Z" style="fill:rgb(35,31,32);fill-rule:nonzero;"/>
    </g>
</svg>
