<svg width="1412" height="935" viewBox="0 0 1412 935" fill="none" xmlns="http://www.w3.org/2000/svg">
<path d="M334.34 708.742C340.741 710.647 371.992 735.986 377.451 766.423C383.012 765.792 416.377 764.477 430.279 763.942C434.826 757.241 444.399 752.595 455.506 752.595C470.986 752.595 483.542 761.599 483.542 772.699C483.542 772.946 483.542 773.179 483.542 773.425H427.571C427.571 773.179 427.571 772.946 427.571 772.699C427.59 769.894 428.389 767.143 429.888 764.723L381.26 772.055L323.494 777.742L317.542 729.997L334.34 708.742Z" fill="#DE8E68"/>
<path d="M286.542 674.939C286.542 671.1 296.813 666.742 304.355 666.742C324.486 666.742 358.542 700.898 358.542 705.188C358.542 709.477 334.023 728.577 315.183 729.725C296.343 730.872 286.542 674.939 286.542 674.939Z" fill="#FCC486"/>
<path d="M237.897 648.742C125.604 648.742 154.45 916.539 168.684 926.666C182.918 936.793 307.694 937.723 315.817 927.596C323.94 917.47 371.158 648.742 237.897 648.742Z" fill="#FED385"/>
<path d="M219.542 601.742H262.542V658.912C262.542 667.984 219.542 668.053 219.542 658.912V601.742Z" fill="#DE8E68"/>
<path d="M205.744 580.711C200.024 546.71 214.947 516.19 239.077 512.543C263.206 508.895 287.404 533.503 293.124 567.504C298.844 601.506 283.92 632.026 259.791 635.673C235.661 639.32 211.464 614.713 205.744 580.711Z" fill="#DE8E68"/>
<path d="M209.542 593.741C202.914 593.741 197.542 588.592 197.542 582.241C197.542 575.89 202.914 570.741 209.542 570.741C216.169 570.741 221.542 575.89 221.542 582.241C221.542 588.592 216.169 593.741 209.542 593.741Z" fill="#DE8E68"/>
<path d="M114.41 560.329C101.974 578.031 98.4476 601.993 82.6955 624.416C70.2596 642.119 51.9708 653.947 37.0477 675.19C10.5179 712.956 25.6146 741.187 40.0924 751.357C76.8437 777.175 113.706 755.48 130.287 731.877C156.817 694.111 135.632 672.179 167.136 627.332C197.812 583.666 160.256 566.096 166.888 556.655C170.205 551.934 180.739 550.029 183.653 549.432C186.567 548.836 186.659 535.681 184.432 534.117C182.205 532.552 139.282 524.923 114.41 560.329Z" fill="black"/>
<path d="M241.435 497.74C292.796 497.74 303.542 534.428 303.542 545.021C303.542 555.615 296.412 563.467 292.767 563.727C290.502 551.061 279.698 533.583 279.19 533.187C276.286 535.914 265.525 544.667 254.504 545.458C245.323 545.9 236.408 548.507 228.584 553.038C227.936 556.561 226.522 559.921 224.43 562.908C221.459 567.403 216.971 570.834 211.681 572.656C210.391 575.701 209.65 578.926 209.488 582.2C209.488 596.761 210.94 602.65 212.392 606.74C188.723 606.74 177.542 583.85 177.542 554.933C177.542 507.325 222.412 497.74 241.435 497.74Z" fill="black"/>
<path d="M251.095 736.742C256.12 737.891 276.261 749.747 288.339 770.205C300.217 768.099 348.532 756.626 391.42 756.626C395.451 756.626 405.918 753.481 410.136 753.481C435.287 753.481 440.542 766.39 440.542 770.205C440.542 774.021 439.678 774.13 438.9 774.13C352.52 774.13 330.795 808.742 282.206 808.742C266.485 808.742 234.078 797.925 214.542 770.219C221.395 748.147 251.095 736.742 251.095 736.742Z" fill="#DE8E68"/>
<path d="M165.794 689.055C138.868 714.187 206.959 783.753 217.878 782.731C228.798 781.709 268.167 741.848 268.54 729.731C268.914 717.614 191.815 664.751 165.794 689.055Z" fill="#FED892"/>
<path d="M497.001 563.741C497.001 406.269 471.649 189.977 605.001 78.7401C704.501 -4.25869 948.501 -45.2581 1058 102.741" stroke="#DFDFDF" stroke-width="7" stroke-miterlimit="10" stroke-linejoin="round" stroke-dasharray="20 20"/>
<path d="M111.542 776.742H722.542V795.742H111.542V776.742Z" fill="#FD8369"/>
<path d="M143.542 922.742V790.742" stroke="#FD8369" stroke-width="4" stroke-linecap="round" stroke-linejoin="round"/>
<path d="M651.542 922.742V790.742" stroke="#FD8369" stroke-width="4" stroke-linecap="round" stroke-linejoin="round"/>
<path d="M185.542 922.742V790.742" stroke="#FD8369" stroke-width="4" stroke-linecap="round" stroke-linejoin="round"/>
<path d="M696.542 922.742V790.742" stroke="#FD8369" stroke-width="4" stroke-linecap="round" stroke-linejoin="round"/>
<path d="M396.542 773.742H497.542V776.742H396.542V773.742Z" fill="#838383"/>
<path d="M388.542 549.742H609.542V702.742H388.542V549.742Z" fill="#E0DFDF"/>
<path d="M530.067 672.742L560.542 776.742H507.124L477.542 672.742H530.067Z" fill="#AFAFAF"/>
<path d="M869 855.744V106.742H1291L1412 227.742V855.744H869Z" fill="#F3F3F3"/>
<path d="M1291.03 106.742L1412 227.649H1303.88C1303.88 227.649 1298.84 228.489 1294.64 225.13C1290.44 221.771 1291.03 215.054 1291.03 215.054V106.742Z" fill="#D0D0D0"/>
<path d="M945.208 223.621L930.53 209.115C930.53 209.115 932.383 208.298 933.915 206.405C935.998 203.889 936.213 201.106 936.213 201.106L952.102 216.808L945.208 223.621Z" fill="#96CA2C"/>
<path d="M952.102 185.406L936.2 201.121C936.2 201.121 936.596 198.458 935.524 196.111C934.298 193.159 931.912 191.732 931.912 191.732L945.208 178.593L952.102 185.406Z" fill="#96CA2C"/>
<path d="M931.617 205.647C934.79 202.512 934.876 197.513 931.809 194.482C928.742 191.451 923.683 191.536 920.51 194.671C917.337 197.807 917.252 202.806 920.319 205.837C923.386 208.868 928.444 208.783 931.617 205.647Z" fill="#B4E654"/>
<path d="M993.466 226.283L978.787 240.788C978.787 240.788 977.96 238.956 976.045 237.442C973.499 235.384 970.683 235.171 970.683 235.171L986.572 219.47L993.466 226.283Z" fill="#E48AE0"/>
<path d="M954.794 219.47L970.696 235.185C970.696 235.185 968.002 234.793 965.627 235.853C962.64 237.064 961.196 239.422 961.196 239.422L947.9 226.283L954.794 219.47Z" fill="#E48AE0"/>
<path d="M975.28 239.713C972.107 236.577 967.048 236.492 963.981 239.523C960.914 242.554 961 247.553 964.173 250.689C967.346 253.824 972.404 253.909 975.471 250.878C978.538 247.847 978.452 242.848 975.28 239.713Z" fill="#EB65E5"/>
<path d="M996.158 178.596L1010.84 193.101C1010.84 193.101 1008.98 193.919 1007.45 195.811C1005.37 198.327 1005.15 201.11 1005.15 201.11L989.264 185.408L996.158 178.596Z" fill="#F0DC0A"/>
<path d="M989.264 216.811L1005.17 201.096C1005.17 201.096 1004.77 203.758 1005.84 206.105C1007.07 209.057 1009.45 210.484 1009.45 210.484L996.158 223.623L989.264 216.811Z" fill="#F0DC0A"/>
<path d="M1009.75 196.563C1006.58 199.699 1006.49 204.698 1009.56 207.729C1012.62 210.76 1017.68 210.675 1020.86 207.54C1024.03 204.404 1024.11 199.405 1021.05 196.374C1017.98 193.343 1012.92 193.428 1009.75 196.563Z" fill="#EFF309"/>
<path d="M947.9 175.932L962.579 161.427C962.579 161.427 963.406 163.259 965.321 164.773C967.867 166.831 970.683 167.043 970.683 167.043L954.794 182.745L947.9 175.932Z" fill="#FF9900"/>
<path d="M986.571 182.743L970.669 167.028C970.669 167.028 973.364 167.42 975.738 166.36C978.725 165.149 980.169 162.791 980.169 162.791L993.465 175.93L986.571 182.743Z" fill="#FF9900"/>
<path d="M966.087 162.504C969.26 165.64 974.318 165.724 977.385 162.693C980.452 159.662 980.367 154.663 977.194 151.528C974.021 148.392 968.963 148.308 965.896 151.339C962.828 154.37 962.914 159.369 966.087 162.504Z" fill="#FFBB55"/>
<path d="M1357 337.742H924V459.742H1357V337.742Z" fill="#D0D0D0"/>
<path d="M1357 337.742H924V459.742H1357V337.742Z" fill="#D0D0D0"/>
<path d="M1320 360.742H1054V373.742H1320V360.742Z" fill="#F3F3F3"/>
<path d="M1128.74 391.27H1053.8V404.651H1128.74V391.27Z" fill="#F3F3F3"/>
<path d="M986.224 436.766C1008.03 436.766 1025.7 419.092 1025.7 397.29C1025.7 375.488 1008.03 357.814 986.224 357.814C964.423 357.814 946.749 375.488 946.749 397.29C946.749 419.092 964.423 436.766 986.224 436.766Z" fill="#F3F3F3"/>
<path d="M1357 676.742H924V798.742H1357V676.742Z" fill="#D0D0D0"/>
<path d="M1357 676.742H924V798.742H1357V676.742Z" fill="#D0D0D0"/>
<path d="M1320 699.742H1054V712.742H1320V699.742Z" fill="#F3F3F3"/>
<path d="M1128.74 730.27H1053.8V743.651H1128.74V730.27Z" fill="#F3F3F3"/>
<path d="M986.224 775.766C1008.03 775.766 1025.7 758.092 1025.7 736.29C1025.7 714.488 1008.03 696.814 986.224 696.814C964.423 696.814 946.749 714.488 946.749 736.29C946.749 758.092 964.423 775.766 986.224 775.766Z" fill="#F3F3F3"/>
<path d="M1357 507.742H924V629.742H1357V507.742Z" fill="#D0D0D0"/>
<path d="M1357 507.742H924V629.742H1357V507.742Z" fill="#D0D0D0"/>
<path d="M1320 530.742H1054V543.742H1320V530.742Z" fill="#F3F3F3"/>
<path d="M1128.74 561.27H1053.8V574.651H1128.74V561.27Z" fill="#F3F3F3"/>
<path d="M986.224 606.766C1008.03 606.766 1025.7 589.092 1025.7 567.29C1025.7 545.488 1008.03 527.814 986.224 527.814C964.423 527.814 946.749 545.488 946.749 567.29C946.749 589.092 964.423 606.766 986.224 606.766Z" fill="#F3F3F3"/>
</svg>
