<svg width="1412" height="1196" viewBox="0 0 1412 1196" fill="none" xmlns="http://www.w3.org/2000/svg">
<path d="M175 1143L268 987" stroke="#ED7562" stroke-width="4" stroke-linecap="round" stroke-linejoin="round"/>
<path d="M135 1143L228 987" stroke="#ED7562" stroke-width="4" stroke-linecap="round" stroke-linejoin="round"/>
<path d="M432 1143L338 987" stroke="#ED7562" stroke-width="4" stroke-linecap="round" stroke-linejoin="round"/>
<path d="M218.243 658H80.9998L173.171 991H407V979.137H233.585L218.243 658Z" fill="#ED7562"/>
<path d="M391 1143L297 987" stroke="#ED7562" stroke-width="4" stroke-linecap="round" stroke-linejoin="round"/>
<path d="M239.34 649C128.453 649 153.79 899.017 167.846 909.578C181.901 920.138 305.114 921.109 313.135 910.548C321.157 899.987 370.931 649 239.34 649Z" fill="#FED385"/>
<path d="M334.34 708.742C340.741 710.647 371.992 735.986 377.451 766.423C383.012 765.792 416.377 764.477 430.279 763.942C434.826 757.241 444.399 752.595 455.506 752.595C470.986 752.595 483.542 761.599 483.542 772.699C483.542 772.946 483.542 773.179 483.542 773.425H427.571C427.571 773.179 427.571 772.946 427.571 772.699C427.59 769.894 428.389 767.143 429.888 764.723L381.26 772.055L323.494 777.742L317.542 729.997L334.34 708.742Z" fill="#DE8E68"/>
<path d="M286.542 674.939C286.542 671.1 296.813 666.742 304.355 666.742C324.486 666.742 358.542 700.898 358.542 705.188C358.542 709.477 334.023 728.577 315.183 729.725C296.343 730.872 286.542 674.939 286.542 674.939Z" fill="#FCC486"/>
<path d="M219.542 601.742H262.542V658.912C262.542 667.984 219.542 668.053 219.542 658.912V601.742Z" fill="#DE8E68"/>
<path d="M205.744 580.712C200.024 546.711 214.947 516.191 239.077 512.544C263.206 508.896 287.404 533.504 293.124 567.505C298.844 601.507 283.92 632.027 259.791 635.674C235.661 639.321 211.464 614.714 205.744 580.712Z" fill="#DE8E68"/>
<path d="M209.542 593.742C202.914 593.742 197.542 588.593 197.542 582.242C197.542 575.891 202.914 570.742 209.542 570.742C216.169 570.742 221.542 575.891 221.542 582.242C221.542 588.593 216.169 593.742 209.542 593.742Z" fill="#DE8E68"/>
<path d="M114.41 560.329C101.974 578.031 98.4476 601.993 82.6955 624.416C70.2596 642.119 51.9708 653.947 37.0477 675.19C10.5179 712.956 25.6146 741.187 40.0924 751.357C76.8437 777.175 113.706 755.48 130.287 731.877C156.817 694.111 135.632 672.179 167.136 627.332C197.812 583.666 160.256 566.096 166.888 556.655C170.205 551.934 180.739 550.029 183.653 549.432C186.567 548.836 186.659 535.681 184.432 534.117C182.205 532.552 139.282 524.923 114.41 560.329Z" fill="black"/>
<path d="M241.435 497.74C292.796 497.74 303.542 534.428 303.542 545.021C303.542 555.615 296.412 563.467 292.767 563.727C290.502 551.061 279.698 533.583 279.19 533.187C276.286 535.914 265.525 544.667 254.504 545.458C245.323 545.9 236.408 548.507 228.584 553.038C227.936 556.561 226.522 559.921 224.43 562.908C221.459 567.403 216.971 570.834 211.681 572.656C210.391 575.701 209.65 578.926 209.488 582.2C209.488 596.761 210.94 602.65 212.392 606.74C188.723 606.74 177.542 583.85 177.542 554.933C177.542 507.325 222.412 497.74 241.435 497.74Z" fill="black"/>
<path d="M251.095 736.742C256.12 737.891 276.261 749.747 288.339 770.205C300.217 768.099 348.532 756.626 391.42 756.626C395.451 756.626 405.918 753.481 410.136 753.481C435.287 753.481 440.542 766.39 440.542 770.205C440.542 774.021 439.678 774.13 438.9 774.13C352.52 774.13 330.795 808.742 282.206 808.742C266.485 808.742 234.078 797.925 214.542 770.219C221.395 748.147 251.095 736.742 251.095 736.742Z" fill="#DE8E68"/>
<path d="M165.794 689.055C138.868 714.187 206.959 783.753 217.878 782.731C228.798 781.709 268.167 741.848 268.54 729.731C268.914 717.614 191.815 664.751 165.794 689.055Z" fill="#FED892"/>
<path d="M497.001 563.741C497.001 406.269 471.649 189.977 605.001 78.7401C704.501 -4.25869 948.501 -45.2581 1058 102.741" stroke="#DFDFDF" stroke-width="8" stroke-miterlimit="10" stroke-linejoin="round" stroke-dasharray="20 20"/>
<path d="M111.542 776.742H722.542V795.742H111.542V776.742Z" fill="#FD8369"/>
<path d="M114 1110.66V796" stroke="#FD8369" stroke-width="4" stroke-linecap="round" stroke-linejoin="round"/>
<path d="M645.146 1110.66V796" stroke="#FD8369" stroke-width="4" stroke-linecap="round" stroke-linejoin="round"/>
<path d="M157.058 1173.71V796" stroke="#FD8369" stroke-width="4" stroke-linecap="round" stroke-linejoin="round"/>
<path d="M720 1163.71V786" stroke="#FD8369" stroke-width="4" stroke-linecap="round" stroke-linejoin="round"/>
<path d="M420.837 1132.83L448.448 1137.12L444.61 1161.8L417 1157.5L420.837 1132.83Z" fill="#DE8E68"/>
<path d="M578 1119.22L601.434 1104L615.034 1124.94L591.6 1140.16L578 1119.22Z" fill="#DE8E68"/>
<path d="M489.098 877C508.277 877 604 1099.52 604 1107.64C604 1115.77 583.225 1125 580.159 1125C575.382 1120.57 483.75 988.322 474.211 979.096C464.671 969.87 489.098 877 489.098 877Z" fill="#56CAD8"/>
<path d="M168.139 922.013C168.139 915.887 167.064 908.793 170.906 907.211C262.13 869.844 395.682 865 416.258 865C436.835 865 497 867.08 497 884.19C497 945.99 462.344 1136.25 455.303 1143.36C451.962 1146.7 422.826 1144.47 419.198 1140.85C419.442 1125.18 410.279 967.772 418.639 948.711C341.969 976.633 254.903 989.854 231.961 989.854C165.472 989.782 168.139 929.279 168.139 922.013Z" fill="#74D5DE"/>
<path d="M586 1132.39L609.053 1117.01L671.101 1104L677 1113.75L603.883 1159L586 1132.39Z" fill="black"/>
<path d="M416.819 1148L443.959 1152.31L498 1184.8L495.76 1196L412 1179.72L416.819 1148Z" fill="black"/>
<path d="M396.542 773.742H497.542V776.742H396.542V773.742Z" fill="#838383"/>
<path d="M388.542 549.742H609.542V702.742H388.542V549.742Z" fill="#E0DFDF"/>
<path d="M530.067 672.742L560.542 776.742H507.124L477.542 672.742H530.067Z" fill="#AFAFAF"/>
<path d="M869 855.744V106.742H1291L1412 227.742V855.744H869Z" fill="#F3F3F3"/>
<path d="M1291.03 106.742L1412 227.649H1303.88C1303.88 227.649 1298.84 228.489 1294.64 225.13C1290.44 221.771 1291.03 215.054 1291.03 215.054V106.742Z" fill="#D0D0D0"/>
<path d="M1357 337.742H924V459.742H1357V337.742Z" fill="#D0D0D0"/>
<path d="M1357 337.742H924V459.742H1357V337.742Z" fill="#D0D0D0"/>
<path d="M1320 360.742H1054V373.742H1320V360.742Z" fill="#F3F3F3"/>
<path d="M1128.74 391.27H1053.8V404.651H1128.74V391.27Z" fill="#F3F3F3"/>
<path d="M986.224 436.766C1008.03 436.766 1025.7 419.092 1025.7 397.29C1025.7 375.488 1008.03 357.814 986.224 357.814C964.423 357.814 946.749 375.488 946.749 397.29C946.749 419.092 964.423 436.766 986.224 436.766Z" fill="#F3F3F3"/>
<path d="M1357 676.742H924V798.742H1357V676.742Z" fill="#D0D0D0"/>
<path d="M1357 676.742H924V798.742H1357V676.742Z" fill="#D0D0D0"/>
<path d="M1320 699.742H1054V712.742H1320V699.742Z" fill="#F3F3F3"/>
<path d="M1128.74 730.27H1053.8V743.651H1128.74V730.27Z" fill="#F3F3F3"/>
<path d="M986.224 775.766C1008.03 775.766 1025.7 758.092 1025.7 736.29C1025.7 714.488 1008.03 696.814 986.224 696.814C964.423 696.814 946.749 714.488 946.749 736.29C946.749 758.092 964.423 775.766 986.224 775.766Z" fill="#F3F3F3"/>
<path d="M1357 507.742H924V629.742H1357V507.742Z" fill="#D0D0D0"/>
<path d="M1357 507.742H924V629.742H1357V507.742Z" fill="#D0D0D0"/>
<path d="M1320 530.742H1054V543.742H1320V530.742Z" fill="#F3F3F3"/>
<path d="M1128.74 561.27H1053.8V574.651H1128.74V561.27Z" fill="#F3F3F3"/>
<path d="M986.224 606.766C1008.03 606.766 1025.7 589.092 1025.7 567.29C1025.7 545.488 1008.03 527.814 986.224 527.814C964.423 527.814 946.749 545.488 946.749 567.29C946.749 589.092 964.423 606.766 986.224 606.766Z" fill="#F3F3F3"/>
<path d="M1016.52 237.224C1011.65 245.024 1004.87 251.459 996.825 255.925C988.781 260.39 979.733 262.74 970.53 262.754C961.327 262.767 952.271 260.443 944.214 256.001C943.924 255.842 943.369 255.516 943.369 255.516C943.369 255.516 944.533 251.757 943.992 244.962C943.565 239.594 941.784 234.629 941.784 234.627C944.63 237.746 947.978 240.391 951.705 242.445C957.461 245.619 963.931 247.279 970.507 247.27C977.083 247.26 983.548 245.581 989.295 242.39C1004.23 234.101 1016.52 237.224 1016.52 237.224Z" fill="#E48AE0"/>
<path d="M970.555 232.48C962.809 232.48 956.529 238.543 956.529 246.023C956.529 253.503 962.809 259.566 970.555 259.566C978.301 259.566 984.581 253.503 984.581 246.023C984.581 238.543 978.301 232.48 970.555 232.48Z" fill="#EB65E5"/>
<path d="M941.72 254.55C933.912 249.685 927.47 242.916 922.999 234.881C918.529 226.846 916.176 217.807 916.163 208.614C916.149 199.422 918.476 190.376 922.923 182.328C923.082 182.039 923.408 181.484 923.408 181.484C923.408 181.484 927.171 182.647 933.974 182.107C939.349 181.68 944.319 179.9 944.321 179.9C941.198 182.744 938.551 186.088 936.494 189.81C933.317 195.561 931.655 202.024 931.664 208.592C931.673 215.16 933.354 221.618 936.549 227.359C944.847 242.274 941.72 254.55 941.72 254.55Z" fill="#F0DC0A"/>
<path d="M946.472 208.638C946.472 200.901 940.402 194.628 932.914 194.628C925.425 194.628 919.355 200.901 919.355 208.638C919.355 216.376 925.425 222.648 932.914 222.648C940.402 222.648 946.472 216.376 946.472 208.638Z" fill="#EFF309"/>
<path d="M924.383 179.83C929.254 172.03 936.03 165.595 944.074 161.13C952.118 156.664 961.167 154.314 970.37 154.301C979.573 154.287 988.629 156.611 996.686 161.053C996.975 161.213 997.531 161.538 997.531 161.538C997.531 161.538 996.367 165.297 996.907 172.092C997.335 177.461 999.116 182.426 999.116 182.427C996.269 179.309 992.921 176.664 989.195 174.61C983.438 171.435 976.968 169.775 970.393 169.785C963.817 169.794 957.352 171.473 951.604 174.664C936.672 182.953 924.383 179.83 924.383 179.83Z" fill="#FF9900"/>
<path d="M970.344 184.577C978.09 184.577 984.37 178.513 984.37 171.033C984.37 163.554 978.09 157.49 970.344 157.49C962.598 157.49 956.318 163.554 956.318 171.033C956.318 178.513 962.598 184.577 970.344 184.577Z" fill="#FFBB55"/>
<path d="M999.173 162.512C1006.98 167.377 1013.42 174.146 1017.89 182.181C1022.36 190.216 1024.72 199.255 1024.73 208.448C1024.74 217.64 1022.42 226.686 1017.97 234.734C1017.81 235.023 1017.48 235.578 1017.48 235.578C1017.48 235.578 1013.72 234.415 1006.92 234.956C1001.54 235.382 996.574 237.162 996.572 237.162C999.695 234.318 1002.34 230.974 1004.4 227.252C1007.58 221.501 1009.24 215.038 1009.23 208.47C1009.22 201.902 1007.54 195.444 1004.34 189.703C996.046 174.788 999.173 162.512 999.173 162.512Z" fill="#96CA2C"/>
<path d="M994.422 208.422C994.422 216.16 1000.49 222.433 1007.98 222.433C1015.47 222.433 1021.54 216.16 1021.54 208.422C1021.54 200.685 1015.47 194.412 1007.98 194.412C1000.49 194.412 994.422 200.685 994.422 208.422Z" fill="#B4E654"/>
<path d="M1016.49 237.214C1011.62 245.013 1004.85 251.448 996.802 255.913L989.273 242.378C1004.21 234.09 1016.49 237.214 1016.49 237.214Z" fill="#E48AE0"/>
</svg>
