<?xml version="1.0" encoding="UTF-8" standalone="no"?><!DOCTYPE svg PUBLIC "-//W3C//DTD SVG 1.1//EN" "http://www.w3.org/Graphics/SVG/1.1/DTD/svg11.dtd"><svg width="100%" height="100%" viewBox="0 0 575 372" version="1.1" xmlns="http://www.w3.org/2000/svg" xmlns:xlink="http://www.w3.org/1999/xlink" xml:space="preserve" xmlns:serif="http://www.serif.com/" style="fill-rule:evenodd;clip-rule:evenodd;stroke-miterlimit:10;"><path d="M70,161l0,66l127,0" style="fill:none;stroke:#d0d0d0;stroke-width:4px;"/><path d="M574.308,69c0.957,-8.5 -2.103,-17 -6.223,-23.396c-5.578,-8.663 -13.976,-15.134 -23.775,-18.32c-9.798,-3.186 -20.396,-2.891 -30.003,0.834c-6.142,-9.413 -14.728,-16.98 -24.839,-21.89c-10.111,-4.91 -21.366,-6.979 -32.563,-5.985c-11.196,0.993 -21.911,5.011 -31,11.624c-9.088,6.614 -16.208,15.573 -20.598,25.921c-8.65,-3.498 -18.177,-4.204 -27.248,-2.018c-9.071,2.186 -17.231,7.153 -23.338,14.207c-6.108,7.054 -9.856,15.842 -10.721,25.132c0,12.891 11.808,26.391 26.807,26.391c0,0 10.501,20.317 44.001,19.5c33.5,-0.817 42.097,-10.5 42.097,-10.5c0,0 12.902,12.5 44.402,10.5c31.501,-2 38.501,-19.5 38.501,-19.5c19.591,-5.055 32.109,-11.269 34.5,-32.5Z" style="fill:#d0d0d0;fill-rule:nonzero;"/><path d="M423.309,76c4.142,0 7.5,-3.358 7.5,-7.5c0,-4.142 -3.358,-7.5 -7.5,-7.5c-4.143,0 -7.5,3.358 -7.5,7.5c0,4.142 3.357,7.5 7.5,7.5Z" style="fill:#fff;fill-rule:nonzero;"/><path d="M353.5,128c4.142,0 7.5,-3.358 7.5,-7.5c0,-4.142 -3.358,-7.5 -7.5,-7.5c-4.142,0 -7.5,3.358 -7.5,7.5c0,4.142 3.358,7.5 7.5,7.5Z" style="fill:#d0d0d0;fill-rule:nonzero;"/><path d="M334.5,139c3.038,0 5.5,-2.462 5.5,-5.5c0,-3.038 -2.462,-5.5 -5.5,-5.5c-3.038,0 -5.5,2.462 -5.5,5.5c0,3.038 2.462,5.5 5.5,5.5Z" style="fill:#d0d0d0;fill-rule:nonzero;"/><path d="M323.5,154c1.933,0 3.5,-1.567 3.5,-3.5c0,-1.933 -1.567,-3.5 -3.5,-3.5c-1.933,0 -3.5,1.567 -3.5,3.5c0,1.933 1.567,3.5 3.5,3.5Z" style="fill:#d0d0d0;fill-rule:nonzero;"/><path d="M458.508,76c4.142,0 7.5,-3.358 7.5,-7.5c0,-4.142 -3.358,-7.5 -7.5,-7.5c-4.142,0 -7.5,3.358 -7.5,7.5c0,4.142 3.358,7.5 7.5,7.5Z" style="fill:#fff;fill-rule:nonzero;"/><path d="M493.809,76c4.142,0 7.5,-3.358 7.5,-7.5c0,-4.142 -3.358,-7.5 -7.5,-7.5c-4.143,0 -7.5,3.358 -7.5,7.5c0,4.142 3.357,7.5 7.5,7.5Z" style="fill:#fff;fill-rule:nonzero;"/><rect x="0.512" y="40" width="138.186" height="33.305" style="fill:#d0d0d0;fill-rule:nonzero;"/><rect x="42" y="45.342" width="84.891" height="4.149" style="fill:#f3f3f3;fill-rule:nonzero;"/><rect x="41.936" y="55.084" width="23.915" height="4.271" style="fill:#f3f3f3;fill-rule:nonzero;"/><path d="M20.37,69.603c6.957,0 12.598,-5.64 12.598,-12.598c0,-6.958 -5.641,-12.598 -12.598,-12.598c-6.958,0 -12.599,5.64 -12.599,12.598c0,6.958 5.641,12.598 12.599,12.598Z" style="fill:#f3f3f3;fill-rule:nonzero;"/><rect x="0.512" y="128.096" width="138.186" height="33.305" style="fill:#d0d0d0;fill-rule:nonzero;"/><rect x="42" y="133.116" width="84.891" height="4.149" style="fill:#f3f3f3;fill-rule:nonzero;"/><rect x="41.936" y="142.859" width="23.915" height="4.27" style="fill:#f3f3f3;fill-rule:nonzero;"/><path d="M20.37,157.378c6.957,0 12.598,-5.64 12.598,-12.598c0,-6.957 -5.641,-12.598 -12.598,-12.598c-6.958,0 -12.599,5.641 -12.599,12.598c0,6.958 5.641,12.598 12.599,12.598Z" style="fill:#f3f3f3;fill-rule:nonzero;"/><rect x="0" y="84.049" width="138.59" height="33.304" style="fill:#d0d0d0;fill-rule:nonzero;"/><rect x="42" y="88.852" width="84.891" height="4.149" style="fill:#f3f3f3;fill-rule:nonzero;"/><rect x="41.938" y="98.594" width="23.915" height="4.271" style="fill:#f3f3f3;fill-rule:nonzero;"/><path d="M20.372,113.114c6.957,0 12.598,-5.641 12.598,-12.598c0,-6.958 -5.641,-12.599 -12.598,-12.599c-6.958,0 -12.599,5.641 -12.599,12.599c0,6.957 5.641,12.598 12.599,12.598Z" style="fill:#f3f3f3;fill-rule:nonzero;"/><path d="M209.287,372l111,0l0,-100l-111,0" style="fill:#041728;fill-rule:nonzero;"/><path d="M224.679,180.842c0,13.668 5.193,26.552 1.025,39.76c0,13.668 -11.379,17.915 -4.487,33.545c5.096,10.344 29.924,13.853 40.967,13.853c28.032,0 54.816,-4.287 54.816,-22.511c0,-29.158 -13.271,-18.478 -13.271,-53.103c0,-33.714 -3.477,-30.047 -12.117,-47.331c-2.02,-4.041 -9.233,-13.853 -24.235,-15.01c-9.022,-0.696 -22.111,6.929 -22.111,6.929c0,0 -20.587,16.532 -20.587,43.868Z" style="fill-rule:nonzero;"/><path d="M267.324,219.288c-63.836,0 -44.325,146.212 -38.825,152.712l75,0c6.437,-6.485 29.111,-152.712 -36.175,-152.712Z" style="fill:#fed385;fill-rule:nonzero;"/><path d="M276.716,197.158l-19.366,0l0,28.136c0,3.604 19.366,3.604 19.366,0l0,-28.136Z" style="fill:#d37c59;fill-rule:nonzero;"/><path d="M224.437,242c0,0 -51.341,63.204 -26.786,74c36.726,0 62.349,0 62.349,0l-0.427,-12.091c0,0 -41.637,-0.648 -45.694,-7.126c-4.057,-6.693 12.811,-22.239 12.811,-22.239" style="fill:#de8e68;fill-rule:nonzero;"/><path d="M229.905,307.003c0.324,-5.524 5.727,-9.701 12.068,-9.328c6.34,0.372 11.217,5.153 10.892,10.678c-0.324,5.524 -5.728,9.701 -12.068,9.329c-6.34,-0.373 -11.217,-5.154 -10.892,-10.679Z" style="fill:#de8e68;fill-rule:nonzero;"/><path d="M276.588,307.003c0.325,-5.524 5.728,-9.701 12.068,-9.328c6.341,0.372 11.217,5.153 10.893,10.678c-0.325,5.524 -5.728,9.701 -12.068,9.329c-6.341,-0.373 -11.217,-5.154 -10.893,-10.679Z" style="fill:#de8e68;fill-rule:nonzero;"/><path d="M308.643,241c0,0 44.573,65.119 19.929,76c-36.857,0 -62.572,0 -62.572,0l4.072,-11.969c0,0 40.286,0 44.357,-6.529c4.072,-6.746 -6.643,-20.02 -6.643,-20.02" style="fill:#de8e68;fill-rule:nonzero;"/><path d="M238.123,229.594c-13.719,-7.026 -36.358,23.185 -35.666,29.19c0.87,7.561 19.782,18.778 30.183,18.871c4.908,-0.002 16.735,-42.263 5.483,-48.061Z" style="fill:#fed892;fill-rule:nonzero;"/><path d="M291.94,229.747c-13.271,8.428 1.583,44.009 7.199,46.472c7.125,3.181 26.775,-7.786 32.238,-16.895c2.493,-4.298 -28.53,-36.474 -39.437,-29.577Z" style="fill:#fed892;fill-rule:nonzero;"/><path d="M266,209c13.255,0 24,-17.685 24,-39.5c0,-21.815 -10.745,-39.5 -24,-39.5c-13.255,0 -24,17.685 -24,39.5c0,21.815 10.745,39.5 24,39.5Z" style="fill:#de8e68;fill-rule:nonzero;"/><path d="M283.141,135.31c-8.281,-6.779 -26.618,-8.472 -38.706,3.389c-7.873,7.726 -7.431,18.074 -7.43,23.723c0,4.519 0,12.427 5.65,16.578c0,-1.757 -0.356,-16.435 1.78,-18.816c2.968,-3.4 40.772,1.644 40.772,-10.314c6.808,9.163 5.033,22.995 5.033,24.979c1.052,-9.239 5.915,-24.979 -7.099,-39.539Z" style="fill-rule:nonzero;"/><rect x="45" y="327" width="11" height="45" style="fill:#c4996c;fill-rule:nonzero;"/><rect x="472" y="327" width="12" height="45" style="fill:#c4996c;fill-rule:nonzero;"/><rect x="45" y="316" width="439" height="25" style="fill:#c4996c;fill-rule:nonzero;"/><rect x="203" y="312" width="123" height="4" style="fill:#74d5de;fill-rule:nonzero;"/><rect x="183" y="184" width="161" height="104" style="fill:#74d5de;fill-rule:nonzero;"/><rect x="249" y="259" width="30" height="53" style="fill:#56cad8;fill-rule:nonzero;"/></svg>