<svg width="654" height="386" viewBox="0 0 654 386" fill="none" xmlns="http://www.w3.org/2000/svg">
<path d="M1.19141 54V378H249.191V108.334L194.502 54H1.19141Z" fill="white" stroke="#D3D3D3" stroke-width="2"/>
<path d="M73.0308 115.703C70.4567 119.825 66.8759 123.225 62.6247 125.585C58.3737 127.945 53.5917 129.187 48.7283 129.194C43.8648 129.201 39.0793 127.973 34.8213 125.626C34.6684 125.541 34.3749 125.369 34.3749 125.369C34.3749 125.369 34.9901 123.383 34.7043 119.792C34.4784 116.955 33.5371 114.331 33.5371 114.33C35.0415 115.978 36.8108 117.376 38.7799 118.462C41.8223 120.139 45.2414 121.016 48.7163 121.011C52.1913 121.006 55.6079 120.119 58.6453 118.433C66.5362 114.052 73.0308 115.703 73.0308 115.703Z" fill="#E48AE0"/>
<path d="M48.7421 113.195C44.6485 113.195 41.33 116.399 41.33 120.352C41.33 124.304 44.6485 127.509 48.7421 127.509C52.8358 127.509 56.1543 124.304 56.1543 120.352C56.1543 116.399 52.8358 113.195 48.7421 113.195Z" fill="#EB65E5"/>
<path d="M33.5044 124.858C29.3779 122.287 25.9735 118.71 23.6109 114.464C21.2484 110.217 20.0052 105.441 19.9981 100.583C19.9911 95.7244 21.2203 90.9442 23.5705 86.691C23.6549 86.5382 23.8272 86.245 23.8272 86.245C23.8272 86.245 25.8157 86.8596 29.4106 86.5741C32.251 86.3484 34.8777 85.4082 34.8785 85.4082C33.2286 86.9109 31.8293 88.6783 30.7424 90.6452C29.0633 93.6842 28.185 97.0995 28.19 100.571C28.195 104.042 29.0833 107.454 30.7714 110.489C35.1568 118.371 33.5044 124.858 33.5044 124.858Z" fill="#F0DC0A"/>
<path d="M36.0157 100.596C36.0157 96.5065 32.8078 93.1917 28.8506 93.1917C24.8935 93.1917 21.6855 96.5065 21.6855 100.596C21.6855 104.685 24.8935 108 28.8506 108C32.8078 108 36.0157 104.685 36.0157 100.596Z" fill="#EFF309"/>
<path d="M24.3418 85.3716C26.9159 81.2498 30.4967 77.8491 34.7479 75.4892C38.9989 73.1292 43.7808 71.8874 48.6443 71.8804C53.5078 71.8733 58.2933 73.1012 62.5512 75.4488C62.7042 75.5331 62.9977 75.7052 62.9977 75.7052C62.9977 75.7052 62.3825 77.6915 62.6683 81.2824C62.8941 84.1197 63.8354 86.7434 63.8355 86.7443C62.3311 85.0962 60.5617 83.6984 58.5926 82.6128C55.5503 80.9355 52.1311 80.0581 48.6562 80.0632C45.1813 80.0682 41.7646 80.9555 38.7272 82.6416C30.8362 87.0222 24.3418 85.3716 24.3418 85.3716Z" fill="#FF9900"/>
<path d="M48.6309 87.8797C52.7245 87.8797 56.043 84.6753 56.043 80.7225C56.043 76.7698 52.7245 73.5654 48.6309 73.5654C44.5373 73.5654 41.2188 76.7698 41.2188 80.7225C41.2188 84.6753 44.5373 87.8797 48.6309 87.8797Z" fill="#FFBB55"/>
<path d="M63.8664 76.2192C67.9928 78.7905 71.3973 82.3673 73.7598 86.6137C76.1224 90.8602 77.3656 95.6367 77.3727 100.495C77.3797 105.353 76.1504 110.133 73.8003 114.386C73.7158 114.539 73.5436 114.832 73.5436 114.832C73.5436 114.832 71.5551 114.218 67.9602 114.503C65.1198 114.729 62.4931 115.669 62.4922 115.669C64.1422 114.166 65.5415 112.399 66.6283 110.432C68.3075 107.393 69.1858 103.978 69.1808 100.507C69.1757 97.0356 68.2874 93.6228 66.5994 90.5888C62.214 82.7066 63.8664 76.2192 63.8664 76.2192Z" fill="#96CA2C"/>
<path d="M61.3554 100.482C61.3554 104.571 64.5633 107.885 68.5205 107.885C72.4776 107.885 75.6855 104.571 75.6855 100.482C75.6855 96.3925 72.4776 93.0776 68.5205 93.0776C64.5633 93.0776 61.3554 96.3925 61.3554 100.482Z" fill="#B4E654"/>
<path d="M73.0203 115.697C70.4459 119.819 66.865 123.219 62.6137 125.579L58.6348 118.426C66.526 114.046 73.0203 115.697 73.0203 115.697Z" fill="#E48AE0"/>
<path d="M195.204 53L250.191 107.958H201.047C201.047 107.958 198.757 108.339 196.848 106.813C194.939 105.286 195.204 102.233 195.204 102.233V53Z" fill="#D0D0D0"/>
<path d="M22.8374 149.336L26.3237 158.037L29.8101 149.336H31.6338V160H30.2275V155.847L30.3594 151.365L26.8584 160H25.7817L22.2881 151.387L22.4272 155.847V160H21.021V149.336H22.8374ZM37.1929 160.146C36.1187 160.146 35.2446 159.795 34.5708 159.092C33.897 158.384 33.5601 157.439 33.5601 156.257V156.008C33.5601 155.222 33.709 154.521 34.0068 153.906C34.3096 153.286 34.7295 152.803 35.2666 152.456C35.8086 152.104 36.3945 151.929 37.0244 151.929C38.0547 151.929 38.8555 152.268 39.4268 152.947C39.998 153.625 40.2837 154.597 40.2837 155.862V156.426H34.915C34.9346 157.207 35.1616 157.839 35.5962 158.323C36.0356 158.801 36.5923 159.041 37.2661 159.041C37.7446 159.041 38.1499 158.943 38.4819 158.748C38.814 158.552 39.1045 158.293 39.3535 157.971L40.1812 158.616C39.5171 159.636 38.521 160.146 37.1929 160.146ZM37.0244 153.042C36.4775 153.042 36.0186 153.242 35.6475 153.643C35.2764 154.038 35.0469 154.595 34.959 155.312H38.9287V155.21C38.8896 154.521 38.7041 153.989 38.3721 153.613C38.04 153.232 37.5908 153.042 37.0244 153.042ZM45.147 160.146C44.0728 160.146 43.1987 159.795 42.5249 159.092C41.8511 158.384 41.5142 157.439 41.5142 156.257V156.008C41.5142 155.222 41.6631 154.521 41.9609 153.906C42.2637 153.286 42.6836 152.803 43.2207 152.456C43.7627 152.104 44.3486 151.929 44.9785 151.929C46.0088 151.929 46.8096 152.268 47.3809 152.947C47.9521 153.625 48.2378 154.597 48.2378 155.862V156.426H42.8691C42.8887 157.207 43.1157 157.839 43.5503 158.323C43.9897 158.801 44.5464 159.041 45.2202 159.041C45.6987 159.041 46.104 158.943 46.436 158.748C46.7681 158.552 47.0586 158.293 47.3076 157.971L48.1353 158.616C47.4712 159.636 46.4751 160.146 45.147 160.146ZM44.9785 153.042C44.4316 153.042 43.9727 153.242 43.6016 153.643C43.2305 154.038 43.001 154.595 42.9131 155.312H46.8828V155.21C46.8438 154.521 46.6582 153.989 46.3262 153.613C45.9941 153.232 45.5449 153.042 44.9785 153.042ZM51.6509 150.156V152.075H53.1304V153.123H51.6509V158.037C51.6509 158.354 51.7168 158.594 51.8486 158.755C51.9805 158.911 52.2051 158.989 52.5225 158.989C52.6787 158.989 52.8936 158.96 53.167 158.901V160C52.8105 160.098 52.4639 160.146 52.127 160.146C51.5215 160.146 51.0649 159.963 50.7573 159.597C50.4497 159.231 50.2959 158.711 50.2959 158.037V153.123H48.853V152.075H50.2959V150.156H51.6509ZM56.1919 160H54.8369V152.075H56.1919V160ZM54.7271 149.973C54.7271 149.753 54.793 149.568 54.9248 149.417C55.0615 149.265 55.2617 149.189 55.5254 149.189C55.7891 149.189 55.9893 149.265 56.126 149.417C56.2627 149.568 56.3311 149.753 56.3311 149.973C56.3311 150.193 56.2627 150.376 56.126 150.522C55.9893 150.669 55.7891 150.742 55.5254 150.742C55.2617 150.742 55.0615 150.669 54.9248 150.522C54.793 150.376 54.7271 150.193 54.7271 149.973ZM59.6489 152.075L59.6929 153.071C60.2983 152.31 61.0894 151.929 62.0659 151.929C63.7407 151.929 64.5854 152.874 64.6001 154.763V160H63.2451V154.756C63.2402 154.185 63.1084 153.762 62.8496 153.489C62.5957 153.215 62.1978 153.079 61.6558 153.079C61.2163 153.079 60.8306 153.196 60.4985 153.43C60.1665 153.665 59.9077 153.972 59.7222 154.353V160H58.3672V152.075H59.6489ZM66.3213 155.972C66.3213 154.736 66.6069 153.755 67.1782 153.027C67.7495 152.295 68.5063 151.929 69.4487 151.929C70.4155 151.929 71.1699 152.271 71.7119 152.954L71.7778 152.075H73.0156V159.81C73.0156 160.835 72.7104 161.643 72.1001 162.234C71.4946 162.825 70.6792 163.12 69.6538 163.12C69.0825 163.12 68.5234 162.998 67.9766 162.754C67.4297 162.51 67.0122 162.175 66.7241 161.75L67.4272 160.938C68.0083 161.655 68.7188 162.014 69.5586 162.014C70.2178 162.014 70.7305 161.829 71.0967 161.458C71.4678 161.086 71.6533 160.564 71.6533 159.89V159.209C71.1113 159.834 70.3716 160.146 69.4341 160.146C68.5063 160.146 67.7544 159.773 67.1782 159.026C66.6069 158.279 66.3213 157.261 66.3213 155.972ZM67.6836 156.125C67.6836 157.019 67.8667 157.722 68.2329 158.235C68.5991 158.743 69.1118 158.997 69.771 158.997C70.6255 158.997 71.2529 158.608 71.6533 157.832V154.214C71.2383 153.457 70.6157 153.079 69.7856 153.079C69.1265 153.079 68.6113 153.335 68.2402 153.848C67.8691 154.36 67.6836 155.12 67.6836 156.125ZM82.1416 155.247C80.9355 154.9 80.0566 154.475 79.5049 153.972C78.958 153.464 78.6846 152.839 78.6846 152.097C78.6846 151.257 79.019 150.564 79.688 150.017C80.3618 149.465 81.2358 149.189 82.3101 149.189C83.0425 149.189 83.6943 149.331 84.2656 149.614C84.8418 149.897 85.2861 150.288 85.5986 150.786C85.916 151.284 86.0747 151.829 86.0747 152.419H84.6611C84.6611 151.775 84.4561 151.27 84.0459 150.903C83.6357 150.532 83.0571 150.347 82.3101 150.347C81.6167 150.347 81.0747 150.5 80.6841 150.808C80.2983 151.111 80.1055 151.533 80.1055 152.075C80.1055 152.51 80.2886 152.878 80.6548 153.181C81.0259 153.479 81.6533 153.752 82.5371 154.001C83.4258 154.25 84.1191 154.526 84.6172 154.829C85.1201 155.127 85.4912 155.476 85.7305 155.876C85.9746 156.277 86.0967 156.748 86.0967 157.29C86.0967 158.154 85.7598 158.848 85.0859 159.37C84.4121 159.888 83.5112 160.146 82.3833 160.146C81.6509 160.146 80.9673 160.007 80.3325 159.729C79.6978 159.446 79.207 159.06 78.8604 158.572C78.5186 158.083 78.3477 157.529 78.3477 156.909H79.7612C79.7612 157.554 79.998 158.064 80.4717 158.44C80.9502 158.811 81.5874 158.997 82.3833 158.997C83.1255 158.997 83.6943 158.845 84.0898 158.542C84.4854 158.24 84.6831 157.827 84.6831 157.305C84.6831 156.782 84.5 156.379 84.1338 156.096C83.7676 155.808 83.1035 155.525 82.1416 155.247ZM92.5859 159.216C92.0586 159.836 91.2847 160.146 90.2642 160.146C89.4194 160.146 88.7749 159.902 88.3306 159.414C87.8911 158.921 87.6689 158.193 87.6641 157.231V152.075H89.019V157.195C89.019 158.396 89.5073 158.997 90.4839 158.997C91.519 158.997 92.2075 158.611 92.5493 157.839V152.075H93.9043V160H92.6152L92.5859 159.216ZM97.2441 152.075L97.2808 152.954C97.8618 152.271 98.6455 151.929 99.6318 151.929C100.74 151.929 101.495 152.354 101.895 153.203C102.159 152.822 102.5 152.515 102.92 152.28C103.345 152.046 103.846 151.929 104.422 151.929C106.16 151.929 107.044 152.849 107.073 154.69V160H105.718V154.771C105.718 154.204 105.589 153.782 105.33 153.503C105.071 153.22 104.637 153.079 104.026 153.079C103.523 153.079 103.106 153.23 102.774 153.533C102.442 153.831 102.249 154.233 102.195 154.741V160H100.833V154.807C100.833 153.655 100.269 153.079 99.1411 153.079C98.2524 153.079 97.6445 153.457 97.3174 154.214V160H95.9624V152.075H97.2441ZM110.398 152.075L110.435 152.954C111.016 152.271 111.8 151.929 112.786 151.929C113.895 151.929 114.649 152.354 115.049 153.203C115.313 152.822 115.655 152.515 116.075 152.28C116.5 152.046 117 151.929 117.576 151.929C119.314 151.929 120.198 152.849 120.228 154.69V160H118.873V154.771C118.873 154.204 118.743 153.782 118.484 153.503C118.226 153.22 117.791 153.079 117.181 153.079C116.678 153.079 116.26 153.23 115.928 153.533C115.596 153.831 115.403 154.233 115.35 154.741V160H113.987V154.807C113.987 153.655 113.423 153.079 112.295 153.079C111.407 153.079 110.799 153.457 110.472 154.214V160H109.117V152.075H110.398ZM127.171 160C127.093 159.844 127.029 159.565 126.98 159.165C126.351 159.819 125.599 160.146 124.725 160.146C123.943 160.146 123.301 159.927 122.798 159.487C122.3 159.043 122.051 158.481 122.051 157.803C122.051 156.978 122.364 156.338 122.989 155.884C123.619 155.425 124.502 155.195 125.64 155.195H126.958V154.573C126.958 154.099 126.817 153.723 126.534 153.445C126.25 153.162 125.833 153.02 125.281 153.02C124.798 153.02 124.393 153.142 124.065 153.386C123.738 153.63 123.575 153.926 123.575 154.272H122.212C122.212 153.877 122.352 153.496 122.63 153.13C122.913 152.759 123.294 152.466 123.772 152.251C124.256 152.036 124.786 151.929 125.362 151.929C126.275 151.929 126.99 152.158 127.508 152.617C128.025 153.071 128.294 153.699 128.313 154.5V158.147C128.313 158.875 128.406 159.453 128.592 159.883V160H127.171ZM124.922 158.967C125.347 158.967 125.75 158.857 126.131 158.638C126.512 158.418 126.788 158.132 126.958 157.781V156.155H125.896C124.236 156.155 123.406 156.641 123.406 157.612C123.406 158.037 123.548 158.369 123.831 158.608C124.114 158.848 124.478 158.967 124.922 158.967ZM134.268 153.291C134.063 153.257 133.841 153.24 133.602 153.24C132.713 153.24 132.11 153.618 131.792 154.375V160H130.438V152.075H131.756L131.778 152.991C132.222 152.283 132.852 151.929 133.667 151.929C133.931 151.929 134.131 151.963 134.268 152.031V153.291ZM138.245 158.015L140.091 152.075H141.541L138.355 161.223C137.862 162.542 137.078 163.201 136.004 163.201L135.748 163.179L135.242 163.083V161.985L135.608 162.014C136.067 162.014 136.424 161.921 136.678 161.736C136.937 161.55 137.149 161.211 137.315 160.718L137.615 159.912L134.788 152.075H136.268L138.245 158.015Z" fill="#6B6B6B"/>
<path d="M129.461 174H21.002V183.749H129.461V174Z" fill="#74D5DE"/>
<path d="M129.461 193.498H21.002V203.247H129.461V193.498Z" fill="#74D5DE"/>
<path d="M225.734 234.703H21.168V287.291H225.734V234.703Z" fill="#CDEAED"/>
<path d="M207.976 247.158H31.8477V255.381H207.976V247.158Z" fill="#74D5DE"/>
<path d="M81.428 266.766H31.8477V274.988H81.428V266.766Z" fill="#74D5DE"/>
<path d="M225.628 308.05H21.168V360.638H225.628V308.05Z" fill="#CDEAED"/>
<path d="M208.158 319.954H32.0293V328.176H208.158V319.954Z" fill="#74D5DE"/>
<path d="M81.6097 339.561H32.0293V347.783H81.6097V339.561Z" fill="#74D5DE"/>
<path d="M204.191 373H213.191V379H204.191V373Z" fill="#DE8E68"/>
<path d="M199.311 365.365L193.299 369.969L189.191 364.604L195.204 360L199.311 365.365Z" fill="#DE8E68"/>
<path d="M230.824 266C230.824 266 237.191 322.29 237.191 323.5C237.191 324.71 199.718 368 198.82 368C197.922 368 194.191 360.716 194.191 359.45C194.191 358.184 205.73 348.602 205.73 348.602L230.824 266Z" fill="#56CAD8"/>
<path d="M203.582 373.412L198.191 265C200.724 266.834 213.766 270.583 230.191 265.981C229.051 275.499 212.953 374 212.953 374H203.635L203.582 373.412Z" fill="#74D5DE"/>
<path d="M228.923 217.424C230.137 217.322 236.511 218.58 241.851 221.108C253.664 208.4 255.898 197.222 262.744 196.839C265.972 196.568 268.894 196.779 269.107 199.318C269.32 201.857 266.487 204.082 261.705 204.484C261.178 207.771 252.559 233.529 244.897 234.172C239.585 234.619 224.134 229.963 224.023 228.636C223.911 227.309 227.912 217.509 228.923 217.424Z" fill="#DE8E68"/>
<path d="M214.674 206.462C196.739 207.366 195.845 263.485 198.309 266.584C200.773 269.683 230.845 273.887 233.806 271.123C236.767 268.359 244.674 204.948 214.674 206.462Z" fill="#FED385"/>
<path d="M211.761 194.149C211.762 194.687 211.576 206.493 209.963 210.023C209.966 211.05 221.613 211.69 221.607 209.735L221.584 201.142" fill="#D37C59"/>
<path d="M221.186 202.153C216.086 202.167 211.934 195.797 211.912 187.924C211.89 180.051 216.008 173.658 221.108 173.644C226.209 173.63 230.361 180.001 230.383 187.873C230.404 195.746 226.287 202.139 221.186 202.153Z" fill="#DE8E68"/>
<path d="M212.99 194.949L213.227 194.948L213.208 188.137C213.916 187.196 220.778 185.063 222.433 184.354C224.089 183.645 226.928 182.698 228.815 179.874C229.25 180.519 230.279 183.743 230.557 186.434C231.265 185.727 232.38 184.562 232.369 180.804C232.351 173.993 225.472 170.019 219.552 170.035C210.08 170.061 204.66 179.705 204.671 183.933C204.688 190.039 208.964 194.96 212.99 194.949Z" fill="black"/>
<path d="M190.4 182.103C187.116 185.995 185.655 191.426 181.496 196.357C178.213 200.25 173.781 202.73 169.841 207.402C162.837 215.707 165.432 222.337 168.394 224.835C175.912 231.176 184.783 226.667 189.161 221.476C196.166 213.171 192.03 207.906 200.348 198.044C208.447 188.441 200.518 183.974 202.269 181.898C203.144 180.86 205.559 180.552 206.23 180.451C206.9 180.35 207.288 177.346 206.833 176.962C206.377 176.578 196.966 174.317 190.4 182.103Z" fill="black"/>
<path d="M213.191 235.5C212.691 238 211.691 252 210.655 259.108C211.662 264.247 214.691 284.5 214.691 284.5L210.805 289.486C210.805 289.486 201.191 266.5 200.191 262C199.691 257 200.402 235.64 200.691 234.5C200.981 233.361 213.191 235.5 213.191 235.5Z" fill="#DE8E68"/>
<path d="M206.937 212.389C198.651 212.57 197.253 234.164 198.731 236.012C200.208 237.861 215.018 238.678 216.615 236.787C218.212 234.897 215.707 212.197 206.937 212.389Z" fill="#FED892"/>
<path d="M204.191 378H213.398L228.191 383.795V386H204.191V378Z" fill="black"/>
<path d="M189.181 364L194.303 370.742L198.191 384.78L196.541 386L183.191 368.424L189.181 364Z" fill="black"/>
<path d="M487.704 304.689H481.693V314.282H487.704V304.689Z" fill="#DE8E68"/>
<path d="M533.256 318.217H526.93V327.81H533.256V318.217Z" fill="#DE8E68"/>
<path d="M499.915 192.707C492.585 192.707 481.194 245.129 478.341 250.404C475.488 255.679 481.577 304.69 481.577 304.69H487.57L494.824 259.807C496.875 253.721 501.622 235.546 510.336 225.389C521.192 216.903 509.306 197.982 509.306 197.982L499.915 192.707Z" fill="#3F939D"/>
<path d="M487.643 147.564C484.038 150.847 476.828 159.077 476.233 160.131C474.411 159.239 455.435 149.023 454.009 148.375C452.583 147.726 449.572 142.578 448.542 142.578C447.948 142.578 447.393 143.753 447.393 144.564C447.393 145.942 448.027 146.996 448.423 147.442C447.076 147.239 435.191 146.307 435.191 147.118C435.191 149.226 448.502 152.023 449.532 152.59C450.562 153.158 472.232 173.67 479.759 173.67C482.691 173.67 495.645 164.671 495.645 163.698C496.873 162.847 498.775 161.59 498.775 161.59V154.455L494.259 151.091C494.259 151.05 488.356 146.915 487.643 147.564Z" fill="#DE8E68"/>
<path d="M487.389 145.394C488.18 138.878 502.923 124.075 509.682 130.672C515.571 136.424 504.899 156.979 502.172 157.784C499.089 158.105 487.192 149.819 487.389 145.394Z" fill="#FEBF92"/>
<path d="M532.465 131.718C539.971 128.504 550.481 146.181 549.296 152.609C549.296 155.421 533.887 161.447 531.516 159.84C529.146 158.233 524.958 134.932 532.465 131.718Z" fill="#FED892"/>
<path d="M501.938 195.239L527.063 318.217H533.505L535.785 208.523C535.785 206.631 535.625 194.715 535.625 193.186C528.344 195.319 512.82 197.01 501.938 195.239Z" fill="#74D5DE"/>
<path d="M527.177 327.81H533.256V334.425H516.49L527.177 327.81Z" fill="black"/>
<path d="M481.625 314.282H487.703V320.897H470.938L481.625 314.282Z" fill="black"/>
<path d="M515.911 122.069C534.631 122.069 541.164 137.869 541.164 143.001C541.164 148.133 535.308 179.449 535.547 193.39C535.587 195.694 501.97 197.755 497.39 194.401C495.239 192.825 490.618 122.069 515.911 122.069Z" fill="#FECC92"/>
<path d="M549.48 152.5C554.764 160.715 554.446 179.64 554.446 182.499C554.446 185.357 534.743 211.047 533.035 211.047C532.003 210 529.143 206.819 529.143 205.853C530.056 204.162 541.774 178.19 543.88 176.338C542.926 175.17 534.545 161.842 534.187 159.628C541.536 158.379 548.646 155.239 549.48 152.5Z" fill="#DE8E68"/>
<path d="M549.288 152.614C550.477 146.151 540.842 127.407 532.397 131.608C525.061 135.284 529.066 158.27 531.445 159.885C534.3 161.138 548.177 156.896 549.288 152.614Z" fill="#FED892"/>
<path d="M511.199 118.281C510.804 119.539 510.606 123.434 511.041 125.179C511.081 125.26 518.954 125.868 519.824 124.448C519.864 123.272 521.763 112.803 524.335 109.557C524.572 109.192 524.058 108.177 524.058 108.177L514.918 112.073L511.199 118.281Z" fill="#D38466"/>
<path d="M523.076 109.319C523.671 110.128 524.424 110.492 525.098 110.492C526.604 110.492 530.093 109.077 530.093 104.02C530.093 100.379 526.604 98.5181 526.604 96.7785C526.604 95.1199 527.04 95.0795 527.04 93.704C527.04 93.0163 526.366 90.7509 524.265 90.7509C523.076 90.7509 522.64 91.7622 521.451 91.7622C520.143 91.7622 518.953 89.1732 516.971 89.1732C515.624 89.1732 514.355 90.4677 512.928 90.4677C511.303 90.4677 510.193 88 507.933 88C505.594 88 504.762 90.1441 503.85 90.1441C502.701 90.1441 502.502 89.8204 501.353 89.8204C500.639 89.8204 498.459 91.115 498.459 93.4613C498.459 95.1199 499.133 97.8303 502.502 97.8303C504.484 97.8303 505.594 101.026 507.339 101.026C508.012 101.026 508.607 100.46 508.766 100.743C509.44 101.957 510.827 105.274 510.827 105.274L517.13 108.874L523.076 109.319Z" fill="#FD8369"/>
<path d="M521.774 107.577C521.774 108.136 521.574 108.255 520.737 108.255C520.338 108.255 519.78 107.737 519.78 107.178C519.78 105.862 520.737 105.582 520.737 103.867C520.737 100.955 513.12 99.4392 510.448 97.9233C509.491 98.8807 508.813 100.117 508.533 101.514L506.819 110.33C506.061 114.159 508.573 117.869 512.362 118.627C516.151 119.385 519.899 116.872 520.657 113.082L520.936 111.566C521.096 111.606 521.255 111.646 521.375 111.646C522.372 111.646 523.13 110.728 523.13 109.612C523.21 108.574 521.774 106.739 521.774 107.577Z" fill="#DE8E68"/>
<path d="M607.104 279.693L601.043 279.13L600.16 288.654L606.22 289.216L607.104 279.693Z" fill="#F2AE95"/>
<path d="M592.917 74.501C593.2 73.1161 594.569 71.2119 594.478 70.2391C594.426 69.6779 594.428 69.2388 593.917 69.2862C593.049 69.3669 592.44 70.0272 592.194 70.4275C592.204 69.1435 588.948 60.7614 587.186 61.0914C585.865 61.3389 587.13 71.8014 587.025 72.6647L592.917 74.501Z" fill="#F2AE95"/>
<path d="M602.493 120.372C596.305 115.545 591.062 102.98 590.235 100.797C589.407 98.6142 586.673 72.6214 587.905 72.1544C588.953 72.6713 592.384 71.9009 592.663 72.6387C592.494 74.1798 599.867 96.3195 599.625 98.6938C600.651 99.3247 610.559 109.155 611.458 110.749C606.52 113.711 602.302 118.053 602.493 120.372Z" fill="#F2AE95"/>
<path d="M611.223 109.419C615.977 111.894 623.059 127.415 616.076 130.688C609.987 133.538 597.339 119.477 597.507 117.161C598.147 114.712 607.897 107.997 611.223 109.419Z" fill="#FEBF92"/>
<path d="M593.75 164.278C593.342 165.759 570.446 218.995 570.446 218.995L558.773 270.047L565.191 272.17L586.946 226.495L600.09 211.146L611.694 183.839L602.554 165.517L593.75 164.278Z" fill="#74D5DE"/>
<path d="M625.446 175.995L605.946 228.996L606.862 282.29L600.802 281.728L587.933 227.118L597.946 176.496L618.944 174.186L625.446 175.995Z" fill="#56CAD8"/>
<path d="M634.078 122.894C640.599 121.5 646.238 137.318 644.277 142.282C643.835 144.535 630.54 146.939 628.893 145.278C627.246 143.618 627.558 124.288 634.078 122.894Z" fill="#FED892"/>
<path d="M600.389 287.567H606.324V293.705H589.953L600.389 287.567Z" fill="black"/>
<path d="M565.467 269.662L560.305 267.496L557.274 274.718L562.436 276.884L565.467 269.662Z" fill="#F2AE95"/>
<path d="M557.395 274.769L562.434 276.883L560.343 281.865L546.445 276.033L557.395 274.769Z" fill="black"/>
<path d="M621.244 112.296C637.879 115.953 640.279 132.712 639.174 137.741C638.068 142.77 626.118 172.314 623.327 186.022C622.866 188.287 590.717 182.298 587.369 178.117C585.797 176.152 598.769 107.355 621.244 112.296Z" fill="#FECC92"/>
<path d="M632.196 141.796C631.894 143.443 631.417 154.863 632.446 160.552C631.098 164.405 627.165 188.188 627.165 188.188L631.941 190.792C631.941 190.792 639.566 168.765 640.654 165.232C641.742 161.699 643.378 143.581 643.313 142.669C643.248 141.757 632.196 141.796 632.196 141.796Z" fill="#F2AE95"/>
<path d="M625.812 198.239C623.623 197.385 622.855 194.115 624.097 190.936C625.338 187.757 628.118 185.873 630.307 186.728C632.495 187.582 633.263 190.852 632.022 194.031C630.781 197.21 628 199.094 625.812 198.239Z" fill="#F2AE95"/>
<path d="M644.271 142.284C646.241 137.292 641.47 120.757 634.042 122.794C627.586 124.585 627.177 143.633 628.829 145.303C630.92 146.755 642.707 145.54 644.271 142.284Z" fill="#FED892"/>
<path d="M620.948 106.114C620.22 107.85 618.934 113.417 618.85 116.008C618.864 116.132 626.1 118.462 627.321 116.58C627.69 114.895 632.435 100.186 635.772 95.9911C636.098 95.5096 635.901 93.9553 635.901 93.9553L626.201 97.8701L620.948 106.114Z" fill="#F2AE95"/>
<path d="M617.446 92.9526C614.136 97.8329 615.166 104.326 619.743 107.43C624.32 110.534 630.733 109.09 634.043 104.209L637.899 98.5247C641.209 93.6444 640.179 87.1515 635.602 84.0474C631.025 80.9432 624.612 82.3876 621.302 87.2679L617.446 92.9526Z" fill="#F9B49B"/>
<path d="M631.263 105.158C631.263 105.158 635.338 105.808 638.404 102.988C642.692 99.074 644.521 93.6853 641.818 92.4288C639.206 93.7312 638.235 93.7455 638.235 93.7455C638.235 93.7455 633.263 103.344 631.263 105.158Z" fill="#885423"/>
<path d="M637.904 93.809C637.904 93.809 633.094 94.1015 626.908 89.906C620.788 85.7552 620.284 77.15 624.813 73.3046C625.582 76.4203 629.637 79.6505 634.038 80.8103C638.44 81.9701 642.125 84.4695 643.179 87.8743C644.187 91.3448 641.19 93.9233 637.904 93.809Z" fill="#885423"/>
<path d="M637.202 93.7146C637.202 93.7146 636.672 99.3122 633.984 101.717C637.278 100.684 640.081 97.6853 640.081 97.6853L641.556 92.5364L637.202 93.7146Z" fill="#885423"/>
<path d="M625.676 86.3102C625.676 86.3102 622.375 85.512 619.781 89.9022C619.223 85.2002 622.884 82.4946 622.884 82.4946L625.161 81.8291L625.676 86.3102Z" fill="#885423"/>
<path d="M416.94 378H424.191V385H404.191L416.94 378Z" fill="black"/>
<path d="M436.94 378H444.191V385H424.191L436.94 378Z" fill="black"/>
<path d="M424.191 370H417.191V378H424.191V370Z" fill="#794126"/>
<path d="M444.191 370H437.191V378H444.191V370Z" fill="#794126"/>
<path d="M444.191 254.645C444.032 257.792 444.191 370 444.191 370H437.191L422.722 298.66C422.558 296.121 420.191 268.042 420.191 268.042L435.133 253L444.191 254.645Z" fill="#56CAD8"/>
<path d="M410.449 254C410.449 254 401.191 315.38 401.191 317.878C401.191 320.377 417.191 370 417.191 370H424.191L417.51 311.716L440.191 256.489" fill="#74D5DE"/>
<path d="M425.396 197.426C443.354 197.835 444.984 254.273 443.411 257.193C441.54 260.693 415.296 266.345 408.034 262.723C404.406 260.916 395.358 196.742 425.396 197.426Z" fill="#FED385"/>
<path d="M425.123 161.351C421.331 161.185 416.248 163.007 415.742 168.221C415.236 173.435 419.4 176.009 424.201 177.333C420.505 180.961 419.072 181.593 419.247 183.324C419.422 185.056 422.026 190.024 421.757 195.399C421.489 200.774 433.161 231.61 435.838 232.728C438.514 233.846 432.546 238.761 451.514 241.218C456.587 241.71 466.521 235.079 467.472 225.276C469.773 203.929 447.956 197.718 437.919 172.679C433.313 161.185 426.884 161.425 425.123 161.351Z" fill="black"/>
<path d="M405.466 209.906C404.279 210.367 399.651 215.714 396.691 218.5C394.789 216.968 382.691 199 382.691 199L378.242 202.401C378.242 202.401 392.63 232.033 395.826 232.149C399.022 232.264 410.691 220 413.133 217.786C413.764 215.53 405.466 209.906 405.466 209.906Z" fill="#794126"/>
<path d="M379.661 205.269C378.545 203.778 376.208 202.229 375.662 201.033C375.347 200.343 375.065 199.826 375.515 199.62C376.279 199.271 377.199 199.74 377.656 200.087C376.83 198.575 374.157 187.007 375.813 186.495C377.055 186.112 382.688 199.119 383.324 200.085L379.661 205.269Z" fill="#794126"/>
<path d="M419.67 204.002C422.883 206.325 416.223 223.607 413.789 224.186C411.355 224.764 400.078 216.692 400.07 213.497C400.063 210.302 414.808 200.489 419.67 204.002Z" fill="#FEBF92"/>
<path d="M425.579 197.438C443.531 197.847 445.971 253.916 443.594 257.082C441.217 260.248 411.274 265.279 408.238 262.598C405.202 259.917 395.551 196.752 425.579 197.438Z" fill="#FED385"/>
<path d="M431.54 222.15C431.238 223.797 430.761 235.217 431.79 240.906C430.441 244.759 426.509 268.542 426.509 268.542L431.285 271.146C431.285 271.146 438.91 249.119 439.998 245.586C441.086 242.053 442.722 223.935 442.657 223.023C442.591 222.111 431.54 222.15 431.54 222.15Z" fill="#794126"/>
<path d="M425.154 278.593C422.965 277.739 422.197 274.469 423.438 271.29C424.68 268.111 427.46 266.227 429.649 267.082C431.837 267.936 432.605 271.206 431.364 274.385C430.123 277.564 427.342 279.448 425.154 278.593Z" fill="#794126"/>
<path d="M443.612 222.638C445.583 217.646 440.812 201.111 433.384 203.148C426.928 204.939 426.519 223.987 428.171 225.657C430.262 227.109 442.049 225.894 443.612 222.638Z" fill="#FED892"/>
<path d="M428.437 184.416C428.407 184.949 427.942 196.664 429.173 200.239C429.115 201.258 418.829 201.347 418.938 199.408L419.417 190.89" fill="#794126"/>
<path d="M419.759 191.914C424.816 192.199 429.271 186.102 429.71 178.297C430.149 170.493 426.406 163.935 421.349 163.65C416.293 163.366 411.837 169.462 411.398 177.267C410.959 185.072 414.702 191.63 419.759 191.914Z" fill="#894A2B"/>
<path d="M428.793 184.992L428.558 184.988L428.654 178.226C427.962 177.283 421.174 175.088 419.538 174.365C417.902 173.642 415.094 172.669 413.253 169.844C412.813 170.479 411.754 173.669 411.448 176.337C410.753 175.627 409.66 174.457 409.713 170.726C409.809 163.964 416.684 160.097 422.561 160.18C431.966 160.314 437.238 169.952 437.178 174.149C437.092 180.212 432.79 185.048 428.793 184.992Z" fill="black"/>
<path d="M427.638 183.172C429.067 183.253 430.291 182.159 430.371 180.73C430.452 179.301 429.358 178.078 427.929 177.997C426.5 177.917 425.277 179.01 425.196 180.439C425.116 181.868 426.209 183.092 427.638 183.172Z" fill="#894A2B"/>
<path d="M402.494 129.764C402.865 129.831 403.113 130.187 403.047 130.557C402.98 130.928 402.624 131.176 402.254 131.11L397.483 130.245C397.112 130.179 396.864 129.823 396.93 129.452C396.964 129.265 397.07 129.11 397.214 129.01L397.213 129.008L406.231 122.763C406.444 122.616 406.711 122.605 406.927 122.712L434.447 133.612C434.797 133.749 434.971 134.146 434.833 134.498C434.695 134.849 434.297 135.021 433.947 134.884L406.713 124.099L399.352 129.195L402.494 129.764Z" fill="#6B6B6B"/>
<path d="M405.258 127.017C405.326 126.646 405.684 126.4 406.054 126.469C406.425 126.537 406.671 126.895 406.602 127.265L404.668 137.905L442.044 137.985L442.249 137.844L409.516 111.236L407.296 123.448C407.229 123.82 406.871 124.068 406.499 124C406.127 123.933 405.88 123.575 405.947 123.203L408.375 109.854L408.377 109.854C408.398 109.744 408.443 109.638 408.519 109.545C408.757 109.254 409.188 109.209 409.481 109.446L443.771 137.321C443.838 137.368 443.9 137.426 443.95 137.499C444.165 137.81 444.088 138.238 443.777 138.453L442.65 139.233L442.649 139.232C442.537 139.309 442.402 139.354 442.257 139.354L403.847 139.273L403.847 139.271C403.807 139.271 403.765 139.267 403.724 139.259C403.354 139.19 403.108 138.833 403.176 138.462L405.258 127.017Z" fill="#6B6B6B"/>
<path d="M266.077 192.463C266.433 192.342 266.823 192.533 266.944 192.89C267.065 193.247 266.874 193.636 266.517 193.757L261.924 195.309C261.567 195.43 261.178 195.239 261.056 194.882C260.996 194.703 261.014 194.515 261.091 194.358L261.089 194.357L265.959 184.528C266.074 184.296 266.302 184.158 266.544 184.146L295.901 180.369C296.274 180.319 296.619 180.583 296.668 180.957C296.717 181.331 296.452 181.675 296.079 181.724L267.027 185.463L263.052 193.486L266.077 192.463Z" fill="#6B6B6B"/>
<path d="M267.167 188.721C267.047 188.364 267.241 187.975 267.598 187.856C267.956 187.737 268.344 187.931 268.463 188.288L271.919 198.536L304.667 180.519L304.777 180.297L263.257 172.85L267.223 184.612C267.344 184.97 267.151 185.36 266.793 185.481C266.435 185.601 266.045 185.408 265.924 185.05L261.589 172.193L261.591 172.192C261.556 172.086 261.545 171.971 261.566 171.853C261.633 171.483 261.989 171.236 262.36 171.301L305.857 179.102C305.938 179.111 306.02 179.132 306.1 179.172C306.439 179.34 306.577 179.751 306.409 180.09L305.801 181.319L305.799 181.318C305.739 181.439 305.642 181.544 305.516 181.614L271.862 200.13L271.862 200.128C271.827 200.147 271.788 200.164 271.748 200.177C271.391 200.296 271.003 200.102 270.883 199.745L267.167 188.721Z" fill="#6B6B6B"/>
<path d="M508.872 26.4766C509.237 26.5694 509.459 26.9425 509.366 27.3075C509.274 27.6725 508.9 27.8945 508.536 27.8015L503.839 26.5952C503.474 26.5024 503.252 26.1293 503.345 25.7643C503.393 25.5804 503.51 25.4334 503.661 25.3441L503.659 25.3416L513.104 19.7628C513.327 19.6313 513.594 19.6395 513.802 19.7618L540.465 32.616C540.804 32.7784 540.95 33.187 540.786 33.5275C540.623 33.8673 540.214 34.0111 539.874 33.8487L513.489 21.1295L505.78 25.6829L508.872 26.4766Z" fill="#6B6B6B"/>
<path d="M511.827 23.9351C511.922 23.5705 512.296 23.351 512.66 23.4459C513.025 23.5408 513.245 23.9152 513.15 24.2796L510.453 34.7531L547.727 37.5251L547.941 37.3987L517.211 8.50235L514.116 20.5228C514.022 20.8885 513.647 21.11 513.282 21.0159C512.916 20.9217 512.694 20.5467 512.789 20.1811L516.172 7.04133L516.174 7.04183C516.203 6.93352 516.255 6.8313 516.338 6.74417C516.596 6.47069 517.029 6.45705 517.304 6.71436L549.497 36.9871C549.561 37.039 549.618 37.1015 549.663 37.1778C549.855 37.5036 549.747 37.9241 549.421 38.1166L548.241 38.8137L548.24 38.8124C548.124 38.8814 547.985 38.9166 547.841 38.9056L509.536 36.0579L509.537 36.0559C509.497 36.0529 509.455 36.0463 509.415 36.0349C509.05 35.9401 508.831 35.5656 508.926 35.2011L511.827 23.9351Z" fill="#6B6B6B"/>
<path d="M267.69 156C267.69 156 287.191 127.5 325.191 119C363.19 110.5 391.897 124.203 391.897 124.203" stroke="#C3C3C3" stroke-width="3" stroke-miterlimit="10" stroke-dasharray="7 11"/>
<path d="M267.923 155.646C267.923 155.646 273.692 101 336.192 54C398.692 6.99992 496.692 19.5001 496.692 19.5001" stroke="#C3C3C3" stroke-width="3" stroke-miterlimit="10" stroke-dasharray="7 11"/>
</svg>
