<svg width="381" height="360" viewBox="0 0 381 360" fill="none" xmlns="http://www.w3.org/2000/svg">
<path d="M12.1914 1H318.848V303.245H12.1914V1Z" fill="white" stroke="#D3D3D3" stroke-width="2"/>
<path d="M319.848 0H11.1914V23.1588H319.848V0Z" fill="#D3D3D3"/>
<path d="M27.4798 15.524C29.4943 15.524 31.1275 13.8908 31.1275 11.8762C31.1275 9.86166 29.4943 8.22852 27.4798 8.22852C25.4652 8.22852 23.832 9.86166 23.832 11.8762C23.832 13.8908 25.4652 15.524 27.4798 15.524Z" fill="#FD8369"/>
<path d="M39.2278 15.524C41.2424 15.524 42.8755 13.8908 42.8755 11.8762C42.8755 9.86166 41.2424 8.22852 39.2278 8.22852C37.2132 8.22852 35.5801 9.86166 35.5801 11.8762C35.5801 13.8908 37.2132 15.524 39.2278 15.524Z" fill="#FD8369"/>
<path d="M50.9778 15.524C52.9924 15.524 54.6255 13.8908 54.6255 11.8762C54.6255 9.86166 52.9924 8.22852 50.9778 8.22852C48.9632 8.22852 47.3301 9.86166 47.3301 11.8762C47.3301 13.8908 48.9632 15.524 50.9778 15.524Z" fill="#FD8369"/>
<path d="M34.5918 45.4067C34.4775 46.3843 34.1157 47.1396 33.5063 47.6729C32.9012 48.2018 32.0951 48.4663 31.0879 48.4663C29.9961 48.4663 29.1201 48.0749 28.46 47.292C27.804 46.5091 27.4761 45.4618 27.4761 44.1499V43.2612C27.4761 42.4022 27.6284 41.6468 27.9331 40.9951C28.242 40.3434 28.6779 39.8441 29.2407 39.4971C29.8035 39.1458 30.4552 38.9702 31.1958 38.9702C32.1776 38.9702 32.9647 39.2453 33.5571 39.7954C34.1496 40.3413 34.4945 41.0988 34.5918 42.0679H33.3667C33.2609 41.3315 33.0303 40.7983 32.6748 40.4683C32.3236 40.1382 31.8306 39.9731 31.1958 39.9731C30.4172 39.9731 29.8057 40.2609 29.3613 40.8364C28.9212 41.4119 28.7012 42.2308 28.7012 43.293V44.188C28.7012 45.1909 28.9106 45.9886 29.3296 46.5811C29.7485 47.1735 30.3346 47.4697 31.0879 47.4697C31.765 47.4697 32.2834 47.3174 32.6431 47.0127C33.007 46.7038 33.2482 46.1685 33.3667 45.4067H34.5918ZM39.397 42.5249C39.2192 42.4953 39.0267 42.4805 38.8193 42.4805C38.0492 42.4805 37.5265 42.8084 37.2515 43.4644V48.3394H36.0771V41.4712H37.2197L37.2388 42.2646C37.6239 41.651 38.1698 41.3442 38.8765 41.3442C39.105 41.3442 39.2785 41.3739 39.397 41.4331V42.5249ZM43.2056 48.4663C42.2746 48.4663 41.5171 48.1616 40.9331 47.5522C40.3491 46.9386 40.0571 46.1198 40.0571 45.0957V44.8799C40.0571 44.1986 40.1862 43.5913 40.4443 43.0581C40.7067 42.5207 41.0706 42.1017 41.5361 41.8013C42.0059 41.4966 42.5137 41.3442 43.0596 41.3442C43.9525 41.3442 44.6465 41.6383 45.1416 42.2266C45.6367 42.8148 45.8843 43.6569 45.8843 44.7529V45.2417H41.2314C41.2484 45.9188 41.4451 46.4668 41.8218 46.8857C42.2026 47.3005 42.6851 47.5078 43.269 47.5078C43.6838 47.5078 44.035 47.4232 44.3228 47.2539C44.6105 47.0846 44.8623 46.8604 45.0781 46.5811L45.7954 47.1396C45.2199 48.0241 44.3566 48.4663 43.2056 48.4663ZM43.0596 42.3091C42.5856 42.3091 42.1878 42.4826 41.8662 42.8296C41.5446 43.1724 41.3457 43.6548 41.2695 44.2769H44.71V44.188C44.6761 43.5913 44.5153 43.13 44.2275 42.8042C43.9398 42.4741 43.5505 42.3091 43.0596 42.3091ZM51.4893 48.3394C51.4215 48.2039 51.3665 47.9627 51.3242 47.6157C50.7783 48.1828 50.1266 48.4663 49.3691 48.4663C48.6921 48.4663 48.1356 48.2759 47.6997 47.895C47.2681 47.5099 47.0522 47.0233 47.0522 46.4351C47.0522 45.7199 47.3231 45.1655 47.8647 44.772C48.4106 44.3742 49.1766 44.1753 50.1626 44.1753H51.3052V43.6357C51.3052 43.2253 51.1825 42.8994 50.937 42.6582C50.6916 42.4128 50.3298 42.29 49.8516 42.29C49.4326 42.29 49.0814 42.3958 48.7979 42.6074C48.5143 42.819 48.3726 43.075 48.3726 43.3755H47.1919C47.1919 43.0327 47.3125 42.7026 47.5537 42.3853C47.7992 42.0636 48.1292 41.8097 48.5439 41.6235C48.9629 41.4373 49.422 41.3442 49.9214 41.3442C50.7127 41.3442 51.3327 41.5431 51.7812 41.9409C52.2298 42.3345 52.4626 42.8783 52.4795 43.5723V46.7334C52.4795 47.3639 52.5599 47.8654 52.7207 48.2378V48.3394H51.4893ZM49.5405 47.4443C49.9087 47.4443 50.2578 47.3491 50.5879 47.1587C50.918 46.9683 51.1571 46.7207 51.3052 46.416V45.0068H50.3848C48.946 45.0068 48.2266 45.4279 48.2266 46.27C48.2266 46.6382 48.3493 46.9259 48.5947 47.1333C48.8402 47.3407 49.1554 47.4443 49.5405 47.4443ZM55.9136 39.8081V41.4712H57.1958V42.3789H55.9136V46.6382C55.9136 46.9132 55.9707 47.1206 56.085 47.2603C56.1992 47.3957 56.3939 47.4634 56.6689 47.4634C56.8044 47.4634 56.9906 47.438 57.2275 47.3872V48.3394C56.9186 48.424 56.6182 48.4663 56.3262 48.4663C55.8014 48.4663 55.4058 48.3076 55.1392 47.9902C54.8726 47.6729 54.7393 47.2222 54.7393 46.6382V42.3789H53.4888V41.4712H54.7393V39.8081H55.9136ZM61.4233 48.4663C60.4924 48.4663 59.7349 48.1616 59.1509 47.5522C58.5669 46.9386 58.2749 46.1198 58.2749 45.0957V44.8799C58.2749 44.1986 58.404 43.5913 58.6621 43.0581C58.9245 42.5207 59.2884 42.1017 59.7539 41.8013C60.2236 41.4966 60.7314 41.3442 61.2773 41.3442C62.1702 41.3442 62.8643 41.6383 63.3594 42.2266C63.8545 42.8148 64.1021 43.6569 64.1021 44.7529V45.2417H59.4492C59.4661 45.9188 59.6629 46.4668 60.0396 46.8857C60.4204 47.3005 60.9028 47.5078 61.4868 47.5078C61.9015 47.5078 62.2528 47.4232 62.5405 47.2539C62.8283 47.0846 63.0801 46.8604 63.2959 46.5811L64.0132 47.1396C63.4377 48.0241 62.5744 48.4663 61.4233 48.4663ZM61.2773 42.3091C60.8034 42.3091 60.4056 42.4826 60.084 42.8296C59.7624 43.1724 59.5635 43.6548 59.4873 44.2769H62.9277V44.188C62.8939 43.5913 62.7331 43.13 62.4453 42.8042C62.1576 42.4741 61.7682 42.3091 61.2773 42.3091ZM70.9385 46.6191L72.5381 41.4712H73.7949L71.0337 49.3994C70.6063 50.542 69.9271 51.1133 68.9961 51.1133L68.7739 51.0942L68.3359 51.0117V50.0596L68.6533 50.085C69.0511 50.085 69.36 50.0046 69.5801 49.8438C69.8044 49.6829 69.9884 49.3888 70.1323 48.9614L70.3926 48.2632L67.9424 41.4712H69.2246L70.9385 46.6191ZM74.436 44.8418C74.436 44.1689 74.5672 43.5638 74.8296 43.0264C75.0962 42.4889 75.4644 42.0742 75.9341 41.7822C76.408 41.4902 76.9476 41.3442 77.5527 41.3442C78.488 41.3442 79.2433 41.668 79.8188 42.3154C80.3986 42.9629 80.6885 43.8241 80.6885 44.8989V44.9814C80.6885 45.6501 80.5594 46.251 80.3013 46.7842C80.0474 47.3132 79.6813 47.7257 79.2031 48.022C78.7292 48.3182 78.1833 48.4663 77.5654 48.4663C76.6344 48.4663 75.8791 48.1426 75.2993 47.4951C74.7238 46.8477 74.436 45.9907 74.436 44.9243V44.8418ZM75.6167 44.9814C75.6167 45.7432 75.7923 46.3547 76.1436 46.8159C76.499 47.2772 76.973 47.5078 77.5654 47.5078C78.1621 47.5078 78.6361 47.2751 78.9873 46.8096C79.3385 46.3398 79.5142 45.6839 79.5142 44.8418C79.5142 44.0885 79.3343 43.4792 78.9746 43.0137C78.6191 42.5439 78.1452 42.3091 77.5527 42.3091C76.973 42.3091 76.5054 42.5397 76.1499 43.001C75.7944 43.4622 75.6167 44.1224 75.6167 44.9814ZM86.4014 47.6602C85.9443 48.1976 85.2736 48.4663 84.3892 48.4663C83.6571 48.4663 83.0985 48.2547 82.7134 47.8315C82.3325 47.4041 82.14 46.7736 82.1357 45.9399V41.4712H83.3101V45.9082C83.3101 46.9492 83.7332 47.4697 84.5796 47.4697C85.4767 47.4697 86.0734 47.1354 86.3696 46.4668V41.4712H87.5439V48.3394H86.4268L86.4014 47.6602ZM92.6538 42.5249C92.4761 42.4953 92.2835 42.4805 92.0762 42.4805C91.306 42.4805 90.7834 42.8084 90.5083 43.4644V48.3394H89.334V41.4712H90.4766L90.4956 42.2646C90.8807 41.651 91.4266 41.3442 92.1333 41.3442C92.3618 41.3442 92.5353 41.3739 92.6538 41.4331V42.5249ZM98.0684 41.4712L98.1001 42.2329C98.6037 41.6405 99.2829 41.3442 100.138 41.3442C101.098 41.3442 101.752 41.7124 102.099 42.4487C102.328 42.1187 102.624 41.8521 102.988 41.6489C103.356 41.4458 103.79 41.3442 104.289 41.3442C105.796 41.3442 106.562 42.1419 106.587 43.7373V48.3394H105.413V43.8071C105.413 43.3162 105.3 42.9502 105.076 42.709C104.852 42.4635 104.475 42.3408 103.946 42.3408C103.51 42.3408 103.149 42.472 102.861 42.7344C102.573 42.9925 102.406 43.3416 102.359 43.7817V48.3394H101.179V43.8389C101.179 42.8402 100.69 42.3408 99.7124 42.3408C98.9422 42.3408 98.4154 42.6688 98.1318 43.3247V48.3394H96.9575V41.4712H98.0684ZM111.214 48.4663C110.283 48.4663 109.526 48.1616 108.942 47.5522C108.358 46.9386 108.066 46.1198 108.066 45.0957V44.8799C108.066 44.1986 108.195 43.5913 108.453 43.0581C108.715 42.5207 109.079 42.1017 109.545 41.8013C110.015 41.4966 110.522 41.3442 111.068 41.3442C111.961 41.3442 112.655 41.6383 113.15 42.2266C113.646 42.8148 113.893 43.6569 113.893 44.7529V45.2417H109.24C109.257 45.9188 109.454 46.4668 109.831 46.8857C110.211 47.3005 110.694 47.5078 111.278 47.5078C111.693 47.5078 112.044 47.4232 112.332 47.2539C112.619 47.0846 112.871 46.8604 113.087 46.5811L113.804 47.1396C113.229 48.0241 112.365 48.4663 111.214 48.4663ZM111.068 42.3091C110.594 42.3091 110.197 42.4826 109.875 42.8296C109.553 43.1724 109.354 43.6548 109.278 44.2769H112.719V44.188C112.685 43.5913 112.524 43.13 112.236 42.8042C111.949 42.4741 111.559 42.3091 111.068 42.3091ZM118.108 48.4663C117.177 48.4663 116.419 48.1616 115.835 47.5522C115.251 46.9386 114.959 46.1198 114.959 45.0957V44.8799C114.959 44.1986 115.089 43.5913 115.347 43.0581C115.609 42.5207 115.973 42.1017 116.438 41.8013C116.908 41.4966 117.416 41.3442 117.962 41.3442C118.855 41.3442 119.549 41.6383 120.044 42.2266C120.539 42.8148 120.787 43.6569 120.787 44.7529V45.2417H116.134C116.151 45.9188 116.347 46.4668 116.724 46.8857C117.105 47.3005 117.587 47.5078 118.171 47.5078C118.586 47.5078 118.937 47.4232 119.225 47.2539C119.513 47.0846 119.765 46.8604 119.98 46.5811L120.698 47.1396C120.122 48.0241 119.259 48.4663 118.108 48.4663ZM117.962 42.3091C117.488 42.3091 117.09 42.4826 116.769 42.8296C116.447 43.1724 116.248 43.6548 116.172 44.2769H119.612V44.188C119.578 43.5913 119.418 43.13 119.13 42.8042C118.842 42.4741 118.453 42.3091 117.962 42.3091ZM123.745 39.8081V41.4712H125.027V42.3789H123.745V46.6382C123.745 46.9132 123.802 47.1206 123.916 47.2603C124.03 47.3957 124.225 47.4634 124.5 47.4634C124.635 47.4634 124.822 47.438 125.059 47.3872V48.3394C124.75 48.424 124.449 48.4663 124.157 48.4663C123.632 48.4663 123.237 48.3076 122.97 47.9902C122.704 47.6729 122.57 47.2222 122.57 46.6382V42.3789H121.32V41.4712H122.57V39.8081H123.745ZM127.68 48.3394H126.506V41.4712H127.68V48.3394ZM126.411 39.6494C126.411 39.459 126.468 39.2982 126.582 39.167C126.701 39.0358 126.874 38.9702 127.103 38.9702C127.331 38.9702 127.505 39.0358 127.623 39.167C127.742 39.2982 127.801 39.459 127.801 39.6494C127.801 39.8398 127.742 39.9985 127.623 40.1255C127.505 40.2524 127.331 40.3159 127.103 40.3159C126.874 40.3159 126.701 40.2524 126.582 40.1255C126.468 39.9985 126.411 39.8398 126.411 39.6494ZM130.676 41.4712L130.714 42.3345C131.239 41.6743 131.925 41.3442 132.771 41.3442C134.222 41.3442 134.955 42.1631 134.967 43.8008V48.3394H133.793V43.7944C133.789 43.2993 133.674 42.9333 133.45 42.6963C133.23 42.4593 132.885 42.3408 132.416 42.3408C132.035 42.3408 131.7 42.4424 131.413 42.6455C131.125 42.8486 130.901 43.1152 130.74 43.4453V48.3394H129.565V41.4712H130.676ZM136.459 44.8481C136.459 43.7775 136.707 42.9269 137.202 42.2964C137.697 41.6616 138.353 41.3442 139.169 41.3442C140.007 41.3442 140.661 41.6405 141.131 42.2329L141.188 41.4712H142.261V48.1743C142.261 49.063 141.996 49.7633 141.467 50.2754C140.943 50.7874 140.236 51.0435 139.347 51.0435C138.852 51.0435 138.368 50.9377 137.894 50.7261C137.42 50.5145 137.058 50.2246 136.808 49.8564L137.417 49.1519C137.921 49.7739 138.537 50.085 139.265 50.085C139.836 50.085 140.28 49.9242 140.598 49.6025C140.919 49.2809 141.08 48.8281 141.08 48.2441V47.6538C140.61 48.1955 139.969 48.4663 139.157 48.4663C138.353 48.4663 137.701 48.1426 137.202 47.4951C136.707 46.8477 136.459 45.9653 136.459 44.8481ZM137.64 44.9814C137.64 45.7559 137.798 46.3652 138.116 46.8096C138.433 47.2497 138.877 47.4697 139.449 47.4697C140.189 47.4697 140.733 47.1333 141.08 46.4604V43.3247C140.72 42.6688 140.181 42.3408 139.461 42.3408C138.89 42.3408 138.444 42.563 138.122 43.0073C137.8 43.4517 137.64 44.1097 137.64 44.9814Z" fill="#6B6B6B"/>
<path d="M136.876 60.187H27.8574V68.1363H136.876V60.187Z" fill="#74D5DE"/>
<path d="M136.876 76.0859H27.8574V84.0352H136.876V76.0859Z" fill="#74D5DE"/>
<path d="M136.876 122.646H27.8574V130.595H136.876V122.646Z" fill="#74D5DE"/>
<path d="M136.876 138.544H27.8574V146.493H136.876V138.544Z" fill="#74D5DE"/>
<path d="M252.708 185.104H27.8574V228.257H252.708V185.104Z" fill="#CDEAED"/>
<path d="M233.189 195.324H39.5957V202.071H233.189V195.324Z" fill="#74D5DE"/>
<path d="M94.0924 211.414H39.5957V218.161H94.0924V211.414Z" fill="#74D5DE"/>
<path d="M252.592 245.292H27.8574V288.445H252.592V245.292Z" fill="#CDEAED"/>
<path d="M233.388 255.06H39.7949V261.807H233.388V255.06Z" fill="#74D5DE"/>
<path d="M94.2916 271.149H39.7949V277.896H94.2916V271.149Z" fill="#74D5DE"/>
<path d="M29.3677 102.691L32.3892 110.232L35.4106 102.691H36.9912V111.934H35.7725V108.334L35.8867 104.45L32.8525 111.934H31.9194L28.8916 104.469L29.0122 108.334V111.934H27.7935V102.691H29.3677ZM41.8091 112.061C40.8781 112.061 40.1206 111.756 39.5366 111.146C38.9526 110.533 38.6606 109.714 38.6606 108.69V108.474C38.6606 107.793 38.7897 107.186 39.0479 106.652C39.3102 106.115 39.6742 105.696 40.1396 105.396C40.6094 105.091 41.1172 104.938 41.6631 104.938C42.556 104.938 43.25 105.233 43.7451 105.821C44.2402 106.409 44.4878 107.251 44.4878 108.347V108.836H39.835C39.8519 109.513 40.0487 110.061 40.4253 110.48C40.8062 110.895 41.2886 111.102 41.8726 111.102C42.2873 111.102 42.6385 111.017 42.9263 110.848C43.214 110.679 43.4658 110.455 43.6816 110.175L44.3989 110.734C43.8234 111.618 42.9601 112.061 41.8091 112.061ZM41.6631 105.903C41.1891 105.903 40.7913 106.077 40.4697 106.424C40.1481 106.767 39.9492 107.249 39.873 107.871H43.3135V107.782C43.2796 107.186 43.1188 106.724 42.8311 106.398C42.5433 106.068 42.154 105.903 41.6631 105.903ZM46.957 105.065L46.9888 105.827C47.4924 105.235 48.1715 104.938 49.0264 104.938C49.987 104.938 50.6408 105.307 50.9878 106.043C51.2163 105.713 51.5125 105.446 51.8765 105.243C52.2446 105.04 52.6784 104.938 53.1777 104.938C54.6842 104.938 55.4502 105.736 55.4756 107.332V111.934H54.3013V107.401C54.3013 106.91 54.1891 106.544 53.9648 106.303C53.7406 106.058 53.3639 105.935 52.835 105.935C52.3991 105.935 52.0373 106.066 51.7495 106.329C51.4618 106.587 51.2946 106.936 51.248 107.376V111.934H50.0674V107.433C50.0674 106.434 49.5786 105.935 48.6011 105.935C47.8309 105.935 47.304 106.263 47.0205 106.919V111.934H45.8462V105.065H46.957ZM63.0674 108.576C63.0674 109.625 62.8262 110.469 62.3438 111.108C61.8613 111.743 61.2139 112.061 60.4014 112.061C59.5339 112.061 58.8631 111.754 58.3892 111.14L58.332 111.934H57.2529V102.184H58.4272V105.821C58.9012 105.233 59.555 104.938 60.3887 104.938C61.2223 104.938 61.8761 105.254 62.3501 105.884C62.8283 106.515 63.0674 107.378 63.0674 108.474V108.576ZM61.8931 108.442C61.8931 107.643 61.7386 107.025 61.4297 106.589C61.1208 106.153 60.6764 105.935 60.0967 105.935C59.3223 105.935 58.7658 106.295 58.4272 107.014V109.985C58.7869 110.704 59.3477 111.064 60.1094 111.064C60.6722 111.064 61.1102 110.846 61.4233 110.41C61.7365 109.974 61.8931 109.318 61.8931 108.442ZM67.4028 112.061C66.4718 112.061 65.7144 111.756 65.1304 111.146C64.5464 110.533 64.2544 109.714 64.2544 108.69V108.474C64.2544 107.793 64.3835 107.186 64.6416 106.652C64.904 106.115 65.2679 105.696 65.7334 105.396C66.2031 105.091 66.7109 104.938 67.2568 104.938C68.1497 104.938 68.8438 105.233 69.3389 105.821C69.834 106.409 70.0815 107.251 70.0815 108.347V108.836H65.4287C65.4456 109.513 65.6424 110.061 66.019 110.48C66.3999 110.895 66.8823 111.102 67.4663 111.102C67.881 111.102 68.2323 111.017 68.52 110.848C68.8078 110.679 69.0596 110.455 69.2754 110.175L69.9927 110.734C69.4172 111.618 68.5539 112.061 67.4028 112.061ZM67.2568 105.903C66.7829 105.903 66.3851 106.077 66.0635 106.424C65.7419 106.767 65.543 107.249 65.4668 107.871H68.9072V107.782C68.8734 107.186 68.7126 106.724 68.4248 106.398C68.137 106.068 67.7477 105.903 67.2568 105.903ZM74.7661 106.119C74.5884 106.09 74.3958 106.075 74.1885 106.075C73.4183 106.075 72.8957 106.403 72.6206 107.059V111.934H71.4463V105.065H72.5889L72.6079 105.859C72.993 105.245 73.5389 104.938 74.2456 104.938C74.4741 104.938 74.6476 104.968 74.7661 105.027V106.119ZM79.8506 110.112C79.8506 109.794 79.73 109.549 79.4888 109.375C79.2518 109.198 78.835 109.045 78.2383 108.918C77.6458 108.792 77.174 108.639 76.8228 108.461C76.4757 108.284 76.2176 108.072 76.0483 107.827C75.8833 107.581 75.8008 107.289 75.8008 106.951C75.8008 106.388 76.0378 105.912 76.5117 105.522C76.9899 105.133 77.5993 104.938 78.3398 104.938C79.1185 104.938 79.749 105.139 80.2314 105.542C80.7181 105.944 80.9614 106.458 80.9614 107.084H79.7808C79.7808 106.762 79.6432 106.485 79.3682 106.252C79.0973 106.02 78.7546 105.903 78.3398 105.903C77.9124 105.903 77.5781 105.996 77.3369 106.183C77.0957 106.369 76.9751 106.612 76.9751 106.913C76.9751 107.196 77.0872 107.41 77.3115 107.554C77.5358 107.698 77.9399 107.835 78.5239 107.966C79.1121 108.097 79.5882 108.254 79.9521 108.436C80.3161 108.618 80.5848 108.838 80.7583 109.096C80.936 109.35 81.0249 109.661 81.0249 110.029C81.0249 110.643 80.7795 111.136 80.2886 111.508C79.7977 111.876 79.1608 112.061 78.3779 112.061C77.8278 112.061 77.3411 111.963 76.918 111.769C76.4948 111.574 76.1626 111.303 75.9214 110.956C75.6844 110.605 75.5659 110.226 75.5659 109.82H76.7402C76.7614 110.213 76.918 110.527 77.21 110.759C77.5062 110.988 77.8955 111.102 78.3779 111.102C78.8223 111.102 79.1777 111.013 79.4443 110.835C79.7152 110.653 79.8506 110.412 79.8506 110.112Z" fill="#6B6B6B"/>
<path d="M34.0337 170.844H30.1616L29.292 173.256H28.0352L31.5645 164.014H32.6309L36.1665 173.256H34.916L34.0337 170.844ZM30.5298 169.841H33.6719L32.0977 165.519L30.5298 169.841ZM36.9473 169.765C36.9473 168.694 37.1948 167.844 37.6899 167.213C38.1851 166.579 38.841 166.261 39.6577 166.261C40.4956 166.261 41.1494 166.557 41.6191 167.15L41.6763 166.388H42.749V173.091C42.749 173.98 42.4845 174.68 41.9556 175.192C41.4308 175.704 40.7241 175.96 39.8354 175.96C39.3403 175.96 38.8558 175.855 38.3818 175.643C37.9079 175.431 37.5461 175.142 37.2964 174.773L37.9058 174.069C38.4093 174.691 39.0251 175.002 39.7529 175.002C40.3242 175.002 40.7686 174.841 41.0859 174.52C41.4076 174.198 41.5684 173.745 41.5684 173.161V172.571C41.0986 173.112 40.4575 173.383 39.645 173.383C38.841 173.383 38.1893 173.06 37.6899 172.412C37.1948 171.765 36.9473 170.882 36.9473 169.765ZM38.1279 169.898C38.1279 170.673 38.2866 171.282 38.604 171.727C38.9214 172.167 39.3657 172.387 39.937 172.387C40.6776 172.387 41.2214 172.05 41.5684 171.377V168.242C41.2087 167.586 40.6691 167.258 39.9497 167.258C39.3784 167.258 38.932 167.48 38.6104 167.924C38.2887 168.369 38.1279 169.027 38.1279 169.898ZM47.3765 173.383C46.4455 173.383 45.688 173.079 45.104 172.469C44.52 171.856 44.228 171.037 44.228 170.013V169.797C44.228 169.116 44.3571 168.508 44.6152 167.975C44.8776 167.438 45.2415 167.019 45.707 166.718C46.1768 166.414 46.6846 166.261 47.2305 166.261C48.1234 166.261 48.8174 166.555 49.3125 167.144C49.8076 167.732 50.0552 168.574 50.0552 169.67V170.159H45.4023C45.4193 170.836 45.616 171.384 45.9927 171.803C46.3735 172.217 46.856 172.425 47.4399 172.425C47.8547 172.425 48.2059 172.34 48.4937 172.171C48.7814 172.002 49.0332 171.777 49.249 171.498L49.9663 172.057C49.3908 172.941 48.5275 173.383 47.3765 173.383ZM47.2305 167.226C46.7565 167.226 46.3587 167.4 46.0371 167.747C45.7155 168.089 45.5166 168.572 45.4404 169.194H48.8809V169.105C48.847 168.508 48.6862 168.047 48.3984 167.721C48.1107 167.391 47.7214 167.226 47.2305 167.226ZM52.5308 166.388L52.5688 167.251C53.0936 166.591 53.7791 166.261 54.6255 166.261C56.077 166.261 56.8091 167.08 56.8218 168.718V173.256H55.6475V168.711C55.6432 168.216 55.529 167.85 55.3047 167.613C55.0846 167.376 54.7397 167.258 54.27 167.258C53.8892 167.258 53.5549 167.359 53.2671 167.562C52.9793 167.766 52.755 168.032 52.5942 168.362V173.256H51.4199V166.388H52.5308ZM58.3071 169.765C58.3071 168.711 58.5568 167.865 59.0562 167.226C59.5555 166.583 60.2093 166.261 61.0176 166.261C61.8216 166.261 62.4585 166.536 62.9282 167.086V163.506H64.1025V173.256H63.0234L62.9663 172.52C62.4966 173.096 61.8428 173.383 61.0049 173.383C60.2093 173.383 59.5597 173.057 59.0562 172.406C58.5568 171.754 58.3071 170.903 58.3071 169.854V169.765ZM59.4814 169.898C59.4814 170.677 59.6423 171.286 59.9639 171.727C60.2855 172.167 60.7298 172.387 61.2969 172.387C62.0417 172.387 62.5854 172.052 62.9282 171.384V168.229C62.577 167.582 62.0374 167.258 61.3096 167.258C60.734 167.258 60.2855 167.48 59.9639 167.924C59.6423 168.369 59.4814 169.027 59.4814 169.898ZM70.1709 173.256C70.1032 173.121 70.0482 172.88 70.0059 172.533C69.46 173.1 68.8083 173.383 68.0508 173.383C67.3737 173.383 66.8172 173.193 66.3813 172.812C65.9497 172.427 65.7339 171.94 65.7339 171.352C65.7339 170.637 66.0047 170.083 66.5464 169.689C67.0923 169.291 67.8582 169.092 68.8442 169.092H69.9868V168.553C69.9868 168.142 69.8641 167.816 69.6187 167.575C69.3732 167.33 69.0114 167.207 68.5332 167.207C68.1143 167.207 67.763 167.313 67.4795 167.524C67.196 167.736 67.0542 167.992 67.0542 168.292H65.8735C65.8735 167.95 65.9941 167.62 66.2354 167.302C66.4808 166.981 66.8109 166.727 67.2256 166.541C67.6445 166.354 68.1037 166.261 68.603 166.261C69.3944 166.261 70.0143 166.46 70.4629 166.858C70.9115 167.251 71.1442 167.795 71.1611 168.489V171.65C71.1611 172.281 71.2415 172.782 71.4023 173.155V173.256H70.1709ZM68.2222 172.361C68.5903 172.361 68.9395 172.266 69.2695 172.076C69.5996 171.885 69.8387 171.638 69.9868 171.333V169.924H69.0664C67.6276 169.924 66.9082 170.345 66.9082 171.187C66.9082 171.555 67.0309 171.843 67.2764 172.05C67.5218 172.258 67.8371 172.361 68.2222 172.361Z" fill="#6B6B6B"/>
<path d="M87.0819 174.227C87.2002 174.108 87.3937 174.107 87.5127 174.226C87.6317 174.344 87.6323 174.538 87.514 174.657L85.9867 176.185C85.8683 176.304 85.6749 176.305 85.5558 176.186C85.496 176.127 85.4661 176.048 85.4661 175.97H85.4648V171.081C85.4648 170.966 85.5285 170.866 85.6226 170.813L96.598 163.496C96.7374 163.402 96.927 163.439 97.0206 163.579C97.1142 163.719 97.0766 163.908 96.9372 164.002L86.0764 171.244V175.234L87.0819 174.227Z" fill="#6B6B6B"/>
<path d="M86.7773 172.517C86.6589 172.398 86.6595 172.204 86.7785 172.086C86.8976 171.968 87.091 171.968 87.2093 172.087L90.6171 175.496L100.129 161.822V161.711L82.0758 166.953L85.9869 170.865C86.1059 170.984 86.1059 171.178 85.9869 171.297C85.8679 171.416 85.6738 171.416 85.5548 171.297L81.2797 167.021L81.2804 167.02C81.2454 166.984 81.218 166.941 81.2034 166.89C81.1569 166.728 81.2498 166.559 81.4108 166.512L100.324 161.02C100.358 161.008 100.395 161 100.434 161C100.603 161 100.74 161.137 100.74 161.305V161.916H100.739C100.739 161.977 100.721 162.038 100.684 162.091L90.9098 176.143L90.9092 176.143C90.899 176.157 90.8869 176.172 90.8735 176.185C90.7545 176.303 90.5611 176.303 90.4427 176.184L86.7773 172.517Z" fill="#6B6B6B"/>
<path d="M292.863 304.382H287.148V313.048H292.863V304.382Z" fill="#DE8E68"/>
<path d="M360.205 340.986H354.49V349.651H360.205V340.986Z" fill="#DE8E68"/>
<path d="M329.093 224.191C322.183 224.191 291.331 254.856 288.642 260.01C285.953 265.165 286.737 305.541 286.737 305.541L293.386 306.81L304.18 269.199C308.886 268.638 328.682 264.38 338.916 256.126C349.15 247.834 337.945 229.346 337.945 229.346L329.093 224.191Z" fill="#6FC9CE"/>
<path d="M317.551 182.546C314.153 185.571 307.355 193.153 306.795 194.124C305.076 193.303 287.186 183.89 285.841 183.293C284.496 182.695 281.658 177.952 280.687 177.952C280.126 177.952 279.604 179.035 279.604 179.782C279.604 181.052 280.201 182.023 280.575 182.434C279.305 182.247 268.1 181.388 268.1 182.135C268.1 184.077 280.649 186.654 281.62 187.177C282.592 187.7 303.022 206.599 310.119 206.599C312.883 206.599 325.096 198.308 325.096 197.411C326.254 196.627 328.047 195.469 328.047 195.469V188.895L323.789 185.795C323.789 185.758 318.224 181.948 317.551 182.546Z" fill="#DE8E68"/>
<path d="M317.104 180.379C317.851 174.328 331.783 160.583 338.169 166.709C343.735 172.05 333.65 191.136 331.073 191.883C328.16 192.182 316.917 184.488 317.104 180.379Z" fill="#FEBF92"/>
<path d="M359.608 167.792C366.705 164.804 376.64 181.238 375.519 187.215C375.519 189.829 360.953 195.432 358.712 193.938C356.471 192.444 352.512 170.78 359.608 167.792Z" fill="#FED892"/>
<path d="M330.998 226.843L354.454 340.949H360.467L362.596 239.169C362.596 237.413 362.447 226.358 362.447 224.938C355.649 226.918 341.157 228.487 330.998 226.843Z" fill="#74D5DE"/>
<path d="M354.491 349.651H360.205V355.852H344.443L354.491 349.651Z" fill="black"/>
<path d="M287.149 313.048H292.863V319.248H277.102L287.149 313.048Z" fill="black"/>
<path d="M320.837 319.248H252.822V359.064H320.837V319.248Z" fill="#FD8369"/>
<path d="M344.071 159.015C361.625 159.015 367.751 173.619 367.751 178.363C367.751 183.106 362.26 212.053 362.484 224.939C362.522 227.068 330.998 228.972 326.703 225.872C324.686 224.416 320.353 159.015 344.071 159.015Z" fill="#FECC92"/>
<path d="M375.52 187.214C380.487 194.834 380.189 212.389 380.189 215.04C380.189 217.692 361.663 241.522 360.057 241.522C359.086 240.551 356.396 237.6 356.396 236.704C357.256 235.135 368.274 211.044 370.253 209.326C369.357 208.243 361.476 195.88 361.14 193.825C368.05 192.668 374.736 189.754 375.52 187.214Z" fill="#DE8E68"/>
<path d="M375.519 187.215C376.64 181.239 367.563 163.908 359.608 167.792C352.698 171.191 356.47 192.444 358.711 193.938C361.401 195.096 374.473 191.174 375.519 187.215Z" fill="#FED892"/>
<path d="M339.589 155.429C339.215 156.587 339.029 160.173 339.44 161.779C339.477 161.853 346.91 162.414 347.731 161.106C347.769 160.023 349.561 150.387 351.989 147.399C352.213 147.063 351.728 146.129 351.728 146.129L343.1 149.715L339.589 155.429Z" fill="#D38466"/>
<path d="M350.755 146.951C351.315 147.698 352.025 148.034 352.66 148.034C354.079 148.034 357.366 146.727 357.366 142.058C357.366 138.696 354.079 136.978 354.079 135.372C354.079 133.841 354.49 133.803 354.49 132.533C354.49 131.899 353.855 129.807 351.876 129.807C350.755 129.807 350.344 130.741 349.224 130.741C347.991 130.741 346.871 128.35 345.003 128.35C343.733 128.35 342.538 129.545 341.193 129.545C339.662 129.545 338.616 127.267 336.487 127.267C334.284 127.267 333.499 129.247 332.64 129.247C331.557 129.247 331.37 128.948 330.287 128.948C329.615 128.948 327.561 130.143 327.561 132.309C327.561 133.841 328.196 136.343 331.37 136.343C333.238 136.343 334.284 139.294 335.927 139.294C336.562 139.294 337.122 138.771 337.272 139.032C337.907 140.153 339.214 143.216 339.214 143.216L345.153 146.54L350.755 146.951Z" fill="#FD8369"/>
<path d="M349.449 145.419C349.449 145.942 349.262 146.054 348.478 146.054C348.105 146.054 347.582 145.569 347.582 145.046C347.582 143.813 348.478 143.552 348.478 141.946C348.478 139.219 341.344 137.8 338.842 136.38C337.945 137.277 337.31 138.435 337.049 139.742L335.443 147.996C334.733 151.582 337.086 155.056 340.634 155.765C344.183 156.475 347.694 154.122 348.403 150.574L348.665 149.154C348.814 149.192 348.964 149.229 349.076 149.229C350.009 149.229 350.719 148.37 350.719 147.324C350.794 146.353 349.449 144.635 349.449 145.419Z" fill="#DE8E68"/>
<path d="M41.0197 356.489L14.7624 356.19L5.57422 322.463H49.6103L41.0197 356.489Z" fill="#FD8369"/>
<path d="M31.3462 309.241C23.7641 258.482 5.20096 231.851 2.84788 232.859C-0.476298 234.316 -1.44741 262.814 4.4913 292.246C4.6407 292.246 4.75275 292.209 4.90215 292.209C6.62027 292.209 8.00223 293.591 8.00223 295.309C8.00223 295.832 7.89018 296.317 7.66608 296.728C8.67454 297.251 9.3842 298.297 9.3842 299.492C9.3842 300.986 8.30104 302.256 6.88172 302.555C8.63719 309.353 10.8409 316.076 13.4554 322.313C14.8 322.313 29.8895 322.313 29.8895 322.313C29.8895 322.313 32.4667 316.636 31.3462 309.241Z" fill="#6FC9CE"/>
<path d="M75.2329 255.419C70.6388 255.419 65.7086 268.641 60.2554 268.641C59.0602 268.641 58.2758 267.333 58.2758 266.101C58.2758 264.906 62.0482 251.758 62.0482 245.371C62.0482 244.811 62.0109 244.214 61.9362 243.616C61.3386 243.989 60.5916 244.214 59.8446 244.214C57.6035 244.214 55.7734 242.383 55.7734 240.142C55.7734 238.163 57.1553 236.557 59.0229 236.146C57.118 233.718 54.3167 232 50.507 232C45.6888 232 38.891 236.295 38.891 242.944C38.891 244.811 39.4513 249.555 39.4513 253.85C39.4513 278.202 20.3652 281.863 20.3652 308.83C20.3652 314.507 23.5027 320.744 24.4364 322.276C24.4364 322.276 40.4224 322.463 41.9537 322.463C43.4851 322.463 55.9228 301.696 57.3421 299.492C62.7579 291.126 80.7608 281.937 80.7608 261.955C80.7608 259.154 79.7523 255.419 75.2329 255.419Z" fill="#74D5DE"/>
</svg>
