<svg width="550" height="421" viewBox="0 0 550 421" fill="none" xmlns="http://www.w3.org/2000/svg">
<path d="M201.822 290L201.822 218.597C201.822 215.299 205.877 211.03 212.199 211.03L251.187 211.03C257.413 211.03 260.822 206.567 260.822 202.687L260.822 160" stroke="#D0D0D0" stroke-width="5" stroke-miterlimit="10" stroke-dasharray="7 7"/>
<path d="M359.822 290L359.822 218.597C359.822 215.299 355.767 211.03 349.446 211.03L310.458 211.03C304.232 211.03 300.822 206.567 300.822 202.687L300.822 160" stroke="#D0D0D0" stroke-width="5" stroke-miterlimit="10" stroke-dasharray="7 7"/>
<path d="M280.139 300.73L280.139 159.963" stroke="#D0D0D0" stroke-width="5" stroke-miterlimit="10" stroke-dasharray="7 7"/>
<path d="M280.877 158.752C313.848 158.752 340.577 131.695 340.577 98.3197C340.577 64.944 313.848 37.8877 280.877 37.8877C247.905 37.8877 221.176 64.944 221.176 98.3197C221.176 131.695 247.905 158.752 280.877 158.752Z" stroke="white" stroke-width="19.7"/>
<path d="M339.605 135.482C333.374 145.622 324.706 153.988 314.416 159.794C304.126 165.6 292.551 168.655 280.779 168.672C269.006 168.689 257.423 165.669 247.116 159.893C246.746 159.686 246.036 159.262 246.036 159.262C246.036 159.262 247.525 154.376 246.833 145.542C246.286 138.562 244.008 132.107 244.008 132.105C247.649 136.159 251.932 139.598 256.698 142.269C264.062 146.395 272.339 148.554 280.75 148.541C289.161 148.529 297.431 146.346 304.784 142.198C323.884 131.421 339.605 135.482 339.605 135.482Z" fill="#E48AE0"/>
<path d="M280.812 129.311C270.903 129.311 262.871 137.195 262.871 146.919C262.871 156.643 270.903 164.526 280.812 164.526C290.721 164.526 298.754 156.643 298.754 146.919C298.754 137.195 290.721 129.311 280.812 129.311Z" fill="#EB65E5"/>
<path d="M243.927 158.006C233.939 151.681 225.698 142.881 219.98 132.435C214.261 121.988 211.252 110.237 211.234 98.2853C211.217 86.3337 214.193 74.574 219.882 64.1104C220.086 63.7347 220.503 63.0132 220.503 63.0132C220.503 63.0132 225.316 64.525 234.018 63.8226C240.893 63.2677 247.251 60.9546 247.254 60.9546C243.26 64.6513 239.873 68.9995 237.242 73.8382C233.177 81.3144 231.051 89.7167 231.063 98.2561C231.076 106.795 233.226 115.191 237.312 122.656C247.927 142.047 243.927 158.006 243.927 158.006Z" fill="#F0DC0A"/>
<path d="M250.005 98.3186C250.005 88.2589 242.24 80.104 232.662 80.104C223.083 80.104 215.318 88.2589 215.318 98.3186C215.318 108.378 223.083 116.533 232.662 116.533C242.24 116.533 250.005 108.378 250.005 98.3186Z" fill="#EFF309"/>
<path d="M221.75 60.8632C227.981 50.7229 236.648 42.357 246.938 36.5511C257.228 30.7453 268.803 27.6903 280.576 27.6729C292.348 27.6554 303.931 30.6764 314.238 36.4518C314.609 36.6592 315.319 37.0826 315.319 37.0826C315.319 37.0826 313.83 41.9689 314.522 50.8031C315.068 57.7831 317.347 64.238 317.347 64.2401C313.705 60.1856 309.422 56.7469 304.656 54.076C297.292 49.9497 289.016 47.7913 280.604 47.8036C272.193 47.8161 263.923 49.999 256.571 54.1472C237.47 64.9239 221.75 60.8632 221.75 60.8632Z" fill="#FF9900"/>
<path d="M280.543 67.0339C290.452 67.0339 298.485 59.1507 298.485 49.4263C298.485 39.702 290.452 31.8188 280.543 31.8188C270.634 31.8188 262.602 39.702 262.602 49.4263C262.602 59.1507 270.634 67.0339 280.543 67.0339Z" fill="#FFBB55"/>
<path d="M317.418 38.3477C327.406 44.6735 335.647 53.473 341.366 63.9195C347.085 74.3662 350.094 86.1171 350.111 98.0686C350.128 110.02 347.152 121.78 341.464 132.244C341.259 132.619 340.842 133.341 340.842 133.341C340.842 133.341 336.029 131.829 327.327 132.531C320.452 133.086 314.094 135.4 314.092 135.4C318.086 131.703 321.473 127.355 324.104 122.516C328.168 115.04 330.294 106.637 330.282 98.0981C330.27 89.5587 328.12 81.1627 324.034 73.6986C313.418 54.3073 317.418 38.3477 317.418 38.3477Z" fill="#96CA2C"/>
<path d="M311.34 98.0355C311.34 108.095 319.105 116.25 328.684 116.25C338.262 116.25 346.027 108.095 346.027 98.0355C346.027 87.9758 338.262 79.8208 328.684 79.8208C319.105 79.8208 311.34 87.9758 311.34 98.0355Z" fill="#B4E654"/>
<path d="M339.575 135.469C333.344 145.609 324.676 153.975 314.385 159.78L304.754 142.183C323.855 131.407 339.575 135.469 339.575 135.469Z" fill="#E48AE0"/>
<path d="M457.577 364.641C450.496 364.641 441.417 393.804 433.82 420.282L475.229 420C493.619 405.626 473.484 373.576 473.484 373.576L457.577 364.641Z" fill="#56CAD8"/>
<path d="M441.758 280.434C430.929 292.112 428.651 322.405 427.822 327C426.992 331.595 443.591 380.007 446.322 380.5C448.276 379.115 453.772 374.828 454.052 373.275C453.083 370.293 449.322 328.5 448.322 322.5C449.322 319.5 456.607 299.456 457.822 296C446.437 291.872 442.297 285.076 441.758 280.434Z" fill="#DE8E68"/>
<path d="M436.362 284.218C437.701 273.18 462.674 248.106 474.122 259.28C484.098 269.024 466.021 303.841 461.402 305.204C456.179 305.749 436.027 291.713 436.362 284.218Z" fill="#FEBF92"/>
<path d="M512.714 261.052C525.429 255.608 543.231 285.55 541.223 296.438C541.223 301.201 515.123 311.409 511.107 308.687C507.092 305.965 499.998 266.496 512.714 261.052Z" fill="#FED892"/>
<path d="M461.006 368.646L471.322 420H517.822L518.339 391.148C518.339 387.943 518.068 367.76 518.068 365.169C505.734 368.783 479.439 371.647 461.006 368.646Z" fill="#74D5DE"/>
<path d="M484.674 244.708C516.383 244.708 527.448 271.471 527.448 280.164C527.448 288.856 517.53 341.902 517.935 365.516C518.003 369.418 461.06 372.908 453.301 367.227C449.658 364.558 441.832 244.708 484.674 244.708Z" fill="#FECC92"/>
<path d="M541.535 296.254C550.484 310.168 549.946 342.224 549.946 347.067C549.946 351.909 516.573 395.424 513.68 395.424C511.93 393.651 507.086 388.263 507.086 386.626C508.633 383.761 528.482 339.769 532.048 336.632C530.434 334.654 516.237 312.078 515.631 308.327C528.079 306.212 540.122 300.892 541.535 296.254Z" fill="#DE8E68"/>
<path d="M541.209 296.447C543.224 285.499 526.904 253.749 512.598 260.866C500.173 267.092 506.956 306.027 510.986 308.764C515.822 310.885 539.329 303.7 541.209 296.447Z" fill="#FED892"/>
<path d="M476.693 238.292C476.023 240.422 475.688 247.02 476.425 249.976C476.492 250.113 489.828 251.144 491.302 248.739C491.369 246.745 494.586 229.013 498.942 223.515C499.344 222.896 498.473 221.178 498.473 221.178L482.993 227.776L476.693 238.292Z" fill="#D38466"/>
<path d="M496.807 223.112C497.814 224.482 499.09 225.099 500.232 225.099C502.783 225.099 508.692 222.701 508.692 214.135C508.692 207.968 502.783 204.816 502.783 201.87C502.783 199.06 503.522 198.992 503.522 196.662C503.522 195.497 502.38 191.66 498.822 191.66C496.807 191.66 496.069 193.373 494.054 193.373C491.838 193.373 489.824 188.987 486.467 188.987C484.184 188.987 482.035 191.18 479.618 191.18C476.865 191.18 474.985 187 471.157 187C467.196 187 465.786 190.632 464.241 190.632C462.294 190.632 461.958 190.084 460.011 190.084C458.802 190.084 455.109 192.276 455.109 196.251C455.109 199.06 456.251 203.651 461.958 203.651C465.316 203.651 467.196 209.065 470.15 209.065C471.292 209.065 472.299 208.105 472.567 208.585C473.709 210.641 476.059 216.26 476.059 216.26L486.735 222.358L496.807 223.112Z" fill="#FD8369"/>
<path d="M494.604 220.161C494.604 221.107 494.266 221.309 492.847 221.309C492.172 221.309 491.226 220.431 491.226 219.485C491.226 217.255 492.847 216.782 492.847 213.877C492.847 208.944 479.945 206.376 475.419 203.809C473.798 205.43 472.649 207.525 472.176 209.89L469.272 224.823C467.988 231.31 472.244 237.594 478.661 238.878C485.079 240.161 491.429 235.905 492.712 229.485L493.185 226.918C493.455 226.985 493.726 227.053 493.928 227.053C495.617 227.053 496.901 225.499 496.901 223.607C497.036 221.85 494.604 218.742 494.604 220.161Z" fill="#DE8E68"/>
<ellipse cx="284.822" cy="367" rx="194" ry="39" fill="#C4996C"/>
<path d="M172.807 350.612H117.064L108.822 359.603H176.253L172.807 350.612Z" fill="#B0CFD3"/>
<path d="M197.681 298.702L169.959 356.786L176.196 359.72L204.898 298.702L197.681 298.702Z" fill="#B0CFD3"/>
<path d="M48.4941 360.221C48.759 365.456 48.4941 420 48.4941 420H84.2085C84.4815 415.775 88.4176 382.507 88.4176 382.507L63.5622 357.485L48.4941 360.221Z" fill="#56CAD8"/>
<path d="M104.625 359.149C104.625 359.149 111.441 398.476 114.869 420H79.3921L55.1484 363.289" fill="#74D5DE"/>
<path d="M79.7615 265.039C49.8895 265.718 47.1767 359.602 49.7938 364.459C52.9062 370.281 96.562 379.683 108.643 373.658C114.678 370.652 129.728 263.901 79.7615 265.039Z" fill="#FED385"/>
<path d="M80.2133 205.028C86.5223 204.753 94.9773 207.784 95.8188 216.457C96.6603 225.131 89.7346 229.413 81.7483 231.615C87.8961 237.649 90.2797 238.701 89.9888 241.581C89.6978 244.461 85.366 252.725 85.8124 261.667C86.2589 270.609 66.8422 321.903 62.3905 323.763C57.9388 325.623 67.8661 333.798 36.3123 337.885C27.8739 338.704 11.3492 327.674 9.76694 311.366C5.93877 275.856 42.231 265.524 58.9273 223.872C66.5893 204.753 77.2852 205.151 80.2133 205.028Z" fill="black"/>
<path d="M118.263 288.695C123.113 293.103 132.812 304.152 133.611 305.567C136.063 304.37 161.59 290.654 163.508 289.783C165.427 288.912 169.477 282 170.863 282C171.662 282 172.408 283.578 172.408 284.667C172.408 286.518 171.555 287.933 171.023 288.531C172.835 288.259 188.822 287.007 188.822 288.096C188.822 290.926 170.916 294.682 169.53 295.444C168.145 296.206 139.074 320 128.948 320C126.275 319.465 111.841 306.729 111.841 306.729C110.189 305.586 107.564 302.447 107.564 302.447L103.822 296.986L109.363 293.43C109.363 293.376 117.304 287.824 118.263 288.695Z" fill="#794126"/>
<path d="M124.819 290.782C123.866 283.31 106.082 266.334 97.9286 273.899C90.8245 280.496 103.698 304.067 106.988 304.99C110.706 305.359 125.058 295.856 124.819 290.782Z" fill="#FEBF92"/>
<path d="M79.456 265.058C49.5934 265.739 45.5337 359.008 49.4879 364.274C53.4421 369.541 103.252 377.91 108.302 373.45C113.352 368.99 129.407 263.917 79.456 265.058Z" fill="#FED385"/>
<path d="M70.304 304.222L52.5867 306.625C51.3801 308.518 51.9028 312.995 51.8832 315.299C51.8046 323.812 52.1033 333.327 56.1435 340.499C57.7156 343.288 60.2899 346.007 62.8248 345.962C66.7943 347.965 73.4167 350.274 73.4167 350.274L83.4662 353.099C83.4662 353.099 100.421 356.93 108.792 356.679C111.579 356.589 114.413 356.178 117.195 356.279C118.81 356.334 121.373 356.975 122.882 356.279C123.322 356.073 123.216 354.836 123.11 354.351C122.749 352.653 121.475 351.461 120.304 350.72C117.584 348.997 116.044 350.089 113.253 350.149C110.97 350.199 108.246 348.717 104.284 346.739C99.6115 344.405 93.862 342.542 89.0986 340.499C83.671 338.17 77.9747 336.784 72.6768 334.02C71.6314 333.474 70.5191 333.078 69.4226 332.643C69.9239 329.003 70.7865 323.205 70.8503 319.511C70.9721 315.504 71.0232 311.298 70.5634 307.352C70.4455 306.335 70.6381 305.163 70.304 304.222Z" fill="#794126"/>
<path d="M126.006 353.674C126.194 349.77 121.751 346.384 116.08 346.11C110.41 345.836 105.661 348.779 105.472 352.683C105.284 356.586 109.727 359.973 115.398 360.247C121.068 360.521 125.817 357.578 126.006 353.674Z" fill="#794126"/>
<path d="M49.4573 306.978C46.1798 298.675 54.1156 271.168 66.4725 274.557C77.2122 277.537 77.8916 309.223 75.1436 312C71.6662 314.416 52.0581 312.395 49.4573 306.978Z" fill="#FED892"/>
<path d="M74.6992 243.396C74.7491 244.283 75.5237 263.771 73.4759 269.718C73.5712 271.412 90.6827 271.561 90.5013 268.336L89.7041 254.166" fill="#794126"/>
<path d="M89.1373 255.87C80.7256 256.343 73.3145 246.202 72.5841 233.218C71.8536 220.235 78.0805 209.327 86.4921 208.853C94.9037 208.38 102.315 218.522 103.045 231.505C103.776 244.488 97.5489 255.396 89.1373 255.87Z" fill="#894A2B"/>
<path d="M74.1076 244.354L74.4987 244.349L74.3388 233.1C75.49 231.531 86.7825 227.879 89.5037 226.676C92.2249 225.474 96.8961 223.856 99.9588 219.156C100.69 220.213 102.451 225.519 102.96 229.958C104.117 228.777 105.936 226.831 105.847 220.625C105.687 209.376 94.2517 202.942 84.474 203.081C68.8298 203.304 60.0605 219.336 60.1597 226.318C60.3031 236.403 67.4588 244.449 74.1076 244.354Z" fill="black"/>
<path d="M76.0296 241.328C73.6524 241.462 71.6169 239.643 71.4832 237.266C71.3494 234.888 73.1681 232.853 75.5453 232.719C77.9225 232.585 79.958 234.404 80.0918 236.781C80.2255 239.159 78.4068 241.194 76.0296 241.328Z" fill="#894A2B"/>
<path d="M389.076 350.612H444.819L453.061 359.603H385.629L389.076 350.612Z" fill="#B0CFD3"/>
<path d="M364.202 298.701L391.924 356.785L385.686 359.719L356.984 298.702L364.202 298.701Z" fill="#B0CFD3"/>
<path d="M345.435 273H213.361V368.297H345.435V273Z" fill="#B0CFD3"/>
<path d="M345.595 368.298H213.522L194.814 391.962H361.745L345.595 368.298Z" fill="#74D5DE"/>
<path d="M342.557 275.878H216.24V364.78H342.557V275.878Z" fill="white"/>
<path d="M230.615 293.274C230.296 293.786 229.851 294.208 229.323 294.501C228.794 294.794 228.2 294.949 227.596 294.95C226.992 294.95 226.398 294.798 225.869 294.506C225.85 294.496 225.813 294.474 225.813 294.474C225.813 294.474 225.889 294.228 225.854 293.782C225.826 293.429 225.709 293.103 225.709 293.103C225.896 293.308 226.116 293.481 226.36 293.616C226.738 293.825 227.163 293.934 227.595 293.933C228.026 293.932 228.451 293.822 228.828 293.613C229.809 293.069 230.615 293.274 230.615 293.274Z" fill="#E48AE0"/>
<path d="M227.597 292.962C227.088 292.962 226.676 293.361 226.676 293.852C226.676 294.343 227.088 294.741 227.597 294.741C228.105 294.741 228.518 294.343 228.518 293.852C228.518 293.361 228.105 292.962 227.597 292.962Z" fill="#EB65E5"/>
<path d="M225.703 294.411C225.191 294.092 224.768 293.647 224.474 293.12C224.181 292.592 224.026 291.999 224.025 291.395C224.025 290.792 224.177 290.198 224.469 289.67C224.48 289.651 224.501 289.614 224.501 289.614C224.501 289.614 224.748 289.691 225.195 289.655C225.548 289.627 225.874 289.51 225.874 289.51C225.669 289.697 225.495 289.917 225.36 290.161C225.152 290.538 225.042 290.963 225.043 291.394C225.044 291.825 225.154 292.249 225.364 292.626C225.909 293.605 225.703 294.411 225.703 294.411Z" fill="#F0DC0A"/>
<path d="M226.017 291.397C226.017 290.889 225.618 290.477 225.126 290.477C224.635 290.477 224.236 290.889 224.236 291.397C224.236 291.905 224.635 292.316 225.126 292.316C225.618 292.316 226.017 291.905 226.017 291.397Z" fill="#EFF309"/>
<path d="M224.566 289.506C224.886 288.994 225.331 288.571 225.859 288.278C226.387 287.985 226.981 287.83 227.586 287.83C228.19 287.829 228.784 287.981 229.313 288.273C229.332 288.283 229.369 288.305 229.369 288.305C229.369 288.305 229.292 288.552 229.328 288.998C229.356 289.35 229.473 289.676 229.473 289.676C229.286 289.471 229.066 289.298 228.821 289.163C228.444 288.955 228.019 288.846 227.587 288.846C227.155 288.847 226.731 288.957 226.354 289.166C225.373 289.711 224.566 289.506 224.566 289.506Z" fill="#FF9900"/>
<path d="M227.583 289.817C228.091 289.817 228.504 289.419 228.504 288.928C228.504 288.437 228.091 288.039 227.583 288.039C227.074 288.039 226.662 288.437 226.662 288.928C226.662 289.419 227.074 289.817 227.583 289.817Z" fill="#FFBB55"/>
<path d="M229.475 288.369C229.988 288.688 230.411 289.132 230.704 289.66C230.998 290.188 231.152 290.781 231.153 291.384C231.154 291.988 231.001 292.582 230.71 293.11C230.699 293.129 230.678 293.166 230.678 293.166C230.678 293.166 230.431 293.089 229.984 293.125C229.631 293.153 229.305 293.27 229.305 293.27C229.51 293.083 229.684 292.863 229.819 292.619C230.027 292.241 230.136 291.817 230.136 291.386C230.135 290.955 230.025 290.531 229.815 290.154C229.27 289.175 229.475 288.369 229.475 288.369Z" fill="#96CA2C"/>
<path d="M229.163 291.383C229.163 291.891 229.562 292.303 230.053 292.303C230.545 292.303 230.943 291.891 230.943 291.383C230.943 290.875 230.545 290.463 230.053 290.463C229.562 290.463 229.163 290.875 229.163 291.383Z" fill="#B4E654"/>
<path d="M230.613 293.273C230.293 293.785 229.849 294.208 229.32 294.501L228.826 293.612C229.807 293.068 230.613 293.273 230.613 293.273Z" fill="#E48AE0"/>
<path d="M253.017 306.897H223.916V308.651H253.017V306.897Z" fill="#D0D0D0"/>
<path d="M241.467 310.938H223.916V312.706H241.467V310.938Z" fill="#D0D0D0"/>
<path d="M342.557 275.878H216.24V283.233H342.557V275.878Z" fill="#E1E1E1"/>
<path d="M221.448 280.842C222.092 280.842 222.614 280.32 222.614 279.676C222.614 279.032 222.092 278.509 221.448 278.509C220.804 278.509 220.281 279.032 220.281 279.676C220.281 280.32 220.804 280.842 221.448 280.842Z" fill="#FD8369"/>
<path d="M225.206 280.842C225.85 280.842 226.372 280.32 226.372 279.676C226.372 279.032 225.85 278.509 225.206 278.509C224.561 278.509 224.039 279.032 224.039 279.676C224.039 280.32 224.561 280.842 225.206 280.842Z" fill="#FD8369"/>
<path d="M228.963 280.842C229.608 280.842 230.13 280.32 230.13 279.676C230.13 279.032 229.608 278.509 228.963 278.509C228.319 278.509 227.797 279.032 227.797 279.676C227.797 280.32 228.319 280.842 228.963 280.842Z" fill="#FD8369"/>
<path d="M329.127 326.405H223.916V340.205H329.127V326.405Z" fill="#CDEAED"/>
<path d="M319.853 329.603H258.773V331.841H319.853V329.603Z" fill="#74D5DE"/>
<path d="M276.042 334.72H258.773V336.958H276.042V334.72Z" fill="#74D5DE"/>
<path d="M319.853 329.603H258.773V331.841H319.853V329.603Z" fill="#74D5DE"/>
<path d="M276.042 334.72H258.773V336.958H276.042V334.72Z" fill="#74D5DE"/>
<path d="M246.302 334.72H229.033V336.958H246.302V334.72Z" fill="#74D5DE"/>
<path d="M246.302 329.603H229.033V331.841H246.302V329.603Z" fill="#74D5DE"/>
<path d="M329.073 345.652H223.916V359.452H329.073V345.652Z" fill="#CDEAED"/>
<path d="M246.302 353.907H229.033V356.145H246.302V353.907Z" fill="#74D5DE"/>
<path d="M246.302 348.791H229.033V351.029H246.302V348.791Z" fill="#74D5DE"/>
<path d="M320.173 348.791H258.773V351.029H320.173V348.791Z" fill="#74D5DE"/>
<path d="M303.224 353.907H258.773V356.145H303.224V353.907Z" fill="#74D5DE"/>
<path d="M226.172 321.499H224.683L224.349 322.427H223.865L225.223 318.872H225.633L226.993 322.427H226.512L226.172 321.499ZM224.825 321.113H226.033L225.428 319.451L224.825 321.113ZM227.293 321.084C227.293 320.672 227.388 320.345 227.579 320.103C227.769 319.858 228.021 319.736 228.335 319.736C228.658 319.736 228.909 319.85 229.09 320.078L229.112 319.785H229.524V322.363C229.524 322.705 229.423 322.974 229.219 323.171C229.017 323.368 228.746 323.467 228.404 323.467C228.213 323.467 228.027 323.426 227.845 323.345C227.662 323.263 227.523 323.152 227.427 323.01L227.662 322.739C227.855 322.979 228.092 323.098 228.372 323.098C228.592 323.098 228.763 323.036 228.885 322.913C229.008 322.789 229.07 322.615 229.07 322.39V322.163C228.89 322.371 228.643 322.476 228.331 322.476C228.021 322.476 227.771 322.351 227.579 322.102C227.388 321.853 227.293 321.514 227.293 321.084ZM227.747 321.135C227.747 321.433 227.808 321.667 227.93 321.838C228.052 322.008 228.223 322.092 228.443 322.092C228.728 322.092 228.937 321.963 229.07 321.704V320.498C228.932 320.246 228.724 320.12 228.448 320.12C228.228 320.12 228.056 320.205 227.933 320.376C227.809 320.547 227.747 320.8 227.747 321.135ZM231.304 322.476C230.946 322.476 230.655 322.358 230.43 322.124C230.206 321.888 230.093 321.573 230.093 321.179V321.096C230.093 320.834 230.143 320.601 230.242 320.396C230.343 320.189 230.483 320.028 230.662 319.912C230.843 319.795 231.038 319.736 231.248 319.736C231.591 319.736 231.858 319.849 232.049 320.076C232.239 320.302 232.334 320.626 232.334 321.047V321.235H230.545C230.551 321.496 230.627 321.707 230.772 321.868C230.918 322.027 231.104 322.107 231.329 322.107C231.488 322.107 231.623 322.074 231.734 322.009C231.845 321.944 231.941 321.858 232.024 321.75L232.3 321.965C232.079 322.306 231.747 322.476 231.304 322.476ZM231.248 320.107C231.066 320.107 230.913 320.174 230.789 320.308C230.665 320.439 230.589 320.625 230.56 320.864H231.883V320.83C231.87 320.601 231.808 320.423 231.697 320.298C231.587 320.171 231.437 320.107 231.248 320.107ZM233.287 319.785L233.301 320.117C233.503 319.863 233.767 319.736 234.092 319.736C234.651 319.736 234.932 320.051 234.937 320.681V322.427H234.485V320.679C234.484 320.488 234.44 320.347 234.354 320.256C234.269 320.165 234.136 320.12 233.956 320.12C233.809 320.12 233.681 320.159 233.57 320.237C233.459 320.315 233.373 320.417 233.311 320.544V322.427H232.859V319.785H233.287ZM235.508 321.084C235.508 320.679 235.604 320.353 235.796 320.107C235.988 319.86 236.24 319.736 236.551 319.736C236.86 319.736 237.105 319.842 237.286 320.054V318.677H237.737V322.427H237.322L237.3 322.144C237.12 322.365 236.868 322.476 236.546 322.476C236.24 322.476 235.99 322.35 235.796 322.1C235.604 321.849 235.508 321.522 235.508 321.118V321.084ZM235.96 321.135C235.96 321.435 236.022 321.669 236.146 321.838C236.269 322.008 236.44 322.092 236.658 322.092C236.945 322.092 237.154 321.964 237.286 321.707V320.493C237.151 320.244 236.943 320.12 236.663 320.12C236.442 320.12 236.269 320.205 236.146 320.376C236.022 320.547 235.96 320.8 235.96 321.135ZM240.071 322.427C240.045 322.375 240.024 322.282 240.008 322.148C239.798 322.367 239.547 322.476 239.256 322.476C238.995 322.476 238.781 322.402 238.614 322.256C238.448 322.108 238.365 321.921 238.365 321.694C238.365 321.419 238.469 321.206 238.677 321.055C238.887 320.902 239.182 320.825 239.561 320.825H240V320.618C240 320.46 239.953 320.334 239.859 320.242C239.764 320.147 239.625 320.1 239.441 320.1C239.28 320.1 239.145 320.141 239.036 320.222C238.927 320.304 238.873 320.402 238.873 320.518H238.418C238.418 320.386 238.465 320.259 238.558 320.137C238.652 320.013 238.779 319.915 238.938 319.844C239.1 319.772 239.276 319.736 239.468 319.736C239.773 319.736 240.011 319.813 240.184 319.966C240.356 320.117 240.446 320.326 240.452 320.593V321.809C240.452 322.052 240.483 322.244 240.545 322.388V322.427H240.071ZM239.322 322.083C239.463 322.083 239.598 322.046 239.725 321.973C239.852 321.899 239.944 321.804 240 321.687V321.145H239.646C239.093 321.145 238.816 321.307 238.816 321.631C238.816 321.772 238.864 321.883 238.958 321.963C239.052 322.043 239.174 322.083 239.322 322.083Z" fill="#8C8C8C"/>
<path d="M224.976 303.128L225.044 303.597L225.145 303.174L225.848 300.694H226.243L226.929 303.174L227.027 303.604L227.103 303.125L227.654 300.694H228.125L227.264 304.249H226.836L226.104 301.658L226.048 301.387L225.992 301.658L225.232 304.249H224.805L223.946 300.694H224.415L224.976 303.128ZM229.595 304.297C229.237 304.297 228.946 304.18 228.721 303.946C228.497 303.71 228.384 303.395 228.384 303.001V302.918C228.384 302.656 228.434 302.422 228.533 302.217C228.634 302.011 228.774 301.849 228.953 301.734C229.134 301.617 229.329 301.558 229.539 301.558C229.882 301.558 230.149 301.671 230.34 301.897C230.53 302.124 230.625 302.448 230.625 302.869V303.057H228.836C228.842 303.318 228.918 303.528 229.063 303.689C229.209 303.849 229.395 303.929 229.62 303.929C229.779 303.929 229.914 303.896 230.025 303.831C230.136 303.766 230.232 303.68 230.315 303.572L230.591 303.787C230.37 304.127 230.038 304.297 229.595 304.297ZM229.539 301.929C229.357 301.929 229.204 301.996 229.08 302.129C228.956 302.261 228.88 302.447 228.851 302.686H230.174V302.652C230.161 302.422 230.099 302.245 229.988 302.12C229.878 301.993 229.728 301.929 229.539 301.929ZM232.247 304.297C231.889 304.297 231.597 304.18 231.373 303.946C231.148 303.71 231.036 303.395 231.036 303.001V302.918C231.036 302.656 231.085 302.422 231.185 302.217C231.285 302.011 231.425 301.849 231.604 301.734C231.785 301.617 231.98 301.558 232.19 301.558C232.534 301.558 232.801 301.671 232.991 301.897C233.182 302.124 233.277 302.448 233.277 302.869V303.057H231.487C231.494 303.318 231.569 303.528 231.714 303.689C231.861 303.849 232.046 303.929 232.271 303.929C232.431 303.929 232.566 303.896 232.676 303.831C232.787 303.766 232.884 303.68 232.967 303.572L233.243 303.787C233.021 304.127 232.689 304.297 232.247 304.297ZM232.19 301.929C232.008 301.929 231.855 301.996 231.731 302.129C231.608 302.261 231.531 302.447 231.502 302.686H232.825V302.652C232.812 302.422 232.75 302.245 232.64 302.12C232.529 301.993 232.379 301.929 232.19 301.929ZM234.539 303.025L234.256 303.321V304.249H233.804V300.499H234.256V302.767L234.498 302.476L235.32 301.607H235.87L234.842 302.71L235.989 304.249H235.459L234.539 303.025ZM236.827 304.249H236.375V300.499H236.827V304.249ZM238.416 303.587L239.031 301.607H239.515L238.453 304.656C238.288 305.096 238.027 305.315 237.669 305.315L237.583 305.308L237.415 305.276V304.91L237.537 304.92C237.69 304.92 237.809 304.889 237.894 304.827C237.98 304.765 238.051 304.652 238.106 304.488L238.206 304.219L237.264 301.607H237.757L238.416 303.587ZM241.836 300.694L242.999 303.594L244.161 300.694H244.769V304.249H244.3V302.864L244.344 301.37L243.177 304.249H242.818L241.653 301.377L241.7 302.864V304.249H241.231V300.694H241.836ZM246.622 304.297C246.264 304.297 245.972 304.18 245.748 303.946C245.523 303.71 245.411 303.395 245.411 303.001V302.918C245.411 302.656 245.46 302.422 245.56 302.217C245.66 302.011 245.8 301.849 245.979 301.734C246.16 301.617 246.355 301.558 246.565 301.558C246.909 301.558 247.176 301.671 247.366 301.897C247.557 302.124 247.652 302.448 247.652 302.869V303.057H245.862C245.869 303.318 245.944 303.528 246.089 303.689C246.236 303.849 246.421 303.929 246.646 303.929C246.806 303.929 246.941 303.896 247.051 303.831C247.162 303.766 247.259 303.68 247.342 303.572L247.618 303.787C247.396 304.127 247.064 304.297 246.622 304.297ZM246.565 301.929C246.383 301.929 246.23 301.996 246.106 302.129C245.983 302.261 245.906 302.447 245.877 302.686H247.2V302.652C247.187 302.422 247.125 302.245 247.015 302.12C246.904 301.993 246.754 301.929 246.565 301.929ZM249.273 304.297C248.915 304.297 248.624 304.18 248.399 303.946C248.174 303.71 248.062 303.395 248.062 303.001V302.918C248.062 302.656 248.112 302.422 248.211 302.217C248.312 302.011 248.452 301.849 248.631 301.734C248.812 301.617 249.007 301.558 249.217 301.558C249.56 301.558 249.827 301.671 250.018 301.897C250.208 302.124 250.303 302.448 250.303 302.869V303.057H248.514C248.52 303.318 248.596 303.528 248.741 303.689C248.887 303.849 249.073 303.929 249.297 303.929C249.457 303.929 249.592 303.896 249.703 303.831C249.813 303.766 249.91 303.68 249.993 303.572L250.269 303.787C250.048 304.127 249.716 304.297 249.273 304.297ZM249.217 301.929C249.035 301.929 248.882 301.996 248.758 302.129C248.634 302.261 248.558 302.447 248.528 302.686H249.852V302.652C249.839 302.422 249.777 302.245 249.666 302.12C249.555 301.993 249.406 301.929 249.217 301.929ZM251.441 300.967V301.607H251.934V301.956H251.441V303.594C251.441 303.7 251.463 303.78 251.507 303.833C251.551 303.886 251.626 303.912 251.731 303.912C251.784 303.912 251.855 303.902 251.946 303.882V304.249C251.827 304.281 251.712 304.297 251.6 304.297C251.398 304.297 251.246 304.236 251.143 304.114C251.041 303.992 250.989 303.819 250.989 303.594V301.956H250.508V301.607H250.989V300.967H251.441ZM252.955 304.249H252.503V301.607H252.955V304.249ZM252.466 300.906C252.466 300.833 252.488 300.771 252.532 300.721C252.578 300.67 252.645 300.645 252.732 300.645C252.82 300.645 252.887 300.67 252.933 300.721C252.978 300.771 253.001 300.833 253.001 300.906C253.001 300.979 252.978 301.041 252.933 301.089C252.887 301.138 252.82 301.163 252.732 301.163C252.645 301.163 252.578 301.138 252.532 301.089C252.488 301.041 252.466 300.979 252.466 300.906ZM254.107 301.607L254.122 301.939C254.323 301.685 254.587 301.558 254.913 301.558C255.471 301.558 255.752 301.873 255.757 302.503V304.249H255.306V302.5C255.304 302.31 255.26 302.169 255.174 302.078C255.089 301.987 254.957 301.941 254.776 301.941C254.629 301.941 254.501 301.98 254.39 302.059C254.279 302.137 254.193 302.239 254.131 302.366V304.249H253.68V301.607H254.107ZM256.331 302.906C256.331 302.494 256.426 302.167 256.617 301.924C256.807 301.68 257.059 301.558 257.374 301.558C257.696 301.558 257.947 301.672 258.128 301.9L258.15 301.607H258.562V304.185C258.562 304.527 258.461 304.796 258.257 304.993C258.056 305.19 257.784 305.289 257.442 305.289C257.251 305.289 257.065 305.248 256.883 305.167C256.701 305.085 256.561 304.974 256.465 304.832L256.7 304.561C256.893 304.8 257.13 304.92 257.41 304.92C257.63 304.92 257.801 304.858 257.923 304.734C258.047 304.611 258.108 304.437 258.108 304.212V303.985C257.928 304.193 257.681 304.297 257.369 304.297C257.059 304.297 256.809 304.173 256.617 303.924C256.426 303.675 256.331 303.335 256.331 302.906ZM256.785 302.957C256.785 303.255 256.846 303.489 256.968 303.66C257.09 303.829 257.261 303.914 257.481 303.914C257.766 303.914 257.975 303.785 258.108 303.526V302.32C257.97 302.068 257.763 301.941 257.486 301.941C257.266 301.941 257.094 302.027 256.971 302.198C256.847 302.369 256.785 302.622 256.785 302.957Z" fill="#8C8C8C"/>
</svg>
