<?xml version="1.0" encoding="UTF-8" standalone="no"?><!DOCTYPE svg PUBLIC "-//W3C//DTD SVG 1.1//EN" "http://www.w3.org/Graphics/SVG/1.1/DTD/svg11.dtd"><svg width="100%" height="100%" viewBox="0 0 551 421" version="1.1" xmlns="http://www.w3.org/2000/svg" xmlns:xlink="http://www.w3.org/1999/xlink" xml:space="preserve" xmlns:serif="http://www.serif.com/" style="fill-rule:evenodd;clip-rule:evenodd;stroke-miterlimit:10;"><path d="M203,299l0,-81.29c0,-3.755 3.986,-8.614 10.201,-8.614l38.327,0c6.12,0 9.472,-5.081 9.472,-9.499l0,-48.597" style="fill:none;stroke:#8c8c8c;stroke-width:5px;stroke-dasharray:7,7;"/><path d="M362,299l0,-81.29c0,-3.755 -4.193,-8.614 -10.728,-8.614l-40.31,0c-6.437,0 -9.962,-5.081 -9.962,-9.499l0,-48.597" style="fill:none;stroke:#8c8c8c;stroke-width:5px;stroke-dasharray:7,7;"/><path d="M280.316,300.731l0,-140.768" style="fill:none;stroke:#8c8c8c;stroke-width:5px;stroke-dasharray:7,7;"/><path d="M281.054,158.752c32.972,0 59.701,-27.057 59.701,-60.432c0,-33.376 -26.729,-60.432 -59.701,-60.432c-32.972,0 -59.7,27.056 -59.7,60.432c0,33.375 26.728,60.432 59.7,60.432Z" style="fill:none;stroke:#c3c3c3;stroke-width:16px;stroke-miterlimit:4;"/><path d="M339.782,135.482c-6.23,10.14 -14.898,18.506 -25.188,24.312c-10.29,5.805 -21.865,8.86 -33.637,8.878c-11.773,0.017 -23.356,-3.004 -33.663,-8.779c-0.37,-0.208 -1.081,-0.631 -1.081,-0.631c0,0 1.489,-4.886 0.798,-13.72c-0.547,-6.981 -2.825,-13.435 -2.825,-13.437c3.641,4.054 7.924,7.493 12.69,10.164c7.364,4.126 15.641,6.284 24.052,6.272c8.411,-0.012 16.681,-2.195 24.034,-6.343c19.1,-10.777 34.82,-6.716 34.82,-6.716Z" style="fill:#e48ae0;fill-rule:nonzero;"/><path d="M280.99,129.311c-9.909,0 -17.942,7.883 -17.942,17.608c0,9.724 8.033,17.607 17.942,17.607c9.909,0 17.942,-7.883 17.942,-17.607c0,-9.725 -8.033,-17.608 -17.942,-17.608Z" style="fill:#eb65e5;fill-rule:nonzero;"/><path d="M244.105,158.006c-9.988,-6.325 -18.229,-15.125 -23.948,-25.571c-5.719,-10.447 -8.728,-22.198 -8.745,-34.15c-0.017,-11.951 2.959,-23.711 8.647,-34.174c0.205,-0.376 0.622,-1.098 0.622,-1.098c0,0 4.813,1.512 13.515,0.81c6.875,-0.555 13.233,-2.868 13.235,-2.868c-3.994,3.696 -7.381,8.045 -10.012,12.883c-4.064,7.477 -6.19,15.879 -6.178,24.418c0.012,8.54 2.163,16.936 6.249,24.4c10.615,19.391 6.615,35.35 6.615,35.35Z" style="fill:#f0dc0a;fill-rule:nonzero;"/><path d="M250.183,98.319c0,-10.06 -7.765,-18.215 -17.343,-18.215c-9.579,0 -17.344,8.155 -17.344,18.215c0,10.059 7.765,18.214 17.344,18.214c9.578,0 17.343,-8.155 17.343,-18.214Z" style="fill:#eff309;fill-rule:nonzero;"/><path d="M221.928,60.863c6.23,-10.14 14.898,-18.506 25.188,-24.312c10.29,-5.806 21.865,-8.861 33.637,-8.878c11.773,-0.017 23.356,3.004 33.663,8.779c0.37,0.207 1.081,0.631 1.081,0.631c0,0 -1.489,4.886 -0.798,13.72c0.547,6.98 2.825,13.435 2.825,13.437c-3.641,-4.054 -7.924,-7.493 -12.69,-10.164c-7.364,-4.126 -15.641,-6.285 -24.052,-6.272c-8.411,0.012 -16.681,2.195 -24.033,6.343c-19.101,10.777 -34.821,6.716 -34.821,6.716Z" style="fill:#f90;fill-rule:nonzero;"/><path d="M280.721,67.034c9.909,0 17.941,-7.883 17.941,-17.608c0,-9.724 -8.032,-17.607 -17.941,-17.607c-9.909,0 -17.942,7.883 -17.942,17.607c0,9.725 8.033,17.608 17.942,17.608Z" style="fill:#fb5;fill-rule:nonzero;"/><path d="M317.596,38.348c9.988,6.326 18.229,15.125 23.948,25.572c5.718,10.446 8.727,22.197 8.745,34.149c0.017,11.951 -2.959,23.711 -8.648,34.175c-0.204,0.376 -0.621,1.097 -0.621,1.097c0,0 -4.813,-1.512 -13.515,-0.81c-6.875,0.556 -13.233,2.869 -13.235,2.869c3.993,-3.697 7.38,-8.045 10.011,-12.884c4.065,-7.476 6.191,-15.879 6.179,-24.418c-0.013,-8.539 -2.163,-16.935 -6.249,-24.399c-10.615,-19.392 -6.615,-35.351 -6.615,-35.351Z" style="fill:#96ca2c;fill-rule:nonzero;"/><path d="M311.518,98.035c0,10.06 7.765,18.215 17.344,18.215c9.578,0 17.343,-8.155 17.343,-18.215c0,-10.059 -7.765,-18.214 -17.343,-18.214c-9.579,0 -17.344,8.155 -17.344,18.214Z" style="fill:#b4e654;fill-rule:nonzero;"/><path d="M339.753,135.469c-6.232,10.14 -14.899,18.506 -25.19,24.311l-9.631,-17.597c19.101,-10.776 34.821,-6.714 34.821,-6.714Z" style="fill:#e48ae0;fill-rule:nonzero;"/><path d="M457.755,364.641c-7.081,0 -16.16,29.163 -23.757,55.641l41.409,-0.282c18.389,-14.374 -1.745,-46.424 -1.745,-46.424l-15.907,-8.935Z" style="fill:#56cad8;fill-rule:nonzero;"/><path d="M436.968,287.892c-6.106,5.562 -18.319,19.501 -19.326,21.287c-3.086,-1.511 -35.229,-18.815 -37.645,-19.913c-2.416,-1.099 -7.515,-9.82 -9.26,-9.82c-1.007,0 -1.946,1.992 -1.946,3.365c0,2.335 1.074,4.12 1.745,4.875c-2.282,-0.343 -22.413,-1.922 -22.413,-0.549c0,3.571 22.547,8.308 24.291,9.27c1.745,0.961 38.451,35.706 51.201,35.706c4.965,0 26.908,-15.244 26.908,-16.892c2.08,-1.442 5.301,-3.571 5.301,-3.571l0,-12.085l-7.65,-5.699c0,-0.069 -9.998,-7.072 -11.206,-5.974Z" style="fill:#de8e68;fill-rule:nonzero;"/><path d="M436.539,284.218c1.339,-11.038 26.312,-36.112 37.761,-24.938c9.976,9.744 -8.101,44.561 -12.721,45.923c-5.222,0.546 -25.374,-13.49 -25.04,-20.985Z" style="fill:#febf92;fill-rule:nonzero;"/><path d="M512.891,261.052c12.716,-5.444 30.517,24.498 28.51,35.386c0,4.763 -26.1,14.971 -30.116,12.249c-4.015,-2.722 -11.109,-42.191 1.606,-47.635Z" style="fill:#fed892;fill-rule:nonzero;"/><path d="M461.184,368.647l10.316,51.353l46.5,0l0.517,-28.852c0,-3.205 -0.271,-23.388 -0.271,-25.979c-12.334,3.614 -38.629,6.478 -57.062,3.478Z" style="fill:#74d5de;fill-rule:nonzero;"/><path d="M484.851,244.708c31.71,0 42.775,26.763 42.775,35.456c0,8.692 -9.918,61.738 -9.513,85.352c0.067,3.902 -56.875,7.392 -64.634,1.711c-3.643,-2.669 -11.47,-122.519 31.372,-122.519Z" style="fill:#fecc92;fill-rule:nonzero;"/><path d="M541.713,296.254c8.949,13.914 8.411,45.97 8.411,50.813c0,4.842 -33.373,48.357 -36.267,48.357c-1.749,-1.773 -6.593,-7.161 -6.593,-8.798c1.547,-2.865 21.396,-46.857 24.962,-49.994c-1.615,-1.978 -15.812,-24.554 -16.417,-28.305c12.447,-2.115 24.491,-7.435 25.904,-12.073Z" style="fill:#de8e68;fill-rule:nonzero;"/><path d="M541.387,296.447c2.015,-10.948 -14.306,-42.698 -28.611,-35.581c-12.425,6.227 -5.642,45.161 -1.612,47.898c4.836,2.121 28.342,-5.063 30.223,-12.317Z" style="fill:#fed892;fill-rule:nonzero;"/><path d="M476.871,238.291c-0.67,2.131 -1.006,8.729 -0.268,11.685c0.067,0.137 13.403,1.168 14.877,-1.238c0.067,-1.993 3.284,-19.725 7.64,-25.224c0.402,-0.618 -0.469,-2.336 -0.469,-2.336l-15.481,6.598l-6.299,10.515Z" style="fill:#d38466;fill-rule:nonzero;"/><path d="M496.987,223.112c1.007,1.37 2.283,1.987 3.424,1.987c2.552,0 8.461,-2.398 8.461,-10.964c0,-6.167 -5.909,-9.319 -5.909,-12.265c0,-2.81 0.738,-2.878 0.738,-5.208c0,-1.165 -1.141,-5.002 -4.7,-5.002c-2.014,0 -2.753,1.713 -4.767,1.713c-2.216,0 -4.23,-4.386 -7.588,-4.386c-2.283,0 -4.431,2.193 -6.849,2.193c-2.753,0 -4.633,-4.18 -8.46,-4.18c-3.962,0 -5.372,3.632 -6.916,3.632c-1.947,0 -2.283,-0.548 -4.23,-0.548c-1.209,0 -4.902,2.192 -4.902,6.167c0,2.809 1.142,7.4 6.849,7.4c3.357,0 5.237,5.414 8.192,5.414c1.141,0 2.148,-0.96 2.417,-0.48c1.142,2.056 3.492,7.675 3.492,7.675l10.676,6.098l10.072,0.754Z" style="fill:#fd8369;fill-rule:nonzero;"/><path d="M494.781,220.161c0,0.946 -0.337,1.148 -1.756,1.148c-0.675,0 -1.621,-0.878 -1.621,-1.824c0,-2.23 1.621,-2.703 1.621,-5.608c0,-4.933 -12.902,-7.501 -17.428,-10.068c-1.622,1.621 -2.77,3.716 -3.243,6.081l-2.905,14.933c-1.283,6.487 2.973,12.771 9.39,14.055c6.418,1.284 12.768,-2.973 14.051,-9.393l0.473,-2.567c0.27,0.067 0.54,0.135 0.743,0.135c1.689,0 2.972,-1.554 2.972,-3.446c0.135,-1.757 -2.297,-4.865 -2.297,-3.446Z" style="fill:#de8e68;fill-rule:nonzero;"/><ellipse cx="285" cy="367" rx="194" ry="39" style="fill:#c4996c;"/><path d="M174.985,350.612l-55.743,0l-8.242,8.991l67.431,0l-3.446,-8.991Z" style="fill:#b0cfd3;fill-rule:nonzero;"/><path d="M199.858,298.702l-27.721,58.084l6.237,2.934l28.702,-61.018l-7.218,0Z" style="fill:#b0cfd3;fill-rule:nonzero;"/><path d="M48.67,360.221c0.265,5.235 0,59.779 0,59.779l35.714,0c0.273,-4.225 4.209,-37.493 4.209,-37.493l-24.855,-25.022l-15.068,2.736Z" style="fill:#56cad8;fill-rule:nonzero;"/><path d="M104.8,359.149c0,0 6.816,39.327 10.245,60.851l-35.477,0l-24.244,-56.711" style="fill:#74d5de;fill-rule:nonzero;"/><path d="M79.937,265.039c-29.872,0.679 -32.585,94.563 -29.967,99.419c3.112,5.822 46.768,15.225 58.848,9.2c6.035,-3.006 21.086,-109.758 -28.881,-108.619Z" style="fill:#fed385;fill-rule:nonzero;"/><path d="M80.391,205.028c6.309,-0.275 14.764,2.756 15.605,11.429c0.842,8.674 -6.084,12.955 -14.07,15.158c6.148,6.034 8.531,7.085 8.24,9.966c-0.29,2.88 -4.622,11.144 -4.176,20.086c0.447,8.941 -18.97,60.236 -23.422,62.096c-4.452,1.86 5.476,10.035 -26.078,14.122c-8.438,0.819 -24.963,-10.211 -26.545,-26.519c-3.829,-35.511 32.464,-45.842 49.16,-87.494c7.662,-19.119 18.358,-18.721 21.286,-18.844Z" style="fill-rule:nonzero;"/><path d="M79.632,265.058c-29.863,0.68 -33.923,93.95 -29.968,99.216c3.954,5.267 53.763,13.636 58.814,9.176c5.05,-4.46 21.105,-109.533 -28.846,-108.392Z" style="fill:#fed385;fill-rule:nonzero;"/><path d="M70.48,304.222l-17.718,2.403c-1.206,1.893 -0.683,6.37 -0.703,8.674c-0.079,8.513 0.22,18.028 4.26,25.2c1.572,2.789 4.147,5.508 6.682,5.463c3.969,2.003 10.592,4.312 10.592,4.312l10.049,2.824c0,0 16.955,3.831 25.326,3.581c2.787,-0.09 5.62,-0.501 8.403,-0.401c1.615,0.056 4.178,0.697 5.687,0c0.44,-0.205 0.334,-1.442 0.228,-1.928c-0.362,-1.697 -1.635,-2.889 -2.806,-3.63c-2.72,-1.723 -4.261,-0.631 -7.051,-0.571c-2.283,0.05 -5.007,-1.432 -8.969,-3.411c-4.673,-2.333 -10.422,-4.196 -15.186,-6.239c-5.427,-2.329 -11.124,-3.715 -16.421,-6.479c-1.046,-0.546 -2.158,-0.942 -3.255,-1.378c0.502,-3.639 1.364,-9.437 1.428,-13.131c0.122,-4.007 0.173,-8.213 -0.287,-12.16c-0.118,-1.016 0.075,-2.188 -0.259,-3.129Z" style="fill:#794126;fill-rule:nonzero;"/><path d="M126.182,353.674c0.188,-3.904 -4.256,-7.29 -9.926,-7.564c-5.67,-0.274 -10.42,2.669 -10.608,6.572c-0.189,3.904 4.255,7.291 9.926,7.565c5.67,0.273 10.419,-2.669 10.608,-6.573Z" style="fill:#794126;fill-rule:nonzero;"/><path d="M49.633,306.978c-3.277,-8.303 4.658,-35.81 17.015,-32.421c10.74,2.98 11.419,34.666 8.671,37.442c-3.477,2.417 -23.085,0.396 -25.686,-5.021Z" style="fill:#fed892;fill-rule:nonzero;"/><path d="M74.875,243.396c0.05,0.887 0.825,20.375 -1.223,26.322c0.095,1.694 17.207,1.843 17.025,-1.382l-0.797,-14.17" style="fill:#794126;fill-rule:nonzero;"/><path d="M89.313,255.869c-8.412,0.474 -15.823,-9.668 -16.553,-22.651c-0.731,-12.983 5.496,-23.892 13.908,-24.365c8.411,-0.473 15.823,9.668 16.553,22.651c0.73,12.984 -5.496,23.892 -13.908,24.365Z" style="fill:#894a2b;fill-rule:nonzero;"/><path d="M74.285,244.354l0.391,-0.006l-0.16,-11.249c1.152,-1.568 12.444,-5.22 15.165,-6.423c2.722,-1.202 7.393,-2.821 10.455,-7.52c0.731,1.057 2.493,6.362 3.002,10.801c1.157,-1.18 2.975,-3.126 2.887,-9.333c-0.16,-11.249 -11.596,-17.682 -21.373,-17.543c-15.644,0.223 -24.414,16.254 -24.315,23.236c0.144,10.086 7.299,18.132 13.948,18.037Z" style="fill-rule:nonzero;"/><path d="M76.205,241.327c-2.377,0.134 -4.412,-1.685 -4.546,-4.062c-0.134,-2.377 1.685,-4.412 4.062,-4.546c2.377,-0.134 4.413,1.685 4.547,4.062c0.133,2.377 -1.685,4.413 -4.063,4.546Z" style="fill:#894a2b;fill-rule:nonzero;"/><path d="M389.254,350.611l55.743,0l8.241,8.991l-67.431,0l3.447,-8.991Z" style="fill:#b0cfd3;fill-rule:nonzero;"/><path d="M364.38,298.701l27.722,58.084l-6.238,2.934l-28.702,-61.018l7.218,0Z" style="fill:#b0cfd3;fill-rule:nonzero;"/><rect x="213.539" y="273" width="132.073" height="95.297" style="fill:#b0cfd3;fill-rule:nonzero;"/><path d="M345.773,368.298l-132.073,0l-18.708,23.664l166.931,0l-16.15,-23.664Z" style="fill:#74d5de;fill-rule:nonzero;"/><rect x="216.418" y="275.878" width="126.317" height="88.902" style="fill:#fff;fill-rule:nonzero;"/><path d="M230.793,293.274c-0.32,0.512 -0.765,0.934 -1.293,1.227c-0.528,0.293 -1.122,0.448 -1.726,0.449c-0.604,0 -1.199,-0.152 -1.728,-0.444c-0.019,-0.01 -0.055,-0.032 -0.055,-0.032c0,0 0.076,-0.246 0.041,-0.692c-0.028,-0.353 -0.145,-0.679 -0.145,-0.679c0.187,0.205 0.406,0.378 0.651,0.513c0.378,0.209 0.803,0.318 1.234,0.317c0.432,-0.001 0.857,-0.111 1.234,-0.32c0.98,-0.544 1.787,-0.339 1.787,-0.339Z" style="fill:#e48ae0;fill-rule:nonzero;"/><path d="M227.774,292.962c-0.508,0 -0.92,0.398 -0.92,0.889c0,0.491 0.412,0.889 0.92,0.889c0.509,0 0.921,-0.398 0.921,-0.889c0,-0.491 -0.412,-0.889 -0.921,-0.889Z" style="fill:#eb65e5;fill-rule:nonzero;"/><path d="M225.881,294.411c-0.513,-0.319 -0.936,-0.764 -1.229,-1.291c-0.294,-0.528 -0.448,-1.121 -0.449,-1.725c-0.001,-0.603 0.152,-1.197 0.444,-1.726c0.01,-0.019 0.032,-0.055 0.032,-0.055c0,0 0.247,0.076 0.693,0.041c0.353,-0.028 0.68,-0.145 0.68,-0.145c-0.205,0.187 -0.379,0.406 -0.514,0.651c-0.209,0.377 -0.318,0.801 -0.317,1.233c0,0.431 0.111,0.855 0.321,1.232c0.544,0.979 0.339,1.785 0.339,1.785Z" style="fill:#f0dc0a;fill-rule:nonzero;"/><path d="M226.194,291.397c0,-0.508 -0.398,-0.92 -0.89,-0.92c-0.491,0 -0.89,0.412 -0.89,0.92c0,0.508 0.399,0.92 0.89,0.92c0.492,0 0.89,-0.412 0.89,-0.92Z" style="fill:#eff309;fill-rule:nonzero;"/><path d="M224.744,289.506c0.32,-0.513 0.765,-0.935 1.293,-1.228c0.528,-0.293 1.122,-0.448 1.726,-0.449c0.604,0 1.199,0.152 1.728,0.444c0.019,0.01 0.055,0.032 0.055,0.032c0,0 -0.076,0.246 -0.04,0.693c0.028,0.352 0.145,0.678 0.145,0.678c-0.187,-0.205 -0.407,-0.378 -0.652,-0.513c-0.378,-0.209 -0.803,-0.318 -1.234,-0.317c-0.432,0.001 -0.856,0.111 -1.234,0.32c-0.98,0.545 -1.787,0.34 -1.787,0.34Z" style="fill:#f90;fill-rule:nonzero;"/><path d="M227.761,289.817c0.508,0 0.921,-0.398 0.921,-0.889c0,-0.491 -0.413,-0.889 -0.921,-0.889c-0.509,0 -0.921,0.398 -0.921,0.889c0,0.491 0.412,0.889 0.921,0.889Z" style="fill:#fb5;fill-rule:nonzero;"/><path d="M229.653,288.369c0.513,0.319 0.936,0.763 1.229,1.291c0.294,0.527 0.448,1.121 0.449,1.724c0.001,0.604 -0.152,1.198 -0.444,1.726c-0.01,0.019 -0.032,0.056 -0.032,0.056c0,0 -0.247,-0.077 -0.693,-0.041c-0.353,0.028 -0.679,0.144 -0.68,0.144c0.205,-0.186 0.379,-0.406 0.514,-0.65c0.209,-0.378 0.318,-0.802 0.317,-1.233c0,-0.431 -0.111,-0.855 -0.32,-1.232c-0.545,-0.98 -0.34,-1.785 -0.34,-1.785Z" style="fill:#96ca2c;fill-rule:nonzero;"/><path d="M229.341,291.383c0,0.508 0.398,0.92 0.89,0.92c0.492,0 0.89,-0.412 0.89,-0.92c0,-0.508 -0.398,-0.92 -0.89,-0.92c-0.492,0 -0.89,0.412 -0.89,0.92Z" style="fill:#b4e654;fill-rule:nonzero;"/><path d="M230.791,293.273c-0.32,0.512 -0.765,0.934 -1.293,1.228l-0.494,-0.889c0.98,-0.544 1.787,-0.339 1.787,-0.339Z" style="fill:#e48ae0;fill-rule:nonzero;"/><rect x="224.094" y="306.897" width="29.101" height="1.753" style="fill:#d0d0d0;fill-rule:nonzero;"/><rect x="224.094" y="310.939" width="17.551" height="1.767" style="fill:#d0d0d0;fill-rule:nonzero;"/><rect x="216.418" y="275.878" width="126.317" height="7.355" style="fill:#e1e1e1;fill-rule:nonzero;"/><path d="M221.625,280.842c0.645,0 1.167,-0.522 1.167,-1.166c0,-0.644 -0.522,-1.167 -1.167,-1.167c-0.644,0 -1.166,0.523 -1.166,1.167c0,0.644 0.522,1.166 1.166,1.166Z" style="fill:#fd8369;fill-rule:nonzero;"/><path d="M225.383,280.842c0.645,0 1.167,-0.522 1.167,-1.166c0,-0.644 -0.522,-1.167 -1.167,-1.167c-0.644,0 -1.166,0.523 -1.166,1.167c0,0.644 0.522,1.166 1.166,1.166Z" style="fill:#fd8369;fill-rule:nonzero;"/><path d="M229.141,280.842c0.644,0 1.167,-0.522 1.167,-1.166c0,-0.644 -0.523,-1.167 -1.167,-1.167c-0.644,0 -1.166,0.523 -1.166,1.167c0,0.644 0.522,1.166 1.166,1.166Z" style="fill:#fd8369;fill-rule:nonzero;"/><rect x="224.094" y="326.405" width="105.211" height="13.8" style="fill:#cdeaed;fill-rule:nonzero;"/><rect x="258.951" y="329.603" width="61.08" height="2.238" style="fill:#74d5de;fill-rule:nonzero;"/><rect x="258.951" y="334.72" width="17.269" height="2.238" style="fill:#74d5de;fill-rule:nonzero;"/><rect x="258.951" y="329.603" width="61.08" height="2.238" style="fill:#74d5de;fill-rule:nonzero;"/><rect x="258.951" y="334.72" width="17.269" height="2.238" style="fill:#74d5de;fill-rule:nonzero;"/><rect x="229.211" y="334.72" width="17.269" height="2.238" style="fill:#74d5de;fill-rule:nonzero;"/><rect x="229.211" y="329.603" width="17.269" height="2.238" style="fill:#74d5de;fill-rule:nonzero;"/><rect x="224.094" y="345.652" width="105.156" height="13.8" style="fill:#cdeaed;fill-rule:nonzero;"/><rect x="229.211" y="353.906" width="17.269" height="2.239" style="fill:#74d5de;fill-rule:nonzero;"/><rect x="229.211" y="348.79" width="17.269" height="2.239" style="fill:#74d5de;fill-rule:nonzero;"/><rect x="258.951" y="348.79" width="61.4" height="2.239" style="fill:#74d5de;fill-rule:nonzero;"/><rect x="258.951" y="353.906" width="44.451" height="2.239" style="fill:#74d5de;fill-rule:nonzero;"/><path d="M226.35,321.499l-1.489,0l-0.335,0.928l-0.483,0l1.357,-3.555l0.411,0l1.359,3.555l-0.481,0l-0.339,-0.928Zm-1.348,-0.386l1.209,0l-0.606,-1.662l-0.603,1.662Zm2.469,-0.029c0,-0.412 0.095,-0.739 0.285,-0.982c0.191,-0.244 0.443,-0.366 0.757,-0.366c0.322,0 0.574,0.114 0.755,0.342l0.022,-0.293l0.412,0l0,2.578c0,0.342 -0.102,0.611 -0.305,0.808c-0.202,0.197 -0.474,0.296 -0.815,0.296c-0.191,0 -0.377,-0.041 -0.56,-0.122c-0.182,-0.082 -0.321,-0.193 -0.417,-0.335l0.234,-0.271c0.194,0.239 0.431,0.359 0.711,0.359c0.22,0 0.39,-0.062 0.512,-0.186c0.124,-0.123 0.186,-0.297 0.186,-0.522l0,-0.227c-0.181,0.208 -0.427,0.312 -0.74,0.312c-0.309,0 -0.56,-0.124 -0.752,-0.373c-0.19,-0.249 -0.285,-0.588 -0.285,-1.018Zm0.454,0.051c0,0.298 0.061,0.532 0.183,0.703c0.122,0.17 0.293,0.254 0.513,0.254c0.284,0 0.494,-0.129 0.627,-0.388l0,-1.206c-0.138,-0.252 -0.346,-0.378 -0.623,-0.378c-0.219,0 -0.391,0.085 -0.515,0.256c-0.123,0.171 -0.185,0.424 -0.185,0.759Zm3.557,1.34c-0.358,0 -0.649,-0.117 -0.874,-0.351c-0.225,-0.236 -0.337,-0.551 -0.337,-0.945l0,-0.083c0,-0.262 0.05,-0.496 0.149,-0.701c0.101,-0.206 0.241,-0.367 0.42,-0.483c0.181,-0.117 0.376,-0.176 0.586,-0.176c0.343,0 0.61,0.113 0.801,0.34c0.19,0.226 0.285,0.55 0.285,0.971l0,0.188l-1.789,0c0.006,0.261 0.082,0.471 0.227,0.633c0.146,0.159 0.332,0.239 0.556,0.239c0.16,0 0.295,-0.033 0.406,-0.098c0.11,-0.065 0.207,-0.151 0.29,-0.259l0.276,0.215c-0.221,0.34 -0.553,0.51 -0.996,0.51Zm-0.056,-2.368c-0.183,0 -0.336,0.067 -0.459,0.2c-0.124,0.132 -0.2,0.318 -0.23,0.557l1.324,0l0,-0.034c-0.013,-0.23 -0.075,-0.407 -0.186,-0.532c-0.111,-0.127 -0.26,-0.191 -0.449,-0.191Zm2.038,-0.322l0.015,0.332c0.202,-0.254 0.465,-0.381 0.791,-0.381c0.558,0 0.84,0.315 0.845,0.945l0,1.746l-0.452,0l0,-1.748c-0.002,-0.191 -0.045,-0.332 -0.132,-0.423c-0.084,-0.091 -0.217,-0.136 -0.398,-0.136c-0.146,0 -0.275,0.039 -0.385,0.117c-0.111,0.078 -0.197,0.18 -0.259,0.307l0,1.883l-0.452,0l0,-2.642l0.427,0Zm2.222,1.299c0,-0.405 0.096,-0.731 0.288,-0.977c0.192,-0.247 0.444,-0.371 0.755,-0.371c0.309,0 0.554,0.106 0.734,0.318l0,-1.377l0.452,0l0,3.75l-0.415,0l-0.022,-0.284c-0.181,0.222 -0.432,0.332 -0.754,0.332c-0.306,0 -0.556,-0.125 -0.75,-0.376c-0.192,-0.25 -0.288,-0.577 -0.288,-0.981l0,-0.034Zm0.452,0.051c0,0.3 0.062,0.534 0.185,0.703c0.124,0.17 0.295,0.254 0.513,0.254c0.286,0 0.496,-0.128 0.627,-0.386l0,-1.213c-0.135,-0.249 -0.342,-0.373 -0.622,-0.373c-0.222,0 -0.394,0.085 -0.518,0.256c-0.123,0.171 -0.185,0.424 -0.185,0.759Zm4.111,1.292c-0.026,-0.052 -0.047,-0.145 -0.063,-0.279c-0.21,0.218 -0.461,0.327 -0.752,0.327c-0.261,0 -0.475,-0.073 -0.642,-0.219c-0.167,-0.148 -0.25,-0.336 -0.25,-0.562c0,-0.275 0.105,-0.488 0.313,-0.639c0.21,-0.153 0.505,-0.23 0.884,-0.23l0.439,0l0,-0.207c0,-0.158 -0.047,-0.284 -0.141,-0.376c-0.095,-0.095 -0.234,-0.142 -0.418,-0.142c-0.161,0 -0.296,0.041 -0.405,0.122c-0.109,0.081 -0.164,0.18 -0.164,0.295l-0.454,0c0,-0.131 0.047,-0.258 0.139,-0.38c0.095,-0.124 0.222,-0.222 0.381,-0.293c0.161,-0.072 0.338,-0.108 0.53,-0.108c0.304,0 0.543,0.077 0.715,0.23c0.173,0.151 0.262,0.36 0.269,0.627l0,1.216c0,0.242 0.031,0.435 0.093,0.579l0,0.039l-0.474,0Zm-0.749,-0.345c0.141,0 0.275,-0.036 0.402,-0.109c0.127,-0.074 0.219,-0.169 0.276,-0.286l0,-0.542l-0.354,0c-0.553,0 -0.83,0.162 -0.83,0.486c0,0.141 0.047,0.252 0.142,0.332c0.094,0.08 0.215,0.119 0.364,0.119Z" style="fill:#8c8c8c;fill-rule:nonzero;"/><path d="M225.154,303.128l0.068,0.469l0.1,-0.423l0.703,-2.48l0.396,0l0.686,2.48l0.098,0.43l0.075,-0.479l0.552,-2.431l0.471,0l-0.862,3.554l-0.427,0l-0.732,-2.59l-0.056,-0.271l-0.057,0.271l-0.759,2.59l-0.427,0l-0.859,-3.554l0.468,0l0.562,2.434Zm4.619,1.169c-0.358,0 -0.649,-0.117 -0.874,-0.351c-0.225,-0.236 -0.337,-0.551 -0.337,-0.945l0,-0.083c0,-0.262 0.05,-0.496 0.149,-0.701c0.101,-0.207 0.241,-0.368 0.42,-0.483c0.181,-0.117 0.376,-0.176 0.586,-0.176c0.343,0 0.61,0.113 0.801,0.339c0.19,0.227 0.285,0.55 0.285,0.972l0,0.188l-1.789,0c0.006,0.26 0.082,0.471 0.227,0.632c0.146,0.16 0.332,0.24 0.556,0.24c0.16,0 0.295,-0.033 0.406,-0.098c0.11,-0.065 0.207,-0.151 0.29,-0.259l0.276,0.215c-0.221,0.34 -0.553,0.51 -0.996,0.51Zm-0.056,-2.368c-0.182,0 -0.335,0.067 -0.459,0.2c-0.124,0.132 -0.2,0.318 -0.23,0.557l1.324,0l0,-0.034c-0.013,-0.23 -0.075,-0.407 -0.186,-0.532c-0.111,-0.127 -0.26,-0.191 -0.449,-0.191Zm2.707,2.368c-0.358,0 -0.649,-0.117 -0.874,-0.351c-0.224,-0.236 -0.337,-0.551 -0.337,-0.945l0,-0.083c0,-0.262 0.05,-0.496 0.149,-0.701c0.101,-0.207 0.241,-0.368 0.42,-0.483c0.181,-0.117 0.376,-0.176 0.586,-0.176c0.344,0 0.611,0.113 0.801,0.339c0.19,0.227 0.286,0.55 0.286,0.972l0,0.188l-1.79,0c0.007,0.26 0.082,0.471 0.227,0.632c0.147,0.16 0.332,0.24 0.557,0.24c0.159,0 0.294,-0.033 0.405,-0.098c0.111,-0.065 0.208,-0.151 0.291,-0.259l0.275,0.215c-0.221,0.34 -0.553,0.51 -0.996,0.51Zm-0.056,-2.368c-0.182,0 -0.335,0.067 -0.459,0.2c-0.124,0.132 -0.2,0.318 -0.229,0.557l1.323,0l0,-0.034c-0.013,-0.23 -0.075,-0.407 -0.186,-0.532c-0.11,-0.127 -0.26,-0.191 -0.449,-0.191Zm2.349,1.096l-0.283,0.296l0,0.927l-0.452,0l0,-3.75l0.452,0l0,2.268l0.241,-0.29l0.823,-0.869l0.549,0l-1.027,1.103l1.147,1.538l-0.53,0l-0.92,-1.223Zm2.287,1.223l-0.451,0l0,-3.75l0.451,0l0,3.75Zm1.59,-0.661l0.615,-1.98l0.483,0l-1.062,3.049c-0.164,0.44 -0.425,0.659 -0.783,0.659l-0.086,-0.007l-0.168,-0.032l0,-0.366l0.122,0.01c0.153,0 0.272,-0.031 0.356,-0.093c0.087,-0.062 0.157,-0.175 0.213,-0.339l0.1,-0.269l-0.943,-2.612l0.494,0l0.659,1.98Zm3.42,-2.893l1.162,2.9l1.162,-2.9l0.608,0l0,3.554l-0.468,0l0,-1.384l0.043,-1.494l-1.167,2.878l-0.358,0l-1.165,-2.871l0.046,1.487l0,1.384l-0.468,0l0,-3.554l0.605,0Zm4.785,3.603c-0.358,0 -0.649,-0.117 -0.874,-0.351c-0.224,-0.236 -0.337,-0.551 -0.337,-0.945l0,-0.083c0,-0.262 0.05,-0.496 0.149,-0.701c0.101,-0.207 0.241,-0.368 0.42,-0.483c0.181,-0.117 0.376,-0.176 0.586,-0.176c0.344,0 0.611,0.113 0.801,0.339c0.19,0.227 0.286,0.55 0.286,0.972l0,0.188l-1.79,0c0.007,0.26 0.082,0.471 0.227,0.632c0.147,0.16 0.332,0.24 0.557,0.24c0.159,0 0.294,-0.033 0.405,-0.098c0.111,-0.065 0.208,-0.151 0.291,-0.259l0.275,0.215c-0.221,0.34 -0.553,0.51 -0.996,0.51Zm-0.056,-2.368c-0.182,0 -0.335,0.067 -0.459,0.2c-0.124,0.132 -0.2,0.318 -0.229,0.557l1.323,0l0,-0.034c-0.013,-0.23 -0.075,-0.407 -0.186,-0.532c-0.11,-0.127 -0.26,-0.191 -0.449,-0.191Zm2.708,2.368c-0.358,0 -0.65,-0.117 -0.874,-0.351c-0.225,-0.236 -0.337,-0.551 -0.337,-0.945l0,-0.083c0,-0.262 0.049,-0.496 0.149,-0.701c0.101,-0.207 0.241,-0.368 0.42,-0.483c0.18,-0.117 0.376,-0.176 0.586,-0.176c0.343,0 0.61,0.113 0.8,0.339c0.191,0.227 0.286,0.55 0.286,0.972l0,0.188l-1.79,0c0.007,0.26 0.083,0.471 0.227,0.632c0.147,0.16 0.332,0.24 0.557,0.24c0.16,0 0.295,-0.033 0.405,-0.098c0.111,-0.065 0.208,-0.151 0.291,-0.259l0.276,0.215c-0.222,0.34 -0.554,0.51 -0.996,0.51Zm-0.056,-2.368c-0.183,0 -0.336,0.067 -0.459,0.2c-0.124,0.132 -0.201,0.318 -0.23,0.557l1.323,0l0,-0.034c-0.013,-0.23 -0.075,-0.407 -0.185,-0.532c-0.111,-0.127 -0.261,-0.191 -0.449,-0.191Zm2.224,-0.962l0,0.64l0.493,0l0,0.349l-0.493,0l0,1.638c0,0.106 0.022,0.186 0.066,0.239c0.044,0.052 0.118,0.078 0.224,0.078c0.052,0 0.124,-0.009 0.215,-0.029l0,0.366c-0.119,0.033 -0.234,0.049 -0.347,0.049c-0.201,0 -0.354,-0.061 -0.456,-0.183c-0.103,-0.122 -0.154,-0.295 -0.154,-0.52l0,-1.638l-0.481,0l0,-0.349l0.481,0l0,-0.64l0.452,0Zm1.513,3.281l-0.451,0l0,-2.641l0.451,0l0,2.641Zm-0.488,-3.342c0,-0.073 0.022,-0.135 0.066,-0.185c0.046,-0.051 0.112,-0.076 0.2,-0.076c0.088,0 0.155,0.025 0.2,0.076c0.046,0.05 0.069,0.112 0.069,0.185c0,0.073 -0.023,0.134 -0.069,0.183c-0.045,0.049 -0.112,0.073 -0.2,0.073c-0.088,0 -0.154,-0.024 -0.2,-0.073c-0.044,-0.049 -0.066,-0.11 -0.066,-0.183Zm1.641,0.701l0.014,0.332c0.202,-0.254 0.466,-0.381 0.791,-0.381c0.559,0 0.84,0.315 0.845,0.945l0,1.745l-0.452,0l0,-1.748c-0.001,-0.19 -0.045,-0.331 -0.131,-0.422c-0.085,-0.091 -0.218,-0.137 -0.398,-0.137c-0.147,0 -0.275,0.039 -0.386,0.117c-0.111,0.079 -0.197,0.181 -0.259,0.308l0,1.882l-0.452,0l0,-2.641l0.428,0Zm2.224,1.299c0,-0.412 0.095,-0.739 0.285,-0.982c0.191,-0.244 0.443,-0.366 0.757,-0.366c0.323,0 0.574,0.114 0.755,0.342l0.022,-0.293l0.412,0l0,2.578c0,0.342 -0.101,0.611 -0.305,0.808c-0.202,0.197 -0.474,0.295 -0.815,0.295c-0.191,0 -0.377,-0.04 -0.559,-0.122c-0.183,-0.081 -0.322,-0.192 -0.418,-0.334l0.234,-0.271c0.194,0.239 0.431,0.359 0.711,0.359c0.22,0 0.391,-0.062 0.513,-0.186c0.123,-0.123 0.185,-0.298 0.185,-0.522l0,-0.227c-0.181,0.208 -0.427,0.312 -0.74,0.312c-0.309,0 -0.56,-0.124 -0.752,-0.373c-0.19,-0.249 -0.285,-0.589 -0.285,-1.018Zm0.454,0.051c0,0.298 0.061,0.532 0.183,0.703c0.122,0.169 0.293,0.254 0.513,0.254c0.285,0 0.494,-0.129 0.627,-0.388l0,-1.206c-0.138,-0.253 -0.346,-0.379 -0.622,-0.379c-0.22,0 -0.392,0.086 -0.516,0.257c-0.123,0.171 -0.185,0.424 -0.185,0.759Z" style="fill:#8c8c8c;fill-rule:nonzero;"/><rect x="260" y="399" width="50" height="21" style="fill:#c4996c;"/></svg>