<?xml version="1.0" encoding="UTF-8" standalone="no"?><!DOCTYPE svg PUBLIC "-//W3C//DTD SVG 1.1//EN" "http://www.w3.org/Graphics/SVG/1.1/DTD/svg11.dtd"><svg width="100%" height="100%" viewBox="0 0 654 386" version="1.1" xmlns="http://www.w3.org/2000/svg" xmlns:xlink="http://www.w3.org/1999/xlink" xml:space="preserve" xmlns:serif="http://www.serif.com/" style="fill-rule:evenodd;clip-rule:evenodd;stroke-miterlimit:10;"><path d="M0,379l0,-326l194.722,0l55.278,54.918l0,271.082l-250,0Z" style="fill:#fff;fill-rule:nonzero;"/><path d="M72.839,115.703c-2.574,4.122 -6.155,7.522 -10.406,9.882c-4.251,2.36 -9.033,3.602 -13.896,3.609c-4.864,0.007 -9.649,-1.221 -13.907,-3.569c-0.153,-0.084 -0.446,-0.256 -0.446,-0.256c0,0 0.615,-1.986 0.329,-5.577c-0.226,-2.837 -1.167,-5.461 -1.167,-5.462c1.504,1.648 3.273,3.046 5.243,4.131c3.042,1.678 6.461,2.555 9.936,2.55c3.475,-0.005 6.892,-0.892 9.929,-2.578c7.891,-4.381 14.385,-2.73 14.385,-2.73Z" style="fill:#e48ae0;fill-rule:nonzero;"/><path d="M48.551,113.195c-4.094,0 -7.412,3.204 -7.412,7.157c0,3.953 3.318,7.157 7.412,7.157c4.093,0 7.412,-3.204 7.412,-7.157c0,-3.953 -3.319,-7.157 -7.412,-7.157Z" style="fill:#eb65e5;fill-rule:nonzero;"/><path d="M33.313,124.858c-4.127,-2.571 -7.531,-6.148 -9.894,-10.394c-2.362,-4.247 -3.605,-9.023 -3.612,-13.881c-0.007,-4.858 1.222,-9.639 3.572,-13.892c0.084,-0.153 0.257,-0.446 0.257,-0.446c0,0 1.988,0.615 5.583,0.329c2.841,-0.225 5.467,-1.166 5.468,-1.166c-1.65,1.503 -3.049,3.27 -4.136,5.237c-1.679,3.039 -2.557,6.455 -2.552,9.926c0.005,3.471 0.893,6.884 2.581,9.918c4.385,7.882 2.733,14.369 2.733,14.369Z" style="fill:#f0dc0a;fill-rule:nonzero;"/><path d="M35.824,100.596c0,-4.089 -3.208,-7.404 -7.165,-7.404c-3.957,0 -7.165,3.315 -7.165,7.404c0,4.089 3.208,7.404 7.165,7.404c3.957,0 7.165,-3.315 7.165,-7.404Z" style="fill:#eff309;fill-rule:nonzero;"/><path d="M24.15,85.372c2.574,-4.122 6.155,-7.523 10.406,-9.883c4.251,-2.36 9.033,-3.602 13.897,-3.609c4.863,-0.007 9.649,1.221 13.907,3.569c0.153,0.084 0.446,0.256 0.446,0.256c0,0 -0.615,1.986 -0.329,5.577c0.226,2.838 1.167,5.461 1.167,5.462c-1.504,-1.648 -3.274,-3.046 -5.243,-4.131c-3.042,-1.678 -6.461,-2.555 -9.936,-2.55c-3.475,0.005 -6.892,0.893 -9.929,2.579c-7.891,4.38 -14.386,2.73 -14.386,2.73Z" style="fill:#f90;fill-rule:nonzero;"/><path d="M48.44,87.88c4.093,0 7.412,-3.205 7.412,-7.157c0,-3.953 -3.319,-7.158 -7.412,-7.158c-4.094,0 -7.413,3.205 -7.413,7.157c0,3.953 3.319,7.158 7.413,7.158Z" style="fill:#fb5;fill-rule:nonzero;"/><path d="M63.675,76.219c4.126,2.571 7.531,6.148 9.893,10.395c2.363,4.246 3.606,9.023 3.613,13.881c0.007,4.858 -1.222,9.638 -3.572,13.891c-0.085,0.153 -0.257,0.446 -0.257,0.446c0,0 -1.988,-0.614 -5.583,-0.329c-2.841,0.226 -5.467,1.166 -5.468,1.166c1.65,-1.503 3.049,-3.27 4.136,-5.237c1.679,-3.039 2.557,-6.454 2.552,-9.925c-0.005,-3.471 -0.893,-6.884 -2.581,-9.918c-4.385,-7.882 -2.733,-14.37 -2.733,-14.37Z" style="fill:#96ca2c;fill-rule:nonzero;"/><path d="M61.164,100.482c0,4.089 3.208,7.404 7.165,7.404c3.957,0 7.165,-3.315 7.165,-7.404c0,-4.09 -3.208,-7.404 -7.165,-7.404c-3.957,0 -7.165,3.314 -7.165,7.404Z" style="fill:#b4e654;fill-rule:nonzero;"/><path d="M72.829,115.697c-2.575,4.122 -6.155,7.522 -10.407,9.882l-3.979,-7.153c7.892,-4.38 14.386,-2.729 14.386,-2.729Z" style="fill:#e48ae0;fill-rule:nonzero;"/><path d="M195.013,53l54.987,54.958l-49.145,0c0,0 -2.289,0.381 -4.198,-1.145c-1.91,-1.527 -1.644,-4.58 -1.644,-4.58l0,-49.233Z" style="fill:#d0d0d0;fill-rule:nonzero;"/><path d="M22.646,149.336l3.486,8.701l3.487,-8.701l1.823,0l0,10.664l-1.406,0l0,-4.153l0.132,-4.482l-3.501,8.635l-1.077,0l-3.493,-8.613l0.139,4.46l0,4.153l-1.406,0l0,-10.664l1.816,0Zm14.355,10.81c-1.074,0 -1.948,-0.351 -2.622,-1.054c-0.673,-0.708 -1.01,-1.653 -1.01,-2.835l0,-0.249c0,-0.786 0.149,-1.487 0.446,-2.102c0.303,-0.62 0.723,-1.103 1.26,-1.45c0.542,-0.352 1.128,-0.527 1.758,-0.527c1.03,0 1.831,0.339 2.402,1.018c0.572,0.678 0.857,1.65 0.857,2.915l0,0.564l-5.368,0c0.019,0.781 0.246,1.413 0.681,1.897c0.439,0.478 0.996,0.718 1.67,0.718c0.478,0 0.883,-0.098 1.215,-0.293c0.333,-0.196 0.623,-0.455 0.872,-0.777l0.828,0.645c-0.664,1.02 -1.66,1.53 -2.989,1.53Zm-0.168,-7.104c-0.547,0 -1.006,0.2 -1.377,0.601c-0.371,0.395 -0.601,0.952 -0.688,1.669l3.969,0l0,-0.102c-0.039,-0.689 -0.224,-1.221 -0.556,-1.597c-0.332,-0.381 -0.782,-0.571 -1.348,-0.571Zm8.123,7.104c-1.075,0 -1.949,-0.351 -2.623,-1.054c-0.673,-0.708 -1.01,-1.653 -1.01,-2.835l0,-0.249c0,-0.786 0.149,-1.487 0.446,-2.102c0.303,-0.62 0.723,-1.103 1.26,-1.45c0.542,-0.352 1.128,-0.527 1.758,-0.527c1.03,0 1.831,0.339 2.402,1.018c0.572,0.678 0.857,1.65 0.857,2.915l0,0.564l-5.368,0c0.019,0.781 0.246,1.413 0.681,1.897c0.439,0.478 0.996,0.718 1.67,0.718c0.478,0 0.884,-0.098 1.216,-0.293c0.332,-0.196 0.622,-0.455 0.871,-0.777l0.828,0.645c-0.664,1.02 -1.66,1.53 -2.988,1.53Zm-0.169,-7.104c-0.547,0 -1.006,0.2 -1.377,0.601c-0.371,0.395 -0.6,0.952 -0.688,1.669l3.969,0l0,-0.102c-0.039,-0.689 -0.224,-1.221 -0.556,-1.597c-0.332,-0.381 -0.782,-0.571 -1.348,-0.571Zm6.672,-2.886l0,1.919l1.48,0l0,1.048l-1.48,0l0,4.914c0,0.317 0.066,0.557 0.198,0.718c0.132,0.156 0.357,0.234 0.674,0.234c0.156,0 0.371,-0.029 0.645,-0.088l0,1.099c-0.357,0.098 -0.704,0.146 -1.041,0.146c-0.605,0 -1.062,-0.183 -1.369,-0.549c-0.308,-0.366 -0.462,-0.886 -0.462,-1.56l0,-4.914l-1.442,0l0,-1.048l1.442,0l0,-1.919l1.355,0Zm4.541,9.844l-1.355,0l0,-7.925l1.355,0l0,7.925Zm-1.464,-10.027c0,-0.22 0.066,-0.405 0.197,-0.556c0.137,-0.152 0.337,-0.228 0.601,-0.228c0.264,0 0.464,0.076 0.601,0.228c0.136,0.151 0.205,0.336 0.205,0.556c0,0.22 -0.069,0.403 -0.205,0.549c-0.137,0.147 -0.337,0.22 -0.601,0.22c-0.264,0 -0.464,-0.073 -0.601,-0.22c-0.131,-0.146 -0.197,-0.329 -0.197,-0.549Zm4.921,2.102l0.044,0.996c0.606,-0.761 1.397,-1.142 2.373,-1.142c1.675,0 2.52,0.945 2.535,2.834l0,5.237l-1.355,0l0,-5.244c-0.005,-0.571 -0.137,-0.994 -0.396,-1.267c-0.254,-0.274 -0.652,-0.41 -1.194,-0.41c-0.439,0 -0.825,0.117 -1.157,0.351c-0.332,0.235 -0.591,0.542 -0.776,0.923l0,5.647l-1.355,0l0,-7.925l1.282,0Zm6.672,3.897c0,-1.236 0.285,-2.217 0.857,-2.945c0.571,-0.732 1.328,-1.098 2.27,-1.098c0.967,0 1.722,0.342 2.264,1.025l0.065,-0.879l1.238,0l0,7.735c0,1.025 -0.305,1.833 -0.915,2.424c-0.606,0.591 -1.421,0.886 -2.447,0.886c-0.571,0 -1.13,-0.122 -1.677,-0.366c-0.547,-0.244 -0.964,-0.579 -1.252,-1.004l0.703,-0.812c0.581,0.717 1.291,1.076 2.131,1.076c0.659,0 1.172,-0.185 1.538,-0.556c0.371,-0.372 0.557,-0.894 0.557,-1.568l0,-0.681c-0.542,0.625 -1.282,0.937 -2.219,0.937c-0.928,0 -1.68,-0.373 -2.256,-1.12c-0.571,-0.747 -0.857,-1.765 -0.857,-3.054Zm1.362,0.153c0,0.894 0.183,1.597 0.55,2.11c0.366,0.508 0.878,0.762 1.538,0.762c0.854,0 1.482,-0.389 1.882,-1.165l0,-3.618c-0.415,-0.757 -1.038,-1.135 -1.868,-1.135c-0.659,0 -1.174,0.256 -1.545,0.769c-0.371,0.512 -0.557,1.272 -0.557,2.277Zm14.458,-0.878c-1.206,-0.347 -2.085,-0.772 -2.636,-1.275c-0.547,-0.508 -0.821,-1.133 -0.821,-1.875c0,-0.84 0.335,-1.533 1.004,-2.08c0.673,-0.552 1.547,-0.828 2.622,-0.828c0.732,0 1.384,0.142 1.955,0.425c0.576,0.283 1.021,0.674 1.333,1.172c0.318,0.498 0.476,1.043 0.476,1.633l-1.413,0c0,-0.644 -0.205,-1.149 -0.615,-1.516c-0.411,-0.371 -0.989,-0.556 -1.736,-0.556c-0.694,0 -1.236,0.153 -1.626,0.461c-0.386,0.303 -0.579,0.725 -0.579,1.267c0,0.435 0.183,0.803 0.549,1.106c0.372,0.298 0.999,0.571 1.883,0.82c0.888,0.249 1.582,0.525 2.08,0.828c0.503,0.298 0.874,0.647 1.113,1.047c0.244,0.401 0.366,0.872 0.366,1.414c0,0.864 -0.337,1.558 -1.01,2.08c-0.674,0.518 -1.575,0.776 -2.703,0.776c-0.732,0 -1.416,-0.139 -2.051,-0.417c-0.635,-0.283 -1.125,-0.669 -1.472,-1.157c-0.342,-0.489 -0.513,-1.043 -0.513,-1.663l1.414,0c0,0.645 0.237,1.155 0.71,1.531c0.479,0.371 1.116,0.557 1.912,0.557c0.742,0 1.311,-0.152 1.706,-0.455c0.396,-0.302 0.594,-0.715 0.594,-1.237c0,-0.523 -0.183,-0.926 -0.55,-1.209c-0.366,-0.288 -1.03,-0.571 -1.992,-0.849Zm10.445,3.969c-0.528,0.62 -1.302,0.93 -2.322,0.93c-0.845,0 -1.489,-0.244 -1.934,-0.732c-0.439,-0.493 -0.661,-1.221 -0.666,-2.183l0,-5.156l1.355,0l0,5.12c0,1.201 0.488,1.802 1.465,1.802c1.035,0 1.723,-0.386 2.065,-1.158l0,-5.764l1.355,0l0,7.925l-1.289,0l-0.029,-0.784Zm4.658,-7.141l0.036,0.879c0.581,-0.683 1.365,-1.025 2.351,-1.025c1.109,0 1.863,0.425 2.264,1.274c0.263,-0.381 0.605,-0.688 1.025,-0.923c0.425,-0.234 0.925,-0.351 1.501,-0.351c1.739,0 2.623,0.92 2.652,2.761l0,5.31l-1.355,0l0,-5.229c0,-0.567 -0.13,-0.989 -0.388,-1.268c-0.259,-0.283 -0.694,-0.424 -1.304,-0.424c-0.503,0 -0.92,0.151 -1.252,0.454c-0.333,0.298 -0.525,0.7 -0.579,1.208l0,5.259l-1.362,0l0,-5.193c0,-1.152 -0.564,-1.728 -1.692,-1.728c-0.889,0 -1.497,0.378 -1.824,1.135l0,5.786l-1.355,0l0,-7.925l1.282,0Zm13.154,0l0.037,0.879c0.581,-0.683 1.364,-1.025 2.351,-1.025c1.108,0 1.863,0.425 2.263,1.274c0.264,-0.381 0.605,-0.688 1.025,-0.923c0.425,-0.234 0.926,-0.351 1.502,-0.351c1.738,0 2.622,0.92 2.651,2.761l0,5.31l-1.355,0l0,-5.229c0,-0.567 -0.129,-0.989 -0.388,-1.268c-0.259,-0.283 -0.693,-0.424 -1.304,-0.424c-0.503,0 -0.92,0.151 -1.252,0.454c-0.332,0.298 -0.525,0.7 -0.579,1.208l0,5.259l-1.362,0l0,-5.193c0,-1.152 -0.564,-1.728 -1.692,-1.728c-0.889,0 -1.497,0.378 -1.824,1.135l0,5.786l-1.355,0l0,-7.925l1.282,0Zm16.772,7.925c-0.078,-0.156 -0.141,-0.435 -0.19,-0.835c-0.63,0.654 -1.382,0.981 -2.256,0.981c-0.781,0 -1.423,-0.219 -1.926,-0.659c-0.498,-0.444 -0.747,-1.006 -0.747,-1.684c0,-0.825 0.312,-1.465 0.937,-1.919c0.63,-0.459 1.514,-0.689 2.652,-0.689l1.318,0l0,-0.622c0,-0.474 -0.142,-0.85 -0.425,-1.128c-0.283,-0.283 -0.7,-0.425 -1.252,-0.425c-0.484,0 -0.889,0.122 -1.216,0.366c-0.327,0.244 -0.491,0.54 -0.491,0.886l-1.362,0c0,-0.395 0.139,-0.776 0.417,-1.142c0.284,-0.371 0.665,-0.664 1.143,-0.879c0.483,-0.215 1.013,-0.322 1.589,-0.322c0.913,0 1.629,0.229 2.146,0.688c0.518,0.454 0.787,1.082 0.806,1.883l0,3.647c0,0.728 0.093,1.306 0.278,1.736l0,0.117l-1.421,0Zm-2.248,-1.033c0.425,0 0.828,-0.11 1.208,-0.329c0.381,-0.22 0.657,-0.506 0.828,-0.857l0,-1.626l-1.062,0c-1.66,0 -2.49,0.486 -2.49,1.457c0,0.425 0.141,0.757 0.425,0.996c0.283,0.24 0.647,0.359 1.091,0.359Zm9.346,-5.676c-0.205,-0.034 -0.428,-0.051 -0.667,-0.051c-0.889,0 -1.492,0.378 -1.809,1.135l0,5.625l-1.355,0l0,-7.925l1.318,0l0.022,0.916c0.445,-0.708 1.075,-1.062 1.89,-1.062c0.264,0 0.464,0.034 0.601,0.102l0,1.26Zm3.977,4.724l1.845,-5.94l1.451,0l-3.186,9.148c-0.494,1.319 -1.277,1.978 -2.352,1.978l-0.256,-0.022l-0.505,-0.096l0,-1.098l0.366,0.029c0.459,0 0.815,-0.093 1.069,-0.278c0.259,-0.186 0.472,-0.525 0.638,-1.018l0.3,-0.806l-2.827,-7.837l1.479,0l1.978,5.94Z" style="fill:#6b6b6b;fill-rule:nonzero;"/><rect x="20.811" y="174" width="108.459" height="9.749" style="fill:#74d5de;fill-rule:nonzero;"/><rect x="20.811" y="193.498" width="108.459" height="9.749" style="fill:#74d5de;fill-rule:nonzero;"/><rect x="20.977" y="234.703" width="204.565" height="52.588" style="fill:#cdeaed;fill-rule:nonzero;"/><rect x="31.656" y="247.158" width="176.129" height="8.222" style="fill:#74d5de;fill-rule:nonzero;"/><rect x="31.656" y="266.766" width="49.58" height="8.222" style="fill:#74d5de;fill-rule:nonzero;"/><rect x="20.977" y="308.05" width="204.46" height="52.588" style="fill:#cdeaed;fill-rule:nonzero;"/><rect x="31.838" y="319.954" width="176.128" height="8.222" style="fill:#74d5de;fill-rule:nonzero;"/><rect x="31.838" y="339.561" width="49.58" height="8.222" style="fill:#74d5de;fill-rule:nonzero;"/><rect x="204" y="373" width="9" height="6" style="fill:#de8e68;fill-rule:nonzero;"/><path d="M199.12,365.364l-6.013,4.605l-4.107,-5.365l6.012,-4.604l4.108,5.364Z" style="fill:#de8e68;fill-rule:nonzero;"/><path d="M230.633,266c0,0 6.367,56.29 6.367,57.5c0,1.21 -37.473,44.5 -38.371,44.5c-0.898,0 -4.629,-7.284 -4.629,-8.55c0,-1.266 11.538,-10.848 11.538,-10.848l25.095,-82.602Z" style="fill:#56cad8;fill-rule:nonzero;"/><path d="M203.391,373.412l-5.391,-108.412c2.533,1.834 15.574,5.583 32,0.981c-1.141,9.518 -17.239,108.019 -17.239,108.019l-9.317,0l-0.053,-0.588Z" style="fill:#74d5de;fill-rule:nonzero;"/><path d="M228.732,217.424c1.214,-0.102 7.587,1.156 12.928,3.684c11.812,-12.708 14.047,-23.886 20.893,-24.269c3.227,-0.271 6.149,-0.06 6.363,2.479c0.213,2.539 -2.621,4.764 -7.403,5.166c-0.526,3.287 -9.145,29.045 -16.807,29.688c-5.313,0.447 -20.763,-4.209 -20.875,-5.536c-0.111,-1.327 3.89,-11.127 4.901,-11.212Z" style="fill:#de8e68;fill-rule:nonzero;"/><path d="M214.483,206.462c-17.935,0.904 -18.829,57.022 -16.365,60.122c2.463,3.099 32.536,7.303 35.497,4.539c2.961,-2.764 10.867,-66.175 -19.132,-64.661Z" style="fill:#fed385;fill-rule:nonzero;"/><path d="M211.569,194.149c0.002,0.538 -0.185,12.344 -1.797,15.874c0.003,1.027 11.649,1.667 11.644,-0.288l-0.024,-8.593" style="fill:#d37c59;fill-rule:nonzero;"/><path d="M220.995,202.153c-5.101,0.014 -9.253,-6.356 -9.274,-14.229c-0.022,-7.873 4.095,-14.266 9.196,-14.28c5.1,-0.014 9.253,6.357 9.274,14.229c0.022,7.873 -4.095,14.266 -9.196,14.28Z" style="fill:#de8e68;fill-rule:nonzero;"/><path d="M212.799,194.949l0.236,-0.001l-0.018,-6.811c0.708,-0.941 7.569,-3.074 9.225,-3.783c1.656,-0.709 4.495,-1.656 6.381,-4.48c0.436,0.645 1.465,3.869 1.742,6.56c0.709,-0.707 1.823,-1.872 1.813,-5.63c-0.019,-6.811 -6.897,-10.785 -12.817,-10.769c-9.472,0.026 -14.893,9.67 -14.881,13.898c0.017,6.106 4.293,11.027 8.319,11.016Z" style="fill-rule:nonzero;"/><path d="M190.208,182.103c-3.283,3.892 -4.744,9.323 -8.903,14.254c-3.284,3.893 -7.715,6.373 -11.655,11.045c-7.005,8.305 -4.41,14.935 -1.448,17.433c7.518,6.341 16.39,1.832 20.768,-3.359c7.005,-8.305 2.868,-13.57 11.186,-23.432c8.099,-9.603 0.17,-14.07 1.921,-16.146c0.876,-1.038 3.291,-1.346 3.961,-1.447c0.67,-0.101 1.059,-3.105 0.603,-3.489c-0.455,-0.384 -9.866,-2.645 -16.433,5.141Z" style="fill-rule:nonzero;"/><path d="M213,235.5c-0.5,2.5 -1.5,16.5 -2.536,23.608c1.006,5.139 4.036,25.392 4.036,25.392l-3.887,4.986c0,0 -9.613,-22.986 -10.613,-27.486c-0.5,-5 0.211,-26.36 0.5,-27.5c0.289,-1.139 12.5,1 12.5,1Z" style="fill:#de8e68;fill-rule:nonzero;"/><path d="M206.746,212.389c-8.286,0.181 -9.685,21.775 -8.207,23.623c1.478,1.849 16.288,2.666 17.885,0.775c1.596,-1.89 -0.908,-24.59 -9.678,-24.398Z" style="fill:#fed892;fill-rule:nonzero;"/><path d="M204,378l9.207,0l14.793,5.795l0,2.205l-24,0l0,-8Z" style="fill-rule:nonzero;"/><path d="M188.99,364l5.121,6.742l3.889,14.038l-1.651,1.22l-13.349,-17.576l5.99,-4.424Z" style="fill-rule:nonzero;"/><rect x="481.502" y="304.69" width="6.01" height="9.592" style="fill:#de8e68;fill-rule:nonzero;"/><rect x="526.738" y="318.217" width="6.327" height="9.593" style="fill:#de8e68;fill-rule:nonzero;"/><path d="M499.723,192.707c-7.33,0 -18.721,52.422 -21.573,57.697c-2.853,5.275 3.235,54.286 3.235,54.286l5.993,0l7.255,-44.883c2.05,-6.086 6.798,-24.261 15.511,-34.418c10.857,-8.486 -1.03,-27.407 -1.03,-27.407l-9.391,-5.275Z" style="fill:#3f939d;fill-rule:nonzero;"/><path d="M487.451,147.564c-3.605,3.283 -10.815,11.512 -11.409,12.566c-1.822,-0.891 -20.798,-11.107 -22.224,-11.756c-1.427,-0.648 -4.437,-5.796 -5.467,-5.796c-0.595,0 -1.149,1.175 -1.149,1.986c0,1.378 0.634,2.432 1.03,2.878c-1.347,-0.203 -13.232,-1.135 -13.232,-0.324c0,2.108 13.311,4.905 14.341,5.472c1.03,0.568 22.7,21.08 30.227,21.08c2.931,0 15.886,-8.999 15.886,-9.972c1.228,-0.852 3.129,-2.108 3.129,-2.108l0,-7.135l-4.516,-3.365c0,-0.04 -5.903,-4.175 -6.616,-3.526Z" style="fill:#de8e68;fill-rule:nonzero;"/><path d="M487.198,145.394c0.79,-6.516 15.534,-21.319 22.293,-14.722c5.889,5.752 -4.783,26.307 -7.51,27.112c-3.083,0.322 -14.981,-7.965 -14.783,-12.39Z" style="fill:#febf92;fill-rule:nonzero;"/><path d="M532.273,131.718c7.507,-3.214 18.017,14.463 16.831,20.891c0,2.812 -15.408,8.838 -17.779,7.231c-2.371,-1.607 -6.559,-24.908 0.948,-28.122Z" style="fill:#fed892;fill-rule:nonzero;"/><path d="M501.746,195.239l25.126,122.978l6.441,0l2.281,-109.694c0,-1.892 -0.16,-13.808 -0.16,-15.337c-7.282,2.133 -22.805,3.824 -33.688,2.053Z" style="fill:#74d5de;fill-rule:nonzero;"/><path d="M526.986,327.81l6.079,0l0,6.615l-16.766,0l10.687,-6.615Z" style="fill-rule:nonzero;"/><path d="M481.433,314.282l6.079,0l0,6.615l-16.766,0l10.687,-6.615Z" style="fill-rule:nonzero;"/><path d="M515.719,122.07c18.721,0 25.253,15.799 25.253,20.931c0,5.132 -5.855,36.449 -5.616,50.39c0.04,2.303 -33.577,4.364 -38.158,1.01c-2.151,-1.576 -6.771,-72.331 18.521,-72.331Z" style="fill:#fecc92;fill-rule:nonzero;"/><path d="M549.289,152.501c5.283,8.214 4.965,27.139 4.965,29.998c0,2.859 -19.702,28.548 -21.41,28.548c-1.033,-1.047 -3.893,-4.228 -3.893,-5.194c0.914,-1.691 12.632,-27.663 14.737,-29.515c-0.953,-1.168 -9.335,-14.496 -9.692,-16.71c7.349,-1.249 14.459,-4.389 15.293,-7.127Z" style="fill:#de8e68;fill-rule:nonzero;"/><path d="M549.096,152.614c1.19,-6.464 -8.445,-25.208 -16.891,-21.006c-7.335,3.676 -3.331,26.661 -0.951,28.277c2.854,1.253 16.732,-2.989 17.842,-7.271Z" style="fill:#fed892;fill-rule:nonzero;"/><path d="M511.008,118.281c-0.396,1.257 -0.593,5.153 -0.158,6.898c0.039,0.081 7.913,0.689 8.783,-0.731c0.04,-1.177 1.939,-11.645 4.51,-14.891c0.238,-0.365 -0.277,-1.38 -0.277,-1.38l-9.139,3.895l-3.719,6.209Z" style="fill:#d38466;fill-rule:nonzero;"/><path d="M522.885,109.319c0.594,0.809 1.347,1.173 2.021,1.173c1.507,0 4.995,-1.415 4.995,-6.472c0,-3.641 -3.488,-5.502 -3.488,-7.242c0,-1.658 0.436,-1.699 0.436,-3.074c0,-0.688 -0.674,-2.953 -2.775,-2.953c-1.189,0 -1.625,1.011 -2.815,1.011c-1.308,0 -2.497,-2.589 -4.479,-2.589c-1.348,0 -2.616,1.295 -4.043,1.295c-1.626,0 -2.736,-2.468 -4.995,-2.468c-2.339,0 -3.171,2.144 -4.083,2.144c-1.15,0 -1.348,-0.324 -2.498,-0.324c-0.713,0 -2.893,1.295 -2.893,3.641c0,1.659 0.673,4.369 4.043,4.369c1.982,0 3.092,3.196 4.836,3.196c0.674,0 1.269,-0.566 1.427,-0.283c0.674,1.214 2.062,4.531 2.062,4.531l6.302,3.6l5.947,0.445Z" style="fill:#fd8369;fill-rule:nonzero;"/><path d="M521.582,107.577c0,0.558 -0.199,0.678 -1.036,0.678c-0.399,0 -0.958,-0.518 -0.958,-1.077c0,-1.316 0.958,-1.596 0.958,-3.311c0,-2.912 -7.618,-4.428 -10.29,-5.944c-0.957,0.958 -1.635,2.194 -1.914,3.59l-1.715,8.816c-0.758,3.83 1.755,7.54 5.544,8.298c3.788,0.758 7.537,-1.755 8.295,-5.545l0.279,-1.516c0.159,0.04 0.319,0.08 0.439,0.08c0.997,0 1.754,-0.918 1.754,-2.035c0.08,-1.037 -1.356,-2.872 -1.356,-2.034Z" style="fill:#de8e68;fill-rule:nonzero;"/><path d="M606.912,279.693l-6.06,-0.563l-0.884,9.524l6.061,0.563l0.883,-9.524Z" style="fill:#f2ae95;fill-rule:nonzero;"/><path d="M592.725,74.501c0.284,-1.385 1.652,-3.289 1.562,-4.262c-0.052,-0.561 -0.05,-1 -0.561,-0.953c-0.869,0.081 -1.477,0.741 -1.723,1.141c0.009,-1.284 -3.246,-9.666 -5.008,-9.336c-1.321,0.248 -0.057,10.71 -0.161,11.574l5.891,1.836Z" style="fill:#f2ae95;fill-rule:nonzero;"/><path d="M602.301,120.372c-6.188,-4.827 -11.43,-17.392 -12.258,-19.575c-0.828,-2.183 -3.561,-28.175 -2.329,-28.642c1.048,0.517 4.478,-0.254 4.758,0.484c-0.169,1.541 7.204,23.681 6.962,26.055c1.026,0.631 10.934,10.462 11.833,12.055c-4.938,2.962 -9.157,7.305 -8.966,9.623Z" style="fill:#f2ae95;fill-rule:nonzero;"/><path d="M611.032,109.419c4.754,2.475 11.836,17.996 4.852,21.269c-6.088,2.85 -18.736,-11.211 -18.568,-13.527c0.639,-2.449 10.39,-9.164 13.716,-7.742Z" style="fill:#febf92;fill-rule:nonzero;"/><path d="M593.559,164.278c-0.408,1.481 -23.304,54.717 -23.304,54.717l-11.673,51.052l6.418,2.123l21.754,-45.675l13.144,-15.349l11.604,-27.307l-9.139,-18.322l-8.804,-1.239Z" style="fill:#74d5de;fill-rule:nonzero;"/><path d="M625.254,175.995l-19.499,53.001l0.916,53.294l-6.061,-0.562l-12.869,-54.61l10.014,-50.622l20.998,-2.31l6.501,1.809Z" style="fill:#56cad8;fill-rule:nonzero;"/><path d="M633.887,122.894c6.521,-1.394 12.16,14.424 10.199,19.388c-0.443,2.253 -13.738,4.657 -15.384,2.996c-1.647,-1.66 -1.336,-20.99 5.185,-22.384Z" style="fill:#fed892;fill-rule:nonzero;"/><path d="M600.197,287.567l5.936,0l0,6.138l-16.371,0l10.435,-6.138Z" style="fill-rule:nonzero;"/><path d="M565.275,269.661l-5.162,-2.166l-3.031,7.223l5.162,2.166l3.031,-7.223Z" style="fill:#f2ae95;fill-rule:nonzero;"/><path d="M557.203,274.769l5.039,2.115l-2.09,4.981l-13.899,-5.832l10.95,-1.264Z" style="fill-rule:nonzero;"/><path d="M621.052,112.296c16.635,3.657 19.036,20.416 17.93,25.445c-1.106,5.029 -13.056,34.573 -15.847,48.281c-0.461,2.265 -32.61,-3.724 -35.958,-7.905c-1.571,-1.965 11.4,-70.762 33.875,-65.821Z" style="fill:#fecc92;fill-rule:nonzero;"/><path d="M632.005,141.796c-0.303,1.647 -0.779,13.067 0.249,18.757c-1.348,3.852 -5.281,27.635 -5.281,27.635l4.777,2.604c0,0 7.625,-22.026 8.713,-25.559c1.088,-3.533 2.724,-21.652 2.658,-22.564c-0.065,-0.912 -11.116,-0.873 -11.116,-0.873Z" style="fill:#f2ae95;fill-rule:nonzero;"/><path d="M625.62,198.239c-2.188,-0.854 -2.956,-4.124 -1.715,-7.303c1.241,-3.179 4.022,-5.063 6.21,-4.208c2.189,0.854 2.957,4.124 1.716,7.303c-1.242,3.179 -4.022,5.063 -6.211,4.208Z" style="fill:#f2ae95;fill-rule:nonzero;"/><path d="M644.079,142.284c1.97,-4.992 -2.8,-21.527 -10.229,-19.49c-6.456,1.792 -6.864,20.84 -5.212,22.509c2.09,1.453 13.878,0.238 15.441,-3.019Z" style="fill:#fed892;fill-rule:nonzero;"/><path d="M620.756,106.113c-0.727,1.737 -2.014,7.304 -2.097,9.894c0.014,0.124 7.25,2.455 8.47,0.573c0.37,-1.686 5.114,-16.395 8.451,-20.589c0.327,-0.482 0.129,-2.036 0.129,-2.036l-9.699,3.915l-5.254,8.243Z" style="fill:#f2ae95;fill-rule:nonzero;"/><path d="M617.255,92.953c-3.31,4.88 -2.28,11.373 2.297,14.477c4.576,3.104 10.99,1.66 14.3,-3.221l3.855,-5.684c3.31,-4.881 2.28,-11.374 -2.297,-14.478c-4.576,-3.104 -10.99,-1.659 -14.3,3.221l-3.855,5.685Z" style="fill:#f9b49b;fill-rule:nonzero;"/><path d="M631.072,105.158c0,0 4.075,0.65 7.141,-2.171c4.287,-3.913 6.117,-9.302 3.414,-10.558c-2.613,1.302 -3.583,1.316 -3.583,1.316c0,0 -4.973,9.598 -6.972,11.413Z" style="fill:#885423;fill-rule:nonzero;"/><path d="M637.713,93.809c0,0 -4.81,0.292 -10.996,-3.903c-6.12,-4.151 -6.625,-12.756 -2.095,-16.602c0.769,3.116 4.823,6.346 9.225,7.506c4.401,1.16 8.087,3.659 9.14,7.064c1.009,3.471 -1.989,6.049 -5.274,5.935Z" style="fill:#885423;fill-rule:nonzero;"/><path d="M637.01,93.714c0,0 -0.53,5.598 -3.217,8.002c3.294,-1.032 6.097,-4.031 6.097,-4.031l1.474,-5.149l-4.354,1.178Z" style="fill:#885423;fill-rule:nonzero;"/><path d="M625.485,86.31c0,0 -3.302,-0.798 -5.895,3.592c-0.558,-4.702 3.103,-7.408 3.103,-7.408l2.276,-0.665l0.516,4.481Z" style="fill:#885423;fill-rule:nonzero;"/><path d="M416.749,378l7.251,0l0,7l-20,0l12.749,-7Z" style="fill-rule:nonzero;"/><path d="M436.749,378l7.251,0l0,7l-20,0l12.749,-7Z" style="fill-rule:nonzero;"/><rect x="417" y="370" width="7" height="8" style="fill:#794126;fill-rule:nonzero;"/><rect x="437" y="370" width="7" height="8" style="fill:#794126;fill-rule:nonzero;"/><path d="M444,254.645c-0.159,3.147 0,115.355 0,115.355l-7,0l-14.47,-71.34c-0.164,-2.539 -2.53,-30.618 -2.53,-30.618l14.942,-15.042l9.058,1.645Z" style="fill:#56cad8;fill-rule:nonzero;"/><path d="M410.257,254c0,0 -9.257,61.38 -9.257,63.878c0,2.499 16,52.122 16,52.122l7,0l-6.682,-58.284l22.682,-55.227" style="fill:#74d5de;fill-rule:nonzero;"/><path d="M425.205,197.426c17.957,0.409 19.588,56.847 18.015,59.767c-1.871,3.5 -28.115,9.152 -35.377,5.53c-3.628,-1.807 -12.676,-65.981 17.362,-65.297Z" style="fill:#fed385;fill-rule:nonzero;"/><path d="M424.932,161.351c-3.793,-0.166 -8.875,1.656 -9.381,6.87c-0.506,5.214 3.657,7.788 8.458,9.112c-3.696,3.628 -5.129,4.26 -4.954,5.991c0.175,1.732 2.779,6.7 2.511,12.075c-0.268,5.375 11.404,36.211 14.08,37.329c2.676,1.118 -3.292,6.033 15.677,8.49c5.073,0.492 15.007,-6.139 15.958,-15.942c2.301,-21.347 -19.516,-27.558 -29.553,-52.597c-4.606,-11.494 -11.036,-11.254 -12.796,-11.328Z" style="fill-rule:nonzero;"/><path d="M405.274,209.906c-1.187,0.461 -5.815,5.809 -8.774,8.594c-1.903,-1.532 -14,-19.5 -14,-19.5l-4.449,3.401c0,0 14.388,29.632 17.583,29.748c3.196,0.116 14.866,-12.149 17.308,-14.363c0.63,-2.256 -7.668,-7.88 -7.668,-7.88Z" style="fill:#794126;fill-rule:nonzero;"/><path d="M379.47,205.269c-1.116,-1.491 -3.453,-3.04 -3.999,-4.235c-0.316,-0.69 -0.597,-1.208 -0.148,-1.413c0.764,-0.349 1.685,0.119 2.142,0.466c-0.826,-1.512 -3.5,-13.08 -1.844,-13.592c1.242,-0.383 6.876,12.624 7.512,13.591l-3.663,5.183Z" style="fill:#794126;fill-rule:nonzero;"/><path d="M419.479,204.002c3.212,2.323 -3.448,19.605 -5.882,20.184c-2.434,0.578 -13.711,-7.494 -13.718,-10.689c-0.008,-3.195 14.738,-13.008 19.6,-9.495Z" style="fill:#febf92;fill-rule:nonzero;"/><path d="M425.387,197.438c17.952,0.409 20.393,56.478 18.016,59.644c-2.377,3.166 -32.32,8.197 -35.356,5.516c-3.036,-2.681 -12.688,-65.846 17.34,-65.16Z" style="fill:#fed385;fill-rule:nonzero;"/><path d="M431.348,222.15c-0.302,1.647 -0.778,13.067 0.25,18.756c-1.348,3.853 -5.281,27.636 -5.281,27.636l4.776,2.604c0,0 7.626,-22.027 8.714,-25.56c1.088,-3.533 2.723,-21.651 2.658,-22.563c-0.065,-0.912 -11.117,-0.873 -11.117,-0.873Z" style="fill:#794126;fill-rule:nonzero;"/><path d="M424.962,278.593c-2.188,-0.854 -2.956,-4.124 -1.715,-7.303c1.241,-3.179 4.022,-5.063 6.21,-4.209c2.189,0.855 2.957,4.125 1.715,7.304c-1.241,3.178 -4.021,5.063 -6.21,4.208Z" style="fill:#794126;fill-rule:nonzero;"/><path d="M443.421,222.638c1.97,-4.992 -2.8,-21.527 -10.229,-19.49c-6.456,1.791 -6.864,20.839 -5.212,22.509c2.09,1.452 13.878,0.237 15.441,-3.019Z" style="fill:#fed892;fill-rule:nonzero;"/><path d="M428.246,184.416c-0.03,0.533 -0.496,12.248 0.735,15.823c-0.057,1.019 -10.344,1.108 -10.235,-0.831l0.48,-8.518" style="fill:#794126;fill-rule:nonzero;"/><path d="M419.568,191.914c5.056,0.284 9.512,-5.812 9.951,-13.617c0.439,-7.805 -3.305,-14.362 -8.361,-14.647c-5.057,-0.284 -9.512,5.812 -9.951,13.617c-0.439,7.805 3.304,14.362 8.361,14.647Z" style="fill:#894a2b;fill-rule:nonzero;"/><path d="M428.602,184.992l-0.235,-0.004l0.096,-6.762c-0.692,-0.943 -7.481,-3.138 -9.117,-3.861c-1.635,-0.723 -4.444,-1.696 -6.285,-4.521c-0.439,0.635 -1.498,3.825 -1.804,6.493c-0.695,-0.71 -1.789,-1.88 -1.736,-5.611c0.096,-6.762 6.971,-10.629 12.849,-10.546c9.404,0.134 14.676,9.772 14.617,13.969c-0.087,6.063 -4.388,10.899 -8.385,10.843Z" style="fill-rule:nonzero;"/><path d="M427.447,183.172c1.429,0.081 2.652,-1.013 2.733,-2.442c0.08,-1.429 -1.013,-2.652 -2.442,-2.733c-1.429,-0.08 -2.653,1.013 -2.733,2.442c-0.081,1.429 1.013,2.653 2.442,2.733Z" style="fill:#894a2b;fill-rule:nonzero;"/><path d="M402.303,129.764c0.37,0.067 0.619,0.423 0.552,0.793c-0.066,0.371 -0.422,0.62 -0.793,0.553l-4.771,-0.865c-0.371,-0.066 -0.619,-0.422 -0.552,-0.793c0.034,-0.187 0.14,-0.342 0.284,-0.442l-0.002,-0.002l9.019,-6.245c0.212,-0.147 0.479,-0.158 0.696,-0.051l27.519,10.9c0.351,0.137 0.525,0.535 0.386,0.886c-0.137,0.351 -0.535,0.524 -0.886,0.386l-27.233,-10.785l-7.361,5.096l3.142,0.569Z" style="fill:#6b6b6b;fill-rule:nonzero;"/><path d="M405.067,127.017c0.068,-0.371 0.426,-0.617 0.796,-0.548c0.37,0.068 0.616,0.426 0.548,0.796l-1.935,10.64l37.377,0.08l0.204,-0.141l-32.732,-26.608l-2.22,12.212c-0.068,0.372 -0.426,0.62 -0.797,0.552c-0.372,-0.067 -0.62,-0.425 -0.552,-0.797l2.428,-13.349l0.002,0c0.021,-0.11 0.066,-0.216 0.142,-0.309c0.238,-0.291 0.669,-0.336 0.961,-0.099l34.291,27.875c0.067,0.047 0.128,0.105 0.179,0.178c0.215,0.311 0.137,0.739 -0.174,0.954l-1.127,0.78l0,-0.001c-0.112,0.077 -0.248,0.122 -0.392,0.122l-38.411,-0.081l0.001,-0.002c-0.04,0 -0.083,-0.004 -0.123,-0.012c-0.371,-0.069 -0.617,-0.426 -0.548,-0.797l2.082,-11.445Z" style="fill:#6b6b6b;fill-rule:nonzero;"/><path d="M265.885,192.463c0.357,-0.121 0.746,0.07 0.868,0.427c0.121,0.356 -0.07,0.746 -0.427,0.867l-4.594,1.552c-0.356,0.121 -0.746,-0.07 -0.867,-0.427c-0.061,-0.18 -0.043,-0.367 0.035,-0.524l-0.003,-0.001l4.871,-9.829c0.115,-0.232 0.343,-0.371 0.584,-0.382l29.358,-3.777c0.373,-0.05 0.718,0.214 0.766,0.588c0.049,0.374 -0.215,0.718 -0.588,0.767l-29.052,3.739l-3.975,8.023l3.024,-1.023Z" style="fill:#6b6b6b;fill-rule:nonzero;"/><path d="M266.975,188.721c-0.119,-0.357 0.075,-0.746 0.432,-0.865c0.357,-0.119 0.746,0.075 0.865,0.432l3.456,10.248l32.747,-18.017l0.111,-0.222l-41.52,-7.447l3.966,11.762c0.121,0.358 -0.073,0.748 -0.43,0.869c-0.358,0.12 -0.749,-0.073 -0.869,-0.431l-4.335,-12.857l0.002,-0.001c-0.035,-0.106 -0.047,-0.221 -0.025,-0.339c0.067,-0.37 0.423,-0.617 0.793,-0.552l43.497,7.801c0.082,0.009 0.164,0.03 0.243,0.07c0.339,0.168 0.478,0.579 0.31,0.918l-0.609,1.229l-0.001,-0.001c-0.06,0.121 -0.157,0.226 -0.284,0.296l-33.653,18.516l-0.001,-0.002c-0.035,0.019 -0.074,0.036 -0.113,0.049c-0.358,0.119 -0.746,-0.075 -0.865,-0.432l-3.717,-11.024Z" style="fill:#6b6b6b;fill-rule:nonzero;"/><path d="M508.681,26.477c0.365,0.092 0.587,0.465 0.494,0.83c-0.093,0.365 -0.466,0.587 -0.831,0.494l-4.696,-1.206c-0.365,-0.093 -0.587,-0.466 -0.494,-0.831c0.047,-0.184 0.164,-0.331 0.315,-0.42l-0.001,-0.003l9.445,-5.578c0.222,-0.132 0.489,-0.124 0.698,-0.001l26.662,12.854c0.34,0.162 0.485,0.571 0.321,0.911c-0.162,0.34 -0.571,0.484 -0.911,0.322l-26.386,-12.72l-7.709,4.554l3.093,0.793Z" style="fill:#6b6b6b;fill-rule:nonzero;"/><path d="M511.635,23.935c0.095,-0.365 0.47,-0.584 0.834,-0.489c0.364,0.095 0.584,0.469 0.489,0.834l-2.696,10.473l37.274,2.772l0.214,-0.126l-30.731,-28.897l-3.094,12.021c-0.094,0.366 -0.469,0.587 -0.835,0.493c-0.366,-0.094 -0.587,-0.469 -0.493,-0.835l3.384,-13.14l0.002,0.001c0.028,-0.108 0.081,-0.211 0.164,-0.298c0.258,-0.273 0.691,-0.287 0.965,-0.03l32.194,30.273c0.064,0.052 0.12,0.115 0.166,0.191c0.192,0.326 0.084,0.746 -0.242,0.939l-1.18,0.697l-0.001,-0.002c-0.117,0.069 -0.255,0.105 -0.399,0.094l-38.305,-2.848l0,-0.002c-0.04,-0.003 -0.082,-0.01 -0.122,-0.021c-0.364,-0.095 -0.584,-0.469 -0.489,-0.834l2.901,-11.266Z" style="fill:#6b6b6b;fill-rule:nonzero;"/><path d="M267.499,156c0,0 19.5,-28.5 57.5,-37c38,-8.5 66.706,5.203 66.706,5.203" style="fill:none;stroke:#c3c3c3;stroke-width:3px;stroke-dasharray:7,11;"/><path d="M267.732,155.646c0,0 5.768,-54.646 68.269,-101.646c62.5,-47 160.5,-34.5 160.5,-34.5" style="fill:none;stroke:#c3c3c3;stroke-width:3px;stroke-dasharray:7,11;"/></svg>