<svg width="1449" height="1157" viewBox="0 0 1449 1157" fill="none" xmlns="http://www.w3.org/2000/svg">
<path d="M985.398 1063H966.398V1093.32H985.398V1063Z" fill="#DE8E68"/>
<path d="M1129.4 1105.76H1109.4V1136.09H1129.4V1105.76Z" fill="#DE8E68"/>
<path d="M1024 709C1000.83 709 964.822 874.715 955.803 891.391C946.785 908.066 966.032 1063 966.032 1063H984.977L1007.91 921.117C1014.39 901.878 1029.4 844.422 1056.95 812.316C1091.27 785.49 1053.69 725.676 1053.69 725.676L1024 709Z" fill="#3F939D"/>
<path d="M985.208 566.292C973.811 576.672 951.019 602.686 949.14 606.018C943.379 603.198 883.393 570.905 878.884 568.855C874.376 566.804 864.858 550.529 861.602 550.529C859.723 550.529 857.97 554.246 857.97 556.809C857.97 561.166 859.974 564.497 861.226 565.907C856.968 565.266 819.398 562.319 819.398 564.882C819.398 571.546 861.477 580.388 864.733 582.182C867.989 583.976 936.492 648.819 960.286 648.819C969.553 648.819 1010.5 620.37 1010.5 617.295C1014.39 614.604 1020.4 610.631 1020.4 610.631V588.077L1006.12 577.44C1006.12 577.312 987.462 564.241 985.208 566.292Z" fill="#DE8E68"/>
<path d="M984.406 559.435C986.905 538.835 1033.51 492.04 1054.88 512.894C1073.5 531.078 1039.76 596.057 1031.14 598.6C1021.39 599.617 983.781 573.422 984.406 559.435Z" fill="#FEBF92"/>
<path d="M1126.9 516.202C1150.63 506.042 1183.85 561.922 1180.11 582.242C1180.11 591.132 1131.4 610.182 1123.9 605.102C1116.41 600.022 1103.17 526.362 1126.9 516.202Z" fill="#FED892"/>
<path d="M1030.4 717.002L1109.83 1105.76H1130.19L1137.4 758.995C1137.4 753.015 1136.89 715.347 1136.89 710.512C1113.87 717.256 1064.8 722.601 1030.4 717.002Z" fill="#74D5DE"/>
<path d="M1110.18 1136.09H1129.4V1157H1076.4L1110.18 1136.09Z" fill="black"/>
<path d="M966.183 1093.32H985.398V1114.24H932.398L966.183 1093.32Z" fill="black"/>
<path d="M1074.57 485.701C1133.75 485.701 1154.4 535.647 1154.4 551.87C1154.4 568.093 1135.89 667.091 1136.64 711.162C1136.77 718.443 1030.5 724.957 1016.02 714.355C1009.22 709.373 994.614 485.701 1074.57 485.701Z" fill="#FECC92"/>
<path d="M1180.69 581.898C1197.39 607.865 1196.39 667.691 1196.39 676.729C1196.39 685.766 1134.1 766.976 1128.7 766.976C1125.44 763.667 1116.4 753.611 1116.4 750.556C1119.29 745.21 1156.33 663.109 1162.98 657.253C1159.97 653.562 1133.48 611.429 1132.35 604.429C1155.58 600.483 1178.05 590.554 1180.69 581.898Z" fill="#DE8E68"/>
<path d="M1180.08 582.259C1183.84 561.826 1153.38 502.572 1126.69 515.853C1103.5 527.474 1116.16 600.137 1123.68 605.245C1132.7 609.204 1176.57 595.795 1180.08 582.259Z" fill="#FED892"/>
<path d="M1059.68 473.722C1058.43 477.699 1057.8 490.012 1059.18 495.528C1059.3 495.785 1084.19 497.709 1086.94 493.219C1087.07 489.499 1093.07 456.406 1101.2 446.144C1101.95 444.99 1100.32 441.783 1100.32 441.783L1071.43 454.097L1059.68 473.722Z" fill="#D38466"/>
<path d="M1097.22 445.395C1099.1 447.952 1101.48 449.103 1103.61 449.103C1108.37 449.103 1119.4 444.627 1119.4 428.642C1119.4 417.132 1108.37 411.25 1108.37 405.751C1108.37 400.508 1109.75 400.38 1109.75 396.032C1109.75 393.858 1107.62 386.696 1100.98 386.696C1097.22 386.696 1095.84 389.893 1092.08 389.893C1087.94 389.893 1084.19 381.709 1077.92 381.709C1073.66 381.709 1069.65 385.801 1065.14 385.801C1060 385.801 1056.49 378 1049.35 378C1041.95 378 1039.32 384.778 1036.44 384.778C1032.81 384.778 1032.18 383.755 1028.55 383.755C1026.29 383.755 1019.4 387.847 1019.4 395.264C1019.4 400.508 1021.53 409.076 1032.18 409.076C1038.45 409.076 1041.95 419.179 1047.47 419.179C1049.6 419.179 1051.48 417.388 1051.98 418.283C1054.11 422.12 1058.5 432.606 1058.5 432.606L1078.42 443.988L1097.22 445.395Z" fill="#FD8369"/>
<path d="M1093.1 439.887C1093.1 441.652 1092.47 442.03 1089.82 442.03C1088.56 442.03 1086.8 440.391 1086.8 438.625C1086.8 434.464 1089.82 433.581 1089.82 428.159C1089.82 418.953 1065.74 414.161 1057.3 409.369C1054.27 412.396 1052.13 416.305 1051.25 420.719L1045.82 448.588C1043.43 460.694 1051.37 472.422 1063.35 474.818C1075.33 477.214 1087.18 469.269 1089.57 457.289L1090.45 452.497C1090.96 452.623 1091.46 452.749 1091.84 452.749C1094.99 452.749 1097.39 449.849 1097.39 446.318C1097.64 443.039 1093.1 437.238 1093.1 439.887Z" fill="#DE8E68"/>
<path d="M1280.4 728H1261.4V758.323H1280.4V728Z" fill="#DE8E68"/>
<path d="M1416.09 725L1396.32 728.086L1401 758.046L1420.76 754.96L1416.09 725Z" fill="#DE8E68"/>
<path d="M1401.78 757.926L1420.76 754.961L1423.99 775.623L1371.63 783.801L1401.78 757.926Z" fill="black"/>
<path d="M1261.18 758.322H1280.4V779.235H1227.4L1261.18 758.322Z" fill="black"/>
<path d="M1278.81 391.896C1255.68 393.3 1248.57 555.258 1240.58 572.543C1232.59 589.828 1261.24 744.186 1261.24 744.186L1280.15 743.039L1294.4 599.227C1299.7 579.523 1306.62 513.436 1317.99 493.61C1350.61 464.604 1309.46 406.838 1309.46 406.838L1278.81 391.896Z" fill="#3F939D"/>
<path d="M1270.21 362.735L1397.32 738.614L1417.53 736.083L1381.59 391.108C1380.85 385.173 1375.67 347.861 1375.07 343.063C1353.07 352.615 1305.04 364.016 1270.21 362.735Z" fill="#74D5DE"/>
<path d="M1278.59 181.643C1334.25 170.405 1378.55 343.307 1375.73 353.405C1372.4 365.499 1295.4 401.192 1270.49 395.077C1258.04 392.029 1185.48 200.436 1278.59 181.643Z" fill="#FED385"/>
<path d="M1279.16 181.55C1334.8 170.32 1381.34 341.518 1376.22 352.935C1371.09 364.352 1282.26 400.703 1271.03 394.548C1259.8 388.394 1186.08 200.332 1279.16 181.55Z" fill="#FED385"/>
<path d="M1235.91 242.463C1231.63 243.179 1210.72 253.134 1194.5 266.568C1142.51 233.07 1124.95 196.424 1100.96 201.128C1089.58 203.033 1079.67 206.335 1081.17 215.293C1082.67 224.252 1094.41 229.444 1111.28 226.621C1116 237.512 1168.44 318.901 1195.48 314.378C1214.22 311.243 1263.49 281.561 1262.71 276.879C1261.93 272.197 1239.48 241.866 1235.91 242.463Z" fill="#DE8E68"/>
<path d="M1288.66 218.392C1299.27 227.821 1269.34 286.987 1260.46 288.173C1251.58 289.36 1214.32 256.553 1215.44 245.169C1216.56 233.785 1272.61 204.131 1288.66 218.392Z" fill="#FED892"/>
<path d="M1282.32 138.835C1282.6 140.5 1289.39 176.937 1296.24 187.01C1296.77 190.191 1261.07 198.301 1260.05 192.248L1255.6 165.646" fill="#D37C59"/>
<path d="M1257.37 168.565C1273.16 165.924 1282.66 144.024 1278.58 119.651C1274.5 95.2782 1258.4 77.6614 1242.61 80.3029C1226.82 82.9445 1217.32 104.844 1221.4 129.217C1225.47 153.59 1241.58 171.207 1257.37 168.565Z" fill="#DE8E68"/>
<path d="M1278.94 141.957L1278.2 142.08L1274.68 120.993C1271.99 118.453 1249.63 115.465 1244.14 114.143C1238.64 112.82 1229.36 111.383 1222.03 103.639C1221.02 105.863 1219.54 116.382 1220.09 124.854C1217.53 123.041 1213.47 120.021 1211.52 108.387C1207.99 87.3004 1227.19 71.3829 1245.52 68.3168C1274.84 63.4112 1296.69 90.4022 1298.88 103.49C1302.04 122.395 1291.4 139.872 1278.94 141.957Z" fill="black"/>
<path d="M1275.59 136.125C1280.05 135.379 1283.06 131.156 1282.31 126.693C1281.57 122.231 1277.35 119.218 1272.88 119.965C1268.42 120.711 1265.41 124.934 1266.15 129.397C1266.9 133.859 1271.12 136.872 1275.59 136.125Z" fill="#DE8E68"/>
<path d="M1303.18 21.6083C1307.9 20.8196 1347.36 27.1353 1357.19 25.4908C1367.02 23.8463 1386.09 18.2361 1392.39 17.1825C1404.75 15.1144 1436.45 24.4226 1440.6 49.2835C1443.5 66.608 1431.68 78.4533 1417.88 88.6138C1412.5 92.563 1409.4 106.073 1388.44 109.58C1354.63 115.235 1327.15 71.0876 1296.74 76.1737C1293.2 76.7658 1282.04 80.2362 1282.76 84.5072C1283.47 88.7782 1275.1 83.5998 1274.77 81.5955C1271.95 64.5503 1276.21 26.1206 1303.18 21.6083Z" fill="black"/>
<path d="M712.701 185.908L713.14 187.863L712.701 185.908ZM921.219 156.029C922.082 155.275 922.265 153.974 921.63 153.124L911.271 139.256C910.635 138.405 909.42 138.327 908.558 139.08C907.696 139.834 907.512 141.135 908.147 141.986L917.356 154.312L904.863 165.23C904.001 165.984 903.817 167.285 904.452 168.136C905.088 168.987 906.303 169.066 907.165 168.312L921.219 156.029ZM524.701 296.989C525.921 298.467 525.921 298.467 525.921 298.467C525.921 298.467 525.921 298.467 525.921 298.467C525.921 298.467 525.921 298.467 525.921 298.467C525.921 298.467 525.922 298.466 525.922 298.466C525.923 298.465 525.925 298.463 525.927 298.461C525.932 298.456 525.94 298.449 525.95 298.439C525.971 298.42 526.003 298.389 526.046 298.349C526.133 298.268 526.263 298.146 526.437 297.984C526.786 297.66 527.309 297.178 528.003 296.55C529.389 295.293 531.456 293.451 534.162 291.123L531.886 288.018C529.149 290.374 527.054 292.241 525.64 293.522C524.933 294.163 524.397 294.657 524.035 294.993C523.854 295.16 523.718 295.288 523.625 295.375C523.579 295.419 523.544 295.452 523.52 295.474C523.508 295.486 523.499 295.494 523.492 295.501C523.489 295.504 523.487 295.506 523.485 295.508C523.484 295.508 523.483 295.509 523.483 295.51C523.482 295.51 523.482 295.51 523.482 295.51C523.482 295.51 523.482 295.51 523.482 295.511C523.482 295.511 523.482 295.511 524.701 296.989ZM551.359 277.034C556.532 272.98 562.435 268.506 569.01 263.75L567.028 260.414C560.404 265.205 554.456 269.714 549.241 273.8L551.359 277.034ZM587.13 251.142C592.953 247.246 599.136 243.255 605.655 239.23L603.936 235.718C597.37 239.772 591.143 243.792 585.278 247.716L587.13 251.142ZM624.486 228.077C630.654 224.577 637.057 221.094 643.679 217.666L642.238 213.996C635.566 217.45 629.116 220.959 622.903 224.484L624.486 228.077ZM663.187 208.055C669.617 205.047 676.218 202.117 682.978 199.295L681.846 195.481C675.031 198.326 668.377 201.28 661.896 204.311L663.187 208.055ZM703.026 191.437C706.365 190.214 709.736 189.021 713.14 187.863L712.262 183.952C708.829 185.121 705.428 186.324 702.061 187.558L703.026 191.437ZM713.14 187.863C716.537 186.706 719.921 185.591 723.29 184.516L722.485 180.582C719.093 181.664 715.684 182.787 712.262 183.952L713.14 187.863ZM743.708 178.42C750.66 176.484 757.52 174.713 764.266 173.094L763.739 169.082C756.949 170.712 750.043 172.494 743.045 174.443L743.708 178.42ZM784.932 168.514C792.018 167.073 798.94 165.795 805.668 164.663L805.4 160.598C798.631 161.737 791.666 163.023 784.536 164.473L784.932 168.514ZM826.423 161.527C833.682 160.554 840.64 159.75 847.251 159.088L847.232 154.99C840.581 155.656 833.582 156.464 826.28 157.443L826.423 161.527ZM868.059 157.36C875.704 156.857 882.654 156.549 888.803 156.37L889.045 152.255C882.853 152.435 875.859 152.746 868.167 153.251L868.059 157.36ZM909.547 156.205C912.87 156.257 915.434 156.342 917.165 156.414C918.03 156.45 918.686 156.482 919.125 156.505C919.344 156.517 919.509 156.527 919.618 156.533C919.673 156.536 919.714 156.539 919.74 156.54C919.754 156.541 919.763 156.542 919.77 156.542C919.773 156.543 919.775 156.543 919.776 156.543C919.777 156.543 919.778 156.543 919.778 156.543C919.778 156.543 919.778 156.543 919.778 156.543C919.778 156.543 919.778 156.543 919.778 156.543C919.778 156.543 919.778 156.543 920.068 154.488C920.358 152.434 920.358 152.434 920.358 152.434C920.358 152.434 920.358 152.434 920.358 152.434C920.358 152.434 920.358 152.434 920.357 152.434C920.357 152.434 920.356 152.434 920.355 152.433C920.352 152.433 920.349 152.433 920.345 152.433C920.337 152.432 920.326 152.432 920.311 152.431C920.281 152.429 920.237 152.426 920.179 152.423C920.063 152.416 919.891 152.406 919.665 152.394C919.212 152.37 918.541 152.337 917.661 152.3C915.902 152.227 913.307 152.142 909.952 152.089L909.547 156.205ZM712.701 185.908L713.578 189.818L712.701 185.908ZM922.37 157.57C924.095 156.062 924.463 153.461 923.191 151.759L902.473 124.024C901.202 122.323 898.773 122.165 897.048 123.672C895.323 125.18 894.955 127.782 896.227 129.484L914.643 154.136L889.658 175.973C887.933 177.48 887.565 180.082 888.837 181.784C890.108 183.486 892.537 183.643 894.262 182.136L922.37 157.57ZM524.701 296.989C527.141 299.945 527.141 299.945 527.141 299.945C527.141 299.945 527.141 299.945 527.141 299.945C527.14 299.945 527.14 299.946 527.14 299.946C527.14 299.946 527.141 299.945 527.141 299.945C527.142 299.945 527.143 299.943 527.145 299.941C527.149 299.937 527.156 299.931 527.166 299.922C527.185 299.904 527.215 299.875 527.257 299.836C527.34 299.758 527.467 299.638 527.639 299.48C527.981 299.162 528.498 298.686 529.184 298.064C530.557 296.819 532.609 294.99 535.3 292.675L530.748 286.466C527.996 288.835 525.886 290.715 524.459 292.008C523.745 292.655 523.202 293.156 522.834 293.497C522.65 293.668 522.51 293.799 522.415 293.889C522.367 293.933 522.33 293.968 522.305 293.992C522.292 294.004 522.282 294.014 522.275 294.02C522.271 294.024 522.268 294.026 522.266 294.028C522.265 294.029 522.264 294.03 522.263 294.031C522.263 294.031 522.263 294.032 522.262 294.032C522.262 294.032 522.262 294.032 522.262 294.032C522.262 294.032 522.262 294.033 524.701 296.989ZM552.418 278.651C557.57 274.614 563.45 270.157 570.002 265.418L566.036 258.746C559.388 263.555 553.418 268.08 548.182 272.183L552.418 278.651ZM588.055 252.856C593.858 248.974 600.019 244.997 606.515 240.986L603.076 233.962C596.487 238.03 590.237 242.064 584.352 246.002L588.055 252.856ZM625.277 229.873C631.423 226.387 637.802 222.916 644.399 219.501L641.518 212.161C634.821 215.628 628.347 219.15 622.111 222.688L625.277 229.873ZM663.832 209.927C670.237 206.931 676.812 204.012 683.544 201.202L681.28 193.574C674.437 196.431 667.757 199.396 661.251 202.439L663.832 209.927ZM703.508 193.377C706.833 192.159 710.19 190.972 713.578 189.818L711.823 181.997C708.375 183.171 704.96 184.379 701.578 185.618L703.508 193.377ZM713.578 189.818C716.963 188.666 720.336 187.555 723.692 186.483L722.083 178.614C718.678 179.701 715.258 180.828 711.823 181.997L713.578 189.818ZM744.04 180.408C750.968 178.479 757.806 176.714 764.53 175.1L763.475 167.076C756.663 168.711 749.735 170.499 742.713 172.455L744.04 180.408ZM785.13 170.535C792.194 169.098 799.095 167.824 805.802 166.695L805.266 158.566C798.477 159.708 791.491 160.998 784.338 162.453L785.13 170.535ZM826.494 163.569C833.731 162.599 840.669 161.797 847.261 161.137L847.223 152.94C840.552 153.609 833.532 154.42 826.208 155.401L826.494 163.569ZM868.005 159.414C875.627 158.913 882.554 158.606 888.682 158.427L889.165 150.197C882.953 150.378 875.936 150.69 868.22 151.197L868.005 159.414ZM909.345 158.263C912.652 158.315 915.201 158.4 916.916 158.471C917.774 158.506 918.424 158.538 918.855 158.561C919.071 158.573 919.233 158.582 919.338 158.588C919.391 158.591 919.43 158.594 919.455 158.595C919.468 158.596 919.476 158.597 919.482 158.597C919.485 158.597 919.486 158.597 919.487 158.597C919.488 158.597 919.488 158.597 919.488 158.597C919.488 158.597 919.488 158.597 919.488 158.597C919.488 158.597 919.488 158.597 919.488 158.597C919.488 158.597 919.488 158.597 920.068 154.488C920.649 150.379 920.649 150.379 920.648 150.379C920.648 150.379 920.648 150.379 920.648 150.379C920.648 150.379 920.647 150.379 920.647 150.379C920.646 150.379 920.645 150.379 920.644 150.379C920.641 150.379 920.638 150.378 920.633 150.378C920.624 150.378 920.612 150.377 920.596 150.376C920.565 150.374 920.519 150.371 920.459 150.368C920.34 150.361 920.164 150.35 919.935 150.338C919.475 150.314 918.797 150.28 917.91 150.243C916.136 150.17 913.525 150.084 910.154 150.031L909.345 158.263Z" fill="#DFDFDF"/>
<path d="M621.264 356.485L621.146 358.481L621.264 356.485ZM714.659 386.456C715.735 386.202 716.405 385.124 716.156 384.049L712.087 366.536C711.837 365.462 710.762 364.797 709.686 365.051C708.61 365.306 707.94 366.383 708.19 367.458L711.806 383.025L696.218 386.711C695.142 386.966 694.472 388.043 694.722 389.118C694.971 390.193 696.046 390.858 697.122 390.603L714.659 386.456ZM526.579 378.874C527.596 380.591 527.596 380.591 527.596 380.591C527.596 380.591 527.596 380.591 527.596 380.591C527.596 380.591 527.596 380.591 527.596 380.591C527.596 380.591 527.596 380.591 527.597 380.591C527.598 380.59 527.6 380.589 527.603 380.587C527.609 380.583 527.619 380.578 527.632 380.57C527.66 380.553 527.703 380.528 527.76 380.495C527.876 380.428 528.051 380.327 528.285 380.196C528.752 379.932 529.452 379.546 530.369 379.059C532.206 378.086 534.913 376.714 538.377 375.133L536.729 371.496C533.187 373.113 530.407 374.52 528.508 375.527C527.558 376.031 526.828 376.435 526.332 376.714C526.084 376.854 525.894 376.963 525.765 377.037C525.701 377.075 525.651 377.104 525.617 377.124C525.6 377.134 525.587 377.142 525.578 377.147C525.573 377.15 525.569 377.152 525.566 377.154C525.565 377.155 525.564 377.155 525.563 377.156C525.563 377.156 525.562 377.156 525.562 377.156C525.562 377.156 525.562 377.157 525.561 377.157C525.561 377.157 525.561 377.157 526.579 378.874ZM561.157 366.461C568.242 364.259 576.21 362.225 584.831 360.734L584.166 356.793C575.352 358.318 567.214 360.396 559.986 362.642L561.157 366.461ZM609.001 358.309C612.979 358.208 617.032 358.256 621.146 358.481L621.383 354.488C617.157 354.257 612.996 354.207 608.918 354.311L609.001 358.309ZM621.146 358.481C625.247 358.706 629.278 359.069 633.223 359.548L633.723 355.578C629.695 355.089 625.576 354.717 621.383 354.488L621.146 358.481ZM657.052 363.939C665.53 366.023 673.33 368.491 680.249 371.012L681.634 367.254C674.597 364.689 666.659 362.178 658.024 360.055L657.052 363.939ZM702.558 380.514C705.968 382.196 708.627 383.627 710.428 384.635C711.328 385.138 712.014 385.536 712.472 385.806C712.701 385.941 712.873 386.045 712.987 386.113C713.043 386.147 713.085 386.173 713.112 386.19C713.126 386.198 713.136 386.204 713.142 386.208C713.145 386.209 713.147 386.211 713.148 386.212C713.149 386.212 713.149 386.212 713.149 386.212C713.149 386.212 713.149 386.212 713.149 386.212C713.149 386.212 713.149 386.212 713.149 386.212C713.149 386.212 713.149 386.212 714.207 384.51C715.265 382.808 715.265 382.808 715.265 382.808C715.265 382.808 715.265 382.808 715.264 382.808C715.264 382.808 715.264 382.808 715.263 382.807C715.263 382.807 715.261 382.806 715.26 382.805C715.258 382.804 715.254 382.802 715.25 382.799C715.241 382.793 715.228 382.785 715.211 382.775C715.178 382.755 715.131 382.726 715.068 382.688C714.943 382.612 714.758 382.502 714.517 382.36C714.034 382.075 713.322 381.662 712.394 381.142C710.538 380.104 707.818 378.64 704.341 376.926L702.558 380.514ZM621.264 356.485L621.028 360.478L621.264 356.485ZM715.111 388.402C717.264 387.893 718.603 385.738 718.104 383.589L709.966 348.562C709.467 346.413 707.317 345.083 705.165 345.592C703.013 346.101 701.673 348.256 702.172 350.406L709.406 381.54L678.229 388.912C676.077 389.421 674.737 391.576 675.236 393.726C675.736 395.875 677.885 397.205 680.038 396.696L715.111 388.402ZM526.579 378.874C528.614 382.308 528.613 382.308 528.613 382.308C528.613 382.308 528.613 382.309 528.613 382.309C528.612 382.309 528.612 382.309 528.612 382.309C528.612 382.309 528.611 382.309 528.612 382.309C528.612 382.309 528.613 382.308 528.615 382.307C528.62 382.304 528.628 382.299 528.64 382.292C528.664 382.278 528.703 382.255 528.758 382.224C528.866 382.161 529.035 382.064 529.261 381.937C529.714 381.681 530.398 381.303 531.3 380.825C533.105 379.868 535.777 378.514 539.2 376.951L535.905 369.678C532.323 371.312 529.508 372.738 527.577 373.762C526.611 374.274 525.866 374.686 525.355 374.973C525.1 375.117 524.904 375.23 524.768 375.309C524.7 375.348 524.647 375.379 524.61 375.401C524.591 375.412 524.576 375.421 524.565 375.427C524.56 375.43 524.555 375.433 524.551 375.435C524.55 375.436 524.548 375.437 524.547 375.438C524.546 375.438 524.546 375.439 524.545 375.439C524.545 375.439 524.544 375.439 524.544 375.439C524.544 375.44 524.544 375.44 526.579 378.874ZM561.743 368.37C568.756 366.191 576.639 364.179 585.163 362.704L583.833 354.823C574.923 356.364 566.7 358.464 559.4 360.733L561.743 368.37ZM609.043 360.308C612.97 360.208 616.97 360.256 621.028 360.478L621.501 352.491C617.22 352.257 613.005 352.207 608.876 352.312L609.043 360.308ZM621.028 360.478C625.083 360.7 629.069 361.059 632.973 361.533L633.973 353.593C629.903 353.099 625.741 352.723 621.501 352.491L621.028 360.478ZM656.566 365.881C664.966 367.946 672.697 370.391 679.556 372.891L682.326 365.375C675.23 362.789 667.223 360.255 658.51 358.113L656.566 365.881ZM701.667 382.309C705.043 383.973 707.671 385.388 709.445 386.381C710.332 386.877 711.005 387.267 711.45 387.53C711.673 387.661 711.839 387.761 711.946 387.826C712 387.858 712.039 387.882 712.063 387.897C712.075 387.904 712.083 387.909 712.088 387.912C712.09 387.913 712.092 387.914 712.092 387.915C712.092 387.915 712.092 387.915 712.092 387.915C712.092 387.915 712.092 387.914 712.092 387.914C712.092 387.914 712.091 387.914 712.091 387.914C712.091 387.914 712.091 387.914 714.207 384.51C716.323 381.107 716.323 381.106 716.323 381.106C716.323 381.106 716.322 381.106 716.322 381.106C716.322 381.106 716.321 381.105 716.32 381.105C716.319 381.104 716.318 381.103 716.316 381.102C716.313 381.1 716.309 381.098 716.303 381.094C716.293 381.088 716.279 381.079 716.261 381.068C716.225 381.046 716.174 381.015 716.109 380.976C715.977 380.896 715.787 380.782 715.539 380.636C715.044 380.344 714.319 379.923 713.377 379.396C711.493 378.343 708.743 376.863 705.232 375.132L701.667 382.309Z" fill="#DFDFDF"/>
<path d="M727.398 556.001V407.002H811.398L852.387 448V556.001H727.398Z" fill="#DFDFDF"/>
<path d="M811.408 407L852.398 447.968H815.763C815.763 447.968 814.056 448.253 812.633 447.115C811.21 445.977 811.408 443.701 811.408 443.701V407Z" fill="#B4B4B4"/>
<path d="M943.399 307.001V158.002H1027.4L1068.39 199V307.001H943.399Z" fill="#DFDFDF"/>
<path d="M1027.41 158L1068.4 198.968H1031.76C1031.76 198.968 1030.06 199.253 1028.63 198.115C1027.21 196.977 1027.41 194.701 1027.41 194.701V158Z" fill="#B4B4B4"/>
<path d="M-6.10352e-05 776V78.002H393.031L504.604 189.593V776H-6.10352e-05Z" fill="#F3F3F3"/>
<path d="M86.1581 201.541L70.7747 186.339C70.7747 186.339 72.7174 185.482 74.3229 183.498C76.506 180.862 76.7314 177.945 76.7314 177.945L93.3833 194.401L86.1581 201.541Z" fill="#96CA2C"/>
<path d="M93.3832 161.49L76.7171 177.96C76.7171 177.96 77.1326 175.169 76.0087 172.71C74.7243 169.616 72.2234 168.12 72.2234 168.12L86.158 154.35L93.3832 161.49Z" fill="#96CA2C"/>
<path d="M71.9144 182.706C75.2397 179.42 75.3295 174.181 72.1151 171.004C68.9007 167.827 63.5992 167.916 60.2739 171.202C56.9486 174.488 56.8587 179.728 60.0732 182.904C63.2876 186.081 68.5891 185.992 71.9144 182.706Z" fill="#B4E654"/>
<path d="M136.735 204.332L121.351 219.534C121.351 219.534 120.484 217.614 118.477 216.028C115.809 213.87 112.858 213.647 112.858 213.647L129.509 197.191L136.735 204.332Z" fill="#E48AE0"/>
<path d="M96.2054 197.191L112.872 213.661C112.872 213.661 110.048 213.251 107.559 214.361C104.428 215.631 102.915 218.102 102.915 218.102L88.9802 204.332L96.2054 197.191Z" fill="#E48AE0"/>
<path d="M117.675 218.408C114.349 215.121 109.048 215.033 105.834 218.209C102.619 221.386 102.709 226.625 106.034 229.911C109.359 233.197 114.661 233.286 117.875 230.11C121.09 226.933 121 221.694 117.675 218.408Z" fill="#EB65E5"/>
<path d="M139.556 154.354L154.94 169.556C154.94 169.556 152.997 170.413 151.391 172.396C149.208 175.033 148.983 177.95 148.983 177.95L132.331 161.494L139.556 154.354Z" fill="#F0DC0A"/>
<path d="M132.331 194.405L148.997 177.936C148.997 177.936 148.581 180.726 149.705 183.186C150.99 186.28 153.491 187.775 153.491 187.775L139.556 201.546L132.331 194.405Z" fill="#F0DC0A"/>
<path d="M153.801 173.185C150.476 176.471 150.386 181.71 153.6 184.887C156.815 188.063 162.116 187.975 165.441 184.688C168.767 181.402 168.857 176.163 165.642 172.986C162.428 169.81 157.126 169.899 153.801 173.185Z" fill="#EFF309"/>
<path d="M88.9802 151.562L104.364 136.359C104.364 136.359 105.231 138.279 107.238 139.866C109.906 142.023 112.857 142.246 112.857 142.246L96.2054 158.702L88.9802 151.562Z" fill="#FF9900"/>
<path d="M129.509 158.7L112.843 142.23C112.843 142.23 115.667 142.641 118.156 141.53C121.286 140.261 122.8 137.789 122.8 137.789L136.734 151.56L129.509 158.7Z" fill="#FF9900"/>
<path d="M108.041 137.489C111.366 140.775 116.667 140.864 119.882 137.687C123.096 134.511 123.006 129.271 119.681 125.985C116.356 122.699 111.054 122.61 107.84 125.787C104.625 128.964 104.715 134.203 108.041 137.489Z" fill="#FFBB55"/>
<path d="M393.029 78L504.648 189.618H404.889C404.889 189.618 400.242 190.394 396.367 187.293C392.491 184.193 393.029 177.992 393.029 177.992V78Z" fill="#D0D0D0"/>
<path d="M-6.10352e-05 776V78.002H393.031L504.604 189.593V776H-6.10352e-05Z" fill="#F3F3F3"/>
<path d="M86.1581 201.541L70.7747 186.339C70.7747 186.339 72.7174 185.482 74.3229 183.498C76.506 180.862 76.7314 177.945 76.7314 177.945L93.3833 194.401L86.1581 201.541Z" fill="#96CA2C"/>
<path d="M93.3832 161.49L76.7171 177.96C76.7171 177.96 77.1326 175.169 76.0087 172.71C74.7243 169.616 72.2234 168.12 72.2234 168.12L86.158 154.35L93.3832 161.49Z" fill="#96CA2C"/>
<path d="M71.9144 182.706C75.2397 179.42 75.3295 174.181 72.1151 171.004C68.9007 167.827 63.5992 167.916 60.2739 171.202C56.9486 174.488 56.8587 179.728 60.0732 182.904C63.2876 186.081 68.5891 185.992 71.9144 182.706Z" fill="#B4E654"/>
<path d="M136.735 204.332L121.351 219.534C121.351 219.534 120.484 217.614 118.477 216.028C115.809 213.87 112.858 213.647 112.858 213.647L129.509 197.191L136.735 204.332Z" fill="#E48AE0"/>
<path d="M96.2054 197.191L112.872 213.661C112.872 213.661 110.048 213.251 107.559 214.361C104.428 215.631 102.915 218.102 102.915 218.102L88.9802 204.332L96.2054 197.191Z" fill="#E48AE0"/>
<path d="M117.675 218.408C114.349 215.121 109.048 215.033 105.834 218.209C102.619 221.386 102.709 226.625 106.034 229.911C109.359 233.197 114.661 233.286 117.875 230.11C121.09 226.933 121 221.694 117.675 218.408Z" fill="#EB65E5"/>
<path d="M139.556 154.354L154.94 169.556C154.94 169.556 152.997 170.413 151.391 172.396C149.208 175.033 148.983 177.95 148.983 177.95L132.331 161.494L139.556 154.354Z" fill="#F0DC0A"/>
<path d="M132.331 194.405L148.997 177.936C148.997 177.936 148.581 180.726 149.705 183.186C150.99 186.28 153.491 187.775 153.491 187.775L139.556 201.546L132.331 194.405Z" fill="#F0DC0A"/>
<path d="M153.801 173.185C150.476 176.471 150.386 181.71 153.6 184.887C156.815 188.063 162.116 187.975 165.441 184.688C168.767 181.402 168.857 176.163 165.642 172.986C162.428 169.81 157.126 169.899 153.801 173.185Z" fill="#EFF309"/>
<path d="M88.9802 151.562L104.364 136.359C104.364 136.359 105.231 138.279 107.238 139.866C109.906 142.023 112.857 142.246 112.857 142.246L96.2054 158.702L88.9802 151.562Z" fill="#FF9900"/>
<path d="M129.509 158.7L112.843 142.23C112.843 142.23 115.667 142.641 118.156 141.53C121.286 140.261 122.8 137.789 122.8 137.789L136.734 151.56L129.509 158.7Z" fill="#FF9900"/>
<path d="M108.041 137.489C111.366 140.775 116.667 140.864 119.882 137.687C123.096 134.511 123.006 129.271 119.681 125.985C116.356 122.699 111.054 122.61 107.84 125.787C104.625 128.964 104.715 134.203 108.041 137.489Z" fill="#FFBB55"/>
<path d="M393.029 78L504.648 189.618H404.889C404.889 189.618 400.242 190.394 396.367 187.293C392.491 184.193 393.029 177.992 393.029 177.992V78Z" fill="#D0D0D0"/>
<path d="M-6.10352e-05 776V78.002H393.031L504.604 189.593V776H-6.10352e-05Z" fill="#F3F3F3"/>
<path d="M86.1581 201.541L70.7747 186.339C70.7747 186.339 72.7174 185.482 74.3229 183.498C76.506 180.862 76.7314 177.945 76.7314 177.945L93.3833 194.401L86.1581 201.541Z" fill="#96CA2C"/>
<path d="M93.3832 161.49L76.7171 177.96C76.7171 177.96 77.1326 175.169 76.0087 172.71C74.7243 169.616 72.2234 168.12 72.2234 168.12L86.158 154.35L93.3832 161.49Z" fill="#96CA2C"/>
<path d="M71.9144 182.706C75.2397 179.42 75.3295 174.181 72.1151 171.004C68.9007 167.827 63.5992 167.916 60.2739 171.202C56.9486 174.488 56.8587 179.728 60.0732 182.904C63.2876 186.081 68.5891 185.992 71.9144 182.706Z" fill="#B4E654"/>
<path d="M136.735 204.332L121.351 219.534C121.351 219.534 120.484 217.614 118.477 216.028C115.809 213.87 112.858 213.647 112.858 213.647L129.509 197.191L136.735 204.332Z" fill="#E48AE0"/>
<path d="M96.2054 197.191L112.872 213.661C112.872 213.661 110.048 213.251 107.559 214.361C104.428 215.631 102.915 218.102 102.915 218.102L88.9802 204.332L96.2054 197.191Z" fill="#E48AE0"/>
<path d="M117.675 218.408C114.349 215.121 109.048 215.033 105.834 218.209C102.619 221.386 102.709 226.625 106.034 229.911C109.359 233.197 114.661 233.286 117.875 230.11C121.09 226.933 121 221.694 117.675 218.408Z" fill="#EB65E5"/>
<path d="M139.556 154.354L154.94 169.556C154.94 169.556 152.997 170.413 151.391 172.396C149.208 175.033 148.983 177.95 148.983 177.95L132.331 161.494L139.556 154.354Z" fill="#F0DC0A"/>
<path d="M132.331 194.405L148.997 177.936C148.997 177.936 148.581 180.726 149.705 183.186C150.99 186.28 153.491 187.775 153.491 187.775L139.556 201.546L132.331 194.405Z" fill="#F0DC0A"/>
<path d="M153.801 173.185C150.476 176.471 150.386 181.71 153.6 184.887C156.815 188.063 162.116 187.975 165.441 184.688C168.767 181.402 168.857 176.163 165.642 172.986C162.428 169.81 157.126 169.899 153.801 173.185Z" fill="#EFF309"/>
<path d="M88.9802 151.562L104.364 136.359C104.364 136.359 105.231 138.279 107.238 139.866C109.906 142.023 112.857 142.246 112.857 142.246L96.2054 158.702L88.9802 151.562Z" fill="#FF9900"/>
<path d="M129.509 158.7L112.843 142.23C112.843 142.23 115.667 142.641 118.156 141.53C121.286 140.261 122.8 137.789 122.8 137.789L136.734 151.56L129.509 158.7Z" fill="#FF9900"/>
<path d="M108.041 137.489C111.366 140.775 116.667 140.864 119.882 137.687C123.096 134.511 123.006 129.271 119.681 125.985C116.356 122.699 111.054 122.61 107.84 125.787C104.625 128.964 104.715 134.203 108.041 137.489Z" fill="#FFBB55"/>
<path d="M393.029 78L504.648 189.618H404.889C404.889 189.618 400.242 190.394 396.367 187.293C392.491 184.193 393.029 177.992 393.029 177.992V78Z" fill="#D0D0D0"/>
<path d="M451.529 355.785H53.5369V468.92H451.529V355.785Z" fill="#D0D0D0"/>
<path d="M422.14 379.627H189.332V393.652H422.14V379.627Z" fill="#F3F3F3"/>
<path d="M267.87 411.885H189.332V425.909H267.87V411.885Z" fill="#F3F3F3"/>
<path d="M118.507 451.663C141.357 451.663 159.88 433.14 159.88 410.291C159.88 387.441 141.357 368.918 118.507 368.918C95.658 368.918 77.1349 387.441 77.1349 410.291C77.1349 433.14 95.658 451.663 118.507 451.663Z" fill="#F3F3F3"/>
<path d="M145.856 394.162L112.125 427.821L98.1721 413.887" stroke="#D0D0D0" stroke-width="10" stroke-miterlimit="10"/>
<path d="M451.529 487.104H53.5369V600.238H451.529V487.104Z" fill="#D0D0D0"/>
<path d="M422.14 510.945H189.332V524.97H422.14V510.945Z" fill="#F3F3F3"/>
<path d="M267.87 543.203H189.332V557.228H267.87V543.203Z" fill="#F3F3F3"/>
<path d="M118.507 582.979C141.357 582.979 159.88 564.456 159.88 541.607C159.88 518.757 141.357 500.234 118.507 500.234C95.658 500.234 77.1349 518.757 77.1349 541.607C77.1349 564.456 95.658 582.979 118.507 582.979Z" fill="#F3F3F3"/>
<path d="M145.856 525.48L112.125 559.139L98.1721 545.205" stroke="#D0D0D0" stroke-width="10" stroke-miterlimit="10"/>
<path d="M451.529 618.422H53.5369V731.557H451.529V618.422Z" fill="#D0D0D0"/>
<path d="M422.14 642.262H189.332V656.286H422.14V642.262Z" fill="#F3F3F3"/>
<path d="M267.87 674.521H189.332V688.546H267.87V674.521Z" fill="#F3F3F3"/>
<path d="M118.507 714.296C141.357 714.296 159.88 695.773 159.88 672.923C159.88 650.074 141.357 631.551 118.507 631.551C95.658 631.551 77.1349 650.074 77.1349 672.923C77.1349 695.773 95.658 714.296 118.507 714.296Z" fill="#F3F3F3"/>
<path d="M145.856 656.799L112.125 690.458L98.1721 676.524" stroke="#D0D0D0" stroke-width="10" stroke-miterlimit="10"/>
<path d="M286.345 267.904H53.537V281.929H286.345V267.904Z" fill="#D0D0D0"/>
<path d="M193.945 300.229H53.5369V314.37H193.945V300.229Z" fill="#D0D0D0"/>
</svg>
