<svg width="1586" height="1157" viewBox="0 0 1586 1157" fill="none" xmlns="http://www.w3.org/2000/svg">
<path d="M1122.4 1063H1103.4V1093.32H1122.4V1063Z" fill="#DE8E68"/>
<path d="M1266.4 1105.76H1246.4V1136.09H1266.4V1105.76Z" fill="#DE8E68"/>
<path d="M1161 709C1137.83 709 1101.82 874.715 1092.8 891.391C1083.78 908.066 1103.03 1063 1103.03 1063H1121.98L1144.91 921.117C1151.39 901.878 1166.4 844.422 1193.95 812.316C1228.27 785.49 1190.69 725.676 1190.69 725.676L1161 709Z" fill="#3F939D"/>
<path d="M1122.21 566.292C1110.81 576.672 1088.02 602.686 1086.14 606.018C1080.38 603.198 1020.39 570.905 1015.88 568.855C1011.38 566.804 1001.86 550.529 998.601 550.529C996.723 550.529 994.97 554.246 994.97 556.809C994.97 561.166 996.973 564.497 998.226 565.907C993.968 565.266 956.398 562.319 956.398 564.882C956.398 571.546 998.476 580.388 1001.73 582.182C1004.99 583.976 1073.49 648.819 1097.29 648.819C1106.55 648.819 1147.5 620.37 1147.5 617.295C1151.39 614.604 1157.4 610.631 1157.4 610.631V588.077L1143.12 577.44C1143.12 577.312 1124.46 564.241 1122.21 566.292Z" fill="#DE8E68"/>
<path d="M1121.41 559.435C1123.9 538.835 1170.51 492.04 1191.88 512.894C1210.5 531.078 1176.76 596.057 1168.14 598.6C1158.39 599.617 1120.78 573.422 1121.41 559.435Z" fill="#FEBF92"/>
<path d="M1263.9 516.202C1287.63 506.042 1320.85 561.922 1317.11 582.242C1317.11 591.132 1268.4 610.182 1260.9 605.102C1253.41 600.022 1240.17 526.362 1263.9 516.202Z" fill="#FED892"/>
<path d="M1167.4 717.002L1246.83 1105.76H1267.19L1274.4 758.995C1274.4 753.015 1273.89 715.347 1273.89 710.512C1250.87 717.256 1201.8 722.601 1167.4 717.002Z" fill="#74D5DE"/>
<path d="M1247.18 1136.09H1266.4V1157H1213.4L1247.18 1136.09Z" fill="black"/>
<path d="M1103.18 1093.32H1122.4V1114.24H1069.4L1103.18 1093.32Z" fill="black"/>
<path d="M1211.57 485.701C1270.75 485.701 1291.4 535.647 1291.4 551.87C1291.4 568.093 1272.89 667.091 1273.64 711.162C1273.77 718.443 1167.5 724.957 1153.02 714.355C1146.22 709.373 1131.61 485.701 1211.57 485.701Z" fill="#FECC92"/>
<path d="M1317.69 581.898C1334.39 607.865 1333.39 667.691 1333.39 676.729C1333.39 685.766 1271.1 766.976 1265.7 766.976C1262.44 763.667 1253.4 753.611 1253.4 750.556C1256.29 745.21 1293.33 663.109 1299.98 657.253C1296.97 653.562 1270.48 611.429 1269.35 604.429C1292.58 600.483 1315.05 590.554 1317.69 581.898Z" fill="#DE8E68"/>
<path d="M1317.08 582.259C1320.84 561.826 1290.38 502.572 1263.68 515.853C1240.5 527.474 1253.16 600.137 1260.68 605.245C1269.7 609.204 1313.57 595.795 1317.08 582.259Z" fill="#FED892"/>
<path d="M1196.68 473.722C1195.43 477.699 1194.8 490.012 1196.18 495.528C1196.3 495.785 1221.19 497.709 1223.94 493.219C1224.07 489.499 1230.07 456.406 1238.2 446.144C1238.95 444.99 1237.32 441.783 1237.32 441.783L1208.43 454.097L1196.68 473.722Z" fill="#D38466"/>
<path d="M1234.22 445.395C1236.1 447.952 1238.48 449.103 1240.61 449.103C1245.37 449.103 1256.4 444.627 1256.4 428.642C1256.4 417.132 1245.37 411.25 1245.37 405.751C1245.37 400.508 1246.75 400.38 1246.75 396.032C1246.75 393.858 1244.62 386.696 1237.98 386.696C1234.22 386.696 1232.84 389.893 1229.08 389.893C1224.94 389.893 1221.18 381.709 1214.92 381.709C1210.66 381.709 1206.65 385.801 1202.14 385.801C1197 385.801 1193.49 378 1186.35 378C1178.95 378 1176.32 384.778 1173.44 384.778C1169.81 384.778 1169.18 383.755 1165.55 383.755C1163.29 383.755 1156.4 387.847 1156.4 395.264C1156.4 400.508 1158.53 409.076 1169.18 409.076C1175.45 409.076 1178.95 419.179 1184.47 419.179C1186.6 419.179 1188.48 417.388 1188.98 418.283C1191.11 422.12 1195.5 432.606 1195.5 432.606L1215.42 443.988L1234.22 445.395Z" fill="#FD8369"/>
<path d="M1230.1 439.887C1230.1 441.652 1229.47 442.03 1226.82 442.03C1225.56 442.03 1223.8 440.391 1223.8 438.625C1223.8 434.464 1226.82 433.581 1226.82 428.159C1226.82 418.953 1202.74 414.161 1194.3 409.369C1191.27 412.396 1189.13 416.305 1188.25 420.719L1182.82 448.588C1180.43 460.694 1188.37 472.422 1200.35 474.818C1212.33 477.214 1224.18 469.269 1226.57 457.289L1227.45 452.497C1227.96 452.623 1228.46 452.749 1228.84 452.749C1231.99 452.749 1234.39 449.849 1234.39 446.318C1234.64 443.039 1230.1 437.238 1230.1 439.887Z" fill="#DE8E68"/>
<path d="M1417.4 728H1398.4V758.323H1417.4V728Z" fill="#DE8E68"/>
<path d="M1553.09 725L1533.32 728.086L1538 758.046L1557.76 754.96L1553.09 725Z" fill="#DE8E68"/>
<path d="M1538.78 757.926L1557.76 754.961L1560.99 775.623L1508.63 783.801L1538.78 757.926Z" fill="black"/>
<path d="M1398.18 758.322H1417.4V779.235H1364.4L1398.18 758.322Z" fill="black"/>
<path d="M1415.81 391.896C1392.68 393.3 1385.57 555.258 1377.58 572.543C1369.59 589.828 1398.24 744.186 1398.24 744.186L1417.15 743.039L1431.4 599.227C1436.7 579.523 1443.62 513.436 1454.99 493.61C1487.61 464.604 1446.46 406.838 1446.46 406.838L1415.81 391.896Z" fill="#3F939D"/>
<path d="M1407.21 362.735L1534.32 738.614L1554.53 736.083L1518.59 391.108C1517.85 385.173 1512.67 347.861 1512.07 343.063C1490.07 352.615 1442.04 364.016 1407.21 362.735Z" fill="#74D5DE"/>
<path d="M1415.59 181.643C1471.25 170.405 1515.55 343.307 1512.73 353.405C1509.4 365.499 1432.4 401.192 1407.49 395.077C1395.04 392.029 1322.48 200.436 1415.59 181.643Z" fill="#FED385"/>
<path d="M1416.16 181.55C1471.8 170.32 1518.34 341.518 1513.22 352.935C1508.09 364.352 1419.26 400.703 1408.03 394.549C1396.8 388.394 1323.08 200.332 1416.16 181.55Z" fill="#FED385"/>
<path d="M1372.91 242.463C1368.63 243.179 1347.72 253.134 1331.5 266.568C1279.51 233.07 1261.95 196.424 1237.96 201.128C1226.58 203.033 1216.67 206.335 1218.17 215.293C1219.67 224.252 1231.41 229.444 1248.28 226.621C1253 237.512 1305.44 318.901 1332.48 314.378C1351.22 311.243 1400.49 281.561 1399.71 276.879C1398.93 272.197 1376.48 241.866 1372.91 242.463Z" fill="#DE8E68"/>
<path d="M1425.66 218.392C1436.27 227.821 1406.34 286.987 1397.46 288.173C1388.58 289.36 1351.31 256.553 1352.44 245.169C1353.56 233.785 1409.61 204.131 1425.66 218.392Z" fill="#FED892"/>
<path d="M1419.32 138.835C1419.6 140.5 1426.39 176.937 1433.24 187.01C1433.77 190.191 1398.07 198.301 1397.05 192.248L1392.6 165.646" fill="#D37C59"/>
<path d="M1394.37 168.565C1410.16 165.924 1419.66 144.024 1415.58 119.651C1411.5 95.2782 1395.4 77.6614 1379.61 80.3029C1363.82 82.9445 1354.32 104.844 1358.4 129.217C1362.47 153.59 1378.58 171.207 1394.37 168.565Z" fill="#DE8E68"/>
<path d="M1415.94 141.957L1415.2 142.08L1411.68 120.993C1408.99 118.453 1386.63 115.465 1381.14 114.143C1375.64 112.82 1366.36 111.383 1359.03 103.639C1358.02 105.863 1356.54 116.382 1357.09 124.854C1354.53 123.041 1350.47 120.021 1348.52 108.387C1344.99 87.3004 1364.19 71.3829 1382.52 68.3168C1411.84 63.4112 1433.69 90.4022 1435.88 103.49C1439.04 122.395 1428.4 139.872 1415.94 141.957Z" fill="black"/>
<path d="M1412.59 136.125C1417.05 135.379 1420.06 131.156 1419.31 126.693C1418.57 122.231 1414.35 119.218 1409.88 119.965C1405.42 120.711 1402.41 124.934 1403.15 129.397C1403.9 133.859 1408.12 136.872 1412.59 136.125Z" fill="#DE8E68"/>
<path d="M1440.18 21.6083C1444.9 20.8196 1484.36 27.1353 1494.19 25.4908C1504.02 23.8463 1523.09 18.2361 1529.39 17.1825C1541.75 15.1144 1573.45 24.4226 1577.6 49.2835C1580.5 66.608 1568.68 78.4533 1554.88 88.6138C1549.5 92.563 1546.4 106.073 1525.44 109.58C1491.63 115.235 1464.15 71.0876 1433.74 76.1737C1430.2 76.7658 1419.04 80.2362 1419.76 84.5072C1420.47 88.7782 1412.1 83.5998 1411.77 81.5955C1408.95 64.5503 1413.21 26.1206 1440.18 21.6083Z" fill="black"/>
<path d="M855.209 186.593L855.799 188.51L855.209 186.593ZM1056.79 152.477C1057.66 151.748 1057.9 150.433 1057.31 149.54L1047.72 134.979C1047.13 134.085 1045.95 133.952 1045.07 134.681C1044.2 135.409 1043.97 136.724 1044.56 137.618L1053.08 150.561L1040.41 161.117C1039.54 161.846 1039.3 163.161 1039.89 164.054C1040.48 164.948 1041.67 165.082 1042.54 164.353L1056.79 152.477ZM690.166 328.221C691.682 329.331 691.682 329.331 691.682 329.331C691.682 329.331 691.682 329.331 691.682 329.331C691.682 329.331 691.682 329.331 691.682 329.331C691.682 329.331 691.682 329.331 691.682 329.33C691.683 329.329 691.685 329.327 691.686 329.324C691.69 329.319 691.696 329.31 691.704 329.298C691.72 329.274 691.744 329.237 691.777 329.187C691.843 329.088 691.944 328.937 692.078 328.738C692.347 328.34 692.752 327.745 693.29 326.969C694.367 325.418 695.979 323.144 698.107 320.265L695.228 317.825C693.071 320.743 691.432 323.056 690.329 324.644C689.778 325.437 689.361 326.05 689.081 326.466C688.94 326.674 688.834 326.833 688.762 326.941C688.726 326.995 688.699 327.036 688.681 327.064C688.671 327.078 688.664 327.089 688.659 327.097C688.657 327.101 688.655 327.104 688.653 327.106C688.652 327.107 688.652 327.108 688.651 327.109C688.651 327.109 688.651 327.109 688.651 327.109C688.651 327.11 688.651 327.11 688.651 327.11C688.651 327.11 688.65 327.11 690.166 328.221ZM711.859 302.736C716.092 297.619 720.962 291.96 726.442 285.938L723.864 283.132C718.332 289.211 713.414 294.926 709.137 300.095L711.859 302.736ZM741.731 269.895C746.703 264.913 752.019 259.807 757.666 254.659L755.386 251.553C749.685 256.752 744.318 261.907 739.298 266.937L741.731 269.895ZM774.227 240.283C779.706 235.761 785.429 231.263 791.389 226.844L789.454 223.455C783.43 227.921 777.647 232.466 772.113 237.034L774.227 240.283ZM809.139 214.424C815.045 210.534 821.145 206.754 827.434 203.126L825.905 199.47C819.542 203.141 813.371 206.964 807.398 210.899L809.139 214.424ZM846.23 193.055C849.379 191.495 852.569 189.979 855.799 188.51L854.619 184.675C851.348 186.162 848.118 187.697 844.93 189.276L846.23 193.055ZM855.799 188.51C859.017 187.047 862.231 185.641 865.436 184.29L864.358 180.41C861.119 181.775 857.872 183.196 854.619 184.675L855.799 188.51ZM884.943 176.68C891.597 174.287 898.192 172.117 904.7 170.149L904.005 166.131C897.437 168.116 890.78 170.307 884.06 172.724L884.943 176.68ZM924.645 164.661C931.481 162.961 938.182 161.475 944.713 160.18L944.372 156.073C937.786 157.38 931.027 158.877 924.13 160.593L924.645 164.661ZM964.855 156.674C971.879 155.619 978.632 154.778 985.062 154.113L985.052 149.956C978.57 150.626 971.762 151.474 964.681 152.538L964.855 156.674ZM1005.27 152.492C1012.68 152.071 1019.43 151.88 1025.41 151.832L1025.74 147.656C1019.7 147.705 1012.89 147.898 1005.42 148.322L1005.27 152.492ZM1045.47 152.222C1048.67 152.383 1051.15 152.562 1052.83 152.701C1053.67 152.77 1054.3 152.83 1054.73 152.871C1054.94 152.892 1055.1 152.909 1055.21 152.92C1055.26 152.925 1055.3 152.93 1055.32 152.932C1055.34 152.934 1055.35 152.935 1055.35 152.936C1055.35 152.936 1055.36 152.936 1055.36 152.936C1055.36 152.936 1055.36 152.936 1055.36 152.936C1055.36 152.936 1055.36 152.936 1055.36 152.936C1055.36 152.936 1055.36 152.936 1055.36 152.936C1055.36 152.936 1055.36 152.936 1055.73 150.859C1056.09 148.782 1056.09 148.782 1056.09 148.782C1056.09 148.782 1056.09 148.782 1056.09 148.782C1056.09 148.782 1056.09 148.782 1056.09 148.782C1056.09 148.782 1056.09 148.782 1056.09 148.782C1056.09 148.782 1056.08 148.781 1056.08 148.781C1056.07 148.78 1056.06 148.779 1056.04 148.777C1056.01 148.774 1055.97 148.769 1055.91 148.763C1055.8 148.751 1055.63 148.734 1055.41 148.712C1054.97 148.669 1054.32 148.608 1053.46 148.537C1051.75 148.396 1049.24 148.214 1045.99 148.051L1045.47 152.222ZM855.209 186.593L856.389 190.428L855.209 186.593ZM1057.86 154.095C1059.6 152.638 1060.07 150.007 1058.89 148.22L1039.72 119.099C1038.54 117.312 1036.17 117.044 1034.42 118.502C1032.68 119.959 1032.21 122.59 1033.39 124.377L1050.43 150.263L1025.09 171.375C1023.35 172.832 1022.88 175.462 1024.06 177.25C1025.23 179.037 1027.61 179.304 1029.35 177.846L1057.86 154.095ZM690.166 328.221C693.198 330.442 693.197 330.442 693.197 330.442C693.197 330.442 693.197 330.442 693.197 330.442C693.197 330.442 693.197 330.443 693.197 330.443C693.197 330.443 693.197 330.443 693.197 330.442C693.198 330.442 693.199 330.44 693.2 330.438C693.203 330.434 693.208 330.426 693.215 330.415C693.23 330.393 693.253 330.358 693.285 330.31C693.348 330.215 693.445 330.069 693.577 329.874C693.84 329.484 694.238 328.899 694.771 328.132C695.835 326.599 697.433 324.344 699.547 321.485L693.789 316.605C691.617 319.543 689.964 321.875 688.849 323.481C688.291 324.284 687.868 324.905 687.582 325.33C687.439 325.542 687.33 325.705 687.255 325.818C687.218 325.874 687.189 325.917 687.169 325.947C687.159 325.963 687.151 325.975 687.145 325.983C687.143 325.988 687.14 325.991 687.138 325.994C687.138 325.995 687.137 325.996 687.136 325.997C687.136 325.998 687.136 325.998 687.135 325.998C687.135 325.999 687.135 325.999 687.135 325.999C687.135 325.999 687.135 325.999 690.166 328.221ZM713.219 304.057C717.431 298.966 722.278 293.334 727.732 287.341L722.575 281.729C717.016 287.837 712.074 293.579 707.776 298.774L713.219 304.057ZM742.947 271.375C747.896 266.416 753.186 261.335 758.805 256.212L754.247 250.001C748.517 255.224 743.125 260.404 738.081 265.457L742.947 271.375ZM775.284 241.907C780.735 237.408 786.428 232.934 792.357 228.539L788.487 221.761C782.431 226.25 776.618 230.818 771.056 235.409L775.284 241.907ZM810.009 216.187C815.882 212.318 821.947 208.56 828.198 204.954L825.141 197.643C818.741 201.334 812.534 205.18 806.528 209.136L810.009 216.187ZM846.88 194.944C850.01 193.394 853.179 191.887 856.389 190.428L854.03 182.757C850.738 184.253 847.488 185.798 844.28 187.387L846.88 194.944ZM856.389 190.428C859.59 188.973 862.787 187.574 865.976 186.23L863.818 178.47C860.563 179.843 857.299 181.271 854.03 182.757L856.389 190.428ZM885.384 178.658C892.006 176.277 898.57 174.117 905.047 172.159L903.658 164.122C897.06 166.116 890.371 168.317 883.618 170.746L885.384 178.658ZM924.902 166.695C931.708 165.002 938.38 163.523 944.884 162.234L944.202 154.02C937.588 155.332 930.8 156.836 923.873 158.559L924.902 166.695ZM964.942 158.742C971.937 157.691 978.662 156.853 985.067 156.191L985.047 147.877C978.539 148.551 971.704 149.402 964.594 150.47L964.942 158.742ZM1005.19 154.577C1012.57 154.158 1019.29 153.967 1025.25 153.919L1025.9 145.568C1019.83 145.617 1013 145.811 1005.5 146.238L1005.19 154.577ZM1045.21 154.308C1048.39 154.467 1050.85 154.646 1052.51 154.783C1053.34 154.852 1053.97 154.91 1054.39 154.951C1054.59 154.971 1054.75 154.987 1054.85 154.998C1054.9 155.004 1054.94 155.008 1054.96 155.01C1054.97 155.011 1054.98 155.012 1054.99 155.013C1054.99 155.013 1054.99 155.013 1054.99 155.013C1054.99 155.013 1054.99 155.013 1054.99 155.013C1054.99 155.013 1054.99 155.013 1054.99 155.013C1054.99 155.013 1054.99 155.013 1054.99 155.013C1054.99 155.013 1054.99 155.013 1055.73 150.859C1056.46 146.705 1056.46 146.705 1056.46 146.705C1056.46 146.705 1056.46 146.705 1056.46 146.705C1056.46 146.705 1056.46 146.705 1056.46 146.705C1056.46 146.705 1056.45 146.705 1056.45 146.705C1056.45 146.704 1056.45 146.704 1056.44 146.703C1056.43 146.702 1056.42 146.701 1056.4 146.699C1056.37 146.696 1056.33 146.691 1056.27 146.685C1056.15 146.672 1055.98 146.655 1055.76 146.633C1055.31 146.589 1054.64 146.527 1053.78 146.455C1052.05 146.312 1049.52 146.129 1046.25 145.965L1045.21 154.308Z" fill="#DFDFDF"/>
<path d="M775.29 356.663L775.169 358.66L775.29 356.663ZM859.309 386.474C860.395 386.27 861.113 385.226 860.912 384.14L857.638 366.448C857.437 365.363 856.393 364.647 855.307 364.85C854.221 365.053 853.503 366.098 853.704 367.184L856.614 382.91L840.88 385.852C839.794 386.055 839.076 387.1 839.277 388.186C839.478 389.271 840.522 389.987 841.608 389.784L859.309 386.474ZM689.957 379.233C691.059 380.9 691.059 380.9 691.059 380.9C691.059 380.9 691.059 380.9 691.059 380.9C691.059 380.901 691.058 380.901 691.058 380.901C691.059 380.901 691.059 380.9 691.059 380.9C691.06 380.899 691.062 380.898 691.064 380.897C691.07 380.893 691.078 380.888 691.09 380.88C691.114 380.864 691.152 380.84 691.202 380.807C691.304 380.742 691.458 380.643 691.665 380.513C692.077 380.255 692.696 379.874 693.508 379.394C695.132 378.435 697.529 377.081 700.596 375.518L698.785 371.955C695.637 373.56 693.167 374.954 691.479 375.952C690.634 376.45 689.985 376.85 689.544 377.126C689.323 377.265 689.154 377.373 689.039 377.447C688.981 377.484 688.937 377.513 688.907 377.533C688.891 377.543 688.879 377.551 688.871 377.556C688.867 377.559 688.863 377.561 688.861 377.563C688.859 377.564 688.858 377.565 688.858 377.565C688.857 377.565 688.857 377.566 688.856 377.566C688.856 377.566 688.856 377.566 688.856 377.566C688.856 377.566 688.856 377.566 689.957 379.233ZM720.943 366.845C727.318 364.619 734.496 362.555 742.264 361.031L741.502 357.106C733.522 358.672 726.16 360.79 719.632 363.069L720.943 366.845ZM764.154 358.515C767.761 358.402 771.438 358.441 775.169 358.66L775.411 354.667C771.555 354.441 767.758 354.4 764.037 354.517L764.154 358.515ZM775.169 358.66C778.886 358.878 782.539 359.237 786.114 359.714L786.651 355.749C782.983 355.26 779.232 354.891 775.411 354.667L775.169 358.66ZM807.657 364.099C815.29 366.178 822.306 368.641 828.523 371.155L830.03 367.447C823.686 364.881 816.52 362.366 808.716 360.24L807.657 364.099ZM848.439 380.567C851.461 382.22 853.815 383.625 855.409 384.614C856.205 385.108 856.812 385.498 857.216 385.762C857.418 385.895 857.57 385.996 857.67 386.062C857.72 386.096 857.757 386.121 857.78 386.137C857.792 386.145 857.801 386.15 857.806 386.154C857.808 386.156 857.81 386.157 857.811 386.158C857.812 386.158 857.812 386.158 857.812 386.158C857.812 386.158 857.812 386.158 857.812 386.158C857.812 386.158 857.812 386.158 857.812 386.158C857.812 386.158 857.812 386.158 858.945 384.508C860.078 382.858 860.078 382.858 860.078 382.858C860.078 382.858 860.078 382.857 860.078 382.857C860.077 382.857 860.077 382.857 860.077 382.857C860.076 382.856 860.075 382.855 860.074 382.855C860.071 382.853 860.068 382.851 860.064 382.848C860.056 382.842 860.044 382.835 860.03 382.825C860 382.805 859.957 382.776 859.901 382.738C859.79 382.663 859.626 382.554 859.411 382.414C858.981 382.133 858.347 381.726 857.523 381.214C855.873 380.19 853.456 378.748 850.365 377.057L848.439 380.567ZM775.29 356.663L775.048 360.656L775.29 356.663ZM859.673 388.439C861.845 388.033 863.28 385.944 862.879 383.772L856.33 348.389C855.928 346.217 853.841 344.786 851.669 345.193C849.496 345.599 848.061 347.689 848.463 349.86L854.284 381.312L822.816 387.197C820.643 387.603 819.208 389.692 819.61 391.864C820.011 394.035 822.098 395.466 824.271 395.06L859.673 388.439ZM689.957 379.233C692.161 382.567 692.16 382.567 692.16 382.567C692.16 382.567 692.16 382.568 692.16 382.568C692.159 382.568 692.159 382.568 692.159 382.568C692.159 382.568 692.158 382.569 692.158 382.569C692.159 382.569 692.159 382.568 692.161 382.567C692.165 382.564 692.172 382.56 692.182 382.553C692.203 382.54 692.237 382.518 692.284 382.487C692.379 382.426 692.526 382.332 692.725 382.207C693.123 381.957 693.726 381.586 694.522 381.116C696.115 380.175 698.475 378.842 701.501 377.299L697.879 370.174C694.691 371.799 692.185 373.214 690.464 374.23C689.604 374.738 688.939 375.147 688.483 375.433C688.255 375.576 688.079 375.688 687.957 375.767C687.896 375.806 687.849 375.837 687.815 375.86C687.798 375.871 687.784 375.88 687.774 375.886C687.769 375.89 687.765 375.892 687.761 375.895C687.76 375.896 687.758 375.897 687.757 375.898C687.756 375.898 687.756 375.898 687.755 375.899C687.755 375.899 687.755 375.899 687.755 375.899C687.754 375.899 687.754 375.9 689.957 379.233ZM721.599 368.733C727.897 366.534 734.982 364.497 742.646 362.993L741.121 355.144C733.035 356.73 725.581 358.875 718.976 361.181L721.599 368.733ZM764.213 360.513C767.763 360.402 771.379 360.441 775.048 360.656L775.532 352.67C771.613 352.441 767.757 352.4 763.979 352.518L764.213 360.513ZM775.048 360.656C778.714 360.871 782.317 361.225 785.846 361.696L786.92 353.767C783.205 353.271 779.405 352.897 775.532 352.67L775.048 360.656ZM807.128 366.028C814.675 368.085 821.616 370.521 827.77 373.01L830.783 365.593C824.376 363.002 817.135 360.459 809.246 358.31L807.128 366.028ZM847.477 382.322C850.463 383.956 852.786 385.342 854.352 386.314C855.134 386.799 855.727 387.181 856.119 387.437C856.315 387.565 856.46 387.662 856.554 387.724C856.601 387.756 856.635 387.779 856.656 387.793C856.666 387.8 856.673 387.805 856.677 387.807C856.679 387.808 856.68 387.809 856.68 387.809C856.68 387.809 856.68 387.809 856.68 387.809C856.679 387.809 856.679 387.809 856.679 387.809C856.679 387.809 856.679 387.808 856.679 387.808C856.678 387.808 856.678 387.808 858.945 384.508C861.212 381.208 861.212 381.208 861.211 381.207C861.211 381.207 861.211 381.207 861.211 381.207C861.21 381.207 861.21 381.206 861.209 381.206C861.208 381.205 861.207 381.204 861.205 381.203C861.202 381.201 861.198 381.198 861.193 381.195C861.184 381.188 861.171 381.18 861.154 381.169C861.122 381.147 861.076 381.116 861.017 381.076C860.899 380.997 860.729 380.884 860.508 380.739C860.065 380.45 859.419 380.034 858.58 379.514C856.902 378.473 854.453 377.012 851.328 375.302L847.477 382.322Z" fill="#DFDFDF"/>
<path d="M864.398 556.001V407.002H948.397L989.387 448V556.001H864.398Z" fill="#DFDFDF"/>
<path d="M948.407 407L989.398 447.968H952.763C952.763 447.968 951.056 448.253 949.633 447.115C948.209 445.977 948.407 443.701 948.407 443.701V407Z" fill="#B4B4B4"/>
<path d="M1080.4 297.001V148.002H1164.4L1205.39 189V297.001H1080.4Z" fill="#DFDFDF"/>
<path d="M1164.41 148L1205.4 188.968H1168.76C1168.76 188.968 1167.06 189.253 1165.63 188.115C1164.21 186.977 1164.41 184.701 1164.41 184.701V148Z" fill="#B4B4B4"/>
<path d="M6.10352e-05 1077V147.002H523.666L672.323 295.684V1077H6.10352e-05Z" fill="#F3F3F3"/>
<path d="M114.795 311.605L94.2986 291.349C94.2986 291.349 96.887 290.208 99.0262 287.565C101.935 284.052 102.235 280.166 102.235 280.166L124.422 302.091L114.795 311.605Z" fill="#96CA2C"/>
<path d="M124.422 258.242L102.216 280.186C102.216 280.186 102.77 276.468 101.273 273.191C99.5611 269.069 96.229 267.076 96.229 267.076L114.795 248.729L124.422 258.242Z" fill="#96CA2C"/>
<path d="M95.8172 286.507C100.248 282.128 100.367 275.148 96.0846 270.915C91.8017 266.683 84.7381 266.801 80.3076 271.18C75.8771 275.558 75.7573 282.539 80.0402 286.771C84.323 291.003 91.3866 290.885 95.8172 286.507Z" fill="#B4E654"/>
<path d="M182.182 315.322L161.686 335.578C161.686 335.578 160.531 333.019 157.856 330.905C154.301 328.031 150.369 327.734 150.369 327.734L172.556 305.809L182.182 315.322Z" fill="#E48AE0"/>
<path d="M128.182 305.809L150.387 327.753C150.387 327.753 146.625 327.206 143.309 328.686C139.137 330.377 137.121 333.669 137.121 333.669L118.555 315.322L128.182 305.809Z" fill="#E48AE0"/>
<path d="M156.787 334.075C152.357 329.697 145.293 329.578 141.01 333.811C136.728 338.043 136.847 345.024 141.278 349.402C145.708 353.781 152.772 353.899 157.055 349.667C161.338 345.434 161.218 338.454 156.787 334.075Z" fill="#EB65E5"/>
<path d="M185.941 248.73L206.438 268.986C206.438 268.986 203.85 270.128 201.71 272.77C198.801 276.284 198.501 280.17 198.501 280.17L176.315 258.244L185.941 248.73Z" fill="#F0DC0A"/>
<path d="M176.315 302.095L198.52 280.15C198.52 280.15 197.966 283.868 199.464 287.146C201.176 291.268 204.508 293.26 204.508 293.26L185.941 311.608L176.315 302.095Z" fill="#F0DC0A"/>
<path d="M204.921 273.821C200.49 278.2 200.371 285.18 204.653 289.413C208.936 293.645 216 293.527 220.43 289.149C224.861 284.77 224.981 277.79 220.698 273.557C216.415 269.325 209.351 269.443 204.921 273.821Z" fill="#EFF309"/>
<path d="M118.555 245.013L139.052 224.758C139.052 224.758 140.207 227.316 142.881 229.43C146.436 232.304 150.369 232.601 150.369 232.601L128.182 254.527L118.555 245.013Z" fill="#FF9900"/>
<path d="M172.555 254.523L150.349 232.579C150.349 232.579 154.112 233.126 157.428 231.646C161.599 229.955 163.616 226.662 163.616 226.662L182.181 245.01L172.555 254.523Z" fill="#FF9900"/>
<path d="M143.951 226.261C148.382 230.639 155.445 230.758 159.728 226.525C164.011 222.293 163.891 215.312 159.461 210.934C155.03 206.555 147.967 206.437 143.684 210.669C139.401 214.902 139.521 221.882 143.951 226.261Z" fill="#FFBB55"/>
<path d="M523.663 147L672.381 295.718H539.466C539.466 295.718 533.274 296.751 528.11 292.62C522.947 288.489 523.663 280.226 523.663 280.226V147Z" fill="#D0D0D0"/>
<path d="M6.10352e-05 1077V147.002H523.666L672.323 295.684V1077H6.10352e-05Z" fill="#F3F3F3"/>
<path d="M114.795 311.605L94.2986 291.349C94.2986 291.349 96.887 290.208 99.0262 287.565C101.935 284.052 102.235 280.166 102.235 280.166L124.422 302.091L114.795 311.605Z" fill="#96CA2C"/>
<path d="M124.422 258.242L102.216 280.186C102.216 280.186 102.77 276.468 101.273 273.191C99.5611 269.069 96.229 267.076 96.229 267.076L114.795 248.729L124.422 258.242Z" fill="#96CA2C"/>
<path d="M95.8172 286.507C100.248 282.128 100.367 275.148 96.0846 270.915C91.8017 266.683 84.7381 266.801 80.3076 271.18C75.8771 275.558 75.7573 282.539 80.0402 286.771C84.323 291.003 91.3866 290.885 95.8172 286.507Z" fill="#B4E654"/>
<path d="M182.182 315.322L161.686 335.578C161.686 335.578 160.531 333.019 157.856 330.905C154.301 328.031 150.369 327.734 150.369 327.734L172.556 305.809L182.182 315.322Z" fill="#E48AE0"/>
<path d="M128.182 305.809L150.387 327.753C150.387 327.753 146.625 327.206 143.309 328.686C139.137 330.377 137.121 333.669 137.121 333.669L118.555 315.322L128.182 305.809Z" fill="#E48AE0"/>
<path d="M156.787 334.075C152.357 329.697 145.293 329.578 141.01 333.811C136.728 338.043 136.847 345.024 141.278 349.402C145.708 353.781 152.772 353.899 157.055 349.667C161.338 345.434 161.218 338.454 156.787 334.075Z" fill="#EB65E5"/>
<path d="M185.941 248.73L206.438 268.986C206.438 268.986 203.85 270.128 201.71 272.77C198.801 276.284 198.501 280.17 198.501 280.17L176.315 258.244L185.941 248.73Z" fill="#F0DC0A"/>
<path d="M176.315 302.095L198.52 280.15C198.52 280.15 197.966 283.868 199.464 287.146C201.176 291.268 204.508 293.26 204.508 293.26L185.941 311.608L176.315 302.095Z" fill="#F0DC0A"/>
<path d="M204.921 273.821C200.49 278.2 200.371 285.18 204.653 289.413C208.936 293.645 216 293.527 220.43 289.149C224.861 284.77 224.981 277.79 220.698 273.557C216.415 269.325 209.351 269.443 204.921 273.821Z" fill="#EFF309"/>
<path d="M118.555 245.013L139.052 224.758C139.052 224.758 140.207 227.316 142.881 229.43C146.436 232.304 150.369 232.601 150.369 232.601L128.182 254.527L118.555 245.013Z" fill="#FF9900"/>
<path d="M172.555 254.523L150.349 232.579C150.349 232.579 154.112 233.126 157.428 231.646C161.599 229.955 163.616 226.662 163.616 226.662L182.181 245.01L172.555 254.523Z" fill="#FF9900"/>
<path d="M143.951 226.261C148.382 230.639 155.445 230.758 159.728 226.525C164.011 222.293 163.891 215.312 159.461 210.934C155.03 206.555 147.967 206.437 143.684 210.669C139.401 214.902 139.521 221.882 143.951 226.261Z" fill="#FFBB55"/>
<path d="M523.663 147L672.381 295.718H539.466C539.466 295.718 533.274 296.751 528.11 292.62C522.947 288.489 523.663 280.226 523.663 280.226V147Z" fill="#D0D0D0"/>
<path d="M6.10352e-05 1077V147.002H523.666L672.323 295.684V1077H6.10352e-05Z" fill="#F3F3F3"/>
<path d="M201.582 318.877C194.905 329.57 185.616 338.391 174.588 344.513C163.561 350.635 151.156 353.856 138.54 353.874C125.924 353.892 113.511 350.707 102.465 344.618C102.068 344.399 101.307 343.952 101.307 343.952C101.307 343.952 102.903 338.8 102.161 329.485C101.575 322.125 99.1338 315.319 99.1338 315.316C103.036 319.592 107.626 323.218 112.734 326.034C120.626 330.385 129.495 332.661 138.509 332.648C147.524 332.635 156.386 330.333 164.266 325.959C184.735 314.596 201.582 318.877 201.582 318.877Z" fill="#E48AE0"/>
<path d="M138.576 312.372C127.957 312.372 119.348 320.684 119.348 330.938C119.348 341.192 127.957 349.504 138.576 349.504C149.195 349.504 157.803 341.192 157.803 330.938C157.803 320.684 149.195 312.372 138.576 312.372Z" fill="#EB65E5"/>
<path d="M99.047 342.628C88.3429 335.958 79.5117 326.679 73.3829 315.664C67.2544 304.649 64.0295 292.258 64.0111 279.656C63.9929 267.054 67.1817 254.654 73.2782 243.621C73.4971 243.224 73.9441 242.464 73.9441 242.464C73.9441 242.464 79.1023 244.058 88.4276 243.317C95.7958 242.732 102.61 240.293 102.612 240.293C98.3316 244.191 94.7019 248.776 91.8824 253.878C87.5266 261.761 85.2482 270.621 85.2614 279.625C85.2743 288.629 87.5787 297.482 91.9574 305.352C103.333 325.799 99.047 342.628 99.047 342.628Z" fill="#F0DC0A"/>
<path d="M105.561 279.69C105.561 269.083 97.2393 260.484 86.9743 260.484C76.7092 260.484 68.3877 269.083 68.3877 279.69C68.3877 290.298 76.7092 298.896 86.9743 298.896C97.2393 298.896 105.561 290.298 105.561 279.69Z" fill="#EFF309"/>
<path d="M75.28 240.198C81.9574 229.506 91.2462 220.684 102.274 214.563C113.301 208.441 125.706 205.219 138.322 205.201C150.938 205.183 163.352 208.368 174.397 214.458C174.794 214.677 175.555 215.123 175.555 215.123C175.555 215.123 173.959 220.275 174.701 229.59C175.287 236.95 177.728 243.757 177.728 243.759C173.826 239.484 169.236 235.858 164.128 233.042C156.236 228.69 147.367 226.415 138.353 226.428C129.339 226.441 120.476 228.742 112.596 233.116C92.1269 244.48 75.28 240.198 75.28 240.198Z" fill="#FF9900"/>
<path d="M138.286 246.704C148.905 246.704 157.514 238.392 157.514 228.138C157.514 217.885 148.905 209.572 138.286 209.572C127.667 209.572 119.059 217.885 119.059 228.138C119.059 238.392 127.667 246.704 138.286 246.704Z" fill="#FFBB55"/>
<path d="M177.806 216.455C188.51 223.125 197.342 232.404 203.47 243.419C209.599 254.434 212.824 266.825 212.842 279.427C212.86 292.029 209.672 304.429 203.575 315.462C203.356 315.858 202.909 316.619 202.909 316.619C202.909 316.619 197.751 315.025 188.426 315.766C181.057 316.351 174.244 318.79 174.241 318.79C178.522 314.892 182.151 310.307 184.971 305.205C189.327 297.322 191.605 288.462 191.592 279.458C191.579 270.454 189.275 261.601 184.896 253.73C173.52 233.283 177.806 216.455 177.806 216.455Z" fill="#96CA2C"/>
<path d="M171.293 279.394C171.293 290.001 179.615 298.6 189.88 298.6C200.145 298.6 208.466 290.001 208.466 279.394C208.466 268.786 200.145 260.188 189.88 260.188C179.615 260.188 171.293 268.786 171.293 279.394Z" fill="#B4E654"/>
<path d="M201.552 318.864C194.874 329.555 185.585 338.376 174.557 344.497L164.235 325.943C184.705 314.581 201.552 318.864 201.552 318.864Z" fill="#E48AE0"/>
<path d="M523.663 147L672.381 295.718H539.466C539.466 295.718 533.274 296.751 528.11 292.62C522.947 288.489 523.663 280.226 523.663 280.226V147Z" fill="#D0D0D0"/>
<path d="M601.607 517.115H71.3313V667.853H601.607V517.115Z" fill="#D0D0D0"/>
<path d="M562.45 548.881H252.262V567.567H562.45V548.881Z" fill="#F3F3F3"/>
<path d="M356.904 591.861H252.262V610.547H356.904V591.861Z" fill="#F3F3F3"/>
<path d="M157.897 644.861C188.341 644.861 213.021 620.181 213.021 589.737C213.021 559.293 188.341 534.613 157.897 534.613C127.453 534.613 102.773 559.293 102.773 589.737C102.773 620.181 127.453 644.861 157.897 644.861Z" fill="#F3F3F3"/>
<path d="M193.335 568.248L148.392 613.095L129.802 594.529" stroke="#D0D0D0" stroke-width="13" stroke-miterlimit="10"/>
<path d="M601.607 692.08H71.3313V842.818H601.607V692.08Z" fill="#D0D0D0"/>
<path d="M562.45 723.846H252.262V742.532H562.45V723.846Z" fill="#F3F3F3"/>
<path d="M356.904 766.826H252.262V785.512H356.904V766.826Z" fill="#F3F3F3"/>
<path d="M157.897 819.824C188.341 819.824 213.021 795.144 213.021 764.7C213.021 734.256 188.341 709.576 157.897 709.576C127.453 709.576 102.773 734.256 102.773 764.7C102.773 795.144 127.453 819.824 157.897 819.824Z" fill="#F3F3F3"/>
<path d="M193.335 743.213L148.392 788.059L129.802 769.494" stroke="#D0D0D0" stroke-width="13" stroke-miterlimit="10"/>
<path d="M601.607 867.045H71.3313V1017.78H601.607V867.045Z" fill="#D0D0D0"/>
<path d="M562.45 898.811H252.262V917.497H562.45V898.811Z" fill="#F3F3F3"/>
<path d="M356.904 941.791H252.262V960.477H356.904V941.791Z" fill="#F3F3F3"/>
<path d="M157.897 994.787C188.341 994.787 213.021 970.107 213.021 939.663C213.021 909.219 188.341 884.539 157.897 884.539C127.453 884.539 102.773 909.219 102.773 939.663C102.773 970.107 127.453 994.787 157.897 994.787Z" fill="#F3F3F3"/>
<path d="M193.335 918.178L148.392 963.024L129.802 944.459" stroke="#D0D0D0" stroke-width="13" stroke-miterlimit="10"/>
<path d="M381.52 400.025H71.3313V418.711H381.52V400.025Z" fill="#D0D0D0"/>
<path d="M258.408 443.092H71.3313V461.934H258.408V443.092Z" fill="#D0D0D0"/>
</svg>
