<?xml version="1.0" encoding="UTF-8" standalone="no"?><!DOCTYPE svg PUBLIC "-//W3C//DTD SVG 1.1//EN" "http://www.w3.org/Graphics/SVG/1.1/DTD/svg11.dtd"><svg width="100%" height="100%" viewBox="0 0 469 430" version="1.1" xmlns="http://www.w3.org/2000/svg" xmlns:xlink="http://www.w3.org/1999/xlink" xml:space="preserve" xmlns:serif="http://www.serif.com/" style="fill-rule:evenodd;clip-rule:evenodd;"><path d="M254.333,347.416c73.003,0 132.184,-59.252 132.184,-132.344c0,-73.092 -59.181,-132.345 -132.184,-132.345c-73.003,0 -132.184,59.253 -132.184,132.345c0,73.092 59.181,132.344 132.184,132.344Z" style="fill:none;stroke:#fff;stroke-width:44px;"/><path d="M385.236,296.799c-13.839,22.211 -33.09,40.535 -55.944,53.252c-22.854,12.717 -48.562,19.409 -74.708,19.447c-26.147,0.038 -51.874,-6.579 -74.765,-19.229c-0.822,-0.454 -2.4,-1.382 -2.4,-1.382c0,0 3.307,-10.703 1.771,-30.053c-1.215,-15.289 -6.275,-29.427 -6.275,-29.432c8.088,8.881 17.6,16.413 28.186,22.263c16.356,9.039 34.737,13.766 53.418,13.739c18.682,-0.027 37.05,-4.808 53.379,-13.894c42.423,-23.605 77.338,-14.711 77.338,-14.711Z" style="fill:#e48ae0;fill-rule:nonzero;"/><path d="M254.657,283.283c-22.008,0 -39.849,17.267 -39.849,38.567c0,21.3 17.841,38.567 39.849,38.567c22.007,0 39.848,-17.267 39.848,-38.567c0,-21.3 -17.841,-38.567 -39.848,-38.567Z" style="fill:#eb65e5;fill-rule:nonzero;"/><path d="M172.735,346.134c-22.184,-13.856 -40.486,-33.13 -53.188,-56.012c-12.701,-22.882 -19.385,-48.621 -19.423,-74.799c-0.038,-26.178 6.571,-51.937 19.206,-74.856c0.454,-0.823 1.38,-2.403 1.38,-2.403c0,0 10.69,3.311 30.017,1.773c15.27,-1.216 29.391,-6.282 29.395,-6.282c-8.87,8.097 -16.392,17.621 -22.236,28.22c-9.027,16.375 -13.749,34.779 -13.721,53.484c0.026,18.704 4.802,37.094 13.877,53.443c23.576,42.474 14.693,77.432 14.693,77.432Z" style="fill:#f0dc0a;fill-rule:nonzero;"/><path d="M186.235,215.396c0,-22.034 -17.246,-39.897 -38.52,-39.897c-21.274,0 -38.52,17.863 -38.52,39.897c0,22.034 17.246,39.897 38.52,39.897c21.274,0 38.52,-17.863 38.52,-39.897Z" style="fill:#eff309;fill-rule:nonzero;"/><path d="M123.479,133.357c13.838,-22.211 33.089,-40.535 55.943,-53.252c22.854,-12.717 48.562,-19.409 74.708,-19.446c26.147,-0.038 51.874,6.578 74.765,19.228c0.822,0.455 2.4,1.382 2.4,1.382c0,0 -3.307,10.703 -1.771,30.053c1.214,15.289 6.275,29.428 6.275,29.432c-8.087,-8.881 -17.6,-16.413 -28.186,-22.263c-16.355,-9.038 -34.737,-13.766 -53.419,-13.739c-18.681,0.028 -37.049,4.809 -53.379,13.895c-42.422,23.605 -77.336,14.71 -77.336,14.71Z" style="fill:#f90;fill-rule:nonzero;"/><path d="M254.057,146.873c22.008,0 39.848,-17.267 39.848,-38.567c0,-21.299 -17.84,-38.566 -39.848,-38.566c-22.007,0 -39.848,17.267 -39.848,38.566c0,21.3 17.841,38.567 39.848,38.567Z" style="fill:#fb5;fill-rule:nonzero;"/><path d="M335.96,84.04c22.184,13.855 40.487,33.129 53.188,56.011c12.701,22.883 19.385,48.622 19.423,74.8c0.038,26.178 -6.571,51.936 -19.206,74.855c-0.454,0.823 -1.38,2.403 -1.38,2.403c0,0 -10.69,-3.311 -30.016,-1.772c-15.271,1.215 -29.392,6.282 -29.397,6.282c8.871,-8.097 16.393,-17.621 22.236,-28.22c9.028,-16.376 13.75,-34.78 13.722,-53.484c-0.027,-18.705 -4.802,-37.095 -13.877,-53.444c-23.576,-42.474 -14.693,-77.431 -14.693,-77.431Z" style="fill:#96ca2c;fill-rule:nonzero;"/><path d="M322.462,214.777c0,22.034 17.246,39.897 38.52,39.897c21.274,0 38.52,-17.863 38.52,-39.897c0,-22.034 -17.246,-39.897 -38.52,-39.897c-21.274,0 -38.52,17.863 -38.52,39.897Z" style="fill:#b4e654;fill-rule:nonzero;"/><path d="M385.173,296.769c-13.84,22.21 -33.092,40.533 -55.947,53.249l-21.391,-38.543c42.424,-23.603 77.338,-14.706 77.338,-14.706Z" style="fill:#e48ae0;fill-rule:nonzero;"/><path d="M401.998,354.907l6.96,-4.02l4.93,8.548l-6.96,4.016l-4.93,-8.544Z" style="fill:#e49d75;fill-rule:nonzero;"/><path d="M349.856,371.635l7.249,3.486l-4.235,8.881l-7.253,-3.465l4.239,-8.902Z" style="fill:#e49d75;fill-rule:nonzero;"/><path d="M390.171,296.27c7.053,0 17.426,42.273 21.885,54.667c-0.932,2.595 -6.224,6.635 -9.127,6.635c-5.601,-9.387 -18.149,-29.511 -20.378,-32.621c-1.786,-2.478 0.567,-28.681 7.62,-28.681Z" style="fill:#5fc5d1;fill-rule:nonzero;"/><path d="M309.285,288.503c-6.113,0 -11.15,-1.317 -11.15,13.076c0,14.394 15.709,26.383 34.353,26.383c18.644,0 26.894,-0.496 28.593,-0.909c0.503,4.759 -10.486,37.37 -11.666,45.766c0.843,2.243 6.296,5.037 8.601,5.037c2.305,0 32.973,-49.822 32.175,-80.609c0.107,-4.817 -17.612,-6.149 -28.807,-6.149c-11.195,0 -35.024,1.29 -38.038,1.29" style="fill:#6bd5e1;fill-rule:nonzero;"/><path d="M350.781,290.585c6.193,0 28.556,-0.179 32.661,-0.179l-32.661,0.179Z" style="fill:#ffc88e;fill-rule:nonzero;"/><path d="M346.955,290.874c6.537,0 29.1,-0.533 32.843,-0.533c2.904,-4.473 16.39,-28.037 17.281,-29.82" style="fill:none;stroke:#9d9d9d;stroke-width:5.79px;stroke-linecap:round;stroke-linejoin:round;"/><path d="M413.639,358.913l-6.988,4.035l4.28,7.415l19.275,-11.13l-16.567,-0.32Z" style="fill-rule:nonzero;"/><path d="M352.933,383.916l-7.314,-3.41l-3.618,7.759l20.172,9.408l-9.24,-13.757Z" style="fill-rule:nonzero;"/><path d="M331.273,175.989c5.694,0.303 13.028,3.765 13.028,11.634c0,7.87 -6.597,11.114 -13.967,12.398c4.999,5.96 7.05,7.113 6.537,9.676c-0.512,2.564 -5.126,9.614 -5.505,17.69c-0.378,8.076 -22.301,52.49 -26.464,53.773c-4.163,1.284 4.046,9.497 -24.668,10.42c-7.655,0 -21.544,-11.356 -21.544,-26.152c-0.344,-32.253 33.173,-38.374 51.81,-74.357c8.553,-16.517 18.131,-15.226 20.773,-15.082Z" style="fill-rule:nonzero;"/><path d="M339.224,230.253c1.283,-0.292 16.72,1.176 21,2.441c0.606,-1.961 7.316,-18.171 9.668,-27.001c0,-2.327 -0.588,-4.851 -0.465,-5.585c0,-1.005 0.93,-3.17 1.861,0.466c0,-1.612 2.467,-8.377 6.979,-8.377c1.862,0 2.327,6.515 -2.005,14.375c-0.209,3.526 -6.196,36.151 -8.868,38.098c-2.672,1.948 -28.339,-1.661 -30.184,-3.229c-1.845,-1.568 2.014,-11.188 2.014,-11.188Z" style="fill:#e49d75;fill-rule:nonzero;"/><path d="M321.736,231.717c-0.764,-1.262 1.436,-4.55 3.687,-5.914c6.01,-3.638 22.97,1.43 23.823,2.839c0.853,1.41 -2.668,12.118 -8.064,15.9c-5.396,3.782 -19.446,-12.825 -19.446,-12.825Z" style="fill:#fcc486;fill-rule:nonzero;"/><path d="M300.268,289.918c-0.777,-3.204 -4.968,-72.048 20.172,-70.82c25.139,1.228 24.881,62.578 22.019,72.261c-11.474,4.859 -41.372,1.941 -42.191,-1.441Z" style="fill:#ffd98e;fill-rule:nonzero;"/><path d="M328.921,213.637c-0.396,0.939 -2.529,5.943 -2.925,7.987c-0.395,2.044 -11.202,-0.541 -10.596,-1.563c3.578,-6.042 4.162,-12.387 4.744,-15.563c0.533,-2.904 11.395,2.918 8.777,9.139Z" style="fill:#d18c65;fill-rule:nonzero;"/><path d="M325.817,254.083l-15.51,1.652c-1.056,1.3 -0.598,4.377 -0.615,5.96c-0.069,5.849 0.192,12.387 3.729,17.315c1.376,1.916 3.63,3.785 5.849,3.754c3.475,1.376 9.272,2.963 9.272,2.963l8.797,1.94c0,0 14.842,2.633 22.17,2.461c2.44,-0.062 4.92,-0.344 7.356,-0.276c1.414,0.038 3.657,0.479 4.978,0c0.386,-0.141 0.293,-0.991 0.2,-1.324c-0.317,-1.167 -1.431,-1.986 -2.456,-2.495c-2.381,-1.184 -3.73,-0.434 -6.173,-0.392c-1.999,0.034 -4.383,-0.985 -7.851,-2.344c-4.09,-1.603 -8.756,-3.561 -12.926,-4.965c-4.751,-1.6 -9.599,-3.328 -14.236,-5.227c-0.915,-0.375 -1.889,-0.647 -2.849,-0.946c0.439,-2.501 0.687,-5.032 0.743,-7.571c0.107,-2.752 0.152,-5.643 -0.251,-8.354c-0.103,-0.699 0.065,-1.504 -0.227,-2.151Z" style="fill:#e49d75;fill-rule:nonzero;"/><path d="M306.179,256.161c-2.639,-7.013 -0.344,-28.932 8.222,-30.367c11.918,-1.768 15.483,25.925 14.302,29.163c-2.109,1.266 -13.923,5.454 -22.524,1.204Z" style="fill:#ffe4ad;fill-rule:nonzero;"/><path d="M336.753,188.999c-5.005,6.741 -11.105,11.391 -18.973,12.585c0.465,1.862 1.04,3.258 1.34,4.371c1.233,4.578 3.878,7.967 7.27,8.687c5.431,1.155 10.752,-4.997 11.866,-13.742c0.564,-4.418 -0.055,-8.645 -1.503,-11.901Z" style="fill:#e49d75;fill-rule:nonzero;"/><rect x="77.795" y="356.083" width="11.199" height="6.75" style="fill:#de8e68;fill-rule:nonzero;"/><path d="M56.318,331.732l6.079,8.272l-5.44,3.997l-6.079,-8.272l5.44,-3.997Z" style="fill:#de8e68;fill-rule:nonzero;"/><path d="M131.43,212.795c0,0 7.323,65.698 4.763,73.053c-2.559,7.355 -74.846,55.331 -74.846,55.331l-6.717,-8.954l54.688,-56.296c-2.712,-2.079 -13.361,-28.142 -13.634,-30.382c-0.273,-2.241 7.887,-36.961 7.887,-36.961l27.859,4.209Z" style="fill:#56cad8;fill-rule:nonzero;"/><path d="M68.343,129.745c-1.904,0.278 -19.672,8.28 -24.843,12.255c-1.856,-2.356 -7.5,-19.5 -12.906,-30.5c0,0 0.96,-8.565 0.406,-9.5c0,-1.5 -2.699,-4.5 -2.699,1.113c-0.847,-2.197 -4.801,-12.113 -9.801,-10.613c-3.334,1 -3,12 3.87,22.293c0,0 8.224,44.207 15.137,49.419c4.667,1.25 37.771,-17.163 39.462,-20.272c1.691,-3.108 -8.627,-14.195 -8.627,-14.195Z" style="fill:#de8e68;fill-rule:nonzero;"/><path d="M102.605,105.51c-44.464,0 -32.498,91.239 -31.819,98.58c3.4,5.844 57.391,12.262 60.644,8.704c1.358,-10.201 13.19,-107.284 -28.825,-107.284Z" style="fill:#fed385;fill-rule:nonzero;"/><path d="M86.841,119.541c-5.83,-9 -28.645,9.657 -29.255,13.565c-0.609,3.909 8.723,19.298 16.055,18.91c7.333,-0.388 16.596,-27.235 13.2,-32.475Z" style="fill:#fed892;fill-rule:nonzero;"/><path d="M106.722,109.996c0,2.578 -14.277,3.128 -14.277,0l0,-17.533l14.277,0l0,17.533Z" style="fill:#de8e68;fill-rule:nonzero;"/><path d="M121.919,163.576c0.587,0 1.169,0.113 1.714,0.332c0.053,-0.072 0.123,-0.132 0.203,-0.174c0.08,-0.043 0.168,-0.067 0.259,-0.07c1.51,0 21.06,-1.39 22.571,-1.126c-2.49,-2.13 -14.287,-15.4 -14.287,-15.4l11.828,-14.138c2.665,0.979 19.959,24.927 19.959,32.038c0,6.584 -5.041,11.696 -11.089,11.696c-7.489,0 -19.151,-1.885 -25.411,-3.696c-0.61,3.4 -2.952,5.937 -5.752,5.937c-3.267,0 -5.914,-3.442 -5.914,-7.688c0,-4.246 2.652,-7.711 5.919,-7.711Z" style="fill:#de8e68;fill-rule:nonzero;"/><path d="M119.938,118.062c-8.002,6.526 7.537,30.352 10.929,30.874c3.392,0.522 17.092,-9.95 16.982,-17.782c-0.111,-7.832 -23.236,-16.894 -27.911,-13.092Z" style="fill:#fed892;fill-rule:nonzero;"/><path d="M70.785,204.09l6.025,153.467l12.793,0l19.714,-144.643" style="fill:#74d5de;fill-rule:nonzero;"/><path d="M89.039,362l-11.239,0l0,11l31,0l-19.761,-11Z" style="fill-rule:nonzero;"/><path d="M57.036,344.051l-6.151,-8.343l-8.285,6.108l16.966,23.012l-2.53,-20.777Z" style="fill-rule:nonzero;"/><path d="M114.674,79.999c1.037,0.075 4.326,-6.131 4.326,-14.127c0,-2.079 -1.188,-12.476 -6.239,-12.476c-1.486,0 -2.377,4.456 -2.08,5.644c0,-2.376 -5.761,-16.04 -13.964,-16.04c-3.268,0 -3.862,3.861 -3.862,5.05c0,3.564 0.297,7.129 1.486,9.208c-1.189,-1.782 -3.586,-6.238 -8.022,-6.238c-2.377,0 -4.457,1.013 -4.457,2.376c0,3.63 2.971,6.832 3.863,7.724c-0.892,-0.595 -2.039,-1.189 -4.754,-1.189c-1.86,0 -2.971,2.971 -2.971,4.456c0,6.627 3.016,14.187 6.388,15.081c3.372,0.894 19.7,-10.893 19.7,-10.893c0,0 6.849,11.157 10.586,11.424Z" style="fill:#fd8369;fill-rule:nonzero;"/><path d="M99.5,102c8.008,0 14.5,-8.954 14.5,-20c0,-11.046 -6.492,-20 -14.5,-20c-8.008,0 -14.5,8.954 -14.5,20c0,11.046 6.492,20 14.5,20Z" style="fill:#de8e68;fill-rule:nonzero;"/><path d="M114,77c-1.73,-0.295 -20.726,-5.793 -23.567,-12.644c-2.841,-6.851 9.231,-3.571 9.231,-3.571l12.546,5.271l1.79,10.944Z" style="fill:#fd8369;fill-rule:nonzero;"/></svg>