<?xml version="1.0" encoding="UTF-8" standalone="no"?>
<!DOCTYPE svg PUBLIC "-//W3C//DTD SVG 1.1//EN" "http://www.w3.org/Graphics/SVG/1.1/DTD/svg11.dtd">
<svg width="100%" height="100%" viewBox="0 0 224 64" version="1.1" xmlns="http://www.w3.org/2000/svg" xmlns:xlink="http://www.w3.org/1999/xlink" xml:space="preserve" xmlns:serif="http://www.serif.com/" style="fill-rule:evenodd;clip-rule:evenodd;stroke-linejoin:round;stroke-miterlimit:1.41421;">
    <g transform="matrix(0.2504,0,0,0.2504,5.64048,6.12907)">
        <path d="M57.618,147.366L30.519,120.266C30.519,120.266 33.941,118.739 36.77,115.203C40.615,110.503 41.012,105.304 41.012,105.304L70.346,134.638L57.618,147.366Z" style="fill:rgb(150,202,44);fill-rule:nonzero;"/>
    </g>
    <g transform="matrix(0.2504,0,0,0.2504,5.64048,6.12907)">
        <path d="M70.346,75.97L40.987,105.329C40.987,105.329 41.719,100.354 39.739,95.97C37.477,90.455 33.071,87.789 33.071,87.789L57.618,63.242L70.346,75.97Z" style="fill:rgb(150,202,44);fill-rule:nonzero;"/>
    </g>
    <g transform="matrix(0.17706,-0.17706,0.17706,0.17706,-11.058,17.6663)">
        <ellipse cx="22.274" cy="103.536" rx="15" ry="14.5" style="fill:rgb(180,230,84);"/>
    </g>
    <g transform="matrix(0.2504,0,0,0.2504,5.64048,6.12907)">
        <path d="M146.714,152.337L119.614,179.437C119.614,179.437 118.087,176.014 114.551,173.186C109.851,169.34 104.652,168.943 104.652,168.943L133.986,139.609L146.714,152.337Z" style="fill:rgb(228,138,224);fill-rule:nonzero;"/>
    </g>
    <g transform="matrix(0.2504,0,0,0.2504,5.64048,6.12907)">
        <path d="M75.318,139.609L104.677,168.968C104.677,168.968 99.702,168.236 95.318,170.216C89.803,172.479 87.137,176.884 87.137,176.884L62.59,152.337L75.318,139.609Z" style="fill:rgb(228,138,224);fill-rule:nonzero;"/>
    </g>
    <g transform="matrix(-0.17706,-0.17706,0.17706,-0.17706,16.3883,104.572)">
        <ellipse cx="102.884" cy="187.682" rx="15" ry="14.5" style="fill:rgb(235,101,229);"/>
    </g>
    <g transform="matrix(0.2504,0,0,0.2504,5.64048,6.12907)">
        <path d="M151.685,63.242L178.785,90.341C178.785,90.341 175.363,91.869 172.534,95.404C168.688,100.105 168.291,105.304 168.291,105.304L138.957,75.97L151.685,63.242Z" style="fill:rgb(240,220,10);fill-rule:nonzero;"/>
    </g>
    <g transform="matrix(0.2504,0,0,0.2504,5.64048,6.12907)">
        <path d="M138.957,134.638L168.316,105.279C168.316,105.279 167.584,110.253 169.564,114.638C171.827,120.153 176.233,122.818 176.233,122.818L151.685,147.366L138.957,134.638Z" style="fill:rgb(240,220,10);fill-rule:nonzero;"/>
    </g>
    <g transform="matrix(-0.17706,0.17706,-0.17706,-0.17706,104.546,18.7822)">
        <ellipse cx="187.03" cy="107.071" rx="15" ry="14.5" style="fill:rgb(239,243,9);"/>
    </g>
    <g transform="matrix(0.2504,0,0,0.2504,5.64048,6.12907)">
        <path d="M62.59,58.27L89.689,31.171C89.689,31.171 91.217,34.593 94.752,37.421C99.453,41.267 104.652,41.664 104.652,41.664L75.318,70.998L62.59,58.27Z" style="fill:rgb(255,153,0);fill-rule:nonzero;"/>
    </g>
    <g transform="matrix(0.2504,0,0,0.2504,5.64048,6.12907)">
        <path d="M133.986,70.998L104.627,41.639C104.627,41.639 109.602,42.371 113.986,40.391C119.501,38.128 122.167,33.723 122.167,33.723L146.714,58.27L133.986,70.998Z" style="fill:rgb(255,153,0);fill-rule:nonzero;"/>
    </g>
    <g transform="matrix(0.17706,0.17706,-0.17706,0.17706,17.5046,-11.0322)">
        <ellipse cx="106.42" cy="22.926" rx="15" ry="14.5" style="fill:rgb(255,187,85);"/>
    </g>
    <g transform="matrix(2.87889,0,0,2.87889,-119.697,-105.209)">
        <text x="63.427px" y="52.37px" style="font-family:'Roboto-Bold', 'Roboto';font-weight:700;font-size:12px;fill:rgb(77,200,210);">NeatMeet</text>
    </g>
</svg>
