<?xml version="1.0" encoding="UTF-8" standalone="no"?>
<!DOCTYPE svg PUBLIC "-//W3C//DTD SVG 1.1//EN" "http://www.w3.org/Graphics/SVG/1.1/DTD/svg11.dtd">
<svg width="100%" height="100%" viewBox="0 0 224 64" version="1.1" xmlns="http://www.w3.org/2000/svg" xmlns:xlink="http://www.w3.org/1999/xlink" xml:space="preserve" xmlns:serif="http://www.serif.com/" style="fill-rule:evenodd;clip-rule:evenodd;">
    <g transform="matrix(2.87889,0,0,2.87889,62.9024,45.5585)">
        <path d="M7.693,0L5.988,0L2.543,-5.83L2.508,-5.824L2.508,0L0.797,0L0.797,-8.531L2.508,-8.531L5.953,-2.707L5.988,-2.713L5.988,-8.531L7.693,-8.531L7.693,0Z" style="fill:rgb(17,17,17);fill-rule:nonzero;"/>
        <path d="M11.959,0.123C11.045,0.123 10.314,-0.17 9.768,-0.756C9.221,-1.342 8.947,-2.086 8.947,-2.988L8.947,-3.223C8.947,-4.164 9.206,-4.939 9.724,-5.549C10.241,-6.158 10.936,-6.461 11.807,-6.457C12.662,-6.457 13.326,-6.199 13.799,-5.684C14.271,-5.168 14.508,-4.471 14.508,-3.592L14.508,-2.66L10.723,-2.66L10.711,-2.625C10.742,-2.207 10.882,-1.863 11.13,-1.594C11.378,-1.324 11.715,-1.189 12.141,-1.189C12.52,-1.189 12.834,-1.228 13.084,-1.304C13.334,-1.38 13.607,-1.5 13.904,-1.664L14.367,-0.609C14.109,-0.398 13.771,-0.224 13.354,-0.085C12.936,0.054 12.471,0.123 11.959,0.123ZM11.807,-5.139C11.49,-5.139 11.24,-5.018 11.057,-4.775C10.873,-4.533 10.76,-4.215 10.717,-3.82L10.734,-3.791L12.832,-3.791L12.832,-3.943C12.832,-4.307 12.747,-4.597 12.577,-4.813C12.407,-5.03 12.15,-5.139 11.807,-5.139Z" style="fill:rgb(17,17,17);fill-rule:nonzero;"/>
        <path d="M19.225,0C19.162,-0.145 19.108,-0.297 19.063,-0.457C19.019,-0.617 18.986,-0.781 18.967,-0.949C18.791,-0.641 18.56,-0.385 18.272,-0.182C17.985,0.021 17.643,0.123 17.244,0.123C16.58,0.123 16.068,-0.048 15.709,-0.39C15.35,-0.731 15.17,-1.197 15.17,-1.787C15.17,-2.408 15.409,-2.89 15.888,-3.231C16.366,-3.573 17.064,-3.744 17.982,-3.744L18.938,-3.744L18.938,-4.248C18.938,-4.553 18.857,-4.789 18.697,-4.957C18.537,-5.125 18.301,-5.209 17.988,-5.209C17.711,-5.209 17.497,-5.142 17.347,-5.007C17.196,-4.872 17.121,-4.686 17.121,-4.447L15.469,-4.453L15.463,-4.488C15.436,-5.023 15.668,-5.485 16.16,-5.874C16.652,-6.263 17.299,-6.457 18.1,-6.457C18.857,-6.457 19.473,-6.265 19.945,-5.88C20.418,-5.495 20.654,-4.947 20.654,-4.236L20.654,-1.617C20.654,-1.32 20.677,-1.041 20.722,-0.779C20.767,-0.518 20.838,-0.258 20.936,0L19.225,0ZM17.66,-1.143C17.961,-1.143 18.229,-1.217 18.463,-1.365C18.697,-1.514 18.855,-1.686 18.938,-1.881L18.938,-2.777L17.982,-2.777C17.619,-2.777 17.344,-2.687 17.156,-2.505C16.969,-2.323 16.875,-2.104 16.875,-1.846C16.875,-1.635 16.945,-1.465 17.086,-1.336C17.227,-1.207 17.418,-1.143 17.66,-1.143Z" style="fill:rgb(17,17,17);fill-rule:nonzero;"/>
        <path d="M23.982,-7.893L23.982,-6.34L25.049,-6.34L25.049,-5.139L23.982,-5.139L23.982,-1.91C23.982,-1.664 24.033,-1.488 24.135,-1.383C24.236,-1.277 24.373,-1.225 24.545,-1.225C24.635,-1.225 24.712,-1.229 24.776,-1.239C24.841,-1.249 24.916,-1.266 25.002,-1.289L25.148,-0.053C24.977,0.006 24.809,0.05 24.645,0.079C24.48,0.108 24.303,0.123 24.111,0.123C23.521,0.123 23.067,-0.039 22.749,-0.363C22.431,-0.688 22.271,-1.201 22.271,-1.904L22.271,-5.139L21.346,-5.139L21.346,-6.34L22.271,-6.34L22.271,-7.893L23.982,-7.893Z" style="fill:rgb(17,17,17);fill-rule:nonzero;"/>
        <path d="M28.512,-8.531L30.686,-2.244L30.721,-2.244L32.912,-8.531L35.15,-8.531L35.15,0L33.439,0L33.439,-2.543L33.604,-6.311L33.568,-6.316L31.283,0L30.135,0L27.861,-6.293L27.826,-6.287L27.99,-2.543L27.99,0L26.279,0L26.279,-8.531L28.512,-8.531Z" style="fill:rgb(17,17,17);fill-rule:nonzero;"/>
        <path d="M39.416,0.123C38.502,0.123 37.771,-0.17 37.225,-0.756C36.678,-1.342 36.404,-2.086 36.404,-2.988L36.404,-3.223C36.404,-4.164 36.663,-4.939 37.181,-5.549C37.698,-6.158 38.393,-6.461 39.264,-6.457C40.119,-6.457 40.783,-6.199 41.256,-5.684C41.729,-5.168 41.965,-4.471 41.965,-3.592L41.965,-2.66L38.18,-2.66L38.168,-2.625C38.199,-2.207 38.339,-1.863 38.587,-1.594C38.835,-1.324 39.172,-1.189 39.598,-1.189C39.977,-1.189 40.291,-1.228 40.541,-1.304C40.791,-1.38 41.064,-1.5 41.361,-1.664L41.824,-0.609C41.566,-0.398 41.229,-0.224 40.811,-0.085C40.393,0.054 39.928,0.123 39.416,0.123ZM39.264,-5.139C38.947,-5.139 38.697,-5.018 38.514,-4.775C38.33,-4.533 38.217,-4.215 38.174,-3.82L38.191,-3.791L40.289,-3.791L40.289,-3.943C40.289,-4.307 40.204,-4.597 40.034,-4.813C39.864,-5.03 39.607,-5.139 39.264,-5.139Z" style="fill:rgb(17,17,17);fill-rule:nonzero;"/>
        <path d="M45.768,0.123C44.854,0.123 44.123,-0.17 43.576,-0.756C43.029,-1.342 42.756,-2.086 42.756,-2.988L42.756,-3.223C42.756,-4.164 43.015,-4.939 43.532,-5.549C44.05,-6.158 44.744,-6.461 45.615,-6.457C46.471,-6.457 47.135,-6.199 47.607,-5.684C48.08,-5.168 48.316,-4.471 48.316,-3.592L48.316,-2.66L44.531,-2.66L44.52,-2.625C44.551,-2.207 44.69,-1.863 44.938,-1.594C45.187,-1.324 45.523,-1.189 45.949,-1.189C46.328,-1.189 46.643,-1.228 46.893,-1.304C47.143,-1.38 47.416,-1.5 47.713,-1.664L48.176,-0.609C47.918,-0.398 47.58,-0.224 47.162,-0.085C46.744,0.054 46.279,0.123 45.768,0.123ZM45.615,-5.139C45.299,-5.139 45.049,-5.018 44.865,-4.775C44.682,-4.533 44.568,-4.215 44.525,-3.82L44.543,-3.791L46.641,-3.791L46.641,-3.943C46.641,-4.307 46.556,-4.597 46.386,-4.813C46.216,-5.03 45.959,-5.139 45.615,-5.139Z" style="fill:rgb(17,17,17);fill-rule:nonzero;"/>
        <path d="M51.346,-7.893L51.346,-6.34L52.412,-6.34L52.412,-5.139L51.346,-5.139L51.346,-1.91C51.346,-1.664 51.396,-1.488 51.498,-1.383C51.6,-1.277 51.736,-1.225 51.908,-1.225C51.998,-1.225 52.075,-1.229 52.14,-1.239C52.204,-1.249 52.279,-1.266 52.365,-1.289L52.512,-0.053C52.34,0.006 52.172,0.05 52.008,0.079C51.844,0.108 51.666,0.123 51.475,0.123C50.885,0.123 50.431,-0.039 50.112,-0.363C49.794,-0.688 49.635,-1.201 49.635,-1.904L49.635,-5.139L48.709,-5.139L48.709,-6.34L49.635,-6.34L49.635,-7.893L51.346,-7.893Z" style="fill:rgb(17,17,17);fill-rule:nonzero;"/>
    </g>
    <g transform="matrix(0.0710436,0,0,0.0710436,31.9341,32)">
        <g transform="matrix(1,0,0,1,-449.5,-450)">
            <clipPath id="_clip1">
                <rect x="0" y="0" width="899" height="900"/>
            </clipPath>
            <g clip-path="url(#_clip1)">
                <circle cx="449.15" cy="450.15" r="277" style="fill:none;stroke:white;stroke-width:92.3px;"/>
                <path d="M723.466,621.207C694.466,667.695 654.125,706.049 606.232,732.665C558.34,759.282 504.467,773.288 449.676,773.368C394.884,773.447 340.971,759.598 293.001,733.121C291.278,732.17 287.971,730.229 287.971,730.229C287.971,730.229 294.902,707.827 291.682,667.327C289.137,635.327 278.533,605.735 278.533,605.725C295.481,624.314 315.414,640.078 337.598,652.322C371.873,671.24 410.393,681.135 449.541,681.078C488.69,681.021 527.181,671.014 561.4,651.997C650.299,602.591 723.466,621.207 723.466,621.207Z" style="fill:rgb(228,138,224);fill-rule:nonzero;"/>
                <g transform="matrix(-1,7.65714e-16,-7.65714e-16,-1,899.658,1347.28)">
                    <ellipse cx="449.829" cy="673.639" rx="83.505" ry="80.721" style="fill:rgb(235,101,229);"/>
                </g>
                <path d="M278.156,724.466C231.668,695.466 193.314,655.125 166.697,607.232C140.081,559.34 126.075,505.467 125.995,450.676C125.916,395.884 139.765,341.971 166.242,294.001C167.193,292.278 169.134,288.971 169.134,288.971C169.134,288.971 191.536,295.902 232.036,292.682C264.036,290.137 293.628,279.533 293.637,279.533C275.049,296.481 259.285,316.415 247.04,338.598C228.123,372.873 218.228,411.393 218.285,450.541C218.341,489.69 228.349,528.181 247.366,562.4C296.772,651.299 278.156,724.466 278.156,724.466Z" style="fill:rgb(240,220,10);fill-rule:nonzero;"/>
                <g transform="matrix(-3.82857e-16,-1,1,-3.82857e-16,-225.105,676.553)">
                    <ellipse cx="225.724" cy="450.829" rx="83.505" ry="80.721" style="fill:rgb(239,243,9);"/>
                </g>
                <path d="M174.936,279.12C203.936,232.632 244.277,194.278 292.17,167.662C340.062,141.045 393.934,127.039 448.726,126.96C503.518,126.88 557.431,140.729 605.401,167.206C607.124,168.157 610.431,170.098 610.431,170.098C610.431,170.098 603.5,192.5 606.72,233C609.264,265 619.868,294.592 619.869,294.602C602.921,276.014 582.987,260.249 560.803,248.005C526.529,229.087 488.009,219.192 448.86,219.249C409.712,219.306 371.22,229.313 337.001,248.33C248.102,297.736 174.936,279.12 174.936,279.12Z" style="fill:rgb(255,153,0);fill-rule:nonzero;"/>
                <ellipse cx="448.572" cy="226.688" rx="83.505" ry="80.721" style="fill:rgb(255,187,85);"/>
                <path d="M620.207,175.897C666.695,204.897 705.049,245.238 731.665,293.131C758.282,341.024 772.288,394.896 772.368,449.688C772.447,504.479 758.598,558.392 732.121,606.362C731.17,608.085 729.229,611.392 729.229,611.392C729.229,611.392 706.827,604.461 666.327,607.682C634.327,610.226 604.735,620.83 604.725,620.83C623.314,603.883 639.078,583.949 651.322,561.765C670.24,527.491 680.135,488.97 680.078,449.822C680.021,410.673 670.014,372.182 650.997,337.963C601.591,249.064 620.207,175.897 620.207,175.897Z" style="fill:rgb(150,202,44);fill-rule:nonzero;"/>
                <g transform="matrix(-3.82857e-16,1,-1,-3.82857e-16,1122.18,-223.109)">
                    <ellipse cx="672.642" cy="449.533" rx="83.505" ry="80.721" style="fill:rgb(180,230,84);"/>
                </g>
                <path d="M723.334,621.144C694.331,667.63 653.988,705.981 606.094,732.595L561.267,651.924C650.169,602.523 723.334,621.144 723.334,621.144Z" style="fill:rgb(228,138,224);fill-rule:nonzero;"/>
            </g>
        </g>
    </g>
</svg>
